<?xml version="1.0" encoding="UTF-8" standalone="no"?>
<!-- Uploaded to: SVG Repo, www.svgrepo.com, Generator: SVG Repo Mixer Tools -->

<svg
   height="800px"
   width="800px"
   version="1.1"
   id="Layer_1"
   viewBox="0 0 496 496"
   xml:space="preserve"
   sodipodi:docname="reddit.svg"
   inkscape:version="1.2.2 (b0a8486541, 2022-12-01)"
   xmlns:inkscape="http://www.inkscape.org/namespaces/inkscape"
   xmlns:sodipodi="http://sodipodi.sourceforge.net/DTD/sodipodi-0.dtd"
   xmlns="http://www.w3.org/2000/svg"
   xmlns:svg="http://www.w3.org/2000/svg"><defs
   id="defs15" /><sodipodi:namedview
   id="namedview13"
   pagecolor="#ffffff"
   bordercolor="#000000"
   borderopacity="0.25"
   inkscape:showpageshadow="2"
   inkscape:pageopacity="0.0"
   inkscape:pagecheckerboard="0"
   inkscape:deskcolor="#d1d1d1"
   showgrid="false"
   inkscape:zoom="0.479375"
   inkscape:cx="368.18774"
   inkscape:cy="462.05997"
   inkscape:window-width="1920"
   inkscape:window-height="1003"
   inkscape:window-x="0"
   inkscape:window-y="0"
   inkscape:window-maximized="1"
   inkscape:current-layer="Layer_1" />
<circle
   style="opacity:1;fill:#f2f2f2;fill-opacity:1;stroke:none;stroke-width:2.96633;stroke-linecap:round;stroke-linejoin:round;paint-order:stroke fill markers"
   id="path2166"
   cx="248.84369"
   cy="248.64664"
   r="248" /><path
   style="fill:#f8571d;stroke-width:0.862405"
   d="m 411.36077,189.91464 c -12.432,0 -23.87,4.23636 -32.851,11.27429 -31.808,-19.23702 -72.177,-30.84451 -115.43,-33.28568 l 22.568,-68.679345 62.02,14.048665 c 1.631,21.73939 20.51,38.94323 43.491,38.94323 24.045,0 43.624,-18.83582 43.624,-41.9964 0,-23.140179 -19.579,-41.982799 -43.624,-41.982799 -16.807,0 -31.43,9.213912 -38.717,22.670983 l -72.072,-16.326644 c -6.034,-1.373587 -12.131,1.971981 -14.014,7.670327 l -28.021,85.237183 c -46.613,1.10839 -90.44,12.73628 -124.579,33.08848 -8.855,-6.65713 -19.984998,-10.66229 -32.059998,-10.66229 -28.763,0 -52.171,22.52818 -52.171,50.21072 0,17.12223 8.946,32.24529 22.589,41.3028 -0.574,3.98476 -0.868,7.98312 -0.868,12.05629 0,34.60486 20.895,66.78896 58.848998,90.62953 36.372,22.85458 84.532,35.43446 135.555,35.43446 51.03,0 99.176,-12.57988 135.555,-35.43446 37.94,-23.84057 58.849,-56.02467 58.849,-90.62953 0,-3.69237 -0.266,-7.37113 -0.728,-11.0227 14.525,-8.90791 24.199,-24.54776 24.199,-42.33639 0,-27.68254 -23.394,-50.21072 -52.164,-50.21072 z m -20.202,-98.871057 c 10.99,0 19.929,8.615517 19.929,19.169017 0,10.5807 -8.939,19.16902 -19.929,19.16902 -10.99,0 -19.922,-8.59512 -19.922,-19.16902 -0.007,-10.5535 8.932,-19.169017 19.922,-19.169017 z m -238.567,180.150677 c 0,-15.60585 13.608,-28.69573 29.82,-28.69573 16.212,0 29.372,13.08988 29.372,28.69573 0,15.60585 -13.16,28.27413 -29.372,28.27413 -16.212,0 -29.82,-12.66828 -29.82,-28.27413 z m 165.382,83.1496 c -15.113,14.51786 -38.409,21.583 -71.225,21.583 -0.077,0 -0.147,-0.0136 -0.231,-0.0136 -0.084,0 -0.147,0.0136 -0.231,0.0136 -32.823,0 -56.112,-7.06514 -71.204,-21.583 -4.641,-4.46075 -4.641,-11.68908 0,-16.13624 4.62,-4.44716 12.124,-4.44716 16.765,0 10.423,10.0299 28.231,14.91226 54.439,14.91226 0.084,0 0.147,0.0136 0.231,0.0136 0.084,0 0.154,-0.0136 0.231,-0.0136 26.208,0 44.03,-4.88916 54.467,-14.91226 4.634,-4.46076 12.131,-4.44716 16.758,0 4.627,4.46076 4.627,11.68909 0,16.13624 z m -6.881,-54.87547 c -16.219,0 -29.855,-12.66828 -29.855,-28.27413 0,-15.61945 13.629,-28.69573 29.855,-28.69573 16.226,0 29.379,13.07628 29.379,28.69573 0,15.60585 -13.16,28.27413 -29.379,28.27413 z"
   id="path2" />


</svg>
