<?xml version="1.0" encoding="UTF-8" standalone="no"?>
<!-- Created with Inkscape (http://www.inkscape.org/) -->

<svg
   version="1.1"
   id="svg815"
   xml:space="preserve"
   width="1066.6667"
   height="1066.6667"
   viewBox="0 0 1066.6667 1066.6667"
   sodipodi:docname="aries.svg"
   inkscape:version="1.2.1 (9c6d41e410, 2022-07-14)"
   xmlns:inkscape="http://www.inkscape.org/namespaces/inkscape"
   xmlns:sodipodi="http://sodipodi.sourceforge.net/DTD/sodipodi-0.dtd"
   xmlns="http://www.w3.org/2000/svg"
   xmlns:svg="http://www.w3.org/2000/svg"
   xmlns:rdf="http://www.w3.org/1999/02/22-rdf-syntax-ns#"
   xmlns:cc="http://creativecommons.org/ns#"
   xmlns:dc="http://purl.org/dc/elements/1.1/"><metadata
     id="metadata821"><rdf:RDF><cc:Work
         rdf:about=""><dc:format>image/svg+xml</dc:format><dc:type
           rdf:resource="http://purl.org/dc/dcmitype/StillImage" /><dc:title /></cc:Work></rdf:RDF></metadata><defs
     id="defs819"><clipPath
       clipPathUnits="userSpaceOnUse"
       id="clipPath831-3"><path
         d="M 0,800 H 800 V 0 H 0 Z"
         id="path829-6"
         inkscape:connector-curvature="0" /></clipPath><clipPath
       clipPathUnits="userSpaceOnUse"
       id="clipPath3619"><g
         id="g3623"
         transform="translate(0,-2.877636e-5)"><path
           d="M 0,800 H 800 V 0 H 0 Z"
           id="path3621"
           inkscape:connector-curvature="0" /></g></clipPath><clipPath
       clipPathUnits="userSpaceOnUse"
       id="clipPath831-3-6"><path
         d="M 0,800 H 800 V 0 H 0 Z"
         id="path829-6-0"
         inkscape:connector-curvature="0" /></clipPath></defs><sodipodi:namedview
     pagecolor="#ffffff"
     bordercolor="#666666"
     borderopacity="1"
     objecttolerance="10"
     gridtolerance="10"
     guidetolerance="10"
     inkscape:pageopacity="0"
     inkscape:pageshadow="2"
     inkscape:window-width="1920"
     inkscape:window-height="1003"
     id="namedview817"
     showgrid="false"
     inkscape:zoom="0.79593744"
     inkscape:cx="478.05265"
     inkscape:cy="540.87165"
     inkscape:window-x="0"
     inkscape:window-y="0"
     inkscape:window-maximized="1"
     inkscape:current-layer="aries"
     inkscape:showpageshadow="2"
     inkscape:pagecheckerboard="0"
     inkscape:deskcolor="#d1d1d1" /><g
     id="aries"
     inkscape:groupmode="layer"
     inkscape:label="aries"
     transform="matrix(1.3333333,0,0,-1.3333333,0,1066.6667)"><g
       id="level11"
       transform="matrix(1,0,0,1.0022205,-0.24401726,-1.529141)"
       style="fill:#782121;fill-opacity:1;stroke:none;stroke-width:3.9219;stroke-linecap:round;stroke-linejoin:round;stroke-dasharray:none;stroke-opacity:1;paint-order:stroke fill markers"><g
         id="level22"
         clip-path="url(#clipPath831-3-6)"
         style="fill:#782121;fill-opacity:1;stroke:none;stroke-width:3.9219;stroke-linecap:round;stroke-linejoin:round;stroke-dasharray:none;stroke-opacity:1;paint-order:stroke fill markers"><path
           d="m 443.474,507.287 -39.079,21.789 -39.353,-23.142 c 22.609,-13.345 32.537,-54.481 39.159,-91.077 -0.032,-0.114 -0.068,-0.241 -0.109,-0.388 -0.144,-0.608 -0.41,-1.504 -0.644,-2.643 -0.526,-2.275 -1.17,-5.529 -1.734,-9.433 -0.233,-1.598 -0.45,-3.329 -0.654,-5.122 -0.293,-2.587 -0.554,-5.333 -0.751,-8.216 -0.172,-2.439 -0.311,-4.961 -0.385,-7.523 -0.104,-2.56 -0.118,-5.165 -0.143,-7.766 0.025,-2.601 0.032,-5.205 0.135,-7.766 0.067,-2.562 0.217,-5.082 0.38,-7.522 0.334,-4.88 0.835,-9.435 1.405,-13.338 0.57,-3.905 1.212,-7.157 1.742,-9.433 0.235,-1.139 0.501,-2.034 0.649,-2.644 0.172,-0.61 0.262,-0.935 0.262,-0.935 0,0 0.09,0.325 0.264,0.935 0.147,0.61 0.413,1.505 0.646,2.644 0.53,2.276 1.175,5.528 1.742,9.433 0.573,3.903 1.073,8.458 1.406,13.338 0.163,2.44 0.314,4.96 0.381,7.522 0.102,2.561 0.109,5.165 0.136,7.766 -0.027,2.601 -0.04,5.206 -0.144,7.766 -0.076,2.562 -0.214,5.084 -0.386,7.523 -0.196,2.861 -0.454,5.589 -0.745,8.162 -0.206,1.813 -0.425,3.56 -0.661,5.176 -0.563,3.904 -1.208,7.158 -1.733,9.433 -0.232,1.139 -0.499,2.035 -0.643,2.643 -0.071,0.251 -0.124,0.44 -0.167,0.593 0.133,0.839 0.267,1.678 0.399,2.513 5.848,36.933 11.884,75.046 38.625,89.712 m 83.594,-23.171 c -8.539,-1.771 -12.064,-6.373 -12.673,-7.258 -0.589,-1.388 -1.329,-3.451 -1.997,-5.84 l 0.228,-0.21 c 0.917,-0.844 1.783,-1.783 2.622,-2.767 l 0.195,0.467 c 22.114,7.936 44.362,2.382 60.632,-10.781 -9.186,-4.834 -32.764,-11.344 -52.67,-4.635 0.408,-1.178 0.793,-2.405 1.156,-3.666 29.332,-5.004 43.854,0.63 63.837,13.69 -31.782,21.171 -50.837,23.178 -61.33,21 m 40.681,-95.037 c -1.153,1.101 -1.896,1.868 -1.896,1.868 l -8.033,-6.804 c 0,-10e-4 0.733,-0.983 1.894,-2.416 1.151,-1.444 2.786,-3.29 4.496,-5.081 0.876,-0.875 1.754,-1.748 2.617,-2.528 0.828,-0.79 1.711,-1.532 2.44,-2.164 0.742,-0.641 1.242,-1.024 1.645,-1.365 0.387,-0.318 0.609,-0.501 0.609,-0.501 l 7.502,10.19 c 0,0 -0.238,0.159 -0.657,0.434 -0.393,0.265 -1.075,0.692 -1.675,1.118 -0.616,0.436 -1.329,0.904 -2.123,1.519 -0.798,0.577 -1.613,1.243 -2.44,1.897 -1.638,1.328 -3.235,2.723 -4.379,3.833 m -12.52,15.316 c 0,0 -0.583,0.99 -1.46,2.474 -0.418,0.735 -0.998,1.631 -1.419,2.508 -0.475,0.898 -0.981,1.854 -1.485,2.812 -0.268,0.473 -0.471,0.997 -0.707,1.487 -0.227,0.496 -0.453,0.987 -0.67,1.459 -0.448,0.949 -0.846,1.842 -1.145,2.624 -0.638,1.559 -1.062,2.6 -1.062,2.6 l -3.583,-0.85 c 0,0 0.167,-1.17 0.416,-2.926 0.11,-0.887 0.277,-1.913 0.539,-2.991 0.118,-0.545 0.242,-1.107 0.366,-1.678 0.136,-0.575 0.227,-1.158 0.406,-1.74 0.336,-1.171 0.674,-2.342 0.989,-3.438 0.314,-1.139 0.673,-2.017 0.953,-2.851 0.575,-1.624 0.958,-2.709 0.958,-2.709 z M 277,445.988 c -0.016,1.023 -0.029,2.023 -0.044,3.004 -19.362,-4.192 -40.65,2.836 -49.131,7.787 16.701,12.339 38.953,16.918 60.537,8.293 l 3.925,2.399 c -0.204,0.957 -0.418,1.863 -0.618,2.69 -0.835,1.333 -4.91,7.062 -14.615,9.58 -10.642,2.759 -29.809,1.907 -61.302,-17.037 18.965,-13.622 33.019,-19.917 61.248,-16.716 m -16.797,-26.479 -3.581,0.85 c 0,0 -0.426,-1.041 -1.064,-2.6 -0.299,-0.782 -0.696,-1.675 -1.143,-2.624 -0.219,-0.472 -0.443,-0.963 -0.67,-1.459 -0.239,-0.489 -0.44,-1.014 -0.708,-1.487 -0.506,-0.958 -1.011,-1.914 -1.481,-2.812 -0.425,-0.877 -1.004,-1.773 -1.423,-2.508 -0.875,-1.484 -1.46,-2.473 -1.46,-2.473 l 6.905,-3.22 c 0,0 0.382,1.085 0.956,2.709 0.279,0.834 0.641,1.712 0.954,2.851 0.315,1.098 0.653,2.267 0.989,3.438 0.178,0.582 0.269,1.165 0.406,1.74 0.124,0.571 0.248,1.133 0.367,1.678 0.26,1.078 0.427,2.104 0.536,2.992 0.251,1.755 0.417,2.925 0.417,2.925 m -14.121,-35.366 -8.032,6.804 c 0,0 -0.743,-0.767 -1.897,-1.868 -1.143,-1.11 -2.742,-2.505 -4.38,-3.833 -0.828,-0.654 -1.641,-1.319 -2.44,-1.897 -0.794,-0.615 -1.507,-1.083 -2.122,-1.519 -0.601,-0.425 -1.282,-0.853 -1.676,-1.118 -0.418,-0.275 -0.658,-0.434 -0.658,-0.434 l 7.504,-10.19 c 0,0 0.223,0.183 0.611,0.501 0.404,0.341 0.901,0.724 1.642,1.366 0.73,0.631 1.613,1.373 2.44,2.163 0.864,0.78 1.741,1.653 2.617,2.528 1.711,1.791 3.345,3.637 4.496,5.081 1.162,1.433 1.895,2.415 1.895,2.416 M 299.8,546.33 c 0,0 -0.718,0.983 -1.797,2.459 -0.548,0.731 -1.169,1.601 -1.924,2.462 -0.738,0.878 -1.524,1.814 -2.31,2.749 -0.842,0.925 -1.722,1.842 -2.532,2.705 -0.406,0.418 -0.821,0.862 -1.179,1.203 -0.36,0.338 -0.698,0.655 -1.012,0.948 -1.252,1.171 -2.086,1.952 -2.086,1.952 l -7.962,-8.827 c 0,0 0.864,-0.749 2.159,-1.874 0.323,-0.281 0.676,-0.586 1.046,-0.906 0.367,-0.323 0.658,-0.638 1.016,-0.971 0.701,-0.661 1.448,-1.366 2.195,-2.069 0.734,-0.773 1.468,-1.545 2.157,-2.27 0.709,-0.707 1.293,-1.439 1.817,-2.044 1.058,-1.208 1.761,-2.015 1.761,-2.015 z m -21.737,70.782 c 1.614,-0.539 2.69,-0.898 2.69,-0.898 l 6.207,19.523 c 0,0 -1.084,0.327 -2.711,0.821 -0.409,0.123 -0.85,0.255 -1.314,0.397 -0.448,0.141 -1.043,0.291 -1.589,0.445 -1.123,0.306 -2.324,0.634 -3.523,0.959 -2.347,0.562 -4.682,1.162 -6.456,1.51 -1.769,0.374 -2.947,0.624 -2.947,0.624 l -4.126,-19.535 c 0,0 1.034,-0.25 2.584,-0.627 1.556,-0.348 3.598,-0.943 5.649,-1.492 0.979,-0.298 1.96,-0.596 2.88,-0.876 0.472,-0.145 0.876,-0.253 1.354,-0.417 0.462,-0.154 0.9,-0.3 1.302,-0.434 m -7.299,-45.06 c 0,0 -1.096,0.544 -2.738,1.358 -0.822,0.406 -1.772,0.898 -2.83,1.334 -1.05,0.453 -2.171,0.935 -3.291,1.417 -1.177,0.426 -2.356,0.858 -3.459,1.258 -0.545,0.19 -1.106,0.41 -1.573,0.552 -0.471,0.144 -0.916,0.28 -1.325,0.406 -1.643,0.504 -2.736,0.839 -2.736,0.839 l -3.641,-11.127 c 0,0 1.08,-0.375 2.703,-0.94 0.405,-0.14 0.843,-0.291 1.309,-0.453 0.467,-0.161 0.86,-0.346 1.322,-0.527 0.899,-0.367 1.858,-0.757 2.815,-1.148 0.974,-0.438 1.949,-0.878 2.862,-1.29 0.922,-0.388 1.744,-0.832 2.457,-1.193 1.421,-0.727 2.372,-1.212 2.372,-1.212 z m -23.118,51.723 1.571,19.379 c 0,0 -1.131,0.076 -2.828,0.19 -0.423,0.028 -0.883,0.058 -1.369,0.091 -0.467,0.036 -1.074,0.049 -1.639,0.076 -1.159,0.047 -2.395,0.093 -3.63,0.143 -2.408,0.02 -4.81,0.079 -6.615,0.02 -1.803,-0.034 -3.006,-0.057 -3.006,-0.057 l 0.365,-18.919 c 0,0 1.066,-0.011 2.662,-0.029 1.599,0.013 3.731,-0.111 5.857,-0.184 1.028,-0.07 2.058,-0.14 3.02,-0.207 0.497,-0.036 0.919,-0.049 1.423,-0.103 0.484,-0.046 0.945,-0.09 1.366,-0.129 1.693,-0.163 2.823,-0.271 2.823,-0.271 M 233.6,582.412 c 0,0 -1.24,0.013 -3.1,0.031 -1.846,-0.002 -4.308,-0.003 -6.772,-0.004 -0.602,-0.013 -1.148,-0.11 -1.716,-0.165 -0.56,-0.06 -1.111,-0.124 -1.645,-0.185 -1.07,-0.12 -2.066,-0.232 -2.92,-0.328 -1.708,-0.199 -2.846,-0.331 -2.846,-0.331 l 0.383,-8.208 c 0,0 1.144,-0.027 2.864,-0.069 0.86,-0.019 1.863,-0.04 2.937,-0.062 0.538,-0.011 1.094,-0.023 1.655,-0.036 0.557,-0.02 1.154,-0.002 1.694,-0.051 2.105,-0.245 4.211,-0.493 5.788,-0.676 1.569,-0.165 2.612,-0.273 2.612,-0.273 z m -19.952,41.234 -2.826,18.183 c 0,0 -1.116,-0.19 -2.794,-0.475 -0.42,-0.071 -0.874,-0.148 -1.354,-0.23 -0.459,-0.07 -1.058,-0.206 -1.614,-0.311 -1.141,-0.23 -2.357,-0.475 -3.574,-0.72 -2.353,-0.559 -4.709,-1.072 -6.452,-1.575 -1.749,-0.472 -2.916,-0.788 -2.916,-0.788 l 4.709,-17.247 c 0,0 1.031,0.247 2.577,0.617 1.537,0.398 3.632,0.782 5.703,1.218 1.013,0.173 2.024,0.349 2.973,0.51 0.49,0.081 0.896,0.17 1.402,0.233 0.482,0.068 0.939,0.131 1.359,0.192 z m -15.793,-52.594 -1.747,4.596 c 0,0 -1.072,-0.561 -2.64,-1.443 -0.765,-0.491 -1.686,-0.986 -2.596,-1.664 -0.925,-0.648 -1.885,-1.366 -2.794,-2.155 -0.469,-0.367 -0.909,-0.779 -1.33,-1.192 -0.417,-0.418 -0.864,-0.776 -1.22,-1.218 -0.739,-0.84 -1.408,-1.635 -1.908,-2.387 -0.249,-0.37 -0.511,-0.679 -0.67,-0.992 -0.171,-0.312 -0.32,-0.58 -0.442,-0.802 -0.244,-0.447 -0.383,-0.701 -0.383,-0.701 0,0 0.216,0.194 0.593,0.534 0.19,0.17 0.418,0.376 0.679,0.614 0.249,0.255 0.584,0.465 0.914,0.728 0.646,0.529 1.478,1.061 2.372,1.608 0.432,0.29 0.929,0.527 1.399,0.797 0.476,0.271 0.96,0.533 1.475,0.755 0.993,0.485 2.019,0.899 2.992,1.258 0.958,0.374 1.896,0.641 2.664,0.917 1.588,0.465 2.642,0.747 2.642,0.747 m -16.91,44.181 -7.178,15.804 c 0,0 -1.027,-0.483 -2.564,-1.209 -0.384,-0.182 -0.802,-0.377 -1.242,-0.586 -0.421,-0.189 -0.972,-0.491 -1.483,-0.747 -1.047,-0.543 -2.165,-1.12 -3.282,-1.698 -2.121,-1.215 -4.258,-2.376 -5.797,-3.38 -1.553,-0.969 -2.588,-1.617 -2.588,-1.617 l 9.015,-14.218 c 0,0 0.904,0.527 2.261,1.321 1.332,0.824 3.219,1.764 5.059,2.759 0.911,0.438 1.82,0.876 2.675,1.287 0.443,0.207 0.793,0.403 1.267,0.599 0.447,0.197 0.869,0.381 1.259,0.55 1.559,0.682 2.598,1.135 2.598,1.135 m -30.344,-16.463 -8.439,11.255 c 0,0 -3.395,-3.032 -6.792,-6.064 -3.412,-3.223 -6.825,-6.444 -6.825,-6.444 l 6.974,-8.436 c 0,0 3.677,2.438 7.353,4.875 3.864,2.407 7.729,4.814 7.729,4.814 m 145.616,10.962 c 0,0 0.94,-0.478 2.35,-1.195 1.423,-0.691 3.253,-1.739 5.105,-2.739 0.872,-0.512 1.742,-1.026 2.557,-1.504 0.421,-0.253 0.778,-0.442 1.205,-0.718 0.414,-0.259 0.803,-0.503 1.165,-0.73 1.438,-0.906 2.399,-1.509 2.399,-1.509 l 11.197,18.39 c 0,0 -0.978,0.575 -2.443,1.439 -0.366,0.215 -0.763,0.45 -1.185,0.697 -0.397,0.241 -0.949,0.533 -1.448,0.814 -1.034,0.569 -2.136,1.174 -3.239,1.781 -2.166,1.099 -4.314,2.236 -5.972,2.988 -1.647,0.776 -2.743,1.296 -2.743,1.296 z m 28.048,-18.325 c 0,0 0.784,-0.69 1.957,-1.725 1.197,-1.01 2.684,-2.475 4.208,-3.891 0.699,-0.707 1.4,-1.411 2.057,-2.072 0.339,-0.347 0.626,-0.608 0.972,-0.99 0.333,-0.355 0.645,-0.694 0.937,-1.005 1.159,-1.243 1.932,-2.072 1.932,-2.072 l 16.291,15.626 c 0,0 -0.797,0.807 -1.992,2.018 -0.298,0.303 -0.623,0.63 -0.965,0.977 -0.318,0.333 -0.792,0.766 -1.206,1.166 -0.865,0.824 -1.789,1.701 -2.711,2.581 -1.841,1.626 -3.645,3.282 -5.079,4.433 -1.413,1.174 -2.354,1.956 -2.354,1.956 z m 22.168,-24.678 c 0,0 0.568,-0.867 1.421,-2.168 0.879,-1.28 1.921,-3.082 3.004,-4.838 0.486,-0.86 0.969,-1.721 1.425,-2.527 0.233,-0.422 0.439,-0.747 0.673,-1.209 0.225,-0.432 0.439,-0.84 0.636,-1.219 0.788,-1.507 1.312,-2.511 1.312,-2.511 l 20.774,11.24 c 0,0 -0.557,0.99 -1.387,2.474 -0.207,0.37 -0.433,0.773 -0.67,1.197 -0.215,0.401 -0.559,0.949 -0.854,1.449 -0.619,1.028 -1.279,2.125 -1.94,3.221 -1.348,2.071 -2.654,4.155 -3.738,5.655 -1.059,1.514 -1.765,2.523 -1.765,2.523 z m -44.409,-43.586 c 0.388,-0.769 0.838,-1.666 1.322,-2.625 0.241,-0.48 0.494,-0.975 0.749,-1.48 0.245,-0.502 0.54,-1.018 0.749,-1.52 1.61,-3.995 3.353,-8.064 3.353,-8.064 l 5.646,1.484 c 0,0 -0.963,4.668 -2.063,9.412 -0.147,0.586 -0.343,1.103 -0.51,1.648 -0.175,0.539 -0.343,1.066 -0.508,1.579 -0.334,1.021 -0.645,1.975 -0.912,2.793 -0.545,1.631 -0.912,2.716 -0.912,2.716 l -8.179,-3.374 c 0,0 0.507,-1.027 1.265,-2.569 M 290.8,431.457 c 29.167,-1.899 63.672,-23.048 78.532,-45.144 -2.889,25.434 -13.467,61.617 -48.95,77.885 -15.237,-4.633 -25.274,-16.007 -29.582,-32.741 m 77.025,-73.453 c -0.846,5.465 -2.605,8.863 -5.252,10.063 -6.595,3 -19.655,-5.55 -31.177,-13.09 -3.504,-2.291 -6.932,-4.531 -10.203,-6.479 15.661,-9.327 29.297,-30.327 31.265,-61.16 l 0.12,0.187 c 5.811,21.436 15.969,50.344 15.247,70.479 M 300.868,343.166 C 311.38,322.6 328.645,283.923 337.482,263.89 l 9.104,14.256 c 0.446,35.848 -14.903,59.012 -31.827,66.869 -2.872,-1.36 -5.55,-2.304 -7.953,-2.606 -0.521,-0.064 -1.033,-0.096 -1.543,-0.096 -1.521,0 -2.994,0.288 -4.395,0.853 m 22.229,46.442 c 3.791,0 6.862,3.073 6.862,6.863 0,3.791 -3.071,6.863 -6.862,6.863 -3.789,0 -6.863,-3.072 -6.863,-6.863 0,-3.79 3.074,-6.863 6.863,-6.863 m -22.072,-39.403 c 1.558,-1.422 3.149,-1.976 5.021,-1.743 5.251,0.657 13.768,6.23 22.008,11.621 12.582,8.23 25.557,16.72 35.08,14.228 -1.893,2.546 -4.411,4.533 -7.701,5.814 -22.881,8.913 -29.868,-17.591 -34.826,-15.303 -3.245,1.498 -19.872,29.476 -30.964,48.617 -0.165,-18.267 1.558,-54.26 11.382,-63.234 m 77.232,-175.747 c 5.25,-11.526 14.135,-18.785 23.431,-19.017 0.153,-0.003 0.305,-0.006 0.454,-0.006 9.218,0 17.816,7.017 24.372,19.826 l -8.556,-0.142 -31.267,-0.52 z m 76.19,113.15 1.017,-1.681 c 2.19,32.829 18.266,54.351 32.782,63.913 -3.64,1.932 -7.508,4.274 -11.475,6.678 -11.786,7.139 -25.134,15.223 -32.021,11.966 -2.806,-1.334 -4.657,-4.872 -5.527,-10.485 -0.718,-20.107 9.412,-48.965 15.224,-70.391 m -16.718,98.977 c 14.956,22.839 48.673,42.272 78.345,40.795 -4.975,17.365 -16.077,32.487 -29.421,36.811 -35.386,-16.228 -46.004,-52.197 -48.924,-77.606 m 54.346,-1.806 c 3.789,0 6.862,3.073 6.862,6.864 0,3.79 -3.073,6.863 -6.862,6.863 -3.792,0 -6.864,-3.073 -6.864,-6.863 0,-3.791 3.072,-6.864 6.864,-6.864 m -40.46,-4.654 c -3.085,-1.202 -5.487,-3.03 -7.335,-5.352 9.698,2.67 22.875,-5.296 35.652,-13.038 5.139,-3.114 10.389,-6.29 14.846,-8.334 0.094,0.04 0.19,0.088 0.282,0.127 l 0.131,-0.313 c 2.306,-1.032 4.391,-1.75 6.117,-1.966 1.958,-0.239 3.628,0.328 5.245,1.805 10.31,9.402 11.671,47.697 11.316,63.734 -4.969,-16.538 -14.717,-47.586 -18.343,-49.261 -4.958,-2.288 -25.028,21.511 -47.911,12.598 m 53.878,-34.549 c -1.086,-0.317 -2.209,-0.48 -3.358,-0.48 -0.523,0 -1.052,0.034 -1.584,0.099 -1.731,0.218 -3.613,0.756 -5.607,1.521 -14.753,-7.791 -34.24,-31.943 -33.614,-70.5 l 6.623,-10.968 c 8.504,19.159 27.148,60.696 37.54,80.328 m -38.377,234.076 c 0,0 0.774,0.829 1.933,2.072 0.29,0.311 0.604,0.65 0.936,1.005 0.346,0.382 0.633,0.643 0.972,0.99 0.656,0.661 1.358,1.365 2.059,2.072 1.521,1.416 3.011,2.881 4.207,3.891 1.173,1.035 1.957,1.725 1.957,1.725 l -14.047,17.002 c 0,0 -0.942,-0.782 -2.355,-1.956 -1.432,-1.151 -3.237,-2.807 -5.077,-4.433 -0.924,-0.88 -1.847,-1.757 -2.713,-2.581 -0.415,-0.401 -0.888,-0.833 -1.206,-1.166 -0.343,-0.347 -0.666,-0.674 -0.965,-0.977 l -1.992,-2.018 z m -10.104,-12.923 -18.893,13.287 c 0,0 -0.704,-1.009 -1.764,-2.523 -1.084,-1.5 -2.389,-3.584 -3.738,-5.655 -0.66,-1.096 -1.321,-2.193 -1.94,-3.221 -0.295,-0.5 -0.638,-1.048 -0.855,-1.449 -0.235,-0.424 -0.463,-0.827 -0.67,-1.197 -0.83,-1.484 -1.383,-2.474 -1.383,-2.474 l 20.772,-11.24 c 0,0 0.523,1.004 1.312,2.511 0.196,0.379 0.411,0.787 0.636,1.219 0.234,0.462 0.44,0.787 0.671,1.209 0.457,0.806 0.941,1.667 1.426,2.527 1.083,1.756 2.127,3.558 3.005,4.838 0.852,1.301 1.421,2.168 1.421,2.168 m -14.821,-29.594 -22.671,8.287 c 0,0 -0.874,-2.417 -1.747,-4.832 l -1.43,-4.348 23.282,-7.303 c 0,0 0.654,2.192 1.308,4.387 0.63,1.906 1.258,3.809 1.258,3.809 m 39.059,82.592 11.196,-18.39 c 0,0 0.96,0.603 2.402,1.509 0.359,0.227 0.749,0.471 1.161,0.73 0.427,0.276 0.785,0.465 1.205,0.717 0.816,0.479 1.687,0.993 2.558,1.505 1.852,1 3.681,2.048 5.107,2.739 1.408,0.717 2.349,1.195 2.349,1.195 l -8.948,19.01 c 0,0 -1.097,-0.52 -2.743,-1.296 -1.659,-0.752 -3.806,-1.889 -5.974,-2.988 -1.101,-0.607 -2.204,-1.212 -3.237,-1.782 -0.499,-0.28 -1.052,-0.572 -1.45,-0.813 -0.419,-0.247 -0.816,-0.482 -1.184,-0.697 -1.464,-0.864 -2.442,-1.439 -2.442,-1.439 m 27.531,-70.938 c -1.077,-1.476 -1.796,-2.459 -1.796,-2.459 l 8.652,-6.498 c 0,0 0.705,0.807 1.761,2.016 0.526,0.604 1.107,1.336 1.818,2.043 0.687,0.725 1.424,1.497 2.158,2.27 0.746,0.703 1.491,1.408 2.192,2.069 0.359,0.333 0.652,0.648 1.019,0.971 0.37,0.32 0.721,0.625 1.044,0.906 1.296,1.125 2.159,1.874 2.159,1.874 l -7.96,8.828 c 0,0 -0.835,-0.782 -2.087,-1.953 -0.312,-0.293 -0.653,-0.61 -1.012,-0.948 -0.36,-0.341 -0.774,-0.784 -1.179,-1.203 -0.81,-0.863 -1.691,-1.78 -2.531,-2.705 -0.788,-0.935 -1.574,-1.871 -2.311,-2.749 -0.753,-0.861 -1.377,-1.731 -1.927,-2.462 m 7.701,86.948 6.21,-19.523 c 0,0 1.076,0.359 2.689,0.898 0.403,0.134 0.839,0.28 1.303,0.434 0.478,0.164 0.881,0.271 1.354,0.417 0.918,0.28 1.899,0.578 2.879,0.876 2.052,0.549 4.094,1.144 5.648,1.492 1.551,0.377 2.585,0.627 2.585,0.627 l -4.126,19.535 c 0,0 -1.177,-0.25 -2.948,-0.624 -1.773,-0.348 -4.108,-0.948 -6.455,-1.51 -1.2,-0.325 -2.398,-0.653 -3.524,-0.959 -0.546,-0.154 -1.138,-0.304 -1.586,-0.445 -0.466,-0.142 -0.907,-0.274 -1.315,-0.397 -1.628,-0.494 -2.714,-0.821 -2.714,-0.821 m 25.11,-60.993 c -1.06,-0.434 -2.01,-0.928 -2.832,-1.334 -1.642,-0.814 -2.737,-1.358 -2.737,-1.358 l 5.753,-10.726 c 0,0 0.949,0.485 2.373,1.212 0.712,0.361 1.535,0.805 2.457,1.193 0.913,0.412 1.886,0.852 2.86,1.29 0.959,0.391 1.917,0.781 2.815,1.148 0.462,0.181 0.857,0.366 1.323,0.527 0.466,0.162 0.903,0.313 1.308,0.453 1.622,0.566 2.702,0.94 2.702,0.94 l -3.639,11.127 c 0,0 -1.094,-0.335 -2.736,-0.839 -0.408,-0.126 -0.853,-0.262 -1.323,-0.406 -0.468,-0.142 -1.031,-0.361 -1.574,-0.552 -1.104,-0.4 -2.282,-0.83 -3.461,-1.258 -1.12,-0.482 -2.24,-0.964 -3.289,-1.417 m 12.634,68.41 1.571,-19.379 c 0,0 1.131,0.108 2.823,0.271 0.424,0.039 0.882,0.083 1.367,0.129 0.503,0.054 0.925,0.067 1.42,0.103 0.966,0.067 1.995,0.137 3.023,0.207 2.127,0.073 4.258,0.197 5.856,0.184 1.597,0.018 2.664,0.029 2.664,0.029 l 0.364,18.919 c 0,0 -1.203,0.023 -3.004,0.057 -1.806,0.059 -4.208,0 -6.618,-0.02 -1.234,-0.05 -2.47,-0.096 -3.629,-0.143 -0.565,-0.027 -1.172,-0.04 -1.638,-0.076 -0.486,-0.033 -0.946,-0.063 -1.37,-0.091 -1.698,-0.114 -2.829,-0.19 -2.829,-0.19 m 22.06,-60.711 c -1.859,-0.018 -3.099,-0.031 -3.099,-0.031 l 1.066,-10.357 c 0,0 1.044,0.108 2.61,0.273 1.579,0.183 3.685,0.431 5.79,0.676 0.538,0.049 1.136,0.031 1.693,0.051 0.564,0.013 1.12,0.025 1.656,0.036 1.074,0.022 2.077,0.043 2.936,0.062 1.719,0.042 2.866,0.069 2.866,0.069 l 0.382,8.208 c 0,0 -1.138,0.132 -2.847,0.331 -0.855,0.096 -1.851,0.208 -2.917,0.328 -0.535,0.061 -1.087,0.125 -1.649,0.185 -0.567,0.055 -1.112,0.152 -1.714,0.165 -2.462,0.001 -4.927,0.002 -6.773,0.004 m 13.509,41.203 2.807,-0.393 c 0.421,-0.061 0.878,-0.124 1.361,-0.192 0.506,-0.063 0.911,-0.152 1.401,-0.233 0.949,-0.161 1.961,-0.335 2.973,-0.51 2.072,-0.436 4.165,-0.82 5.702,-1.218 1.546,-0.37 2.577,-0.617 2.577,-0.617 l 4.71,17.248 c 0,0 -1.167,0.315 -2.917,0.787 -1.744,0.503 -4.098,1.016 -6.45,1.575 -1.216,0.245 -2.434,0.49 -3.574,0.72 -0.557,0.105 -1.157,0.241 -1.614,0.311 -0.482,0.082 -0.936,0.159 -1.355,0.23 -1.677,0.285 -2.796,0.475 -2.796,0.475 z m 20.884,-47.998 -1.748,-4.596 c 0,0 1.055,-0.282 2.644,-0.747 0.767,-0.276 1.705,-0.543 2.664,-0.917 0.971,-0.359 1.999,-0.773 2.991,-1.258 0.514,-0.222 0.999,-0.484 1.473,-0.755 0.472,-0.27 0.969,-0.507 1.4,-0.797 0.895,-0.547 1.727,-1.079 2.374,-1.608 0.33,-0.263 0.665,-0.473 0.912,-0.728 0.262,-0.238 0.491,-0.444 0.678,-0.614 0.379,-0.34 0.596,-0.534 0.596,-0.534 0,0 -0.14,0.254 -0.383,0.701 -0.123,0.222 -0.272,0.49 -0.443,0.802 -0.157,0.313 -0.421,0.622 -0.671,0.992 -0.499,0.752 -1.167,1.547 -1.907,2.387 -0.357,0.442 -0.803,0.8 -1.22,1.218 -0.423,0.413 -0.862,0.825 -1.33,1.192 -0.91,0.789 -1.869,1.507 -2.794,2.155 -0.909,0.678 -1.83,1.173 -2.597,1.664 -1.567,0.882 -2.639,1.443 -2.639,1.443 m 11.822,39.587 c 0,0 1.036,-0.455 2.597,-1.135 0.387,-0.171 0.81,-0.355 1.258,-0.552 0.474,-0.196 0.823,-0.392 1.269,-0.599 0.853,-0.411 1.764,-0.849 2.673,-1.287 1.841,-0.995 3.725,-1.935 5.059,-2.759 1.358,-0.793 2.262,-1.321 2.262,-1.321 l 9.014,14.219 c 0,0 -1.034,0.647 -2.589,1.616 -1.536,1.004 -3.676,2.165 -5.797,3.38 -1.117,0.578 -2.233,1.155 -3.28,1.698 -0.511,0.256 -1.063,0.558 -1.484,0.749 -0.441,0.207 -0.858,0.402 -1.242,0.584 -1.54,0.726 -2.562,1.209 -2.562,1.209 z m 30.343,-16.465 c 0,0 3.863,-2.407 7.728,-4.814 3.676,-2.437 7.352,-4.875 7.352,-4.875 l 6.974,8.436 c 0,0 -3.413,3.221 -6.825,6.444 -3.396,3.032 -6.792,6.064 -6.792,6.064 z M 498.589,509.454 c 0,0 1.745,4.069 3.354,8.064 0.208,0.502 0.506,1.018 0.749,1.52 0.256,0.505 0.506,1 0.75,1.48 0.483,0.959 0.935,1.856 1.32,2.625 0.759,1.542 1.266,2.569 1.266,2.569 l -8.179,3.375 c 0,0 -0.366,-1.086 -0.912,-2.717 -0.267,-0.818 -0.579,-1.772 -0.913,-2.793 -0.164,-0.513 -0.335,-1.04 -0.506,-1.579 -0.167,-0.545 -0.366,-1.062 -0.51,-1.648 -1.101,-4.744 -2.065,-9.412 -2.065,-9.412 z m 90.159,-149.508 c 0,0 1.156,-0.457 2.892,-1.143 0.866,-0.354 1.882,-0.743 2.992,-1.092 0.552,-0.186 1.123,-0.377 1.701,-0.571 0.588,-0.188 1.156,-0.404 1.778,-0.567 1.243,-0.327 2.486,-0.654 3.65,-0.962 0.584,-0.153 1.163,-0.308 1.621,-0.396 0.481,-0.101 0.935,-0.197 1.354,-0.286 1.68,-0.357 2.8,-0.594 2.8,-0.594 l 2.845,14.668 c 0,0 -1.127,0.198 -2.817,0.494 -0.422,0.075 -0.88,0.155 -1.365,0.24 -0.513,0.079 -0.936,0.187 -1.394,0.294 -0.917,0.208 -1.894,0.43 -2.873,0.654 -0.992,0.253 -2.013,0.542 -2.957,0.793 -0.956,0.238 -1.828,0.512 -2.567,0.77 -1.489,0.484 -2.483,0.809 -2.483,0.809 z m 37.805,8.526 1.284,-15.191 c 0,0 1.256,0.149 3.137,0.371 0.468,0.057 0.977,0.12 1.517,0.185 0.54,0.056 1.096,0.188 1.679,0.285 1.159,0.216 2.397,0.446 3.635,0.675 1.272,0.314 2.542,0.629 3.733,0.924 0.575,0.151 1.219,0.291 1.665,0.438 0.47,0.147 0.914,0.283 1.324,0.412 1.634,0.527 2.722,0.875 2.722,0.875 l -4.362,14.345 c 0,0 -1.099,-0.314 -2.748,-0.789 -0.411,-0.122 -0.857,-0.255 -1.327,-0.395 -0.491,-0.155 -0.868,-0.209 -1.332,-0.325 -0.892,-0.208 -1.845,-0.431 -2.797,-0.654 -1.015,-0.175 -2.028,-0.35 -2.979,-0.513 -0.475,-0.073 -0.933,-0.184 -1.371,-0.219 -0.438,-0.048 -0.853,-0.092 -1.235,-0.133 -1.527,-0.175 -2.545,-0.291 -2.545,-0.291 m 31.514,9.895 7.21,-12.253 c 0,0 1.029,0.674 2.569,1.687 1.563,0.975 3.514,2.461 5.476,3.919 0.975,0.796 1.948,1.59 2.863,2.335 0.44,0.369 0.929,0.742 1.276,1.067 0.365,0.329 0.712,0.64 1.031,0.927 1.277,1.148 2.128,1.912 2.128,1.912 l -8.246,9.942 c 0,0 -0.909,-0.694 -2.273,-1.737 -0.342,-0.262 -0.711,-0.543 -1.102,-0.844 -0.398,-0.315 -0.763,-0.534 -1.171,-0.821 -0.797,-0.55 -1.645,-1.138 -2.494,-1.724 -1.824,-1.109 -3.574,-2.322 -4.977,-3.078 -1.374,-0.8 -2.29,-1.332 -2.29,-1.332 m 26.947,21.143 8.456,-6.944 c 0,0 0.688,0.99 1.719,2.469 0.518,0.738 1.123,1.596 1.699,2.566 0.592,0.956 1.224,1.973 1.854,2.995 0.602,1.064 1.203,2.129 1.766,3.128 0.27,0.495 0.571,0.985 0.782,1.428 0.218,0.444 0.422,0.862 0.611,1.249 0.757,1.546 1.26,2.578 1.26,2.578 l -7.114,4.24 c 0,0 -0.667,-0.931 -1.669,-2.332 -0.499,-0.707 -1.088,-1.533 -1.702,-2.299 -0.615,-0.793 -1.273,-1.641 -1.928,-2.488 -0.706,-0.836 -1.411,-1.674 -2.072,-2.459 -0.646,-0.791 -1.302,-1.491 -1.845,-2.102 -1.091,-1.218 -1.817,-2.029 -1.817,-2.029 m 19.798,29.02 4.538,-1.51 c 0,0 0.241,1.16 0.547,2.906 0.303,1.743 0.632,4.079 0.845,6.41 0.186,2.344 0.216,4.678 0.173,6.429 0.004,0.872 -0.083,1.59 -0.104,2.097 -0.035,0.506 -0.053,0.795 -0.053,0.795 0,0 -0.285,-1.121 -0.715,-2.8 -0.408,-1.663 -1.117,-3.847 -1.842,-5.99 -0.732,-2.142 -1.564,-4.236 -2.235,-5.783 -0.677,-1.544 -1.154,-2.554 -1.154,-2.554 m -489.658,-68.584 -5.179,13.111 c 0,0 -0.991,-0.325 -2.482,-0.809 -0.739,-0.258 -1.611,-0.532 -2.566,-0.77 -0.945,-0.251 -1.966,-0.54 -2.958,-0.793 -0.976,-0.224 -1.955,-0.446 -2.873,-0.654 -0.456,-0.107 -0.881,-0.215 -1.392,-0.294 -0.486,-0.085 -0.942,-0.165 -1.367,-0.24 -1.69,-0.296 -2.816,-0.494 -2.816,-0.494 l 2.846,-14.668 c 0,0 1.119,0.237 2.799,0.594 0.418,0.089 0.873,0.185 1.355,0.286 0.457,0.088 1.036,0.243 1.621,0.396 1.164,0.308 2.406,0.635 3.649,0.962 0.621,0.163 1.191,0.379 1.776,0.567 0.579,0.194 1.152,0.385 1.704,0.571 1.108,0.349 2.126,0.738 2.991,1.092 1.736,0.686 2.892,1.143 2.892,1.143 m -37.805,8.526 c 0,0 -1.017,0.116 -2.546,0.291 -0.382,0.041 -0.796,0.085 -1.235,0.133 -0.44,0.035 -0.894,0.146 -1.369,0.219 -0.951,0.163 -1.965,0.338 -2.978,0.513 -0.954,0.223 -1.906,0.446 -2.801,0.654 -0.465,0.116 -0.839,0.17 -1.33,0.325 -0.47,0.14 -0.916,0.273 -1.327,0.395 l -2.749,0.789 -4.362,-14.345 c 0,0 1.089,-0.348 2.723,-0.875 0.41,-0.129 0.854,-0.265 1.323,-0.412 0.446,-0.147 1.093,-0.287 1.665,-0.438 1.19,-0.295 2.462,-0.61 3.733,-0.924 1.237,-0.229 2.476,-0.459 3.636,-0.675 0.583,-0.097 1.14,-0.229 1.679,-0.285 0.539,-0.065 1.048,-0.128 1.518,-0.185 1.881,-0.222 3.134,-0.371 3.134,-0.371 z m -31.515,9.895 c 0,0 -0.917,0.532 -2.292,1.332 -1.398,0.756 -3.151,1.969 -4.974,3.078 -0.849,0.586 -1.7,1.174 -2.494,1.724 -0.408,0.287 -0.772,0.506 -1.171,0.821 -0.391,0.301 -0.76,0.581 -1.103,0.844 -1.362,1.043 -2.271,1.737 -2.271,1.737 l -8.248,-9.942 c 0,0 0.852,-0.767 2.129,-1.912 0.319,-0.287 0.665,-0.598 1.031,-0.927 0.348,-0.325 0.837,-0.698 1.277,-1.067 0.912,-0.745 1.886,-1.539 2.861,-2.335 1.962,-1.458 3.913,-2.944 5.478,-3.919 1.54,-1.013 2.567,-1.687 2.567,-1.687 z m -26.947,21.143 c 0,0 -0.726,0.811 -1.818,2.029 -0.542,0.611 -1.197,1.311 -1.843,2.102 -0.662,0.785 -1.366,1.623 -2.073,2.459 -0.655,0.847 -1.311,1.695 -1.927,2.488 -0.615,0.766 -1.203,1.592 -1.703,2.299 -1.002,1.401 -1.669,2.332 -1.669,2.332 l -7.114,-4.24 c 0,0 0.505,-1.032 1.261,-2.578 0.189,-0.387 0.393,-0.805 0.609,-1.249 0.211,-0.443 0.513,-0.933 0.784,-1.428 0.562,-0.999 1.165,-2.064 1.765,-3.128 0.632,-1.022 1.262,-2.039 1.855,-2.995 0.577,-0.97 1.182,-1.828 1.698,-2.566 1.031,-1.479 1.718,-2.469 1.718,-2.469 z m -19.798,29.02 c 0,-0.002 -0.477,1.01 -1.152,2.554 -0.672,1.547 -1.504,3.641 -2.236,5.783 -0.723,2.143 -1.432,4.327 -1.845,5.99 -0.428,1.679 -0.711,2.8 -0.711,2.8 0,0 -0.02,-0.289 -0.053,-0.795 -0.024,-0.507 -0.111,-1.225 -0.105,-2.097 -0.043,-1.751 -0.011,-4.085 0.173,-6.429 0.213,-2.331 0.541,-4.667 0.843,-6.41 0.308,-1.746 0.548,-2.906 0.548,-2.906 z m 22.223,149.906 -5.561,5.5 c 0,0 -0.728,-0.874 -1.821,-2.187 -0.546,-0.658 -1.183,-1.403 -1.867,-2.288 -0.683,-0.865 -1.41,-1.784 -2.138,-2.708 -1.383,-1.881 -2.792,-3.714 -3.755,-5.178 -0.983,-1.438 -1.639,-2.393 -1.639,-2.393 l 3.695,-2.903 c 0,0 0.779,0.799 1.946,1.997 1.139,1.215 2.789,2.735 4.387,4.27 0.821,0.734 1.642,1.471 2.411,2.162 0.746,0.685 1.527,1.331 2.173,1.883 1.302,1.107 2.169,1.845 2.169,1.845 m 560.819,0 c 0,0 0.868,-0.738 2.17,-1.843 0.645,-0.554 1.426,-1.2 2.175,-1.885 0.768,-0.691 1.587,-1.428 2.407,-2.162 1.598,-1.535 3.251,-3.055 4.388,-4.27 1.168,-1.198 1.946,-1.997 1.946,-1.997 l 3.694,2.903 c 0,0 -0.654,0.955 -1.638,2.393 -0.961,1.464 -2.371,3.297 -3.754,5.178 -0.728,0.924 -1.456,1.843 -2.138,2.708 -0.686,0.885 -1.322,1.63 -1.868,2.288 -1.093,1.313 -1.822,2.187 -1.822,2.187 z M 752.57,416.562 c 0.03,-10.425 -0.807,-20.101 -2.066,-28.926 -0.163,-1.103 -0.322,-2.195 -0.479,-3.273 l -0.118,-0.806 -0.045,-0.309 -0.037,-0.195 -0.075,-0.389 c -0.1,-0.516 -0.199,-1.031 -0.297,-1.543 -0.1,-0.514 -0.199,-1.025 -0.299,-1.531 -0.124,-0.545 -0.247,-1.086 -0.369,-1.623 -0.065,-0.27 -0.126,-0.537 -0.188,-0.805 -0.184,-0.801 -0.364,-1.598 -0.582,-2.338 -1.037,-4.05 -2.333,-7.784 -3.614,-11.283 -5.371,-13.911 -11.452,-23.677 -15.668,-30.212 -2.123,-3.263 -3.8,-5.717 -4.979,-7.342 -1.17,-1.629 -1.773,-2.468 -1.773,-2.468 0,0 0.415,0.946 1.221,2.782 0.789,1.837 2,4.543 3.445,8.117 0.425,1.075 0.887,2.251 1.364,3.478 2.699,6.94 6.094,16.292 8.54,27.944 0.682,3.425 1.343,7.028 1.709,10.81 0.129,0.954 0.161,1.863 0.244,2.805 0.036,0.467 0.075,0.935 0.112,1.406 0.027,0.513 0.051,1.031 0.078,1.548 0.026,0.522 0.05,1.046 0.077,1.571 l 0.017,0.395 0.011,0.198 c 0.005,0.091 -0.019,-0.077 -0.007,0.085 l 0.02,0.779 c 0.023,1.036 0.049,2.084 0.075,3.143 0.145,8.465 -0.103,17.592 -1.191,27.19 -0.312,2.778 -0.693,5.601 -1.137,8.452 -4.315,43.898 -24.177,68.028 -40.628,80.702 -20.546,15.83 -44.551,20.486 -59.413,18.289 -1.717,-0.25 -3.429,-0.549 -5.133,-0.935 -11.877,-2.715 -23.363,-8.637 -33.464,-17.198 -1.284,-1.035 -2.504,-2.181 -3.739,-3.301 -1.244,-1.132 -2.236,-2.182 -3.413,-3.309 l -2.008,-2.121 -1.005,-1.062 -0.57,-0.757 c -0.97,-1.263 -1.899,-2.562 -2.771,-3.897 -2.819,-4.255 -5.172,-8.828 -7.073,-13.595 1.777,-0.992 3.578,-2.036 5.405,-3.134 0.408,0.844 0.805,1.692 1.247,2.528 1.433,2.701 3.026,5.364 4.801,7.94 0.894,1.285 1.798,2.57 2.768,3.817 0.467,0.638 0.966,1.251 1.465,1.869 l 0.748,0.926 c 0.346,0.332 -0.27,-0.189 -0.101,-0.042 l 0.264,0.252 0.53,0.499 2.115,2.006 0.52,0.492 0.398,0.348 0.796,0.704 c 0.545,0.475 1.015,0.935 1.616,1.43 l 1.815,1.494 c 1.202,1.018 2.464,1.891 3.685,2.853 1.271,0.842 2.489,1.806 3.775,2.593 2.52,1.713 5.137,3.129 7.748,4.523 2.646,1.278 5.296,2.504 7.998,3.481 1.527,0.562 3.065,1.05 4.609,1.498 2.048,-2.678 3.943,-5.537 5.654,-8.613 4.13,-7.542 7.167,-16.385 8.485,-26.04 1.354,-9.623 0.95,-19.996 -1.13,-29.815 -2.051,-9.799 -6.035,-18.971 -10.759,-25.481 -2.356,-3.227 -4.762,-5.944 -7.145,-7.879 -2.386,-2.02 -4.681,-3.378 -7.375,-4.355 -0.341,-0.097 -0.684,-0.209 -1.033,-0.343 -0.358,-0.077 -0.721,-0.155 -1.088,-0.259 -0.364,-0.131 -0.759,-0.125 -1.145,-0.212 l -0.587,-0.114 c -0.17,0 1.154,-0.157 0.398,-0.085 l -0.39,0.011 -0.781,0.019 -1.562,0.037 c -0.331,0.01 -0.378,0.002 -0.458,-0.004 l -0.258,-0.025 c -0.35,-0.035 -0.637,-0.118 -1.279,-0.078 -1.129,0.004 -2.224,0.048 -3.283,0.128 -4.25,0.326 -7.985,1.096 -11.319,2.418 -3.306,1.343 -6.323,3.194 -8.997,5.898 -2.699,2.664 -5.002,6.216 -6.711,10.467 -1.658,4.265 -2.729,9.206 -2.952,14.496 -0.076,1.824 -0.021,3.697 0.094,5.583 -1.361,-0.654 -2.726,-1.267 -4.098,-1.839 0.064,-3.786 0.378,-7.531 1.018,-11.159 2.093,-12.096 7.657,-22.66 14.931,-28.738 3.643,-3.069 7.58,-5.205 11.954,-6.506 2.182,-0.658 4.456,-1.164 6.864,-1.463 0.583,-0.103 1.223,-0.117 1.825,-0.191 0.336,-0.047 0.567,-0.046 0.769,-0.038 l 0.643,-0.012 2.724,-0.168 0.386,-0.026 c 0.655,-0.075 -0.441,0.071 -0.279,0.066 l 0.374,0.029 0.744,0.043 c 3.929,0.29 7.531,1.324 11.184,3.279 3.638,1.905 7.305,4.682 10.755,8.284 6.943,7.152 12.77,17.309 16.38,28.248 3.63,10.969 5.254,22.695 4.83,33.826 -0.192,5.573 -0.915,11.007 -2.103,16.19 -1.151,5.195 -2.802,10.129 -4.841,14.759 -2.212,5.096 -4.929,9.796 -8.041,14.147 13.598,0.58 33.111,-4.29 50.266,-17.509 14.174,-10.918 31.032,-30.967 36.93,-66.314 -2.699,-8.434 -6.013,-16.696 -10.079,-24.683 -4.707,-9.339 -10.376,-18.326 -17.112,-26.772 -3.341,-4.228 -7.026,-8.293 -10.964,-12.189 -3.925,-3.9 -8.18,-7.602 -12.782,-11.033 -4.594,-3.432 -9.486,-6.622 -14.757,-9.409 -5.277,-2.777 -10.891,-5.171 -16.787,-7.032 -11.749,-3.787 -24.805,-5.135 -37.279,-3.635 l -2.331,0.305 -1.164,0.159 c -0.094,0.013 -1.445,0.196 -1.043,0.156 l -0.379,0.08 -3.381,0.716 -2.392,0.529 c -0.813,0.18 -1.594,0.366 -2.259,0.557 -1.399,0.394 -2.788,0.736 -4.183,1.199 -5.561,1.728 -11.076,3.957 -16.346,6.765 -10.567,5.568 -20.035,13.493 -27.324,22.624 -7.306,9.157 -12.47,19.396 -15.713,29.701 -2.285,7.169 -3.641,14.378 -4.308,21.505 0.111,-2.051 0.202,-4.136 0.246,-6.298 0.239,-11.479 -0.597,-24.311 -2.07,-35.743 0.012,-0.019 0.021,-0.039 0.031,-0.06 6.059,-11.233 14.684,-21.499 24.87,-29.685 10.188,-8.189 21.805,-14.256 33.546,-18.221 2.938,-1.003 5.885,-1.88 8.829,-2.64 1.384,-0.39 3.148,-0.773 4.845,-1.131 l 3.881,-0.831 0.763,-0.17 0.382,-0.084 c -0.498,0.043 1.081,-0.155 1.172,-0.167 l 2.512,-0.344 c 1.681,-0.206 3.35,-0.471 5.063,-0.571 1.705,-0.126 3.414,-0.245 5.131,-0.332 l 5.176,-0.051 c 6.921,0.103 13.888,0.884 20.691,2.315 6.813,1.421 13.388,3.565 19.659,6.166 12.586,5.216 23.652,12.477 33.219,20.654 2.655,2.297 5.189,4.672 7.633,7.102 -26.043,-142.967 -151.201,-251.36 -301.684,-251.36 -150.1,0 -274.996,107.843 -301.477,250.27 3.025,-2.932 6.201,-5.774 9.559,-8.491 4.944,-3.964 10.255,-7.652 15.921,-10.979 5.689,-3.312 11.775,-6.217 18.147,-8.61 12.71,-4.856 26.857,-7.259 40.619,-6.928 3.434,0.147 6.861,0.335 10.214,0.796 l 2.52,0.319 c 0.079,0.012 1.771,0.203 1.225,0.159 l 0.383,0.083 0.764,0.161 3.948,0.807 c 1.748,0.353 3.552,0.73 4.964,1.12 1.509,0.387 3.007,0.766 4.518,1.233 3.009,0.882 6.016,1.888 9.001,3.047 11.93,4.579 23.539,11.475 33.242,20.465 4.856,4.474 9.246,9.409 13.053,14.654 3.791,5.255 7.005,10.801 9.636,16.476 0.243,0.525 0.455,1.057 0.688,1.584 -0.157,2.133 -0.311,4.383 -0.461,6.772 -0.936,14.863 -1.503,31.247 -1.797,45.065 -0.643,-0.069 -1.27,-0.125 -1.9,-0.186 0.124,-2.327 0.187,-4.669 0.175,-7.027 -0.119,-10.114 -1.523,-20.521 -4.809,-30.844 -3.243,-10.302 -8.406,-20.544 -15.714,-29.701 -7.29,-9.131 -16.757,-17.056 -27.324,-22.624 -5.27,-2.808 -10.786,-5.037 -16.347,-6.765 -1.394,-0.463 -2.783,-0.805 -4.182,-1.199 -0.665,-0.191 -1.445,-0.377 -2.259,-0.557 l -2.393,-0.529 -3.38,-0.716 -0.379,-0.08 c 0.402,0.04 -0.949,-0.143 -1.043,-0.156 l -1.163,-0.159 -2.332,-0.305 c -12.473,-1.5 -25.531,-0.152 -37.281,3.635 -5.895,1.861 -11.508,4.255 -16.785,7.032 -5.272,2.787 -10.164,5.977 -14.758,9.408 -4.601,3.429 -8.856,7.134 -12.782,11.034 -3.936,3.894 -7.623,7.961 -10.962,12.189 -6.737,8.444 -12.406,17.433 -17.113,26.772 -4.068,7.986 -7.381,16.247 -10.08,24.681 5.897,35.348 22.755,55.398 36.931,66.316 17.156,13.218 36.668,18.089 50.264,17.509 -3.111,-4.351 -5.829,-9.051 -8.042,-14.147 -2.038,-4.63 -3.689,-9.564 -4.84,-14.759 -1.187,-5.183 -1.909,-10.617 -2.101,-16.19 -0.425,-11.131 1.199,-22.857 4.83,-33.826 3.609,-10.939 9.436,-21.096 16.379,-28.248 3.451,-3.602 7.119,-6.379 10.754,-8.284 3.656,-1.955 7.256,-2.989 11.187,-3.279 l 0.741,-0.043 0.374,-0.029 c 0.164,0.005 -0.934,-0.141 -0.277,-0.066 l 0.386,0.026 2.724,0.168 0.643,0.012 c 0.201,-0.008 0.432,-0.009 0.769,0.038 0.602,0.074 1.242,0.088 1.826,0.191 2.406,0.299 4.681,0.805 6.863,1.463 4.372,1.301 8.311,3.437 11.954,6.506 7.274,6.08 12.839,16.642 14.933,28.738 0.574,3.266 0.895,6.625 1.003,10.024 -1.43,0.672 -2.85,1.392 -4.264,2.156 -0.002,-0.435 0.021,-0.877 0.008,-1.309 -0.145,-5.548 -1.094,-10.847 -2.654,-15.528 -1.597,-4.674 -3.848,-8.706 -6.483,-11.785 -2.639,-3.1 -5.574,-5.258 -8.7,-6.712 -6.046,-2.871 -14.351,-3.527 -21.897,-2.053 -2.811,0.926 -5.178,2.144 -7.604,4.087 -1.206,0.957 -2.424,2.026 -3.642,3.283 -1.217,1.281 -2.424,2.719 -3.629,4.278 -4.83,6.307 -9.022,15.286 -11.321,25 -1.129,4.881 -1.884,9.902 -2.154,14.931 -0.331,5.015 -0.164,10.022 0.396,14.859 1.127,9.687 3.938,18.635 7.965,26.246 2.368,4.554 5.167,8.638 8.301,12.341 0.872,-0.251 1.746,-0.491 2.611,-0.781 5.371,-1.77 10.594,-4.348 15.63,-7.512 2.491,-1.651 4.977,-3.354 7.365,-5.307 1.222,-0.913 2.362,-2.002 3.559,-2.984 l 1.538,-1.433 c 0.526,-0.491 0.955,-0.852 1.723,-1.63 l 2.075,-2.058 0.52,-0.516 c 0.166,-0.154 -0.454,0.408 -0.109,0.06 l 0.177,-0.234 0.711,-0.932 c 0.944,-1.238 1.853,-2.5 2.709,-3.794 1.732,-2.568 3.309,-5.216 4.715,-7.927 1.22,-2.35 2.284,-4.753 3.241,-7.183 1.428,0.759 2.839,1.483 4.238,2.176 -1.985,5.274 -4.508,10.33 -7.602,14.999 -0.874,1.336 -1.802,2.634 -2.771,3.897 l -0.57,0.757 -1.005,1.063 -2.008,2.12 c -1.177,1.127 -2.168,2.177 -3.413,3.309 -1.236,1.12 -2.456,2.268 -3.74,3.302 -10.102,8.56 -21.586,14.482 -33.463,17.197 -1.704,0.386 -3.416,0.685 -5.131,0.935 -14.857,2.197 -38.867,-2.458 -59.416,-18.289 -16.449,-12.672 -36.306,-36.797 -40.625,-80.683 -0.446,-2.86 -0.828,-5.687 -1.143,-8.473 -1.088,-9.596 -1.334,-18.725 -1.188,-27.188 0.025,-1.059 0.05,-2.107 0.075,-3.143 l 0.019,-0.779 c 0.01,-0.164 -0.014,0.006 -0.005,-0.085 l 0.009,-0.198 0.018,-0.395 c 0.027,-0.525 0.052,-1.049 0.077,-1.571 0.025,-0.517 0.05,-1.035 0.077,-1.548 0.039,-0.471 0.075,-0.939 0.113,-1.406 0.081,-0.942 0.115,-1.851 0.245,-2.805 0.366,-3.782 1.026,-7.385 1.709,-10.81 2.444,-11.651 5.84,-21.003 8.538,-27.941 0.479,-1.229 0.941,-2.406 1.365,-3.481 1.444,-3.574 2.656,-6.28 3.446,-8.12 0.805,-1.833 1.221,-2.779 1.221,-2.779 0,0 -0.604,0.839 -1.774,2.468 -1.177,1.625 -2.856,4.079 -4.98,7.342 -4.214,6.535 -10.298,16.301 -15.668,30.212 -1.279,3.498 -2.576,7.233 -3.614,11.281 -0.217,0.741 -0.398,1.537 -0.582,2.336 -0.062,0.271 -0.121,0.539 -0.187,0.809 -0.124,0.537 -0.247,1.078 -0.37,1.623 -0.1,0.506 -0.198,1.017 -0.299,1.529 -0.097,0.514 -0.197,1.029 -0.296,1.545 l -0.075,0.389 -0.037,0.193 -0.046,0.311 -0.118,0.806 c -0.157,1.078 -0.316,2.169 -0.478,3.272 -1.259,8.826 -2.098,18.5 -2.066,28.927 -0.039,10.426 0.869,21.601 3.044,33.291 2.185,11.679 5.83,23.857 11.415,35.981 0.327,0.698 0.683,1.396 1.025,2.096 0.002,0.094 0.006,0.188 0.008,0.283 33.024,65.36 93.366,68.551 129.811,58.344 -0.007,-0.003 -0.013,-0.007 -0.019,-0.011 2.273,-0.86 4.518,-1.796 6.735,-2.806 8.021,-3.703 15.603,-8.359 22.559,-13.76 1.77,-1.322 3.441,-2.744 5.13,-4.158 1.68,-1.406 3.452,-3.084 5.122,-4.601 1.521,-1.474 3.043,-2.951 4.568,-4.43 1.691,-1.589 3.332,-3.245 4.909,-4.96 6.341,-6.848 11.827,-14.595 16.311,-22.964 0.359,-0.671 0.7,-1.351 1.046,-2.03 4.063,0.324 7.918,0.219 11.556,-0.319 -4.263,8.071 -9.302,15.525 -14.95,22.254 -3.144,3.749 -6.468,7.278 -9.937,10.576 -1.728,1.657 -3.502,3.25 -5.307,4.781 l -1.356,1.145 -0.339,0.285 c 0.171,-0.177 -0.619,0.561 -0.631,0.572 l -0.546,0.484 -2.187,1.94 c -0.628,0.575 -1.693,1.459 -2.63,2.243 l -2.866,2.365 c -1.862,1.396 -3.643,2.85 -5.574,4.16 -2.133,1.543 -4.347,2.989 -6.606,4.374 0.668,0.087 1.33,0.169 1.984,0.229 6.2,0.575 11.698,0.028 16.212,-1.12 4.546,-1.153 8.125,-2.96 11.056,-4.998 2.932,-2.059 5.242,-4.422 7.37,-6.968 2.128,-2.538 4.004,-5.408 5.704,-8.449 0.836,-1.553 1.617,-3.149 2.363,-4.739 0.708,-1.658 1.422,-3.228 2.017,-4.898 2.577,-6.481 4.135,-12.877 5.082,-17.34 0.256,-1.655 1.003,-5.116 1.398,-6.931 0.892,-0.137 1.768,-0.304 2.633,-0.493 l 18.194,4.999 c -0.119,0.463 -0.237,0.923 -0.365,1.428 -1.468,5.173 -3.824,12.634 -7.816,20.782 -3.896,8.198 -9.459,17.006 -17.216,24.334 -7.711,7.327 -17.669,13.469 -30.819,15.728 -6.537,1.127 -13.835,1.278 -21.59,0.058 -4.08,-0.645 -8.282,-1.698 -12.519,-3.168 l 0.02,0.059 c -26.122,9.22 -55.539,9.127 -80.706,-0.257 -23.353,-8.706 -42.706,-25.093 -56.993,-47.999 0.925,9.5 2.691,18.939 5.264,28.147 5.517,20.064 15.041,38.895 27.016,54.997 5.966,8.076 12.567,15.452 19.499,22.141 l 2.605,2.501 2.656,2.39 2.665,2.37 c 0.861,0.776 1.98,1.653 2.963,2.467 l 3.054,2.471 2.512,1.99 2.101,1.644 1.049,0.821 0.26,0.206 c -0.585,-0.391 1.089,0.761 1.055,0.74 l 0.734,0.523 c 15.569,11.291 32.856,19.951 50.828,25.537 17.96,5.598 36.606,8.169 54.685,7.555 18.081,-0.529 35.534,-4.097 51.283,-9.808 15.762,-5.713 29.801,-13.5 41.728,-22.154 11.934,-8.677 21.831,-18.12 30.003,-27.368 8.159,-9.269 14.669,-18.333 19.918,-26.69 0.468,-0.753 0.913,-1.491 1.363,-2.231 -0.092,-0.186 -0.191,-0.373 -0.282,-0.558 -4.392,-9.064 -7.707,-17.728 -10.22,-25.689 l -18.66,-6.821 c 0,0 0.63,-1.903 1.259,-3.809 0.653,-2.195 1.306,-4.387 1.306,-4.387 l 13.003,4.079 c -1.366,-5.465 -2.358,-10.459 -3.099,-14.903 l -12.868,-7.567 -9.474,-5.57 4.471,-1.608 1.653,-0.594 c 3.282,-1.18 6.301,-3.045 9.098,-5.453 -15.697,-4.749 -30.039,-11.985 -41.952,-20.778 l -0.331,-0.221 -38.26,-23.382 c 0.05,-5.183 0.138,-10.447 0.26,-15.71 5.585,16.907 16.973,28.535 33.467,33.147 l 1.056,0.294 1.001,-0.443 c 25.963,-11.474 43.563,-34.569 50.895,-66.79 2.709,-11.905 3.561,-22.908 3.718,-31.102 0.091,-0.749 0.324,-2.614 0.665,-5.382 0.205,-1.845 0.453,-4.085 0.74,-6.654 0.298,-2.574 0.547,-5.463 0.864,-8.621 1.208,-12.623 2.479,-29.466 3.307,-46.33 0.228,-4.216 0.383,-8.435 0.541,-12.586 0.168,-4.152 0.236,-8.244 0.348,-12.197 0.024,-3.96 0.131,-7.78 0.081,-11.41 -0.021,-3.628 -0.04,-7.057 -0.176,-10.224 -0.063,-3.164 -0.259,-6.063 -0.443,-8.628 -0.114,-2.57 -0.488,-4.793 -0.674,-6.628 -0.083,-0.918 -0.23,-1.73 -0.39,-2.432 -0.143,-0.703 -0.266,-1.301 -0.366,-1.784 -0.196,-0.968 -0.303,-1.483 -0.303,-1.483 0,0 0.083,0.52 0.236,1.498 0.078,0.486 0.172,1.087 0.283,1.794 0.128,0.702 0.239,1.515 0.281,2.437 0.101,1.842 0.372,4.06 0.371,6.628 0.066,2.563 0.131,5.453 0.053,8.609 -0.008,3.155 -0.143,6.573 -0.286,10.186 -0.116,3.611 -0.395,7.42 -0.596,11.357 -0.291,3.937 -0.542,8.004 -0.895,12.132 -0.347,4.128 -0.691,8.32 -1.108,12.511 -1.389,14.702 -3.12,29.367 -4.717,41.174 -4.458,-21.19 -14.526,-46.309 -19.849,-64.729 -1.561,-12.855 -2.298,-32.012 -0.873,-46.926 6.379,-9.949 10.272,-16.5 10.94,-20.53 l 0.085,-0.525 -0.035,-0.531 c -0.393,-5.958 -0.024,-22.774 6.313,-28.9 1.742,-1.685 3.793,-2.354 6.448,-2.079 10.733,1.072 16.573,5.721 19.487,9.143 v 16.118 c -2.252,0.089 -4.502,0.126 -6.754,0.257 -1.544,0.086 -3.09,0.178 -4.636,0.287 0.357,-0.447 0.702,-0.897 1.08,-1.327 0.602,-0.756 1.303,-1.39 1.964,-2.122 0.715,-0.641 1.412,-1.362 2.188,-1.975 0.766,-0.661 1.545,-1.254 2.372,-1.856 0.396,-0.331 0.854,-0.614 1.305,-0.895 0.452,-0.277 0.897,-0.576 1.342,-0.883 -1.086,-0.004 -2.126,-0.032 -3.213,0.096 -0.546,0.06 -1.095,0.148 -1.654,0.23 -0.555,0.088 -1.072,0.24 -1.615,0.367 -1.099,0.228 -2.119,0.643 -3.191,1.009 -1.027,0.432 -2.07,0.886 -3.055,1.435 -1.021,0.509 -1.952,1.148 -2.912,1.771 -0.945,0.642 -1.841,1.349 -2.716,2.094 -0.87,0.749 -1.722,1.533 -2.511,2.393 -0.398,0.429 -0.794,0.862 -1.178,1.324 -0.401,0.482 -0.736,0.875 -1.2,1.564 l -4.121,6.141 8.239,0.814 c 2.252,0.221 4.503,0.476 6.757,0.631 2.251,0.198 4.503,0.317 6.755,0.443 2.252,0.13 4.505,0.168 6.756,0.257 2.252,0.025 4.505,0.066 6.757,0.068 2.252,-0.041 4.503,-0.024 6.756,-0.108 2.252,-0.081 4.504,-0.137 6.757,-0.288 2.251,-0.108 4.503,-0.288 6.754,-0.471 1.127,-0.079 2.253,-0.212 3.378,-0.323 1.127,-0.115 2.253,-0.218 3.379,-0.37 l 10.043,-1.336 -6.614,-6.171 c -1.565,-1.461 -3.216,-2.859 -4.972,-4.147 -1.754,-1.286 -3.6,-2.482 -5.557,-3.473 -0.974,-0.502 -1.971,-0.96 -2.986,-1.356 -1.019,-0.405 -2.057,-0.741 -3.102,-1.025 -1.049,-0.281 -2.112,-0.485 -3.172,-0.631 -1.069,-0.11 -2.123,-0.205 -3.183,-0.173 0.886,0.59 1.753,1.132 2.571,1.742 l 1.207,0.915 1.155,0.942 c 1.509,1.278 2.889,2.636 4.185,4.046 0.196,0.219 0.381,0.441 0.575,0.661 -1.222,-0.09 -2.442,-0.171 -3.661,-0.23 -2.253,-0.151 -4.505,-0.207 -6.757,-0.287 -0.438,-0.018 -0.876,-0.018 -1.314,-0.028 v -16.059 c 1.511,-2.793 5.554,-7.071 16.272,-8.144 3.162,-0.317 5.521,0.408 7.445,2.269 5.521,5.347 5.921,18.433 5.609,23.023 l -0.035,0.532 0.086,0.532 c 0.711,4.29 5.838,13.09 14.212,26.94 1.329,16.504 0.272,37.639 -1.547,50.41 -5.581,17.856 -14.302,40.458 -18.318,59.751 -0.673,-5.158 -1.363,-10.868 -2.055,-16.899 -0.412,-3.92 -0.888,-7.966 -1.283,-12.088 -0.411,-4.119 -0.826,-8.307 -1.181,-12.495 -0.392,-4.192 -0.708,-8.386 -1.026,-12.517 -0.327,-4.128 -0.551,-8.196 -0.816,-12.133 -0.177,-3.938 -0.43,-7.747 -0.524,-11.36 -0.121,-3.611 -0.233,-7.029 -0.223,-10.182 -0.06,-3.158 0.02,-6.045 0.097,-8.608 0.013,-2.569 0.291,-4.784 0.402,-6.625 0.044,-0.921 0.159,-1.733 0.287,-2.435 0.111,-0.707 0.208,-1.307 0.286,-1.793 0.155,-0.979 0.237,-1.498 0.237,-1.498 0,0 -0.105,0.515 -0.305,1.482 -0.099,0.483 -0.223,1.081 -0.367,1.783 -0.162,0.7 -0.312,1.513 -0.4,2.43 -0.191,1.833 -0.571,4.055 -0.701,6.624 -0.196,2.562 -0.407,5.46 -0.49,8.623 -0.152,3.165 -0.195,6.592 -0.239,10.219 -0.068,3.628 0.012,7.449 0.011,11.407 0.087,3.954 0.127,8.043 0.266,12.194 0.132,4.152 0.259,8.371 0.46,12.586 0.165,4.217 0.394,8.431 0.618,12.58 0.207,4.152 0.502,8.229 0.74,12.179 0.542,7.898 1.112,15.268 1.688,21.582 0.303,3.16 0.539,6.047 0.832,8.626 0.278,2.572 0.523,4.813 0.722,6.66 0.449,3.659 0.705,5.75 0.705,5.75 l 0.147,-0.02 c 0.173,8.158 1.038,19.016 3.71,30.756 7.332,32.221 24.931,55.316 50.896,66.79 l 1.001,0.443 1.054,-0.294 c 12.37,-3.461 23.03,-14.52 29.839,-28.546 -1.985,9.254 -5.264,17.069 -10.344,21.936 l -17.551,10.58 c -15.095,12.151 -31.227,20.038 -47.525,24.499 2.881,2.182 6.064,3.986 9.593,5.352 l 1.901,0.737 4.157,1.608 -53.018,29.56 -10.879,-6.398 c 0.343,0.925 0.702,1.867 1.067,2.794 3.69,9.329 9.451,23.131 19.89,39.933 5.25,8.357 11.757,17.421 19.917,26.69 8.172,9.248 18.069,18.691 30.005,27.368 11.924,8.654 25.965,16.441 41.727,22.154 15.748,5.711 33.2,9.279 51.282,9.808 18.081,0.614 36.725,-1.957 54.687,-7.555 17.969,-5.586 35.256,-14.247 50.826,-25.537 l 0.735,-0.525 c -0.034,0.023 1.639,-1.129 1.053,-0.738 l 0.262,-0.206 1.049,-0.821 2.1,-1.644 2.514,-1.99 3.054,-2.471 c 0.981,-0.814 2.1,-1.691 2.961,-2.467 l 2.665,-2.37 2.657,-2.39 2.603,-2.501 c 6.932,-6.689 13.534,-14.065 19.5,-22.141 11.976,-16.102 21.499,-34.933 27.017,-54.997 2.573,-9.207 4.338,-18.647 5.264,-28.147 -14.288,22.906 -33.641,39.293 -56.994,47.999 -25.17,9.384 -54.584,9.479 -80.705,0.257 l 0.021,-0.059 c -4.238,1.47 -8.441,2.523 -12.521,3.168 -7.756,1.22 -15.051,1.069 -21.59,-0.058 -13.148,-2.259 -23.107,-8.401 -30.82,-15.728 -7.756,-7.328 -13.319,-16.135 -17.215,-24.334 -3.991,-8.148 -6.347,-15.609 -7.813,-20.782 -0.099,-0.379 -0.184,-0.713 -0.276,-1.068 l 24.242,-0.462 c 3.201,0.12 6.576,-0.114 10.106,-0.665 4.345,7.849 9.563,15.134 15.558,21.609 1.578,1.715 3.218,3.371 4.908,4.96 1.525,1.479 3.049,2.955 4.57,4.43 1.668,1.517 3.442,3.195 5.122,4.599 1.69,1.416 3.359,2.838 5.129,4.159 6.955,5.402 14.537,10.056 22.56,13.761 2.215,1.01 4.462,1.946 6.734,2.806 -0.006,0.004 -0.014,0.008 -0.019,0.011 36.44,10.208 96.784,7.019 129.811,-58.342 0.002,-0.097 0.005,-0.191 0.008,-0.286 0.341,-0.7 0.697,-1.397 1.024,-2.095 5.585,-12.124 9.233,-24.302 11.417,-35.98 2.175,-11.691 3.081,-22.866 3.043,-33.292 M 304.975,675.867 c 18.221,-6.193 34.591,-14.978 48.381,-24.89 13.817,-9.933 25.116,-20.837 34.373,-31.427 4.601,-5.312 8.694,-10.556 12.399,-15.644 1.966,-2.766 3.834,-5.482 5.597,-8.147 2.181,3.065 4.487,6.12 6.93,9.148 9.44,11.645 20.823,22.865 33.971,32.793 13.145,9.94 28.083,18.504 44.433,25.284 16.358,6.773 34.174,11.745 53.307,14.198 6.637,0.861 13.449,1.398 20.404,1.571 -47.08,29.43 -102.708,46.458 -162.32,46.458 -54.919,0 -106.458,-14.45 -151.044,-39.734 8.477,-0.247 16.883,-1.075 25.098,-2.431 9.818,-1.659 19.364,-4.102 28.471,-7.179 M 569.691,534.212 c 3.535,1.236 7.198,2.144 10.788,2.753 -1.758,-1.182 -3.558,-2.336 -5.255,-3.597 l -2.775,-2.028 c -0.928,-0.684 -1.913,-1.499 -2.867,-2.247 l -1.44,-1.153 -0.72,-0.58 -0.564,-0.477 -2.222,-1.882 -1.469,-1.251 -1.361,-1.091 c -0.911,-0.726 -1.822,-1.459 -2.707,-2.227 -1.8,-1.505 -3.55,-3.091 -5.294,-4.705 -3.474,-3.247 -6.8,-6.739 -9.974,-10.446 -1.94,-2.272 -3.812,-4.639 -5.62,-7.08 -0.099,1.574 -0.095,3.376 0.233,5.528 0.248,1.74 0.728,3.749 1.734,6.124 1.044,2.351 2.626,5.087 5.09,8.007 2.45,2.911 5.731,6.089 9.902,8.964 4.141,2.898 9.147,5.508 14.521,7.388"
           style="fill:#782121;fill-opacity:1;fill-rule:nonzero;stroke:none;stroke-width:3.9219;stroke-linecap:round;stroke-linejoin:round;stroke-dasharray:none;stroke-opacity:1;paint-order:stroke fill markers"
           id="body-6"
           inkscape:connector-curvature="0" /></g></g><g
       id="level1"
       transform="matrix(1,0,0,1.0022205,-0.11886006,-0.94169998)"
       style="opacity:0.699139;fill:none;fill-opacity:1;stroke:#000000;stroke-width:3.9219;stroke-linecap:round;stroke-linejoin:round;stroke-dasharray:none;stroke-opacity:0.502709;paint-order:stroke fill markers"><g
         id="level2"
         clip-path="url(#clipPath831-3)"
         style="fill:none;fill-opacity:1;stroke:#000000;stroke-width:3.9219;stroke-linecap:round;stroke-linejoin:round;stroke-dasharray:none;stroke-opacity:0.502709;paint-order:stroke fill markers"><path
           d="m 443.474,507.287 -39.079,21.789 -39.353,-23.142 c 22.609,-13.345 32.537,-54.481 39.159,-91.077 -0.032,-0.114 -0.068,-0.241 -0.109,-0.388 -0.144,-0.608 -0.41,-1.504 -0.644,-2.643 -0.526,-2.275 -1.17,-5.529 -1.734,-9.433 -0.233,-1.598 -0.45,-3.329 -0.654,-5.122 -0.293,-2.587 -0.554,-5.333 -0.751,-8.216 -0.172,-2.439 -0.311,-4.961 -0.385,-7.523 -0.104,-2.56 -0.118,-5.165 -0.143,-7.766 0.025,-2.601 0.032,-5.205 0.135,-7.766 0.067,-2.562 0.217,-5.082 0.38,-7.522 0.334,-4.88 0.835,-9.435 1.405,-13.338 0.57,-3.905 1.212,-7.157 1.742,-9.433 0.235,-1.139 0.501,-2.034 0.649,-2.644 0.172,-0.61 0.262,-0.935 0.262,-0.935 0,0 0.09,0.325 0.264,0.935 0.147,0.61 0.413,1.505 0.646,2.644 0.53,2.276 1.175,5.528 1.742,9.433 0.573,3.903 1.073,8.458 1.406,13.338 0.163,2.44 0.314,4.96 0.381,7.522 0.102,2.561 0.109,5.165 0.136,7.766 -0.027,2.601 -0.04,5.206 -0.144,7.766 -0.076,2.562 -0.214,5.084 -0.386,7.523 -0.196,2.861 -0.454,5.589 -0.745,8.162 -0.206,1.813 -0.425,3.56 -0.661,5.176 -0.563,3.904 -1.208,7.158 -1.733,9.433 -0.232,1.139 -0.499,2.035 -0.643,2.643 -0.071,0.251 -0.124,0.44 -0.167,0.593 0.133,0.839 0.267,1.678 0.399,2.513 5.848,36.933 11.884,75.046 38.625,89.712 m 83.594,-23.171 c -8.539,-1.771 -12.064,-6.373 -12.673,-7.258 -0.589,-1.388 -1.329,-3.451 -1.997,-5.84 l 0.228,-0.21 c 0.917,-0.844 1.783,-1.783 2.622,-2.767 l 0.195,0.467 c 22.114,7.936 44.362,2.382 60.632,-10.781 -9.186,-4.834 -32.764,-11.344 -52.67,-4.635 0.408,-1.178 0.793,-2.405 1.156,-3.666 29.332,-5.004 43.854,0.63 63.837,13.69 -31.782,21.171 -50.837,23.178 -61.33,21 m 40.681,-95.037 c -1.153,1.101 -1.896,1.868 -1.896,1.868 l -8.033,-6.804 c 0,-10e-4 0.733,-0.983 1.894,-2.416 1.151,-1.444 2.786,-3.29 4.496,-5.081 0.876,-0.875 1.754,-1.748 2.617,-2.528 0.828,-0.79 1.711,-1.532 2.44,-2.164 0.742,-0.641 1.242,-1.024 1.645,-1.365 0.387,-0.318 0.609,-0.501 0.609,-0.501 l 7.502,10.19 c 0,0 -0.238,0.159 -0.657,0.434 -0.393,0.265 -1.075,0.692 -1.675,1.118 -0.616,0.436 -1.329,0.904 -2.123,1.519 -0.798,0.577 -1.613,1.243 -2.44,1.897 -1.638,1.328 -3.235,2.723 -4.379,3.833 m -12.52,15.316 c 0,0 -0.583,0.99 -1.46,2.474 -0.418,0.735 -0.998,1.631 -1.419,2.508 -0.475,0.898 -0.981,1.854 -1.485,2.812 -0.268,0.473 -0.471,0.997 -0.707,1.487 -0.227,0.496 -0.453,0.987 -0.67,1.459 -0.448,0.949 -0.846,1.842 -1.145,2.624 -0.638,1.559 -1.062,2.6 -1.062,2.6 l -3.583,-0.85 c 0,0 0.167,-1.17 0.416,-2.926 0.11,-0.887 0.277,-1.913 0.539,-2.991 0.118,-0.545 0.242,-1.107 0.366,-1.678 0.136,-0.575 0.227,-1.158 0.406,-1.74 0.336,-1.171 0.674,-2.342 0.989,-3.438 0.314,-1.139 0.673,-2.017 0.953,-2.851 0.575,-1.624 0.958,-2.709 0.958,-2.709 z M 277,445.988 c -0.016,1.023 -0.029,2.023 -0.044,3.004 -19.362,-4.192 -40.65,2.836 -49.131,7.787 16.701,12.339 38.953,16.918 60.537,8.293 l 3.925,2.399 c -0.204,0.957 -0.418,1.863 -0.618,2.69 -0.835,1.333 -4.91,7.062 -14.615,9.58 -10.642,2.759 -29.809,1.907 -61.302,-17.037 18.965,-13.622 33.019,-19.917 61.248,-16.716 m -16.797,-26.479 -3.581,0.85 c 0,0 -0.426,-1.041 -1.064,-2.6 -0.299,-0.782 -0.696,-1.675 -1.143,-2.624 -0.219,-0.472 -0.443,-0.963 -0.67,-1.459 -0.239,-0.489 -0.44,-1.014 -0.708,-1.487 -0.506,-0.958 -1.011,-1.914 -1.481,-2.812 -0.425,-0.877 -1.004,-1.773 -1.423,-2.508 -0.875,-1.484 -1.46,-2.473 -1.46,-2.473 l 6.905,-3.22 c 0,0 0.382,1.085 0.956,2.709 0.279,0.834 0.641,1.712 0.954,2.851 0.315,1.098 0.653,2.267 0.989,3.438 0.178,0.582 0.269,1.165 0.406,1.74 0.124,0.571 0.248,1.133 0.367,1.678 0.26,1.078 0.427,2.104 0.536,2.992 0.251,1.755 0.417,2.925 0.417,2.925 m -14.121,-35.366 -8.032,6.804 c 0,0 -0.743,-0.767 -1.897,-1.868 -1.143,-1.11 -2.742,-2.505 -4.38,-3.833 -0.828,-0.654 -1.641,-1.319 -2.44,-1.897 -0.794,-0.615 -1.507,-1.083 -2.122,-1.519 -0.601,-0.425 -1.282,-0.853 -1.676,-1.118 -0.418,-0.275 -0.658,-0.434 -0.658,-0.434 l 7.504,-10.19 c 0,0 0.223,0.183 0.611,0.501 0.404,0.341 0.901,0.724 1.642,1.366 0.73,0.631 1.613,1.373 2.44,2.163 0.864,0.78 1.741,1.653 2.617,2.528 1.711,1.791 3.345,3.637 4.496,5.081 1.162,1.433 1.895,2.415 1.895,2.416 M 299.8,546.33 c 0,0 -0.718,0.983 -1.797,2.459 -0.548,0.731 -1.169,1.601 -1.924,2.462 -0.738,0.878 -1.524,1.814 -2.31,2.749 -0.842,0.925 -1.722,1.842 -2.532,2.705 -0.406,0.418 -0.821,0.862 -1.179,1.203 -0.36,0.338 -0.698,0.655 -1.012,0.948 -1.252,1.171 -2.086,1.952 -2.086,1.952 l -7.962,-8.827 c 0,0 0.864,-0.749 2.159,-1.874 0.323,-0.281 0.676,-0.586 1.046,-0.906 0.367,-0.323 0.658,-0.638 1.016,-0.971 0.701,-0.661 1.448,-1.366 2.195,-2.069 0.734,-0.773 1.468,-1.545 2.157,-2.27 0.709,-0.707 1.293,-1.439 1.817,-2.044 1.058,-1.208 1.761,-2.015 1.761,-2.015 z m -21.737,70.782 c 1.614,-0.539 2.69,-0.898 2.69,-0.898 l 6.207,19.523 c 0,0 -1.084,0.327 -2.711,0.821 -0.409,0.123 -0.85,0.255 -1.314,0.397 -0.448,0.141 -1.043,0.291 -1.589,0.445 -1.123,0.306 -2.324,0.634 -3.523,0.959 -2.347,0.562 -4.682,1.162 -6.456,1.51 -1.769,0.374 -2.947,0.624 -2.947,0.624 l -4.126,-19.535 c 0,0 1.034,-0.25 2.584,-0.627 1.556,-0.348 3.598,-0.943 5.649,-1.492 0.979,-0.298 1.96,-0.596 2.88,-0.876 0.472,-0.145 0.876,-0.253 1.354,-0.417 0.462,-0.154 0.9,-0.3 1.302,-0.434 m -7.299,-45.06 c 0,0 -1.096,0.544 -2.738,1.358 -0.822,0.406 -1.772,0.898 -2.83,1.334 -1.05,0.453 -2.171,0.935 -3.291,1.417 -1.177,0.426 -2.356,0.858 -3.459,1.258 -0.545,0.19 -1.106,0.41 -1.573,0.552 -0.471,0.144 -0.916,0.28 -1.325,0.406 -1.643,0.504 -2.736,0.839 -2.736,0.839 l -3.641,-11.127 c 0,0 1.08,-0.375 2.703,-0.94 0.405,-0.14 0.843,-0.291 1.309,-0.453 0.467,-0.161 0.86,-0.346 1.322,-0.527 0.899,-0.367 1.858,-0.757 2.815,-1.148 0.974,-0.438 1.949,-0.878 2.862,-1.29 0.922,-0.388 1.744,-0.832 2.457,-1.193 1.421,-0.727 2.372,-1.212 2.372,-1.212 z m -23.118,51.723 1.571,19.379 c 0,0 -1.131,0.076 -2.828,0.19 -0.423,0.028 -0.883,0.058 -1.369,0.091 -0.467,0.036 -1.074,0.049 -1.639,0.076 -1.159,0.047 -2.395,0.093 -3.63,0.143 -2.408,0.02 -4.81,0.079 -6.615,0.02 -1.803,-0.034 -3.006,-0.057 -3.006,-0.057 l 0.365,-18.919 c 0,0 1.066,-0.011 2.662,-0.029 1.599,0.013 3.731,-0.111 5.857,-0.184 1.028,-0.07 2.058,-0.14 3.02,-0.207 0.497,-0.036 0.919,-0.049 1.423,-0.103 0.484,-0.046 0.945,-0.09 1.366,-0.129 1.693,-0.163 2.823,-0.271 2.823,-0.271 M 233.6,582.412 c 0,0 -1.24,0.013 -3.1,0.031 -1.846,-0.002 -4.308,-0.003 -6.772,-0.004 -0.602,-0.013 -1.148,-0.11 -1.716,-0.165 -0.56,-0.06 -1.111,-0.124 -1.645,-0.185 -1.07,-0.12 -2.066,-0.232 -2.92,-0.328 -1.708,-0.199 -2.846,-0.331 -2.846,-0.331 l 0.383,-8.208 c 0,0 1.144,-0.027 2.864,-0.069 0.86,-0.019 1.863,-0.04 2.937,-0.062 0.538,-0.011 1.094,-0.023 1.655,-0.036 0.557,-0.02 1.154,-0.002 1.694,-0.051 2.105,-0.245 4.211,-0.493 5.788,-0.676 1.569,-0.165 2.612,-0.273 2.612,-0.273 z m -19.952,41.234 -2.826,18.183 c 0,0 -1.116,-0.19 -2.794,-0.475 -0.42,-0.071 -0.874,-0.148 -1.354,-0.23 -0.459,-0.07 -1.058,-0.206 -1.614,-0.311 -1.141,-0.23 -2.357,-0.475 -3.574,-0.72 -2.353,-0.559 -4.709,-1.072 -6.452,-1.575 -1.749,-0.472 -2.916,-0.788 -2.916,-0.788 l 4.709,-17.247 c 0,0 1.031,0.247 2.577,0.617 1.537,0.398 3.632,0.782 5.703,1.218 1.013,0.173 2.024,0.349 2.973,0.51 0.49,0.081 0.896,0.17 1.402,0.233 0.482,0.068 0.939,0.131 1.359,0.192 z m -15.793,-52.594 -1.747,4.596 c 0,0 -1.072,-0.561 -2.64,-1.443 -0.765,-0.491 -1.686,-0.986 -2.596,-1.664 -0.925,-0.648 -1.885,-1.366 -2.794,-2.155 -0.469,-0.367 -0.909,-0.779 -1.33,-1.192 -0.417,-0.418 -0.864,-0.776 -1.22,-1.218 -0.739,-0.84 -1.408,-1.635 -1.908,-2.387 -0.249,-0.37 -0.511,-0.679 -0.67,-0.992 -0.171,-0.312 -0.32,-0.58 -0.442,-0.802 -0.244,-0.447 -0.383,-0.701 -0.383,-0.701 0,0 0.216,0.194 0.593,0.534 0.19,0.17 0.418,0.376 0.679,0.614 0.249,0.255 0.584,0.465 0.914,0.728 0.646,0.529 1.478,1.061 2.372,1.608 0.432,0.29 0.929,0.527 1.399,0.797 0.476,0.271 0.96,0.533 1.475,0.755 0.993,0.485 2.019,0.899 2.992,1.258 0.958,0.374 1.896,0.641 2.664,0.917 1.588,0.465 2.642,0.747 2.642,0.747 m -16.91,44.181 -7.178,15.804 c 0,0 -1.027,-0.483 -2.564,-1.209 -0.384,-0.182 -0.802,-0.377 -1.242,-0.586 -0.421,-0.189 -0.972,-0.491 -1.483,-0.747 -1.047,-0.543 -2.165,-1.12 -3.282,-1.698 -2.121,-1.215 -4.258,-2.376 -5.797,-3.38 -1.553,-0.969 -2.588,-1.617 -2.588,-1.617 l 9.015,-14.218 c 0,0 0.904,0.527 2.261,1.321 1.332,0.824 3.219,1.764 5.059,2.759 0.911,0.438 1.82,0.876 2.675,1.287 0.443,0.207 0.793,0.403 1.267,0.599 0.447,0.197 0.869,0.381 1.259,0.55 1.559,0.682 2.598,1.135 2.598,1.135 m -30.344,-16.463 -8.439,11.255 c 0,0 -3.395,-3.032 -6.792,-6.064 -3.412,-3.223 -6.825,-6.444 -6.825,-6.444 l 6.974,-8.436 c 0,0 3.677,2.438 7.353,4.875 3.864,2.407 7.729,4.814 7.729,4.814 m 145.616,10.962 c 0,0 0.94,-0.478 2.35,-1.195 1.423,-0.691 3.253,-1.739 5.105,-2.739 0.872,-0.512 1.742,-1.026 2.557,-1.504 0.421,-0.253 0.778,-0.442 1.205,-0.718 0.414,-0.259 0.803,-0.503 1.165,-0.73 1.438,-0.906 2.399,-1.509 2.399,-1.509 l 11.197,18.39 c 0,0 -0.978,0.575 -2.443,1.439 -0.366,0.215 -0.763,0.45 -1.185,0.697 -0.397,0.241 -0.949,0.533 -1.448,0.814 -1.034,0.569 -2.136,1.174 -3.239,1.781 -2.166,1.099 -4.314,2.236 -5.972,2.988 -1.647,0.776 -2.743,1.296 -2.743,1.296 z m 28.048,-18.325 c 0,0 0.784,-0.69 1.957,-1.725 1.197,-1.01 2.684,-2.475 4.208,-3.891 0.699,-0.707 1.4,-1.411 2.057,-2.072 0.339,-0.347 0.626,-0.608 0.972,-0.99 0.333,-0.355 0.645,-0.694 0.937,-1.005 1.159,-1.243 1.932,-2.072 1.932,-2.072 l 16.291,15.626 c 0,0 -0.797,0.807 -1.992,2.018 -0.298,0.303 -0.623,0.63 -0.965,0.977 -0.318,0.333 -0.792,0.766 -1.206,1.166 -0.865,0.824 -1.789,1.701 -2.711,2.581 -1.841,1.626 -3.645,3.282 -5.079,4.433 -1.413,1.174 -2.354,1.956 -2.354,1.956 z m 22.168,-24.678 c 0,0 0.568,-0.867 1.421,-2.168 0.879,-1.28 1.921,-3.082 3.004,-4.838 0.486,-0.86 0.969,-1.721 1.425,-2.527 0.233,-0.422 0.439,-0.747 0.673,-1.209 0.225,-0.432 0.439,-0.84 0.636,-1.219 0.788,-1.507 1.312,-2.511 1.312,-2.511 l 20.774,11.24 c 0,0 -0.557,0.99 -1.387,2.474 -0.207,0.37 -0.433,0.773 -0.67,1.197 -0.215,0.401 -0.559,0.949 -0.854,1.449 -0.619,1.028 -1.279,2.125 -1.94,3.221 -1.348,2.071 -2.654,4.155 -3.738,5.655 -1.059,1.514 -1.765,2.523 -1.765,2.523 z m -44.409,-43.586 c 0.388,-0.769 0.838,-1.666 1.322,-2.625 0.241,-0.48 0.494,-0.975 0.749,-1.48 0.245,-0.502 0.54,-1.018 0.749,-1.52 1.61,-3.995 3.353,-8.064 3.353,-8.064 l 5.646,1.484 c 0,0 -0.963,4.668 -2.063,9.412 -0.147,0.586 -0.343,1.103 -0.51,1.648 -0.175,0.539 -0.343,1.066 -0.508,1.579 -0.334,1.021 -0.645,1.975 -0.912,2.793 -0.545,1.631 -0.912,2.716 -0.912,2.716 l -8.179,-3.374 c 0,0 0.507,-1.027 1.265,-2.569 M 290.8,431.457 c 29.167,-1.899 63.672,-23.048 78.532,-45.144 -2.889,25.434 -13.467,61.617 -48.95,77.885 -15.237,-4.633 -25.274,-16.007 -29.582,-32.741 m 77.025,-73.453 c -0.846,5.465 -2.605,8.863 -5.252,10.063 -6.595,3 -19.655,-5.55 -31.177,-13.09 -3.504,-2.291 -6.932,-4.531 -10.203,-6.479 15.661,-9.327 29.297,-30.327 31.265,-61.16 l 0.12,0.187 c 5.811,21.436 15.969,50.344 15.247,70.479 M 300.868,343.166 C 311.38,322.6 328.645,283.923 337.482,263.89 l 9.104,14.256 c 0.446,35.848 -14.903,59.012 -31.827,66.869 -2.872,-1.36 -5.55,-2.304 -7.953,-2.606 -0.521,-0.064 -1.033,-0.096 -1.543,-0.096 -1.521,0 -2.994,0.288 -4.395,0.853 m 22.229,46.442 c 3.791,0 6.862,3.073 6.862,6.863 0,3.791 -3.071,6.863 -6.862,6.863 -3.789,0 -6.863,-3.072 -6.863,-6.863 0,-3.79 3.074,-6.863 6.863,-6.863 m -22.072,-39.403 c 1.558,-1.422 3.149,-1.976 5.021,-1.743 5.251,0.657 13.768,6.23 22.008,11.621 12.582,8.23 25.557,16.72 35.08,14.228 -1.893,2.546 -4.411,4.533 -7.701,5.814 -22.881,8.913 -29.868,-17.591 -34.826,-15.303 -3.245,1.498 -19.872,29.476 -30.964,48.617 -0.165,-18.267 1.558,-54.26 11.382,-63.234 m 77.232,-175.747 c 5.25,-11.526 14.135,-18.785 23.431,-19.017 0.153,-0.003 0.305,-0.006 0.454,-0.006 9.218,0 17.816,7.017 24.372,19.826 l -8.556,-0.142 -31.267,-0.52 z m 76.19,113.15 1.017,-1.681 c 2.19,32.829 18.266,54.351 32.782,63.913 -3.64,1.932 -7.508,4.274 -11.475,6.678 -11.786,7.139 -25.134,15.223 -32.021,11.966 -2.806,-1.334 -4.657,-4.872 -5.527,-10.485 -0.718,-20.107 9.412,-48.965 15.224,-70.391 m -16.718,98.977 c 14.956,22.839 48.673,42.272 78.345,40.795 -4.975,17.365 -16.077,32.487 -29.421,36.811 -35.386,-16.228 -46.004,-52.197 -48.924,-77.606 m 54.346,-1.806 c 3.789,0 6.862,3.073 6.862,6.864 0,3.79 -3.073,6.863 -6.862,6.863 -3.792,0 -6.864,-3.073 -6.864,-6.863 0,-3.791 3.072,-6.864 6.864,-6.864 m -40.46,-4.654 c -3.085,-1.202 -5.487,-3.03 -7.335,-5.352 9.698,2.67 22.875,-5.296 35.652,-13.038 5.139,-3.114 10.389,-6.29 14.846,-8.334 0.094,0.04 0.19,0.088 0.282,0.127 l 0.131,-0.313 c 2.306,-1.032 4.391,-1.75 6.117,-1.966 1.958,-0.239 3.628,0.328 5.245,1.805 10.31,9.402 11.671,47.697 11.316,63.734 -4.969,-16.538 -14.717,-47.586 -18.343,-49.261 -4.958,-2.288 -25.028,21.511 -47.911,12.598 m 53.878,-34.549 c -1.086,-0.317 -2.209,-0.48 -3.358,-0.48 -0.523,0 -1.052,0.034 -1.584,0.099 -1.731,0.218 -3.613,0.756 -5.607,1.521 -14.753,-7.791 -34.24,-31.943 -33.614,-70.5 l 6.623,-10.968 c 8.504,19.159 27.148,60.696 37.54,80.328 m -38.377,234.076 c 0,0 0.774,0.829 1.933,2.072 0.29,0.311 0.604,0.65 0.936,1.005 0.346,0.382 0.633,0.643 0.972,0.99 0.656,0.661 1.358,1.365 2.059,2.072 1.521,1.416 3.011,2.881 4.207,3.891 1.173,1.035 1.957,1.725 1.957,1.725 l -14.047,17.002 c 0,0 -0.942,-0.782 -2.355,-1.956 -1.432,-1.151 -3.237,-2.807 -5.077,-4.433 -0.924,-0.88 -1.847,-1.757 -2.713,-2.581 -0.415,-0.401 -0.888,-0.833 -1.206,-1.166 -0.343,-0.347 -0.666,-0.674 -0.965,-0.977 l -1.992,-2.018 z m -10.104,-12.923 -18.893,13.287 c 0,0 -0.704,-1.009 -1.764,-2.523 -1.084,-1.5 -2.389,-3.584 -3.738,-5.655 -0.66,-1.096 -1.321,-2.193 -1.94,-3.221 -0.295,-0.5 -0.638,-1.048 -0.855,-1.449 -0.235,-0.424 -0.463,-0.827 -0.67,-1.197 -0.83,-1.484 -1.383,-2.474 -1.383,-2.474 l 20.772,-11.24 c 0,0 0.523,1.004 1.312,2.511 0.196,0.379 0.411,0.787 0.636,1.219 0.234,0.462 0.44,0.787 0.671,1.209 0.457,0.806 0.941,1.667 1.426,2.527 1.083,1.756 2.127,3.558 3.005,4.838 0.852,1.301 1.421,2.168 1.421,2.168 m -14.821,-29.594 -22.671,8.287 c 0,0 -0.874,-2.417 -1.747,-4.832 l -1.43,-4.348 23.282,-7.303 c 0,0 0.654,2.192 1.308,4.387 0.63,1.906 1.258,3.809 1.258,3.809 m 39.059,82.592 11.196,-18.39 c 0,0 0.96,0.603 2.402,1.509 0.359,0.227 0.749,0.471 1.161,0.73 0.427,0.276 0.785,0.465 1.205,0.717 0.816,0.479 1.687,0.993 2.558,1.505 1.852,1 3.681,2.048 5.107,2.739 1.408,0.717 2.349,1.195 2.349,1.195 l -8.948,19.01 c 0,0 -1.097,-0.52 -2.743,-1.296 -1.659,-0.752 -3.806,-1.889 -5.974,-2.988 -1.101,-0.607 -2.204,-1.212 -3.237,-1.782 -0.499,-0.28 -1.052,-0.572 -1.45,-0.813 -0.419,-0.247 -0.816,-0.482 -1.184,-0.697 -1.464,-0.864 -2.442,-1.439 -2.442,-1.439 m 27.531,-70.938 c -1.077,-1.476 -1.796,-2.459 -1.796,-2.459 l 8.652,-6.498 c 0,0 0.705,0.807 1.761,2.016 0.526,0.604 1.107,1.336 1.818,2.043 0.687,0.725 1.424,1.497 2.158,2.27 0.746,0.703 1.491,1.408 2.192,2.069 0.359,0.333 0.652,0.648 1.019,0.971 0.37,0.32 0.721,0.625 1.044,0.906 1.296,1.125 2.159,1.874 2.159,1.874 l -7.96,8.828 c 0,0 -0.835,-0.782 -2.087,-1.953 -0.312,-0.293 -0.653,-0.61 -1.012,-0.948 -0.36,-0.341 -0.774,-0.784 -1.179,-1.203 -0.81,-0.863 -1.691,-1.78 -2.531,-2.705 -0.788,-0.935 -1.574,-1.871 -2.311,-2.749 -0.753,-0.861 -1.377,-1.731 -1.927,-2.462 m 7.701,86.948 6.21,-19.523 c 0,0 1.076,0.359 2.689,0.898 0.403,0.134 0.839,0.28 1.303,0.434 0.478,0.164 0.881,0.271 1.354,0.417 0.918,0.28 1.899,0.578 2.879,0.876 2.052,0.549 4.094,1.144 5.648,1.492 1.551,0.377 2.585,0.627 2.585,0.627 l -4.126,19.535 c 0,0 -1.177,-0.25 -2.948,-0.624 -1.773,-0.348 -4.108,-0.948 -6.455,-1.51 -1.2,-0.325 -2.398,-0.653 -3.524,-0.959 -0.546,-0.154 -1.138,-0.304 -1.586,-0.445 -0.466,-0.142 -0.907,-0.274 -1.315,-0.397 -1.628,-0.494 -2.714,-0.821 -2.714,-0.821 m 25.11,-60.993 c -1.06,-0.434 -2.01,-0.928 -2.832,-1.334 -1.642,-0.814 -2.737,-1.358 -2.737,-1.358 l 5.753,-10.726 c 0,0 0.949,0.485 2.373,1.212 0.712,0.361 1.535,0.805 2.457,1.193 0.913,0.412 1.886,0.852 2.86,1.29 0.959,0.391 1.917,0.781 2.815,1.148 0.462,0.181 0.857,0.366 1.323,0.527 0.466,0.162 0.903,0.313 1.308,0.453 1.622,0.566 2.702,0.94 2.702,0.94 l -3.639,11.127 c 0,0 -1.094,-0.335 -2.736,-0.839 -0.408,-0.126 -0.853,-0.262 -1.323,-0.406 -0.468,-0.142 -1.031,-0.361 -1.574,-0.552 -1.104,-0.4 -2.282,-0.83 -3.461,-1.258 -1.12,-0.482 -2.24,-0.964 -3.289,-1.417 m 12.634,68.41 1.571,-19.379 c 0,0 1.131,0.108 2.823,0.271 0.424,0.039 0.882,0.083 1.367,0.129 0.503,0.054 0.925,0.067 1.42,0.103 0.966,0.067 1.995,0.137 3.023,0.207 2.127,0.073 4.258,0.197 5.856,0.184 1.597,0.018 2.664,0.029 2.664,0.029 l 0.364,18.919 c 0,0 -1.203,0.023 -3.004,0.057 -1.806,0.059 -4.208,0 -6.618,-0.02 -1.234,-0.05 -2.47,-0.096 -3.629,-0.143 -0.565,-0.027 -1.172,-0.04 -1.638,-0.076 -0.486,-0.033 -0.946,-0.063 -1.37,-0.091 -1.698,-0.114 -2.829,-0.19 -2.829,-0.19 m 22.06,-60.711 c -1.859,-0.018 -3.099,-0.031 -3.099,-0.031 l 1.066,-10.357 c 0,0 1.044,0.108 2.61,0.273 1.579,0.183 3.685,0.431 5.79,0.676 0.538,0.049 1.136,0.031 1.693,0.051 0.564,0.013 1.12,0.025 1.656,0.036 1.074,0.022 2.077,0.043 2.936,0.062 1.719,0.042 2.866,0.069 2.866,0.069 l 0.382,8.208 c 0,0 -1.138,0.132 -2.847,0.331 -0.855,0.096 -1.851,0.208 -2.917,0.328 -0.535,0.061 -1.087,0.125 -1.649,0.185 -0.567,0.055 -1.112,0.152 -1.714,0.165 -2.462,0.001 -4.927,0.002 -6.773,0.004 m 13.509,41.203 2.807,-0.393 c 0.421,-0.061 0.878,-0.124 1.361,-0.192 0.506,-0.063 0.911,-0.152 1.401,-0.233 0.949,-0.161 1.961,-0.335 2.973,-0.51 2.072,-0.436 4.165,-0.82 5.702,-1.218 1.546,-0.37 2.577,-0.617 2.577,-0.617 l 4.71,17.248 c 0,0 -1.167,0.315 -2.917,0.787 -1.744,0.503 -4.098,1.016 -6.45,1.575 -1.216,0.245 -2.434,0.49 -3.574,0.72 -0.557,0.105 -1.157,0.241 -1.614,0.311 -0.482,0.082 -0.936,0.159 -1.355,0.23 -1.677,0.285 -2.796,0.475 -2.796,0.475 z m 20.884,-47.998 -1.748,-4.596 c 0,0 1.055,-0.282 2.644,-0.747 0.767,-0.276 1.705,-0.543 2.664,-0.917 0.971,-0.359 1.999,-0.773 2.991,-1.258 0.514,-0.222 0.999,-0.484 1.473,-0.755 0.472,-0.27 0.969,-0.507 1.4,-0.797 0.895,-0.547 1.727,-1.079 2.374,-1.608 0.33,-0.263 0.665,-0.473 0.912,-0.728 0.262,-0.238 0.491,-0.444 0.678,-0.614 0.379,-0.34 0.596,-0.534 0.596,-0.534 0,0 -0.14,0.254 -0.383,0.701 -0.123,0.222 -0.272,0.49 -0.443,0.802 -0.157,0.313 -0.421,0.622 -0.671,0.992 -0.499,0.752 -1.167,1.547 -1.907,2.387 -0.357,0.442 -0.803,0.8 -1.22,1.218 -0.423,0.413 -0.862,0.825 -1.33,1.192 -0.91,0.789 -1.869,1.507 -2.794,2.155 -0.909,0.678 -1.83,1.173 -2.597,1.664 -1.567,0.882 -2.639,1.443 -2.639,1.443 m 11.822,39.587 c 0,0 1.036,-0.455 2.597,-1.135 0.387,-0.171 0.81,-0.355 1.258,-0.552 0.474,-0.196 0.823,-0.392 1.269,-0.599 0.853,-0.411 1.764,-0.849 2.673,-1.287 1.841,-0.995 3.725,-1.935 5.059,-2.759 1.358,-0.793 2.262,-1.321 2.262,-1.321 l 9.014,14.219 c 0,0 -1.034,0.647 -2.589,1.616 -1.536,1.004 -3.676,2.165 -5.797,3.38 -1.117,0.578 -2.233,1.155 -3.28,1.698 -0.511,0.256 -1.063,0.558 -1.484,0.749 -0.441,0.207 -0.858,0.402 -1.242,0.584 -1.54,0.726 -2.562,1.209 -2.562,1.209 z m 30.343,-16.465 c 0,0 3.863,-2.407 7.728,-4.814 3.676,-2.437 7.352,-4.875 7.352,-4.875 l 6.974,8.436 c 0,0 -3.413,3.221 -6.825,6.444 -3.396,3.032 -6.792,6.064 -6.792,6.064 z M 498.589,509.454 c 0,0 1.745,4.069 3.354,8.064 0.208,0.502 0.506,1.018 0.749,1.52 0.256,0.505 0.506,1 0.75,1.48 0.483,0.959 0.935,1.856 1.32,2.625 0.759,1.542 1.266,2.569 1.266,2.569 l -8.179,3.375 c 0,0 -0.366,-1.086 -0.912,-2.717 -0.267,-0.818 -0.579,-1.772 -0.913,-2.793 -0.164,-0.513 -0.335,-1.04 -0.506,-1.579 -0.167,-0.545 -0.366,-1.062 -0.51,-1.648 -1.101,-4.744 -2.065,-9.412 -2.065,-9.412 z m 90.159,-149.508 c 0,0 1.156,-0.457 2.892,-1.143 0.866,-0.354 1.882,-0.743 2.992,-1.092 0.552,-0.186 1.123,-0.377 1.701,-0.571 0.588,-0.188 1.156,-0.404 1.778,-0.567 1.243,-0.327 2.486,-0.654 3.65,-0.962 0.584,-0.153 1.163,-0.308 1.621,-0.396 0.481,-0.101 0.935,-0.197 1.354,-0.286 1.68,-0.357 2.8,-0.594 2.8,-0.594 l 2.845,14.668 c 0,0 -1.127,0.198 -2.817,0.494 -0.422,0.075 -0.88,0.155 -1.365,0.24 -0.513,0.079 -0.936,0.187 -1.394,0.294 -0.917,0.208 -1.894,0.43 -2.873,0.654 -0.992,0.253 -2.013,0.542 -2.957,0.793 -0.956,0.238 -1.828,0.512 -2.567,0.77 -1.489,0.484 -2.483,0.809 -2.483,0.809 z m 37.805,8.526 1.284,-15.191 c 0,0 1.256,0.149 3.137,0.371 0.468,0.057 0.977,0.12 1.517,0.185 0.54,0.056 1.096,0.188 1.679,0.285 1.159,0.216 2.397,0.446 3.635,0.675 1.272,0.314 2.542,0.629 3.733,0.924 0.575,0.151 1.219,0.291 1.665,0.438 0.47,0.147 0.914,0.283 1.324,0.412 1.634,0.527 2.722,0.875 2.722,0.875 l -4.362,14.345 c 0,0 -1.099,-0.314 -2.748,-0.789 -0.411,-0.122 -0.857,-0.255 -1.327,-0.395 -0.491,-0.155 -0.868,-0.209 -1.332,-0.325 -0.892,-0.208 -1.845,-0.431 -2.797,-0.654 -1.015,-0.175 -2.028,-0.35 -2.979,-0.513 -0.475,-0.073 -0.933,-0.184 -1.371,-0.219 -0.438,-0.048 -0.853,-0.092 -1.235,-0.133 -1.527,-0.175 -2.545,-0.291 -2.545,-0.291 m 31.514,9.895 7.21,-12.253 c 0,0 1.029,0.674 2.569,1.687 1.563,0.975 3.514,2.461 5.476,3.919 0.975,0.796 1.948,1.59 2.863,2.335 0.44,0.369 0.929,0.742 1.276,1.067 0.365,0.329 0.712,0.64 1.031,0.927 1.277,1.148 2.128,1.912 2.128,1.912 l -8.246,9.942 c 0,0 -0.909,-0.694 -2.273,-1.737 -0.342,-0.262 -0.711,-0.543 -1.102,-0.844 -0.398,-0.315 -0.763,-0.534 -1.171,-0.821 -0.797,-0.55 -1.645,-1.138 -2.494,-1.724 -1.824,-1.109 -3.574,-2.322 -4.977,-3.078 -1.374,-0.8 -2.29,-1.332 -2.29,-1.332 m 26.947,21.143 8.456,-6.944 c 0,0 0.688,0.99 1.719,2.469 0.518,0.738 1.123,1.596 1.699,2.566 0.592,0.956 1.224,1.973 1.854,2.995 0.602,1.064 1.203,2.129 1.766,3.128 0.27,0.495 0.571,0.985 0.782,1.428 0.218,0.444 0.422,0.862 0.611,1.249 0.757,1.546 1.26,2.578 1.26,2.578 l -7.114,4.24 c 0,0 -0.667,-0.931 -1.669,-2.332 -0.499,-0.707 -1.088,-1.533 -1.702,-2.299 -0.615,-0.793 -1.273,-1.641 -1.928,-2.488 -0.706,-0.836 -1.411,-1.674 -2.072,-2.459 -0.646,-0.791 -1.302,-1.491 -1.845,-2.102 -1.091,-1.218 -1.817,-2.029 -1.817,-2.029 m 19.798,29.02 4.538,-1.51 c 0,0 0.241,1.16 0.547,2.906 0.303,1.743 0.632,4.079 0.845,6.41 0.186,2.344 0.216,4.678 0.173,6.429 0.004,0.872 -0.083,1.59 -0.104,2.097 -0.035,0.506 -0.053,0.795 -0.053,0.795 0,0 -0.285,-1.121 -0.715,-2.8 -0.408,-1.663 -1.117,-3.847 -1.842,-5.99 -0.732,-2.142 -1.564,-4.236 -2.235,-5.783 -0.677,-1.544 -1.154,-2.554 -1.154,-2.554 m -489.658,-68.584 -5.179,13.111 c 0,0 -0.991,-0.325 -2.482,-0.809 -0.739,-0.258 -1.611,-0.532 -2.566,-0.77 -0.945,-0.251 -1.966,-0.54 -2.958,-0.793 -0.976,-0.224 -1.955,-0.446 -2.873,-0.654 -0.456,-0.107 -0.881,-0.215 -1.392,-0.294 -0.486,-0.085 -0.942,-0.165 -1.367,-0.24 -1.69,-0.296 -2.816,-0.494 -2.816,-0.494 l 2.846,-14.668 c 0,0 1.119,0.237 2.799,0.594 0.418,0.089 0.873,0.185 1.355,0.286 0.457,0.088 1.036,0.243 1.621,0.396 1.164,0.308 2.406,0.635 3.649,0.962 0.621,0.163 1.191,0.379 1.776,0.567 0.579,0.194 1.152,0.385 1.704,0.571 1.108,0.349 2.126,0.738 2.991,1.092 1.736,0.686 2.892,1.143 2.892,1.143 m -37.805,8.526 c 0,0 -1.017,0.116 -2.546,0.291 -0.382,0.041 -0.796,0.085 -1.235,0.133 -0.44,0.035 -0.894,0.146 -1.369,0.219 -0.951,0.163 -1.965,0.338 -2.978,0.513 -0.954,0.223 -1.906,0.446 -2.801,0.654 -0.465,0.116 -0.839,0.17 -1.33,0.325 -0.47,0.14 -0.916,0.273 -1.327,0.395 l -2.749,0.789 -4.362,-14.345 c 0,0 1.089,-0.348 2.723,-0.875 0.41,-0.129 0.854,-0.265 1.323,-0.412 0.446,-0.147 1.093,-0.287 1.665,-0.438 1.19,-0.295 2.462,-0.61 3.733,-0.924 1.237,-0.229 2.476,-0.459 3.636,-0.675 0.583,-0.097 1.14,-0.229 1.679,-0.285 0.539,-0.065 1.048,-0.128 1.518,-0.185 1.881,-0.222 3.134,-0.371 3.134,-0.371 z m -31.515,9.895 c 0,0 -0.917,0.532 -2.292,1.332 -1.398,0.756 -3.151,1.969 -4.974,3.078 -0.849,0.586 -1.7,1.174 -2.494,1.724 -0.408,0.287 -0.772,0.506 -1.171,0.821 -0.391,0.301 -0.76,0.581 -1.103,0.844 -1.362,1.043 -2.271,1.737 -2.271,1.737 l -8.248,-9.942 c 0,0 0.852,-0.767 2.129,-1.912 0.319,-0.287 0.665,-0.598 1.031,-0.927 0.348,-0.325 0.837,-0.698 1.277,-1.067 0.912,-0.745 1.886,-1.539 2.861,-2.335 1.962,-1.458 3.913,-2.944 5.478,-3.919 1.54,-1.013 2.567,-1.687 2.567,-1.687 z m -26.947,21.143 c 0,0 -0.726,0.811 -1.818,2.029 -0.542,0.611 -1.197,1.311 -1.843,2.102 -0.662,0.785 -1.366,1.623 -2.073,2.459 -0.655,0.847 -1.311,1.695 -1.927,2.488 -0.615,0.766 -1.203,1.592 -1.703,2.299 -1.002,1.401 -1.669,2.332 -1.669,2.332 l -7.114,-4.24 c 0,0 0.505,-1.032 1.261,-2.578 0.189,-0.387 0.393,-0.805 0.609,-1.249 0.211,-0.443 0.513,-0.933 0.784,-1.428 0.562,-0.999 1.165,-2.064 1.765,-3.128 0.632,-1.022 1.262,-2.039 1.855,-2.995 0.577,-0.97 1.182,-1.828 1.698,-2.566 1.031,-1.479 1.718,-2.469 1.718,-2.469 z m -19.798,29.02 c 0,-0.002 -0.477,1.01 -1.152,2.554 -0.672,1.547 -1.504,3.641 -2.236,5.783 -0.723,2.143 -1.432,4.327 -1.845,5.99 -0.428,1.679 -0.711,2.8 -0.711,2.8 0,0 -0.02,-0.289 -0.053,-0.795 -0.024,-0.507 -0.111,-1.225 -0.105,-2.097 -0.043,-1.751 -0.011,-4.085 0.173,-6.429 0.213,-2.331 0.541,-4.667 0.843,-6.41 0.308,-1.746 0.548,-2.906 0.548,-2.906 z m 22.223,149.906 -5.561,5.5 c 0,0 -0.728,-0.874 -1.821,-2.187 -0.546,-0.658 -1.183,-1.403 -1.867,-2.288 -0.683,-0.865 -1.41,-1.784 -2.138,-2.708 -1.383,-1.881 -2.792,-3.714 -3.755,-5.178 -0.983,-1.438 -1.639,-2.393 -1.639,-2.393 l 3.695,-2.903 c 0,0 0.779,0.799 1.946,1.997 1.139,1.215 2.789,2.735 4.387,4.27 0.821,0.734 1.642,1.471 2.411,2.162 0.746,0.685 1.527,1.331 2.173,1.883 1.302,1.107 2.169,1.845 2.169,1.845 m 560.819,0 c 0,0 0.868,-0.738 2.17,-1.843 0.645,-0.554 1.426,-1.2 2.175,-1.885 0.768,-0.691 1.587,-1.428 2.407,-2.162 1.598,-1.535 3.251,-3.055 4.388,-4.27 1.168,-1.198 1.946,-1.997 1.946,-1.997 l 3.694,2.903 c 0,0 -0.654,0.955 -1.638,2.393 -0.961,1.464 -2.371,3.297 -3.754,5.178 -0.728,0.924 -1.456,1.843 -2.138,2.708 -0.686,0.885 -1.322,1.63 -1.868,2.288 -1.093,1.313 -1.822,2.187 -1.822,2.187 z M 752.57,416.562 c 0.03,-10.425 -0.807,-20.101 -2.066,-28.926 -0.163,-1.103 -0.322,-2.195 -0.479,-3.273 l -0.118,-0.806 -0.045,-0.309 -0.037,-0.195 -0.075,-0.389 c -0.1,-0.516 -0.199,-1.031 -0.297,-1.543 -0.1,-0.514 -0.199,-1.025 -0.299,-1.531 -0.124,-0.545 -0.247,-1.086 -0.369,-1.623 -0.065,-0.27 -0.126,-0.537 -0.188,-0.805 -0.184,-0.801 -0.364,-1.598 -0.582,-2.338 -1.037,-4.05 -2.333,-7.784 -3.614,-11.283 -5.371,-13.911 -11.452,-23.677 -15.668,-30.212 -2.123,-3.263 -3.8,-5.717 -4.979,-7.342 -1.17,-1.629 -1.773,-2.468 -1.773,-2.468 0,0 0.415,0.946 1.221,2.782 0.789,1.837 2,4.543 3.445,8.117 0.425,1.075 0.887,2.251 1.364,3.478 2.699,6.94 6.094,16.292 8.54,27.944 0.682,3.425 1.343,7.028 1.709,10.81 0.129,0.954 0.161,1.863 0.244,2.805 0.036,0.467 0.075,0.935 0.112,1.406 0.027,0.513 0.051,1.031 0.078,1.548 0.026,0.522 0.05,1.046 0.077,1.571 l 0.017,0.395 0.011,0.198 c 0.005,0.091 -0.019,-0.077 -0.007,0.085 l 0.02,0.779 c 0.023,1.036 0.049,2.084 0.075,3.143 0.145,8.465 -0.103,17.592 -1.191,27.19 -0.312,2.778 -0.693,5.601 -1.137,8.452 -4.315,43.898 -24.177,68.028 -40.628,80.702 -20.546,15.83 -44.551,20.486 -59.413,18.289 -1.717,-0.25 -3.429,-0.549 -5.133,-0.935 -11.877,-2.715 -23.363,-8.637 -33.464,-17.198 -1.284,-1.035 -2.504,-2.181 -3.739,-3.301 -1.244,-1.132 -2.236,-2.182 -3.413,-3.309 l -2.008,-2.121 -1.005,-1.062 -0.57,-0.757 c -0.97,-1.263 -1.899,-2.562 -2.771,-3.897 -2.819,-4.255 -5.172,-8.828 -7.073,-13.595 1.777,-0.992 3.578,-2.036 5.405,-3.134 0.408,0.844 0.805,1.692 1.247,2.528 1.433,2.701 3.026,5.364 4.801,7.94 0.894,1.285 1.798,2.57 2.768,3.817 0.467,0.638 0.966,1.251 1.465,1.869 l 0.748,0.926 c 0.346,0.332 -0.27,-0.189 -0.101,-0.042 l 0.264,0.252 0.53,0.499 2.115,2.006 0.52,0.492 0.398,0.348 0.796,0.704 c 0.545,0.475 1.015,0.935 1.616,1.43 l 1.815,1.494 c 1.202,1.018 2.464,1.891 3.685,2.853 1.271,0.842 2.489,1.806 3.775,2.593 2.52,1.713 5.137,3.129 7.748,4.523 2.646,1.278 5.296,2.504 7.998,3.481 1.527,0.562 3.065,1.05 4.609,1.498 2.048,-2.678 3.943,-5.537 5.654,-8.613 4.13,-7.542 7.167,-16.385 8.485,-26.04 1.354,-9.623 0.95,-19.996 -1.13,-29.815 -2.051,-9.799 -6.035,-18.971 -10.759,-25.481 -2.356,-3.227 -4.762,-5.944 -7.145,-7.879 -2.386,-2.02 -4.681,-3.378 -7.375,-4.355 -0.341,-0.097 -0.684,-0.209 -1.033,-0.343 -0.358,-0.077 -0.721,-0.155 -1.088,-0.259 -0.364,-0.131 -0.759,-0.125 -1.145,-0.212 l -0.587,-0.114 c -0.17,0 1.154,-0.157 0.398,-0.085 l -0.39,0.011 -0.781,0.019 -1.562,0.037 c -0.331,0.01 -0.378,0.002 -0.458,-0.004 l -0.258,-0.025 c -0.35,-0.035 -0.637,-0.118 -1.279,-0.078 -1.129,0.004 -2.224,0.048 -3.283,0.128 -4.25,0.326 -7.985,1.096 -11.319,2.418 -3.306,1.343 -6.323,3.194 -8.997,5.898 -2.699,2.664 -5.002,6.216 -6.711,10.467 -1.658,4.265 -2.729,9.206 -2.952,14.496 -0.076,1.824 -0.021,3.697 0.094,5.583 -1.361,-0.654 -2.726,-1.267 -4.098,-1.839 0.064,-3.786 0.378,-7.531 1.018,-11.159 2.093,-12.096 7.657,-22.66 14.931,-28.738 3.643,-3.069 7.58,-5.205 11.954,-6.506 2.182,-0.658 4.456,-1.164 6.864,-1.463 0.583,-0.103 1.223,-0.117 1.825,-0.191 0.336,-0.047 0.567,-0.046 0.769,-0.038 l 0.643,-0.012 2.724,-0.168 0.386,-0.026 c 0.655,-0.075 -0.441,0.071 -0.279,0.066 l 0.374,0.029 0.744,0.043 c 3.929,0.29 7.531,1.324 11.184,3.279 3.638,1.905 7.305,4.682 10.755,8.284 6.943,7.152 12.77,17.309 16.38,28.248 3.63,10.969 5.254,22.695 4.83,33.826 -0.192,5.573 -0.915,11.007 -2.103,16.19 -1.151,5.195 -2.802,10.129 -4.841,14.759 -2.212,5.096 -4.929,9.796 -8.041,14.147 13.598,0.58 33.111,-4.29 50.266,-17.509 14.174,-10.918 31.032,-30.967 36.93,-66.314 -2.699,-8.434 -6.013,-16.696 -10.079,-24.683 -4.707,-9.339 -10.376,-18.326 -17.112,-26.772 -3.341,-4.228 -7.026,-8.293 -10.964,-12.189 -3.925,-3.9 -8.18,-7.602 -12.782,-11.033 -4.594,-3.432 -9.486,-6.622 -14.757,-9.409 -5.277,-2.777 -10.891,-5.171 -16.787,-7.032 -11.749,-3.787 -24.805,-5.135 -37.279,-3.635 l -2.331,0.305 -1.164,0.159 c -0.094,0.013 -1.445,0.196 -1.043,0.156 l -0.379,0.08 -3.381,0.716 -2.392,0.529 c -0.813,0.18 -1.594,0.366 -2.259,0.557 -1.399,0.394 -2.788,0.736 -4.183,1.199 -5.561,1.728 -11.076,3.957 -16.346,6.765 -10.567,5.568 -20.035,13.493 -27.324,22.624 -7.306,9.157 -12.47,19.396 -15.713,29.701 -2.285,7.169 -3.641,14.378 -4.308,21.505 0.111,-2.051 0.202,-4.136 0.246,-6.298 0.239,-11.479 -0.597,-24.311 -2.07,-35.743 0.012,-0.019 0.021,-0.039 0.031,-0.06 6.059,-11.233 14.684,-21.499 24.87,-29.685 10.188,-8.189 21.805,-14.256 33.546,-18.221 2.938,-1.003 5.885,-1.88 8.829,-2.64 1.384,-0.39 3.148,-0.773 4.845,-1.131 l 3.881,-0.831 0.763,-0.17 0.382,-0.084 c -0.498,0.043 1.081,-0.155 1.172,-0.167 l 2.512,-0.344 c 1.681,-0.206 3.35,-0.471 5.063,-0.571 1.705,-0.126 3.414,-0.245 5.131,-0.332 l 5.176,-0.051 c 6.921,0.103 13.888,0.884 20.691,2.315 6.813,1.421 13.388,3.565 19.659,6.166 12.586,5.216 23.652,12.477 33.219,20.654 2.655,2.297 5.189,4.672 7.633,7.102 -26.043,-142.967 -151.201,-251.36 -301.684,-251.36 -150.1,0 -274.996,107.843 -301.477,250.27 3.025,-2.932 6.201,-5.774 9.559,-8.491 4.944,-3.964 10.255,-7.652 15.921,-10.979 5.689,-3.312 11.775,-6.217 18.147,-8.61 12.71,-4.856 26.857,-7.259 40.619,-6.928 3.434,0.147 6.861,0.335 10.214,0.796 l 2.52,0.319 c 0.079,0.012 1.771,0.203 1.225,0.159 l 0.383,0.083 0.764,0.161 3.948,0.807 c 1.748,0.353 3.552,0.73 4.964,1.12 1.509,0.387 3.007,0.766 4.518,1.233 3.009,0.882 6.016,1.888 9.001,3.047 11.93,4.579 23.539,11.475 33.242,20.465 4.856,4.474 9.246,9.409 13.053,14.654 3.791,5.255 7.005,10.801 9.636,16.476 0.243,0.525 0.455,1.057 0.688,1.584 -0.157,2.133 -0.311,4.383 -0.461,6.772 -0.936,14.863 -1.503,31.247 -1.797,45.065 -0.643,-0.069 -1.27,-0.125 -1.9,-0.186 0.124,-2.327 0.187,-4.669 0.175,-7.027 -0.119,-10.114 -1.523,-20.521 -4.809,-30.844 -3.243,-10.302 -8.406,-20.544 -15.714,-29.701 -7.29,-9.131 -16.757,-17.056 -27.324,-22.624 -5.27,-2.808 -10.786,-5.037 -16.347,-6.765 -1.394,-0.463 -2.783,-0.805 -4.182,-1.199 -0.665,-0.191 -1.445,-0.377 -2.259,-0.557 l -2.393,-0.529 -3.38,-0.716 -0.379,-0.08 c 0.402,0.04 -0.949,-0.143 -1.043,-0.156 l -1.163,-0.159 -2.332,-0.305 c -12.473,-1.5 -25.531,-0.152 -37.281,3.635 -5.895,1.861 -11.508,4.255 -16.785,7.032 -5.272,2.787 -10.164,5.977 -14.758,9.408 -4.601,3.429 -8.856,7.134 -12.782,11.034 -3.936,3.894 -7.623,7.961 -10.962,12.189 -6.737,8.444 -12.406,17.433 -17.113,26.772 -4.068,7.986 -7.381,16.247 -10.08,24.681 5.897,35.348 22.755,55.398 36.931,66.316 17.156,13.218 36.668,18.089 50.264,17.509 -3.111,-4.351 -5.829,-9.051 -8.042,-14.147 -2.038,-4.63 -3.689,-9.564 -4.84,-14.759 -1.187,-5.183 -1.909,-10.617 -2.101,-16.19 -0.425,-11.131 1.199,-22.857 4.83,-33.826 3.609,-10.939 9.436,-21.096 16.379,-28.248 3.451,-3.602 7.119,-6.379 10.754,-8.284 3.656,-1.955 7.256,-2.989 11.187,-3.279 l 0.741,-0.043 0.374,-0.029 c 0.164,0.005 -0.934,-0.141 -0.277,-0.066 l 0.386,0.026 2.724,0.168 0.643,0.012 c 0.201,-0.008 0.432,-0.009 0.769,0.038 0.602,0.074 1.242,0.088 1.826,0.191 2.406,0.299 4.681,0.805 6.863,1.463 4.372,1.301 8.311,3.437 11.954,6.506 7.274,6.08 12.839,16.642 14.933,28.738 0.574,3.266 0.895,6.625 1.003,10.024 -1.43,0.672 -2.85,1.392 -4.264,2.156 -0.002,-0.435 0.021,-0.877 0.008,-1.309 -0.145,-5.548 -1.094,-10.847 -2.654,-15.528 -1.597,-4.674 -3.848,-8.706 -6.483,-11.785 -2.639,-3.1 -5.574,-5.258 -8.7,-6.712 -6.046,-2.871 -14.351,-3.527 -21.897,-2.053 -2.811,0.926 -5.178,2.144 -7.604,4.087 -1.206,0.957 -2.424,2.026 -3.642,3.283 -1.217,1.281 -2.424,2.719 -3.629,4.278 -4.83,6.307 -9.022,15.286 -11.321,25 -1.129,4.881 -1.884,9.902 -2.154,14.931 -0.331,5.015 -0.164,10.022 0.396,14.859 1.127,9.687 3.938,18.635 7.965,26.246 2.368,4.554 5.167,8.638 8.301,12.341 0.872,-0.251 1.746,-0.491 2.611,-0.781 5.371,-1.77 10.594,-4.348 15.63,-7.512 2.491,-1.651 4.977,-3.354 7.365,-5.307 1.222,-0.913 2.362,-2.002 3.559,-2.984 l 1.538,-1.433 c 0.526,-0.491 0.955,-0.852 1.723,-1.63 l 2.075,-2.058 0.52,-0.516 c 0.166,-0.154 -0.454,0.408 -0.109,0.06 l 0.177,-0.234 0.711,-0.932 c 0.944,-1.238 1.853,-2.5 2.709,-3.794 1.732,-2.568 3.309,-5.216 4.715,-7.927 1.22,-2.35 2.284,-4.753 3.241,-7.183 1.428,0.759 2.839,1.483 4.238,2.176 -1.985,5.274 -4.508,10.33 -7.602,14.999 -0.874,1.336 -1.802,2.634 -2.771,3.897 l -0.57,0.757 -1.005,1.063 -2.008,2.12 c -1.177,1.127 -2.168,2.177 -3.413,3.309 -1.236,1.12 -2.456,2.268 -3.74,3.302 -10.102,8.56 -21.586,14.482 -33.463,17.197 -1.704,0.386 -3.416,0.685 -5.131,0.935 -14.857,2.197 -38.867,-2.458 -59.416,-18.289 -16.449,-12.672 -36.306,-36.797 -40.625,-80.683 -0.446,-2.86 -0.828,-5.687 -1.143,-8.473 -1.088,-9.596 -1.334,-18.725 -1.188,-27.188 0.025,-1.059 0.05,-2.107 0.075,-3.143 l 0.019,-0.779 c 0.01,-0.164 -0.014,0.006 -0.005,-0.085 l 0.009,-0.198 0.018,-0.395 c 0.027,-0.525 0.052,-1.049 0.077,-1.571 0.025,-0.517 0.05,-1.035 0.077,-1.548 0.039,-0.471 0.075,-0.939 0.113,-1.406 0.081,-0.942 0.115,-1.851 0.245,-2.805 0.366,-3.782 1.026,-7.385 1.709,-10.81 2.444,-11.651 5.84,-21.003 8.538,-27.941 0.479,-1.229 0.941,-2.406 1.365,-3.481 1.444,-3.574 2.656,-6.28 3.446,-8.12 0.805,-1.833 1.221,-2.779 1.221,-2.779 0,0 -0.604,0.839 -1.774,2.468 -1.177,1.625 -2.856,4.079 -4.98,7.342 -4.214,6.535 -10.298,16.301 -15.668,30.212 -1.279,3.498 -2.576,7.233 -3.614,11.281 -0.217,0.741 -0.398,1.537 -0.582,2.336 -0.062,0.271 -0.121,0.539 -0.187,0.809 -0.124,0.537 -0.247,1.078 -0.37,1.623 -0.1,0.506 -0.198,1.017 -0.299,1.529 -0.097,0.514 -0.197,1.029 -0.296,1.545 l -0.075,0.389 -0.037,0.193 -0.046,0.311 -0.118,0.806 c -0.157,1.078 -0.316,2.169 -0.478,3.272 -1.259,8.826 -2.098,18.5 -2.066,28.927 -0.039,10.426 0.869,21.601 3.044,33.291 2.185,11.679 5.83,23.857 11.415,35.981 0.327,0.698 0.683,1.396 1.025,2.096 0.002,0.094 0.006,0.188 0.008,0.283 33.024,65.36 93.366,68.551 129.811,58.344 -0.007,-0.003 -0.013,-0.007 -0.019,-0.011 2.273,-0.86 4.518,-1.796 6.735,-2.806 8.021,-3.703 15.603,-8.359 22.559,-13.76 1.77,-1.322 3.441,-2.744 5.13,-4.158 1.68,-1.406 3.452,-3.084 5.122,-4.601 1.521,-1.474 3.043,-2.951 4.568,-4.43 1.691,-1.589 3.332,-3.245 4.909,-4.96 6.341,-6.848 11.827,-14.595 16.311,-22.964 0.359,-0.671 0.7,-1.351 1.046,-2.03 4.063,0.324 7.918,0.219 11.556,-0.319 -4.263,8.071 -9.302,15.525 -14.95,22.254 -3.144,3.749 -6.468,7.278 -9.937,10.576 -1.728,1.657 -3.502,3.25 -5.307,4.781 l -1.356,1.145 -0.339,0.285 c 0.171,-0.177 -0.619,0.561 -0.631,0.572 l -0.546,0.484 -2.187,1.94 c -0.628,0.575 -1.693,1.459 -2.63,2.243 l -2.866,2.365 c -1.862,1.396 -3.643,2.85 -5.574,4.16 -2.133,1.543 -4.347,2.989 -6.606,4.374 0.668,0.087 1.33,0.169 1.984,0.229 6.2,0.575 11.698,0.028 16.212,-1.12 4.546,-1.153 8.125,-2.96 11.056,-4.998 2.932,-2.059 5.242,-4.422 7.37,-6.968 2.128,-2.538 4.004,-5.408 5.704,-8.449 0.836,-1.553 1.617,-3.149 2.363,-4.739 0.708,-1.658 1.422,-3.228 2.017,-4.898 2.577,-6.481 4.135,-12.877 5.082,-17.34 0.256,-1.655 1.003,-5.116 1.398,-6.931 0.892,-0.137 1.768,-0.304 2.633,-0.493 l 18.194,4.999 c -0.119,0.463 -0.237,0.923 -0.365,1.428 -1.468,5.173 -3.824,12.634 -7.816,20.782 -3.896,8.198 -9.459,17.006 -17.216,24.334 -7.711,7.327 -17.669,13.469 -30.819,15.728 -6.537,1.127 -13.835,1.278 -21.59,0.058 -4.08,-0.645 -8.282,-1.698 -12.519,-3.168 l 0.02,0.059 c -26.122,9.22 -55.539,9.127 -80.706,-0.257 -23.353,-8.706 -42.706,-25.093 -56.993,-47.999 0.925,9.5 2.691,18.939 5.264,28.147 5.517,20.064 15.041,38.895 27.016,54.997 5.966,8.076 12.567,15.452 19.499,22.141 l 2.605,2.501 2.656,2.39 2.665,2.37 c 0.861,0.776 1.98,1.653 2.963,2.467 l 3.054,2.471 2.512,1.99 2.101,1.644 1.049,0.821 0.26,0.206 c -0.585,-0.391 1.089,0.761 1.055,0.74 l 0.734,0.523 c 15.569,11.291 32.856,19.951 50.828,25.537 17.96,5.598 36.606,8.169 54.685,7.555 18.081,-0.529 35.534,-4.097 51.283,-9.808 15.762,-5.713 29.801,-13.5 41.728,-22.154 11.934,-8.677 21.831,-18.12 30.003,-27.368 8.159,-9.269 14.669,-18.333 19.918,-26.69 0.468,-0.753 0.913,-1.491 1.363,-2.231 -0.092,-0.186 -0.191,-0.373 -0.282,-0.558 -4.392,-9.064 -7.707,-17.728 -10.22,-25.689 l -18.66,-6.821 c 0,0 0.63,-1.903 1.259,-3.809 0.653,-2.195 1.306,-4.387 1.306,-4.387 l 13.003,4.079 c -1.366,-5.465 -2.358,-10.459 -3.099,-14.903 l -12.868,-7.567 -9.474,-5.57 4.471,-1.608 1.653,-0.594 c 3.282,-1.18 6.301,-3.045 9.098,-5.453 -15.697,-4.749 -30.039,-11.985 -41.952,-20.778 l -0.331,-0.221 -38.26,-23.382 c 0.05,-5.183 0.138,-10.447 0.26,-15.71 5.585,16.907 16.973,28.535 33.467,33.147 l 1.056,0.294 1.001,-0.443 c 25.963,-11.474 43.563,-34.569 50.895,-66.79 2.709,-11.905 3.561,-22.908 3.718,-31.102 0.091,-0.749 0.324,-2.614 0.665,-5.382 0.205,-1.845 0.453,-4.085 0.74,-6.654 0.298,-2.574 0.547,-5.463 0.864,-8.621 1.208,-12.623 2.479,-29.466 3.307,-46.33 0.228,-4.216 0.383,-8.435 0.541,-12.586 0.168,-4.152 0.236,-8.244 0.348,-12.197 0.024,-3.96 0.131,-7.78 0.081,-11.41 -0.021,-3.628 -0.04,-7.057 -0.176,-10.224 -0.063,-3.164 -0.259,-6.063 -0.443,-8.628 -0.114,-2.57 -0.488,-4.793 -0.674,-6.628 -0.083,-0.918 -0.23,-1.73 -0.39,-2.432 -0.143,-0.703 -0.266,-1.301 -0.366,-1.784 -0.196,-0.968 -0.303,-1.483 -0.303,-1.483 0,0 0.083,0.52 0.236,1.498 0.078,0.486 0.172,1.087 0.283,1.794 0.128,0.702 0.239,1.515 0.281,2.437 0.101,1.842 0.372,4.06 0.371,6.628 0.066,2.563 0.131,5.453 0.053,8.609 -0.008,3.155 -0.143,6.573 -0.286,10.186 -0.116,3.611 -0.395,7.42 -0.596,11.357 -0.291,3.937 -0.542,8.004 -0.895,12.132 -0.347,4.128 -0.691,8.32 -1.108,12.511 -1.389,14.702 -3.12,29.367 -4.717,41.174 -4.458,-21.19 -14.526,-46.309 -19.849,-64.729 -1.561,-12.855 -2.298,-32.012 -0.873,-46.926 6.379,-9.949 10.272,-16.5 10.94,-20.53 l 0.085,-0.525 -0.035,-0.531 c -0.393,-5.958 -0.024,-22.774 6.313,-28.9 1.742,-1.685 3.793,-2.354 6.448,-2.079 10.733,1.072 16.573,5.721 19.487,9.143 v 16.118 c -2.252,0.089 -4.502,0.126 -6.754,0.257 -1.544,0.086 -3.09,0.178 -4.636,0.287 0.357,-0.447 0.702,-0.897 1.08,-1.327 0.602,-0.756 1.303,-1.39 1.964,-2.122 0.715,-0.641 1.412,-1.362 2.188,-1.975 0.766,-0.661 1.545,-1.254 2.372,-1.856 0.396,-0.331 0.854,-0.614 1.305,-0.895 0.452,-0.277 0.897,-0.576 1.342,-0.883 -1.086,-0.004 -2.126,-0.032 -3.213,0.096 -0.546,0.06 -1.095,0.148 -1.654,0.23 -0.555,0.088 -1.072,0.24 -1.615,0.367 -1.099,0.228 -2.119,0.643 -3.191,1.009 -1.027,0.432 -2.07,0.886 -3.055,1.435 -1.021,0.509 -1.952,1.148 -2.912,1.771 -0.945,0.642 -1.841,1.349 -2.716,2.094 -0.87,0.749 -1.722,1.533 -2.511,2.393 -0.398,0.429 -0.794,0.862 -1.178,1.324 -0.401,0.482 -0.736,0.875 -1.2,1.564 l -4.121,6.141 8.239,0.814 c 2.252,0.221 4.503,0.476 6.757,0.631 2.251,0.198 4.503,0.317 6.755,0.443 2.252,0.13 4.505,0.168 6.756,0.257 2.252,0.025 4.505,0.066 6.757,0.068 2.252,-0.041 4.503,-0.024 6.756,-0.108 2.252,-0.081 4.504,-0.137 6.757,-0.288 2.251,-0.108 4.503,-0.288 6.754,-0.471 1.127,-0.079 2.253,-0.212 3.378,-0.323 1.127,-0.115 2.253,-0.218 3.379,-0.37 l 10.043,-1.336 -6.614,-6.171 c -1.565,-1.461 -3.216,-2.859 -4.972,-4.147 -1.754,-1.286 -3.6,-2.482 -5.557,-3.473 -0.974,-0.502 -1.971,-0.96 -2.986,-1.356 -1.019,-0.405 -2.057,-0.741 -3.102,-1.025 -1.049,-0.281 -2.112,-0.485 -3.172,-0.631 -1.069,-0.11 -2.123,-0.205 -3.183,-0.173 0.886,0.59 1.753,1.132 2.571,1.742 l 1.207,0.915 1.155,0.942 c 1.509,1.278 2.889,2.636 4.185,4.046 0.196,0.219 0.381,0.441 0.575,0.661 -1.222,-0.09 -2.442,-0.171 -3.661,-0.23 -2.253,-0.151 -4.505,-0.207 -6.757,-0.287 -0.438,-0.018 -0.876,-0.018 -1.314,-0.028 v -16.059 c 1.511,-2.793 5.554,-7.071 16.272,-8.144 3.162,-0.317 5.521,0.408 7.445,2.269 5.521,5.347 5.921,18.433 5.609,23.023 l -0.035,0.532 0.086,0.532 c 0.711,4.29 5.838,13.09 14.212,26.94 1.329,16.504 0.272,37.639 -1.547,50.41 -5.581,17.856 -14.302,40.458 -18.318,59.751 -0.673,-5.158 -1.363,-10.868 -2.055,-16.899 -0.412,-3.92 -0.888,-7.966 -1.283,-12.088 -0.411,-4.119 -0.826,-8.307 -1.181,-12.495 -0.392,-4.192 -0.708,-8.386 -1.026,-12.517 -0.327,-4.128 -0.551,-8.196 -0.816,-12.133 -0.177,-3.938 -0.43,-7.747 -0.524,-11.36 -0.121,-3.611 -0.233,-7.029 -0.223,-10.182 -0.06,-3.158 0.02,-6.045 0.097,-8.608 0.013,-2.569 0.291,-4.784 0.402,-6.625 0.044,-0.921 0.159,-1.733 0.287,-2.435 0.111,-0.707 0.208,-1.307 0.286,-1.793 0.155,-0.979 0.237,-1.498 0.237,-1.498 0,0 -0.105,0.515 -0.305,1.482 -0.099,0.483 -0.223,1.081 -0.367,1.783 -0.162,0.7 -0.312,1.513 -0.4,2.43 -0.191,1.833 -0.571,4.055 -0.701,6.624 -0.196,2.562 -0.407,5.46 -0.49,8.623 -0.152,3.165 -0.195,6.592 -0.239,10.219 -0.068,3.628 0.012,7.449 0.011,11.407 0.087,3.954 0.127,8.043 0.266,12.194 0.132,4.152 0.259,8.371 0.46,12.586 0.165,4.217 0.394,8.431 0.618,12.58 0.207,4.152 0.502,8.229 0.74,12.179 0.542,7.898 1.112,15.268 1.688,21.582 0.303,3.16 0.539,6.047 0.832,8.626 0.278,2.572 0.523,4.813 0.722,6.66 0.449,3.659 0.705,5.75 0.705,5.75 l 0.147,-0.02 c 0.173,8.158 1.038,19.016 3.71,30.756 7.332,32.221 24.931,55.316 50.896,66.79 l 1.001,0.443 1.054,-0.294 c 12.37,-3.461 23.03,-14.52 29.839,-28.546 -1.985,9.254 -5.264,17.069 -10.344,21.936 l -17.551,10.58 c -15.095,12.151 -31.227,20.038 -47.525,24.499 2.881,2.182 6.064,3.986 9.593,5.352 l 1.901,0.737 4.157,1.608 -53.018,29.56 -10.879,-6.398 c 0.343,0.925 0.702,1.867 1.067,2.794 3.69,9.329 9.451,23.131 19.89,39.933 5.25,8.357 11.757,17.421 19.917,26.69 8.172,9.248 18.069,18.691 30.005,27.368 11.924,8.654 25.965,16.441 41.727,22.154 15.748,5.711 33.2,9.279 51.282,9.808 18.081,0.614 36.725,-1.957 54.687,-7.555 17.969,-5.586 35.256,-14.247 50.826,-25.537 l 0.735,-0.525 c -0.034,0.023 1.639,-1.129 1.053,-0.738 l 0.262,-0.206 1.049,-0.821 2.1,-1.644 2.514,-1.99 3.054,-2.471 c 0.981,-0.814 2.1,-1.691 2.961,-2.467 l 2.665,-2.37 2.657,-2.39 2.603,-2.501 c 6.932,-6.689 13.534,-14.065 19.5,-22.141 11.976,-16.102 21.499,-34.933 27.017,-54.997 2.573,-9.207 4.338,-18.647 5.264,-28.147 -14.288,22.906 -33.641,39.293 -56.994,47.999 -25.17,9.384 -54.584,9.479 -80.705,0.257 l 0.021,-0.059 c -4.238,1.47 -8.441,2.523 -12.521,3.168 -7.756,1.22 -15.051,1.069 -21.59,-0.058 -13.148,-2.259 -23.107,-8.401 -30.82,-15.728 -7.756,-7.328 -13.319,-16.135 -17.215,-24.334 -3.991,-8.148 -6.347,-15.609 -7.813,-20.782 -0.099,-0.379 -0.184,-0.713 -0.276,-1.068 l 24.242,-0.462 c 3.201,0.12 6.576,-0.114 10.106,-0.665 4.345,7.849 9.563,15.134 15.558,21.609 1.578,1.715 3.218,3.371 4.908,4.96 1.525,1.479 3.049,2.955 4.57,4.43 1.668,1.517 3.442,3.195 5.122,4.599 1.69,1.416 3.359,2.838 5.129,4.159 6.955,5.402 14.537,10.056 22.56,13.761 2.215,1.01 4.462,1.946 6.734,2.806 -0.006,0.004 -0.014,0.008 -0.019,0.011 36.44,10.208 96.784,7.019 129.811,-58.342 0.002,-0.097 0.005,-0.191 0.008,-0.286 0.341,-0.7 0.697,-1.397 1.024,-2.095 5.585,-12.124 9.233,-24.302 11.417,-35.98 2.175,-11.691 3.081,-22.866 3.043,-33.292 M 304.975,675.867 c 18.221,-6.193 34.591,-14.978 48.381,-24.89 13.817,-9.933 25.116,-20.837 34.373,-31.427 4.601,-5.312 8.694,-10.556 12.399,-15.644 1.966,-2.766 3.834,-5.482 5.597,-8.147 2.181,3.065 4.487,6.12 6.93,9.148 9.44,11.645 20.823,22.865 33.971,32.793 13.145,9.94 28.083,18.504 44.433,25.284 16.358,6.773 34.174,11.745 53.307,14.198 6.637,0.861 13.449,1.398 20.404,1.571 -47.08,29.43 -102.708,46.458 -162.32,46.458 -54.919,0 -106.458,-14.45 -151.044,-39.734 8.477,-0.247 16.883,-1.075 25.098,-2.431 9.818,-1.659 19.364,-4.102 28.471,-7.179 M 569.691,534.212 c 3.535,1.236 7.198,2.144 10.788,2.753 -1.758,-1.182 -3.558,-2.336 -5.255,-3.597 l -2.775,-2.028 c -0.928,-0.684 -1.913,-1.499 -2.867,-2.247 l -1.44,-1.153 -0.72,-0.58 -0.564,-0.477 -2.222,-1.882 -1.469,-1.251 -1.361,-1.091 c -0.911,-0.726 -1.822,-1.459 -2.707,-2.227 -1.8,-1.505 -3.55,-3.091 -5.294,-4.705 -3.474,-3.247 -6.8,-6.739 -9.974,-10.446 -1.94,-2.272 -3.812,-4.639 -5.62,-7.08 -0.099,1.574 -0.095,3.376 0.233,5.528 0.248,1.74 0.728,3.749 1.734,6.124 1.044,2.351 2.626,5.087 5.09,8.007 2.45,2.911 5.731,6.089 9.902,8.964 4.141,2.898 9.147,5.508 14.521,7.388"
           style="fill:none;fill-opacity:1;fill-rule:nonzero;stroke:#000000;stroke-width:3.9219;stroke-linecap:round;stroke-linejoin:round;stroke-dasharray:none;stroke-opacity:0.502709;paint-order:stroke fill markers"
           id="body"
           inkscape:connector-curvature="0" /></g></g></g></svg>
