<?xml version="1.0" encoding="UTF-8" standalone="no"?>
<svg
   height="288.43mm"
   width="303.33mm"
   version="1.1"
   viewBox="0 0 1074.785 1022.0097"
   id="svg6"
   sodipodi:docname="CancerSymbol2.svg"
   inkscape:version="1.2.1 (9c6d41e410, 2022-07-14)"
   xmlns:inkscape="http://www.inkscape.org/namespaces/inkscape"
   xmlns:sodipodi="http://sodipodi.sourceforge.net/DTD/sodipodi-0.dtd"
   xmlns="http://www.w3.org/2000/svg"
   xmlns:svg="http://www.w3.org/2000/svg">
  <defs
     id="defs10" />
  <sodipodi:namedview
     id="namedview8"
     pagecolor="#ffffff"
     bordercolor="#000000"
     borderopacity="0.25"
     inkscape:showpageshadow="2"
     inkscape:pageopacity="0.0"
     inkscape:pagecheckerboard="0"
     inkscape:deskcolor="#d1d1d1"
     inkscape:document-units="mm"
     showgrid="false"
     inkscape:zoom="0.72743677"
     inkscape:cx="572.55835"
     inkscape:cy="546.43924"
     inkscape:window-width="1920"
     inkscape:window-height="1003"
     inkscape:window-x="0"
     inkscape:window-y="0"
     inkscape:window-maximized="1"
     inkscape:current-layer="g4" />
  <g
     transform="translate(-748.59 5199.2)"
     id="g4">
    <path
       d="m1283.2-5199.2c-2.857 0-5.7153 0.026-8.5762 0.068-165.55 2.4125-331.55 76.362-434.71 207.44-55.15 68.625-90.85 154.71-90.213 243.58-9.675 92.462 43.738 187.12 127.99 226.22 83.288 42.75 191.64 23.761 257.6-41.951 42.762-41.838 69.988-100.59 69.125-160.96 2.375-74.213-36.762-146.98-97.225-189.11-56.275-40.262-131.4-52.525-197.45-31.525-3.7 1.9375-7.4633-0.5375-4.1758-4.1875 83.65-92.6 208.06-143.87 331.9-147.01 174.52-5.7125 341.25 78.438 469.67 188.21 28.138-31.425 52.764-67.25 79.727-100.21 3.8625-5.1875-5.1258-7.7512-8.1133-10.639-143.63-104.32-315.56-180.14-495.55-179.92zm313.55 321.62c-5.6104 0.034-11.232 0.2968-16.854 0.8008-93.325 5.7-178.1 74.538-203.11 164.43-26.025 83.925 4.1121 180.42 71.225 236.38 58.225 51.138 144.08 69.076 217.58 43.926 2.95 2.75 0.037 6.7125-1.7754 9.25-91.038 96.825-226.01 147.91-358.25 143.07-164.94-4.05-317.89-84.075-441.24-188.9-27.538 33.612-53.887 71.851-81.699 103.2 141.31 105.58 310.59 183.14 489.36 188.1 126.92 2.725 257.07-34.438 358.67-109.93 92.262-67.488 167.38-165.84 187-280.46 8.175-61.112 11.537-127.3-18.15-183.55-37.125-75.375-118.6-126.82-202.76-126.31zm-596.35 21.652c41.415 0.4667 82.195 22.993 104.78 57.736 38.575 56.112 24.075 141.81-32.75 180.25-48.8 35.862-122.56 30.938-165.71-11.75-36.462-33.675-50.838-89.775-33.963-136.65 15.075-49.475 63.264-86.249 114.79-89.012 4.2785-0.4347 8.5691-0.6225 12.853-0.5742zm576.04 73.719c25.161 0.1677 50.68 6.9562 71.342 21.469 49.725 31.112 71.662 98.412 51.25 153.2-11.425 31.512-34.625 59.275-65.338 73.375-56.162 29.725-133.27 9.5868-166.77-44.488-32.725-48.5-27.039-118.21 12.111-161.41 21.362-23.588 51.862-38.575 83.5-41.562 4.6016-0.416 9.2488-0.6111 13.908-0.58z"
       fill="#ffaa01"
       id="path2"
       style="fill:#ff7f2a;fill-opacity:1" />
  </g>
</svg>
