<?xml version="1.0" encoding="UTF-8" standalone="no"?>
<svg
   height="394.97mm"
   width="292.6mm"
   version="1.1"
   viewBox="0 0 1036.761 1399.4878"
   id="svg6"
   sodipodi:docname="LeoSymbol2.svg"
   inkscape:version="1.2.1 (9c6d41e410, 2022-07-14)"
   xmlns:inkscape="http://www.inkscape.org/namespaces/inkscape"
   xmlns:sodipodi="http://sodipodi.sourceforge.net/DTD/sodipodi-0.dtd"
   xmlns="http://www.w3.org/2000/svg"
   xmlns:svg="http://www.w3.org/2000/svg">
  <defs
     id="defs10" />
  <sodipodi:namedview
     id="namedview8"
     pagecolor="#ffffff"
     bordercolor="#000000"
     borderopacity="0.25"
     inkscape:showpageshadow="2"
     inkscape:pageopacity="0.0"
     inkscape:pagecheckerboard="0"
     inkscape:deskcolor="#d1d1d1"
     inkscape:document-units="mm"
     showgrid="false"
     inkscape:zoom="0.5312165"
     inkscape:cx="535.56318"
     inkscape:cy="748.28247"
     inkscape:window-width="1920"
     inkscape:window-height="1003"
     inkscape:window-x="0"
     inkscape:window-y="0"
     inkscape:window-maximized="1"
     inkscape:current-layer="g4" />
  <g
     transform="translate(-2.6631 5731.2)"
     id="g4">
    <path
       d="m548.82-5730.6c98.488-5.025 204.7 22.112 274.09 95.862 81.138 83.3 101.34 208.85 87.175 320.36-12.6 66.662-36.9 130.31-59.8 193.91-29.925 74.325-58.812 149.1-91.575 222.24-43.338 98.412-58.4 215.21-16.438 316.59 17.688 38.512 49.475 75.325 93.688 81.412 44.925 7.5 90.475-5.4875 130.76-24.975 3.45-1.975 10.212-6.575 11.875-0.1875 19.5 58.988 43.6 116.82 60.825 176.35-73.225 16.862-151.15 26.562-224.36 4.6375-71.962-20.088-134.25-71.238-168.78-137.45-65.35-129.38-49.475-286.49 6.1-416.46 61.75-123.91 125.03-248.39 162.64-382.36 21.15-77.05 14.412-162.28-22.812-233.35-17.688-31.762-43.075-59.912-75.462-77.025-47.663-26.188-104.31-30.638-157.58-26.675-57.888 4.6375-114.61 29.038-154.7 71.538-55.288 63.25-76.888 157.09-46.612 236.52 25.188 72.312 69.75 135.68 100.99 205.25 23.525 50.638 37.397 103.13 53.662 158.63 20.466 101.56 16.438 218.54-61.212 290.15-63 64.025-161.45 89.875-248.1 66.888-72.688-18.238-136.49-68.938-170.63-135.62-46.738-86.625-38.163-200.14 21.938-278.21 60.237-83.85 173.08-127.63 273.93-101.3 4.1375 1.45 5.925-2.9125 3.1-5.6875-44.138-66.512-89.938-135.02-107.01-214.25-25.9-136.35 36.588-286.91 156.51-358.34 50.112-31.012 109.29-45.362 167.79-48.438m-318.65 728.78c-47.975 4.025-93.488 31.862-117.58 73.725-27.137 44.688-29.275 103.26-6.5125 150.2 26.45 57.475 91.9 93.15 154.5 85.338 46.138-3.975 89.525-30.3 114.54-69.212 27.912-41.112 32.812-96.288 14.638-142.29-23.575-63.475-92.088-106-159.59-97.762z"
       fill="#fcff00"
       id="path2"
       style="fill:#ff7f2a;fill-opacity:1" />
  </g>
</svg>
