<?xml version="1.0" encoding="UTF-8" standalone="no"?>
<svg
   id="svg2"
   height="508mm"
   width="677.33mm"
   version="1.1"
   viewBox="0 0 2399.9998 1799.9999"
   sodipodi:docname="pamplet.svg"
   inkscape:version="1.2.2 (b0a8486541, 2022-12-01)"
   xmlns:inkscape="http://www.inkscape.org/namespaces/inkscape"
   xmlns:sodipodi="http://sodipodi.sourceforge.net/DTD/sodipodi-0.dtd"
   xmlns="http://www.w3.org/2000/svg"
   xmlns:svg="http://www.w3.org/2000/svg">
  <sodipodi:namedview
     id="namedview12"
     pagecolor="#ffffff"
     bordercolor="#000000"
     borderopacity="0.25"
     inkscape:showpageshadow="2"
     inkscape:pageopacity="0.0"
     inkscape:pagecheckerboard="0"
     inkscape:deskcolor="#d1d1d1"
     inkscape:document-units="mm"
     showgrid="false"
     inkscape:zoom="0.28247443"
     inkscape:cx="1247.9006"
     inkscape:cy="964.68909"
     inkscape:window-width="1920"
     inkscape:window-height="1003"
     inkscape:window-x="0"
     inkscape:window-y="0"
     inkscape:window-maximized="1"
     inkscape:current-layer="svg2" />
  <defs
     id="defs4">
    <pattern
       id="pattern4458"
       width="1200.0002"
       patternUnits="userSpaceOnUse"
       patternTransform="translate(-2280.1 43.843)"
       height="900.00046">
      <g
         id="g4450"
         transform="translate(2280.1 -43.843)">
        <rect
           id="rect4439"
           height="900"
           width="1200"
           y="43.844"
           x="-2280.1"
           fill="#fff" />
        <path
           id="rect4241"
           d="m150 450v150l150-150h-150zm150 0 150 150 150-150h-300zm300 0 150 150 150-150h-300zm300 0 150 150 150-150h-300zm300 0 150 150v-150h-150zm150 150-150 150 150 150v-300zm0 300-150 150 150 150v-300zm0 300-150 150h150v-150zm-150 150-150-150-150 150h300zm-300 0-150-150-150 150h300zm-300 0-150-150-150 150h300zm-300 0-150-150v150h150zm-150-150 150-150-150-150v300zm0-300 150-150-150-150v300zm150-150 150 150 150-150-150-150-150 150zm300 0 150 150 150-150-150-150-150 150zm300 0 150 150 150-150-150-150-150 150zm150 150-150 150 150 150 150-150-150-150zm-150 150-150-150-150 150 150 150 150-150zm-300 0-150-150-150 150 150 150 150-150z"
           transform="translate(-2430.1 -406.16)"
           fill="#a00" />
        <path
           id="path4191"
           fill="#fff"
           d="m150 450v3.4082c13.915 1.0092 25.715 14.073 25.154 28.07-0.082 11.563-8.2323 22.421-19.283 25.797-1.9139 0.68605-3.8862 1.0929-5.8711 1.2734v14.568c8.2934-0.40126 16.434-3.1521 22.951-8.459 16.08-12.597 21.695-37.217 11.389-55.115-2.0276-3.5799-4.6638-6.7821-7.7051-9.543h-26.64zm234.69 0c3.2117 10.439 11.807 19.304 22.709 21.396 9.7129 2.29 20.857-0.16103 27.6-7.8281 3.5159-3.8447 5.6904-8.5683 6.6816-13.568h-15.037c-2.1012 4.0237-6.8321 6.4309-11.262 7.1738-5.3931 1.3555-12.167-0.31685-14.398-5.9219-0.17043-0.41422-0.31503-0.83232-0.44922-1.252h-15.844zm72.006 0c-1.4473 8.5607 2.1922 17.351 7.1426 24.279 0.9104 1.3057 1.8672 2.5788 2.8633 3.8203-20.045 2.5941-40.4 1.293-60.52-0.42969-6.2808-0.40019-12.511-1.6551-18.836-1.8047-3.2487 0.0289-4.9147 3.4847-4.252 6.3496 0.5404 1.7041-0.73613 5.0095 0.94727 5.707 20.311 3.4553 40.844 5.8835 61.449 6.4473 17.382 0.0869 35.37-1.7974 51.104-9.6953 9.3819-4.7099 18.021-12.874 19.768-23.648 0.59903-3.6597 0.46397-7.4053-0.29687-11.025h-15.598c0.14421 0.62687 0.25259 1.2673 0.28711 1.9297 0.4797 9.0299-6.4969 16.645-14.084 20.555-1.2619 0.40577-2.9021 2.1492-3.7871 0.44921-4.5433-5.0437-9.4398-10.201-10.906-17.072-0.2995-2.0388-0.075-4.0229 0.54101-5.8613h-15.822zm244.21 0c0.36274 15.292 0.21624 30.609 0.30078 45.953-0.036 2.252-0.65471 5.0889 2.5547 4.0938h11.445c-0.15-16.69-0.29-33.37-0.43-50.05h-13.889zm30.521 0c0.57465 16.646 0.67658 33.358 0.92187 50.047h13.861c-0.23-16.69-0.43-33.37-0.99-50.05h-13.793zm30.482 0c0.46869 17.592 0.33149 35.273 0.79102 52.91-6.4027 3.9034-13.393 6.043-20.512 8.3184 1.2189 3.6092 1.1486 7.8584 3.543 10.973 2.7164 2.5442 6.439 0.14189 9.375-0.66601 3.7066-1.2757 7.4666-3.0594 10.934-4.5039 2.7748 5.4897 7.2899 10.136 12.629 13.148 3.0935 1.2444 5.5222-1.6219 6.5879-4.1777 1.0695-1.8772 2.1391-3.7539 3.209-5.6309-4.2355-2.8281-8.8872-6.1723-10.344-11.271 16.432-13.541 26.81-34.209 27.984-55.457 0.0349-1.202 0.0446-2.4192 0.0312-3.6426h-13.834c0.11793 11.236-3.6638 22.435-9.1738 32.141-1.9422 3.3326-4.174 6.5024-6.7129 9.4082-0.2572-13.067-0.29704-26.183-0.43554-39.283 0.40735-0.73967 0.80792-1.5079 1.209-2.2656h-15.281zm247.04 0c0.983 1.2003 2.0411 2.3404 3.166 3.4082-10.261 0.55488-20.571 0.74193-30.789 1.8008-3.5473 0.82505-3.5447 4.9708-3.3535 7.8691-0.2402 2.6927 1.3165 6.1401 4.5156 5.6016 21.804-1.5361 43.556-2.0837 65.447-2.3438v-13.119c-5.4346-0.84206-11.172-1.3271-16.359-3.2168h-22.627zm59.018 0c-3.9481 1.4846-8.254 2.1754-12.412 2.5977-2.1996 0.37314-4.999 0.24803-3.9746 3.2969v10.441c23.318 0.39828 46.523 0.68785 69.781 2.7852-0.1521-4.6212-0.3029-9.242-0.4532-13.863-11.107-0.86655-22.838-1.2136-33.582-1.9062 1.1263-1.0393 2.1646-2.1646 3.127-3.3516h-22.486zm250.71 0c-7.9113 7.3022-12.813 17.805-13.098 28.621-0.8163 16.327 8.2622 33.022 23.158 40.162 6.5394 3.2229 13.964 4.6875 21.27 4.334v-14.568c-9.4049 0.85565-19.126-3.7054-24.641-11.422-8.0431-10.464-6.8889-26.726 2.791-35.789 5.0376-4.9242 11.969-7.8426 19.01-7.998 0.4693-0.0104 0.9384-0.009 1.4082 0.006 0.4797 0.006 0.9564 0.028 1.4316 0.0625v-3.4082h-31.33zm-279.7 20.23c-19.278-0.004-38.58 0.50068-57.785 2.2266-3.0452-0.42761-3.7441 1.239-3.2324 3.9863v9.3926c27.927-1.4799 90.621-2.9028 138.75 0 3.112 0.26043 4.8759-2.9799 4.4942-5.7266 0.01-2.4402 0-4.8801 0-7.3203-17.19-2.0494-34.541-1.9272-51.822-2.3594-10.132-0.15046-20.267-0.21731-30.4-0.19922zm-596.57 208.04c-1.551-0.0514-0.84938 1.9601-1.3184 3.791-0.2088 3.3742-1.5274 6.9851 0.22461 10.178 11.637 1.938 23.418 2.9545 35.115 4.4883 3.9662 0.47779 7.9306 0.95667 11.895 1.4531-19.825 19.721-39.607 39.486-59.406 59.232-8.6964-8.6944-17.393-17.388-26.09-26.082-3.2817 3.3121-6.5634 6.6221-9.8457 9.9336 8.6805 8.6789 17.359 17.36 26.039 26.039-13.905 13.905-27.809 27.81-41.713 41.717 3.2828 3.3107 6.5661 6.6218 9.8477 9.9336 13.92-13.917 27.839-27.836 41.758-41.754 8.7414 8.7387 17.483 17.479 26.225 26.217 3.3115-3.2814 6.6238-6.5607 9.9336-9.8438-8.6883-8.7337-17.574-17.463-26.072-26.234 19.589-19.888 39.383-39.657 59.184-59.264 1.9529 15.092 3.4437 30.288 5.6133 45.363-0.2114 2.8856 1.4084 3.3 3.877 2.5664 3.4696-0.35477 6.9406-0.70798 10.41-1.0625-2.4427-15.901-3.9205-31.939-5.9473-47.898-0.8216-6.769-1.5782-13.547-2.4707-20.307-21.912-2.8606-43.899-5.0515-65.781-8.0742-0.63998-0.25909-1.1186-0.38072-1.4766-0.39258zm545.39 4.5859v4.2324c0.38801 3.3017-0.92204 7.2215 1.252 10.086 0.969 1.5816 3.4881 0.50193 3.8613 2.5996 2.9298 7.8881 3.0031 16.47 3.6641 24.77 1.1844 23.016 0.91081 46.014 1.1953 69.061h14.822c0.019-19.744-0.2345-39.486-0.6093-59.227 4.9652-11.107 9.4679-22.477 15.568-33.029 3.032 11.636 3.413 23.757 4.1836 35.701 0.9496 18.775 0.9098 37.647 0.8965 56.555h14.951c-0.056-19.668-0.4613-39.343-1.4688-58.986 5.0504-11.263 9.4529-22.821 15.943-33.371 0.5887 0.59427 0.8285 2.6905 1.1523 3.9102 2.8481 16.132 3.0198 32.478 3.4922 48.801 0.5379 13.628-0.5899 27.488 1.3867 41.084 0.9609 6.9237 4.1427 14.199 10.676 17.506 5.1975 2.7669 11.152 3.517 16.926 4.123v9.1504c7.3605-4.4761 14.962-8.5793 22.144-13.334 2.3657-2.1955 0.7235-5.7655-1.8066-6.9961-6.5234-4.1825-13.302-7.9527-19.934-11.959-0.099 2.7385-0.1967 5.4763-0.2949 8.2148-4.1753-0.47564-9.8562-0.7911-11.522-5.4688-2.7175-7.9424-2.2766-16.515-2.6934-24.793-0.5052-22.078-0.6878-44.313-4.4843-66.129-1.4471-6.6665-2.7276-14.04-7.6973-19.094-3.1685-3.2242-8.5097-2.9997-11.908-0.25977-6.6676 5.154-10.561 12.928-14.527 20.168-1.4268-6.3361-2.3075-13.425-6.8652-18.418-3.9334-4.1201-10.834-3.4825-14.81 0.23633-5.2857 4.5612-8.6189 10.877-11.928 16.91-1.4347-7.259-3.8712-15.413-10.641-19.43-3.296-1.972-7.2602-1.9279-10.926-2.6133zm-243.67 6.1602c-0.60806 0.0139-1.0431 0.18396-1.0293 0.73633-7.3013 2.6496-11.906 9.4743-16.018 15.682-3.4052 5.3888-6.3327 11.063-9.0625 16.818-4.0465-12.64-12.15-24.985-24.736-30.35-2.9065-0.96731-6.765-3.1806-9.332-0.3418-1.9516 2.8174-1.7067 6.4576-2.7266 9.6387-1.6853 2.9074 1.5896 2.518 3.5605 2.9941 8.4578 1.1099 13.854 8.8185 17.006 16.053 6.8701 16.013 7.5045 33.72 8.375 50.867 4.6778-0.70246 9.3898-1.0586 14.121-0.89453-0.3334-7.7699-0.65371-15.543-1.3789-23.289 5.5141-13.068 10.631-26.678 18.234-38.41 1.3892-1.8271 2.7405-4.1023 4.9238-4.9746 3.2486 3.6894 3.9348 8.8828 5.1094 13.514 3.118 15.903 4.4721 32.416 5.6504 48.701 0.4396 11.731 0.15243 24.523-6.5762 34.648-5.3863 8.0916-14.908 11.977-24.014 14.121-1.8206 0.44757-3.8681 1.1639-3.8887 3.3652 0.1582 2.9097 0.65265 5.9016 1.7148 8.6172 2.4383 3.2226 6.841 1.5352 10.033 0.70312 12.08-3.4888 23.774-10.62 29.895-21.939 2.3535-4.2326 3.9786-8.8305 5.2266-13.498 9.7005 7.4547 23.795 8.5376 34.414 2.3887 10.34-5.6174 16.465-17.513 15.773-29.164-0.3471-12.003-8.7434-22.96-19.896-27.109-9.9821-4.01-22.029-2.474-30.457 4.3008-1.6126-13.876-3.2303-28.053-8.6953-41.037-2.3734-5.4414-6.5165-11.509-13-11.955-0.71607 0.20082-2.2131-0.20874-3.2266-0.18555zm580.47 11.922-3.5391 2.2578c-11.083 7.2465-22.527 13.965-33.307 21.662-2.5433 1.6181-4.6293 5.1071-2.543 7.9004 1.4663 1.9285 2.596 4.8906 5.5332 4.7227 3.9594-0.37456 6.9698-3.494 10.334-5.3106 5.8634-3.7944 11.741-7.5705 17.646-11.301 3.0035 5.9053 5.1597 12.304 8.8105 17.85 1.911 2.2777 4.9227 0.94781 6.7461-0.70313 5.251-3.717 10.471-7.5347 15.688-11.307v-16.785c-5.3266 3.8607-10.654 7.721-16.014 11.535-3.1317-6.8351-6.2362-13.681-9.3554-20.521zm-1125.3 1.72c-1.4227 0.003-2.9364 0.71472-3.9922 1.6758-7.8829 5.5501-15.598 11.305-23.473 16.857-2.5256-5.4263-4.1272-11.303-7.0957-16.508-1.6063-2.5067-5.2483-2.3342-7.1445-0.26367-2.5371 1.8286-5.0673 3.6666-7.5996 5.502v16.785c2.4113-1.7436 4.8218-3.4804 7.2344-5.1875 2.9096 7.0033 5.7076 14.053 8.5644 21.078 9.4931-7.23 19.197-14.179 29.016-20.959 2.0281 4.2398 3.0669 9.0162 5.7734 12.896 1.9318 2.3789 5.2575 1.6603 7.5781 0.33007 1.6987-0.97428 4.6626-1.4174 5.5762-2.7207-3.8319-9.3315-7.3949-18.794-11.541-27.986-0.73837-1.0748-1.7899-1.5019-2.8965-1.5zm587.99 47.305c0.28536-0.006 0.57123-0.003 0.85937 0.008 8.3787-0.10442 16.229 6.6567 16.939 15.088 1.1421 9.0723-6.1209 18.279-15.348 18.824-9.5634 1.1934-18.586-7.3371-18.533-16.846-0.17234-8.792 7.236-16.894 16.082-17.074zm-586.28 4.3027-3.0234 1.0664c-6.81 4.2501-13.124 9.3324-19.734 13.912-2.1424 1.5303-4.2919 3.0523-6.4609 4.5449-2.5392-5.6539-4.3144-11.712-7.4941-17.049-1.4943-2.0766-4.3953-1.7822-6.0547-0.0859-2.7569 1.9728-5.5036 3.9592-8.252 5.9434v16.785c2.4178-1.7312 4.8476-3.4469 7.2891-5.1445 2.4396 5.527 4.2652 11.373 7.0606 16.719 2.1049 2.7218 5.7292 1.1003 7.8926-0.64648 7.5873-5.254 14.932-10.85 22.543-16.07 1.9954 4.4725 3.3999 9.2772 6.0137 13.441 2.5785 2.7165 6.253 0.29487 8.9414-0.99219 2.5424-1.0173 3.6305-4.0997 2.1348-6.4355-3.6196-8.6588-6.7046-17.566-10.855-25.988zm1122.1 0.5918c-0.5947 0.0169-1.2306 0.32085-1.9199 1-12.074 7.6144-24.121 15.284-36.045 23.131-2.6349 2.887 0.2895 6.4238 1.8848 8.9883 1.3326 1.3278 2.0374 5.5016 4.1797 3.1524 9.1947-5.8361 18.304-11.809 27.531-17.594 2.5826 5.0505 4.4053 10.465 7.0391 15.477 4.7809 6.6691 12.09-0.8686 16.48-3.9961 2.5593-1.9019 5.1379-3.7765 7.7305-5.6328v-16.785c-5.3061 3.8308-10.609 7.6654-15.941 11.461-2.8681-5.7089-5.199-11.693-8.2481-17.305-0.8228-1.1558-1.7001-1.9246-2.6914-1.8965zm-832.44 225.87c-0.831 0.92642-1.6631 1.8528-2.4941 2.7793-13.48 14.573-22.84 33.085-26.158 52.684-0.4353 2.7656-0.71519 5.5567-0.80469 8.3555-8.7795-0.05-17.56-0.1006-26.34-0.1504-1.5499-22.468-11.176-44.314-26.73-60.592-2.2898-2.1141-5.6767-0.8758-7.3633 1.3535-1.7655 1.7013-3.5489 3.3849-5.3203 5.0801 7.6993 7.3011 13.829 16.14 18.184 25.805 4.0783 8.9929 7.2137 18.6 7.7656 28.518-7.4027-0.011-14.822-0.071-22.189 0.7657v13.086h22.191c-0.8917 13.994-6.2457 27.314-13.559 39.23-3.4238 5.6343-7.8838 10.514-12.385 15.293 3.3253 3.1103 6.6527 6.2185 9.9785 9.3282 10.658-10.963 19.329-23.994 24.279-38.518 2.8231-8.1128 4.5657-16.601 5.1484-25.172 8.7767-0.05 17.553-0.1005 26.33-0.1504 0.7044 18.52 8.3962 36.201 18.969 51.188 3.1543 4.4734 6.7844 8.5776 10.445 12.637 3.4111-3.107 6.8224-6.2139 10.232-9.3222-7.5318-7.1549-13.636-15.73-17.979-25.164-4.289-9.2333-7.526-19.132-8.1445-29.35h22.178v-13.086c-7.3658-0.8343-14.783-0.7781-22.184-0.7657 0.9929-14.772 6.8618-28.913 14.9-41.211 3.1439-4.8293 7.0826-9.053 10.973-13.277-3.3078-3.1146-6.6155-6.2296-9.9238-9.3438zm803.39 0.60938c-3.2471-0.22508-3.8815 3.3962-4.3692 5.8828-0.4686 2.6352-1.9225 6.5617 1.2539 8.0215 6.4241 1.8304 13.145 2.4996 19.719 3.666 1.3278 0.53389 4.2519-0.37296 3.5371 1.959 0.3055 30.021 0.1045 60.187 0.1641 90.264-7.6216 1.127-15.316 2.0975-22.785 4.002-3.2485 1.2472-2.6021 5.188-1.9727 7.875 0.476 2.3325 1.0444 4.6451 1.5704 6.9668 19.308-4.086 39.139-6.3024 58.84-6.2109v-14.516c-6.905-0.022-13.811 0.1097-20.707 0.4063v-88.688c6.8938 0.4136 13.801 0.5247 20.707 0.457v-14.748c-9.706 0.0256-19.417-0.44679-29.037-1.3887-8.7733-0.76042-17.564-2.4603-26.309-3.9219-0.2039-0.005-0.4068-0.0494-0.6113-0.0273zm-1090.7 0.0586c-5.0438 0.27941-9.9291 1.9044-14.957 2.4453-12.629 1.8878-25.485 2.8001-38.35 2.834v14.748c6.043-0.059 12.086-0.2542 18.119-0.5195 0.028 14.792 0.055 29.584 0.084 44.377 0.028 14.795 0.0579 29.592 0.0859 44.387-6.0914-0.2627-12.19-0.4007-18.289-0.42v14.516c4.2602 0.02 8.5147 0.1421 12.756 0.3828 14.656 0.7699 28.882 2.8331 43.312 5.8281 0.6221-3.9026 2.3191-7.7169 2.2109-11.695-0.6001-3.6822-4.9071-3.7381-7.7734-4.3516-5.7958-1.0593-11.618-1.972-17.455-2.7695 0.019-30.58-0.29321-61.162 0.0254-91.74 7.6508-1.2157 15.391-2.1627 22.908-4.0391 3.2037-1.1175 2.2809-4.9442 1.7578-7.4922-0.4691-2.6195-1.027-6.4332-4.4356-6.4902zm851.31 4.5039c-17.594 0.15528-34.378 13.441-37.699 30.873-1.3577 6.6309-0.6232 13.64 1.5644 19.965-9.9142 1.4624-18.38 9.2079-20.914 18.871-3.242 10.873 0.8619 23.74 10.543 29.963 8.6333 5.8549 20.81 6.6164 29.566 0.5957 11.157-7.2145 16.036-23.04 9.8535-35.012-2.1014-4.4887-5.8435-7.8229-9.5703-10.939-9.2699-9.0498-8.1795-25.845 1.834-33.92 7.5171-6.4215 19.12-6.8865 27.295-1.4356 7.6713 4.6664 12.294 14.354 9.7168 23.18-2.7501 10.041-11.152 17.021-15.865 26.061-6.8048 12.238-11.071 26.728-8.3691 40.75 1.5078 8.1605 6.9655 16.059 15.232 18.4 4.931 1.2969 10.232 0.7283 15.125-0.498 3.3856-1.4136 7.1246-2.5438 9.8789-5.043 2.1323-2.9805-1.069-5.9208-2.3398-8.5234-0.9826-2.2894-3.2812-4.3557-5.9063-3.3067-4.2844 1.5025-8.9892 4.5644-13.555 2.2051-4.5189-3.148-4.5842-9.4148-4.2402-14.387 1.1287-10.925 6.1228-21.153 12.406-29.801 7.7586-9.7428 14.266-21.736 13.252-34.576-1.0508-13.3-10.657-24.901-22.564-30.326-4.7729-2.1339-10.019-3.1833-15.244-3.0957zm-263.47 10.389c-0.50816-0.0127-1.017-0.0105-1.5254 0.008-1.8772 0.0678-3.7497 0.34962-5.5801 0.86133-10.284 2.5832-18.092 10.653-23.434 19.461-5.9161 9.5159-10.197 19.994-13.209 30.768-4.1194-15.01-10.104-30.264-21.357-41.406-5.8525-5.7237-13.649-9.8259-21.994-9.6797-9.7258-0.10191-18.826 6.0321-23.15 14.613-5.8973 11.138-4.8308 24.909 0.66406 35.984 0.8326 2.6181 3.1573 5.7223 6.25 4.2188 2.9974-1.54 6.2924-3.1083 8.3828-5.8242 1.4939-2.9736-1.2877-5.8022-2.0332-8.6231-2.8284-7.3754-2.5336-17.062 3.8691-22.516 4.4887-3.849 11.093-2.1574 15.258 1.3183 8.5988 6.6311 13.177 17.01 16.51 26.963 6.3655 20.204 8.2681 41.249 9.4766 62.207 0.3441 6.5096 0.52075 13.145 0.75195 19.713h14.859c0.9556-17.061 0.72619-34.082 3.3672-50.99 2.5792-16.769 6.3469-33.886 15.34-48.504 3.857-5.8481 9.0457-12.05 16.424-13.012 6.5622-0.6181 11.18 5.7664 12.035 11.646 1.2634 6.4322-0.79486 12.876-3.5098 18.646-1.1407 2.3443 0.40658 4.8617 2.709 5.6855 2.5773 1.204 4.9466 3.3717 7.793 3.6719 3.6283-0.5827 4.2462-4.8205 5.6524-7.5762 5.1806-12.055 4.8437-27.259-3.6895-37.734-4.7322-6.0569-12.237-9.7094-19.859-9.9004zm232.38 55.059c6.6513 0.014 12.317 6.3362 11.543 12.963-0.2931 7.5804-9.1039 13.088-16.043 9.9668-6.3058-2.352-9.7128-10.544-6.125-16.455 2.0643-3.8237 6.2046-6.6009 10.625-6.4747zm25.289 236.64c-17.043 0.059-34.349 8.9168-42.66 24.102-5.9845 10.441-6.4202 24.182 0.2656 34.414 0.7658 1.2211 1.6144 2.3872 2.5274 3.502h22.627c-2.4049-0.8761-4.6918-2.0522-6.7754-3.709-7.8564-5.621-10.154-16.719-6.5234-25.426 4.3782-11.71 16.747-18.797 28.906-19.125 11.965-0.7705 25.014 3.9017 31.463 14.498 5.5565 8.5202 5.4775 20.998-2.084 28.326-2.4499 2.5203-5.4065 4.2363-8.5957 5.4355h22.486c6.1052-7.5302 8.8073-17.758 6.6738-27.291-3.3429-16.205-17.323-28.682-32.98-32.82-4.9829-1.3712-10.165-1.9836-15.33-1.9063zm-351.87 3.0879c-0.27083-0.01-0.54196 0.0009-0.8125 0.018-3.6642 0.4706-4 4.8456-3.709 7.7695 0.064 2.4594 0.8734 5.2648 3.375 6.2129 2.724 4.852 2.8815 10.58 3.6016 15.844 0.83478 9.6847 1.2678 19.38 1.498 29.086h13.889c-0.0256-3.112-0.0506-6.224-0.0762-9.3359 4.1877-10.677 8.1028-21.491 13.139-31.809 2.7367 13.228 2.8963 26.82 3.5449 40.268 0.0104 0.2921 0.0153 0.5849 0.0254 0.877h13.793c-0.1007-2.9775-0.20927-5.955-0.33594-8.9316 4.3722-10.982 8.2924-22.038 13.662-32.557 2.4369 11.488 2.5831 23.004 3.1543 34.73 0.0826 2.2509 0.14893 4.5037 0.20898 6.7578h15.281c2.7441-5.1845 5.4938-10.612 10.332-14.074 0.3046-0.1581 0.62866-0.32 0.97656-0.3457 2.1175 1.3747 2.4486 4.4106 3.084 6.7011 0.46378 2.5634 0.69365 5.1419 0.7207 7.7188h13.834c-0.087-7.9875-1.3751-16.272-6.1973-22.787-3.4857-4.8655-10.165-7.1231-15.811-4.9395-3.7665 1.2973-6.9763 3.8288-9.6797 6.7012-1.0953-10.186-1.7473-20.82-6.2656-30.189-1.8733-4.1043-6.4401-7.646-11.109-6.0059-5.8529 2.1508-9.1246 7.9819-12.123 13.068-1.0955 1.9679-2.1065 3.9832-3.0723 6.0175-1.3343-6.1865-2.5942-13.159-7.5371-17.594-3.5585-3.161-9.0484-1.9665-12.168 1.2109-4.5473 4.2283-7.4376 9.8671-10.168 15.356-1.4598-6.6904-3.4946-14.3-9.6445-18.203-1.63-0.9656-3.5144-1.5281-5.4102-1.5645zm591.44 3.3789c-1.127 0.1649-0.1073 3.0456-0.461 4.0117v11.041c3.6346-0.1221 7.677-0.3664 10.557 2.3046 8.9383 7.5456 14.13 18.351 21.644 27.154 1.725 2.0757 3.5541 4.0745 5.584 5.8575-2.5543 1.448-4.9045 3.2042-7.0469 5.1816h31.33v-11.475c-5.7317 0.7149-11.588-1.5187-15.535-5.7344-10.435-10.285-16.081-24.904-28.291-33.476-4.9615-3.6025-11.199-4.4456-17.156-4.7559-0.2589-0.1008-0.464-0.1329-0.625-0.1094zm-1083.3 0.3965c-4.8299-0.064-9.7727 0.4822-13.955 3.0801-10.415 6.2727-16.459 17.3-23.527 26.775-4.4073 5.6001-9.1463 12.165-16.566 13.672-0.33697 0.063-0.67541 0.1102-1.0137 0.1524v11.475h26.635c-2.1823-1.9811-4.5671-3.7416-7.1133-5.2207 9.4328-8.6502 14.974-20.554 23.721-29.791 2.9711-3.1738 6.8707-5.7918 11.385-5.6973 3.3063 0.6576 2.4461-2.3908 2.4961-4.6289v-9.7559c-0.68284-0.03-1.3706-0.051-2.0606-0.06zm246 8.2383c-16.391 0.2648-33.413 1.6592-48.26 9.1972-9.995 5.0126-18.452 14.628-19.357 26.123-0.37693 3.9092 0.0886 7.8526 1.2402 11.596h15.844c-2.8289-8.8464 2.2582-18.75 9.8047-23.629 1.791-1.2025 3.7279-2.1775 5.7402-2.9512l1.7285 1.7969c5.3398 5.6932 10.611 12.972 9.9141 21.174-0.12378 1.3235-0.51043 2.5223-1.0781 3.6094h15.037c1.348-6.7995 0.49752-14.112-2.2383-20.441-1.5853-3.8321-3.7631-7.4099-6.3555-10.643 15.878-2.0382 31.873-1.2501 47.842-0.375 10.703 0.6308 21.212 1.9097 31.861 2.957 3.4216-0.087 4.2925-3.9487 3.998-6.7148-0.5294-1.7249 1.1779-5.3637-1.0801-5.6094-21.372-3.464-42.951-6.214-64.641-6.0898zm35.418 22.369c-12.83 0.097-24.812 9.2795-28.986 21.275-0.36022 1.0837-0.6175 2.1759-0.80273 3.2715h15.822c1.9247-5.7439 7.7478-10.048 13.979-10.01 0.2653 0 0.53243 0.01 0.79883 0.027 5.9694-0.034 11.827 4.1377 13.172 9.9824h15.598c-2.0878-9.9336-8.9302-18.915-18.572-22.533-3.4949-1.3713-7.2536-2.0614-11.008-2.0137z"
           transform="translate(-2430.1 -406.16)" />
        <path
           id="path4371"
           d="m940.66 530.72c-0.831 0.92642-1.6631 1.8528-2.4941 2.7793-13.48 14.573-22.84 33.085-26.158 52.684-0.4353 2.7656-0.71519 5.5567-0.80469 8.3555-8.7795-0.0499-17.56-0.10057-26.34-0.15039-1.5499-22.468-11.176-44.314-26.73-60.592-2.2898-2.1141-5.6767-0.8758-7.3633 1.3535-1.7655 1.7013-3.5489 3.3849-5.3203 5.0801 7.6993 7.3011 13.829 16.14 18.184 25.805 4.0783 8.993 7.2137 18.6 7.7656 28.518-7.4027-0.0113-14.822-0.0707-22.189 0.76563v13.086h22.191c-0.8917 13.994-6.2457 27.314-13.559 39.23-3.4238 5.6343-7.8838 10.514-12.385 15.293 3.3253 3.1102 6.6527 6.2185 9.9785 9.3281 10.658-10.963 19.329-23.993 24.279-38.518 2.8231-8.1128 4.5657-16.601 5.1484-25.172 8.7767-0.0499 17.553-0.10047 26.33-0.15039 0.7044 18.52 8.3962 36.201 18.969 51.188 3.1543 4.4734 6.7844 8.5775 10.445 12.637 3.4111-3.1071 6.8224-6.2139 10.232-9.3223-7.5318-7.1549-13.636-15.73-17.979-25.164-4.289-9.2333-7.526-19.132-8.1445-29.35h22.178v-13.086c-7.3658-0.8343-14.783-0.77811-22.184-0.76563 0.9929-14.772 6.8618-28.913 14.9-41.211 3.1439-4.8293 7.0826-9.053 10.973-13.277-3.3078-3.1146-6.6155-6.2296-9.9238-9.3438zm-396.61 0.60938c-3.2471-0.22508-3.8814 3.3962-4.3691 5.8828-0.4686 2.6352-1.9225 6.5617 1.2539 8.0215 6.4241 1.8304 13.145 2.4996 19.719 3.666 1.3278 0.53389 4.2519-0.37293 3.5371 1.959 0.3055 30.021 0.10447 60.187 0.16407 90.264-7.6216 1.1269-15.316 2.0975-22.785 4.002-3.2485 1.2472-2.6021 5.188-1.9727 7.875 0.476 2.3325 1.0443 4.6451 1.5703 6.9668 23.483-4.9696 47.742-7.1818 71.596-5.8281 14.656 0.76992 28.882 2.8331 43.312 5.8281 0.6221-3.9026 2.3191-7.7169 2.2109-11.695-0.6001-3.6822-4.9071-3.7381-7.7734-4.3516-5.7958-1.0594-11.618-1.9721-17.455-2.7695 0.019-30.58-0.29321-61.162 0.0254-91.74 7.6508-1.2157 15.391-2.1627 22.908-4.0391 3.2037-1.1175 2.2809-4.9442 1.7578-7.4922-0.4691-2.6195-1.027-6.4332-4.4356-6.4902-5.0438 0.27941-9.9291 1.9044-14.957 2.4453-22.157 3.3122-45.015 3.6356-67.387 1.4453-8.7733-0.76042-17.564-2.4603-26.309-3.9219-0.2039-0.005-0.40683-0.0494-0.61133-0.0273zm-239.43 4.5625c-17.594 0.15528-34.378 13.441-37.699 30.873-1.3577 6.6309-0.62315 13.64 1.5644 19.965-9.9142 1.4624-18.38 9.2079-20.914 18.871-3.242 10.873 0.86187 23.74 10.543 29.963 8.6333 5.855 20.81 6.6164 29.566 0.59571 11.157-7.2144 16.036-23.04 9.8535-35.012-2.1014-4.4888-5.8435-7.8229-9.5703-10.939-9.2699-9.0498-8.1795-25.845 1.834-33.92 7.5171-6.4214 19.12-6.8865 27.295-1.4355 7.6713 4.6664 12.294 14.353 9.7168 23.18-2.7501 10.041-11.153 17.021-15.865 26.061-6.8048 12.238-11.071 26.729-8.3691 40.75 1.5078 8.1606 6.9655 16.059 15.232 18.4 4.931 1.2969 10.232 0.72822 15.125-0.49805 3.3856-1.4136 7.1246-2.5437 9.8789-5.043 2.1323-2.9805-1.069-5.9208-2.3398-8.5234-0.9824-2.2894-3.2812-4.3557-5.9062-3.3066-4.2844 1.5024-8.9892 4.5644-13.555 2.2051-4.5189-3.1481-4.5842-9.4148-4.2402-14.387 1.1287-10.925 6.1228-21.153 12.406-29.801 7.7586-9.7428 14.266-21.736 13.252-34.576-1.0508-13.3-10.657-24.901-22.564-30.326-4.7729-2.1339-10.019-3.1833-15.244-3.0957zm935.01 10.396c-1.8772 0.0678-3.7496 0.34962-5.58 0.86133-10.284 2.5832-18.092 10.653-23.434 19.461-5.9161 9.5159-10.197 19.994-13.209 30.768-4.1194-15.01-10.104-30.264-21.357-41.406-5.8525-5.7237-13.649-9.8259-21.994-9.6797-9.7258-0.10191-18.826 6.032-23.15 14.613-5.8973 11.138-4.8308 24.909 0.6641 35.984 0.8326 2.6181 3.1573 5.7223 6.25 4.2188 2.9974-1.54 6.2924-3.1083 8.3828-5.8242 1.4939-2.9736-1.2877-5.8021-2.0332-8.623-2.8284-7.3754-2.5336-17.062 3.8691-22.516 4.4888-3.849 11.093-2.1574 15.258 1.3184 8.5988 6.631 13.177 17.01 16.51 26.963 6.3655 20.204 8.2681 41.249 9.4766 62.207 0.3441 6.5097 0.5207 13.145 0.7519 19.713h14.859c0.9556-17.061 0.7262-34.082 3.3672-50.99 2.5792-16.769 6.3469-33.886 15.34-48.504 3.8569-5.8482 9.0457-12.05 16.424-13.012 6.5622-0.61805 11.18 5.7664 12.035 11.646 1.2634 6.4323-0.7948 12.876-3.5097 18.646-1.1407 2.3444 0.4066 4.8617 2.709 5.6855 2.5773 1.204 4.9465 3.3717 7.7929 3.6719 3.6283-0.58266 4.2463-4.8205 5.6524-7.5762 5.1806-12.055 4.8437-27.259-3.6895-37.734-5.0476-6.4607-13.25-10.186-21.385-9.8926zm-621.5 4.6074c0.028 14.792 0.055 29.585 0.084 44.377 0.028 14.795 0.0579 29.591 0.0859 44.387-12.988-0.55995-26.008-0.57227-38.996-0.0137v-88.688c12.926 0.77553 25.897 0.50615 38.826-0.0625zm-344.59 50.443c6.6513 0.0135 12.317 6.3362 11.543 12.963-0.2931 7.5804-9.1039 13.088-16.043 9.9668-6.3058-2.352-9.7128-10.544-6.125-16.455 2.0643-3.8236 6.2046-6.6009 10.625-6.4746zm25.289 236.64c-17.043 0.0593-34.349 8.9168-42.66 24.102-5.9845 10.441-6.4202 24.182 0.26562 34.414 1.5903 2.5357 3.5238 4.8506 5.6934 6.9102-10.261 0.55488-20.571 0.74193-30.789 1.8008-3.5473 0.82505-3.5447 4.9708-3.3535 7.8691-0.2402 2.6927 1.3165 6.1401 4.5156 5.6016 21.804-1.5361 43.556-2.0837 65.447-2.3438v-13.119c-7.954-1.2324-16.557-1.6953-23.135-6.9258-7.8564-5.621-10.154-16.719-6.5234-25.426 4.3782-11.71 16.747-18.797 28.906-19.125 11.965-0.7705 25.014 3.9016 31.463 14.498 5.5565 8.5202 5.4775 20.998-2.084 28.326-5.483 5.6405-13.491 7.2699-21.008 8.0332-2.1996 0.37314-4.999 0.24803-3.9746 3.2969v10.441c23.318 0.39828 46.523 0.68785 69.781 2.7852-0.1521-4.6212-0.30303-9.242-0.45313-13.863-11.107-0.86655-22.838-1.2136-33.582-1.9062 8.272-7.633 12.271-19.607 9.8008-30.643-3.3429-16.205-17.323-28.682-32.98-32.82-4.9829-1.3712-10.165-1.9835-15.33-1.9062zm848.13 3.0879c-0.2708-0.005-0.5419 0.00094-0.8125 0.0176-3.6642 0.47058-4 4.8456-3.709 7.7695 0.064 2.4594 0.8734 5.2648 3.375 6.2129 2.724 4.852 2.8815 10.579 3.6016 15.844 2.1501 24.944 1.6606 49.957 1.7988 75.039-0.036 2.252-0.6547 5.0889 2.5547 4.0938h11.445c-0.1622-19.794-0.3255-39.589-0.4883-59.383 4.1877-10.677 8.1028-21.491 13.139-31.809 2.7367 13.228 2.8963 26.82 3.5449 40.268 0.602 16.935 0.6977 33.942 0.9473 50.924h13.861c-0.2703-19.662-0.49-39.33-1.3261-58.979 4.3722-10.981 8.2924-22.038 13.662-32.557 2.4369 11.488 2.5831 23.004 3.1543 34.73 0.7274 19.818 0.4816 39.77 1 59.668-6.4027 3.9034-13.394 6.043-20.512 8.3184 1.2189 3.6092 1.1486 7.8584 3.543 10.973 2.7164 2.5442 6.439 0.14189 9.375-0.66601 3.7066-1.2757 7.4666-3.0594 10.934-4.5039 2.7748 5.4897 7.2899 10.136 12.629 13.148 3.0935 1.2444 5.5222-1.6219 6.5879-4.1777 1.0695-1.8772 2.1391-3.7539 3.209-5.6309-4.2355-2.8281-8.8873-6.1723-10.344-11.271 16.432-13.541 26.81-34.209 27.984-55.457 0.263-9.0499-0.6052-18.917-6.166-26.43-3.4857-4.8655-10.165-7.1231-15.81-4.9394-3.7665 1.2972-6.9763 3.8288-9.6797 6.7012-1.0953-10.185-1.7474-20.82-6.2657-30.189-1.8733-4.1043-6.44-7.6459-11.109-6.0059-5.8529 2.1508-9.1246 7.9819-12.123 13.068-1.0955 1.9679-2.1064 3.9832-3.0722 6.0176-1.3343-6.1865-2.5943-13.159-7.5372-17.594-3.5585-3.161-9.0483-1.9664-12.168 1.2109-4.5473 4.2283-7.4376 9.867-10.168 15.355-1.4598-6.6904-3.4946-14.301-9.6445-18.203-1.63-0.96554-3.5144-1.5281-5.4102-1.5645zm-608.56 3.3789c-1.127 0.1649-0.10726 3.0455-0.46094 4.0117v11.041c3.6346-0.12204 7.6769-0.3664 10.557 2.3047 8.9383 7.5455 14.13 18.351 21.645 27.154 1.725 2.0757 3.5541 4.0745 5.584 5.8574-11.987 6.7952-19.783 20.058-20.145 33.803-0.8163 16.327 8.2622 33.022 23.158 40.162 13.962 6.8813 31.963 5.8569 44.221-4.125 16.08-12.597 21.695-37.217 11.389-55.115-3.4826-6.1487-8.7238-11.223-14.818-14.764 9.4328-8.6502 14.974-20.554 23.721-29.791 2.9711-3.1738 6.8707-5.7918 11.385-5.6973 3.3063 0.65761 2.4461-2.3908 2.4961-4.6289v-9.7559c-5.4627-0.23898-11.236 0.0505-16.016 3.0195-10.415 6.2727-16.459 17.3-23.527 26.775-4.4073 5.6001-9.1463 12.165-16.566 13.672-6.0468 1.1298-12.368-1.1176-16.549-5.582-10.435-10.285-16.081-24.904-28.291-33.477-4.9615-3.6025-11.199-4.4456-17.156-4.7559-0.25889-0.10084-0.464-0.13293-0.625-0.10937zm362.67 8.6348c-16.391 0.26477-33.413 1.6591-48.26 9.1973-9.995 5.0124-18.452 14.628-19.357 26.123-1.4282 14.812 9.1382 30.15 23.949 32.992 9.7129 2.29 20.857-0.16103 27.6-7.8281 8.2971-9.073 9.191-23.027 4.4434-34.01-1.5853-3.8321-3.7631-7.4098-6.3555-10.643 15.878-2.0382 31.873-1.2501 47.842-0.375 10.703 0.6308 21.212 1.9097 31.861 2.957 3.4216-0.087 4.2925-3.9488 3.998-6.7148-0.5294-1.7249 1.1779-5.3637-1.0801-5.6094-21.372-3.464-42.951-6.214-64.641-6.0898zm-34.988 20.336 1.7285 1.7969c5.3398 5.6932 10.611 12.972 9.9141 21.174-0.5819 6.2217-6.7134 9.8396-12.34 10.783-5.3931 1.3555-12.167-0.31685-14.398-5.9219-3.7633-9.1466 1.4511-19.77 9.3555-24.881 1.791-1.2025 3.7279-2.1775 5.7402-2.9512zm70.406 2.0332c-12.83 0.0974-24.812 9.2794-28.986 21.275-3.1748 9.5512 0.75594 19.736 6.3398 27.551 0.9104 1.3057 1.8672 2.5788 2.8633 3.8203-20.045 2.5941-40.4 1.293-60.52-0.42969-6.2808-0.40019-12.511-1.6551-18.836-1.8047-3.2487 0.0289-4.9147 3.4847-4.252 6.3496 0.5404 1.7041-0.73613 5.0095 0.94727 5.707 20.311 3.4553 40.844 5.8835 61.449 6.4473 17.382 0.0869 35.37-1.7974 51.104-9.6953 9.3819-4.7099 18.021-12.874 19.768-23.648 2.2428-13.702-5.7132-28.622-18.869-33.559-3.4949-1.3713-7.2536-2.0614-11.008-2.0137zm302.02 10.127c2.1175 1.3747 2.4486 4.4105 3.084 6.7012 2.486 13.74-1.6794 27.928-8.4531 39.859-1.9422 3.3326-4.174 6.5024-6.7129 9.4082-0.2572-13.067-0.2971-26.183-0.4356-39.283 3.1945-5.8006 5.9956-12.371 11.541-16.34 0.3046-0.15807 0.6287-0.32001 0.9766-0.3457zm-302 4.4102c0.2653 0 0.53243 0.01 0.79883 0.0273 6.6096-0.0382 13.103 5.0741 13.459 11.912 0.4797 9.0299-6.4969 16.645-14.084 20.555-1.2619 0.40578-2.9021 2.1492-3.7871 0.44921-4.5433-5.0437-9.4398-10.201-10.906-17.072-1.2352-8.4087 6.2945-15.922 14.52-15.871zm-339.33 13.35c0.46935-0.0104 0.93841-0.009 1.4082 0.006 14.528 0.17862 27.166 13.658 26.586 28.133-0.082 11.563-8.2323 22.421-19.283 25.797-10.983 3.9368-23.834-0.8035-30.512-10.148-8.0431-10.464-6.8889-26.726 2.791-35.789 5.0377-4.9242 11.969-7.8426 19.01-7.998zm-308.1 16.89c-19.278-0.004-38.58 0.50068-57.785 2.2266-3.0452-0.42761-3.7441 1.239-3.2324 3.9863v9.3926c27.927-1.4799 90.621-2.9028 138.75 0 3.112 0.26043 4.8758-2.9799 4.4941-5.7266 0.01-2.4402 0-4.8801 0-7.3203-17.19-2.0494-34.541-1.9272-51.822-2.3594-10.132-0.15046-20.267-0.21731-30.4-0.19922h-0.002-0.002zm603.47 208.04c-1.551-0.051-0.84938 1.9601-1.3184 3.791-0.2088 3.3742-1.5274 6.9851 0.22461 10.178 11.637 1.938 23.418 2.9545 35.115 4.4883 3.9662 0.4778 7.9306 0.9567 11.895 1.4531-19.825 19.721-39.607 39.486-59.406 59.232-8.6964-8.6945-17.393-17.388-26.09-26.082-3.2817 3.3121-6.5634 6.6221-9.8457 9.9336 8.6805 8.6789 17.359 17.36 26.039 26.039-13.905 13.906-27.809 27.81-41.713 41.717 3.2828 3.3107 6.5661 6.6217 9.8477 9.9336 13.92-13.917 27.839-27.836 41.758-41.754 8.7414 8.7386 17.483 17.479 26.225 26.217 3.3115-3.2814 6.6238-6.5607 9.9336-9.8438-8.6883-8.7337-17.574-17.463-26.072-26.234 19.589-19.888 39.383-39.657 59.184-59.264 1.9529 15.092 3.4437 30.288 5.6133 45.363-0.2114 2.8856 1.4084 3.3001 3.877 2.5665 3.4696-0.3548 6.9406-0.708 10.41-1.0625-2.4427-15.901-3.9205-31.939-5.9473-47.898-0.8216-6.769-1.5782-13.546-2.4707-20.307-21.912-2.8606-43.899-5.0515-65.781-8.0742-0.63998-0.2591-1.1186-0.3808-1.4766-0.3926zm-654.61 4.5859v4.2324c0.388 3.3017-0.92204 7.2215 1.252 10.086 0.969 1.5816 3.4881 0.5019 3.8613 2.5996 2.9298 7.888 3.0031 16.47 3.6641 24.77 1.1844 23.016 0.91081 46.014 1.1953 69.061h14.822c0.019-19.744-0.23458-39.486-0.60938-59.227 4.9652-11.107 9.468-22.476 15.568-33.029 3.032 11.636 3.413 23.757 4.1836 35.701 0.9496 18.775 0.90979 37.647 0.89649 56.555h14.951c-0.056-19.668-0.46125-39.343-1.4688-58.986 5.0504-11.263 9.4529-22.821 15.943-33.371 0.5887 0.5943 0.82854 2.6905 1.1523 3.9102 2.8481 16.132 3.0198 32.478 3.4922 48.801 0.5379 13.628-0.58988 27.488 1.3867 41.084 0.9609 6.9236 4.1427 14.198 10.676 17.506 5.1975 2.7669 11.152 3.5171 16.926 4.1231v9.1504c7.3605-4.4762 14.962-8.5793 22.145-13.334 2.3657-2.1955 0.72346-5.7655-1.8066-6.9961-6.5234-4.1825-13.302-7.9527-19.934-11.959-0.099 2.7385-0.19672 5.4763-0.29492 8.2148-4.1753-0.4756-9.8562-0.7911-11.521-5.4687-2.7175-7.9424-2.2766-16.515-2.6934-24.793-0.5052-22.078-0.68787-44.313-4.4844-66.129-1.4471-6.6665-2.7276-14.04-7.6973-19.094-3.1685-3.2242-8.5097-2.9998-11.908-0.2598-6.6676 5.154-10.561 12.928-14.527 20.168-1.4268-6.3361-2.3075-13.425-6.8652-18.418-3.9334-4.1201-10.834-3.4825-14.811 0.2363-5.2857 4.5612-8.6188 10.877-11.928 16.91-1.4347-7.259-3.8712-15.413-10.641-19.43-3.296-1.972-7.2602-1.9279-10.926-2.6133zm956.33 6.1602c-0.6081 0.014-1.0431 0.1839-1.0293 0.7363-7.3013 2.6496-11.906 9.4743-16.018 15.682-3.4052 5.3888-6.3327 11.063-9.0625 16.818-4.0465-12.64-12.15-24.984-24.736-30.35-2.9065-0.9673-6.765-3.1806-9.332-0.3418-1.9516 2.8174-1.7067 6.4576-2.7266 9.6387-1.6853 2.9073 1.5897 2.518 3.5606 2.9941 8.4578 1.1099 13.854 8.8185 17.006 16.053 6.8701 16.013 7.5045 33.72 8.375 50.867 4.6778-0.7024 9.3898-1.0586 14.121-0.8945-0.3334-7.7699-0.6537-15.543-1.3789-23.289 5.5141-13.068 10.631-26.678 18.234-38.41 1.3892-1.8271 2.7405-4.1024 4.9238-4.9746 3.2486 3.6894 3.9348 8.8828 5.1094 13.514 3.118 15.903 4.4721 32.416 5.6504 48.701 0.4396 11.731 0.1524 24.523-6.5762 34.648-5.3863 8.0917-14.908 11.977-24.014 14.121-1.8206 0.4476-3.868 1.1639-3.8886 3.3653 0.1582 2.9097 0.6526 5.9015 1.7148 8.6172 2.4383 3.2225 6.841 1.5352 10.033 0.7031 12.08-3.4888 23.774-10.62 29.894-21.94 2.3535-4.2326 3.9786-8.8305 5.2266-13.498 9.7005 7.4547 23.795 8.5376 34.414 2.3887 10.34-5.6174 16.465-17.513 15.773-29.164-0.3471-12.003-8.7434-22.96-19.896-27.109-9.9821-4.01-22.029-2.474-30.457 4.3008-1.6126-13.876-3.2303-28.053-8.6953-41.037-2.3734-5.4414-6.5165-11.509-13-11.955-0.7161 0.2008-2.2132-0.2087-3.2266-0.1855zm-619.53 11.922-3.5391 2.2579c-11.083 7.2464-22.527 13.965-33.307 21.662-2.5433 1.6181-4.6293 5.1071-2.543 7.9004 1.4663 1.9284 2.596 4.8905 5.5332 4.7226 3.9594-0.3745 6.9698-3.494 10.334-5.3105 5.8634-3.7945 11.741-7.5705 17.646-11.301 3.0035 5.9052 5.1598 12.304 8.8106 17.85 1.911 2.2777 4.9227 0.9478 6.7461-0.7031 7.6783-5.4352 15.29-11.094 22.922-16.494 2.9096 7.0034 5.7076 14.053 8.5644 21.078 9.4931-7.23 19.197-14.179 29.016-20.959 2.0281 4.2398 3.0669 9.0161 5.7734 12.896 1.9318 2.3789 5.2575 1.6603 7.5781 0.33 1.6987-0.9742 4.6626-1.4173 5.5762-2.7207-3.8319-9.3315-7.3949-18.794-11.541-27.986-1.6877-2.4566-5.0117-1.5328-6.8887 0.1758-7.8829 5.5501-15.598 11.306-23.473 16.857-2.5256-5.4263-4.1272-11.304-7.0957-16.508-1.6063-2.5067-5.2483-2.3342-7.1445-0.2637-7.8737 5.675-15.705 11.41-23.613 17.037-3.1317-6.8351-6.2363-13.681-9.3555-20.522zm662.67 49.027c0.2854-0.01 0.5713 0 0.8594 0.01 8.3787-0.1044 16.229 6.6567 16.94 15.088 1.1421 9.0723-6.1209 18.279-15.348 18.824-9.5634 1.1934-18.586-7.3371-18.533-16.846-0.1723-8.792 7.236-16.894 16.082-17.074zm-586.28 4.3027-3.0234 1.0664c-6.81 4.2501-13.124 9.3325-19.734 13.912-2.1424 1.5304-4.2919 3.0523-6.4609 4.545-2.5392-5.6539-4.3144-11.712-7.4941-17.049-1.4943-2.0766-4.3953-1.7822-6.0547-0.086-8.0794 5.7816-16.1 11.643-24.193 17.404-2.8681-5.7089-5.1989-11.693-8.248-17.305-1.3165-1.8492-2.7733-2.7076-4.6113-0.8965-12.074 7.6145-24.121 15.284-36.045 23.131-2.6349 2.887 0.28946 6.4238 1.8848 8.9883 1.3326 1.3278 2.0376 5.5016 4.1797 3.1523 9.1948-5.8361 18.304-11.809 27.531-17.594 2.5826 5.0504 4.4053 10.465 7.0391 15.476 4.7809 6.6691 12.09-0.8686 16.48-3.9961 4.946-3.6757 9.9602-7.2594 15.02-10.777 2.4396 5.527 4.2652 11.373 7.0606 16.719 2.1049 2.7218 5.7292 1.1003 7.8926-0.6465 7.5873-5.2539 14.932-10.85 22.543-16.07 1.9954 4.4725 3.3999 9.2773 6.0137 13.441 2.5785 2.7166 6.253 0.2949 8.9414-0.9921 2.5424-1.0174 3.6305-4.0998 2.1348-6.4356-3.6196-8.6588-6.7046-17.566-10.855-25.988z"
           transform="translate(-2430.1 -406.16)"
           fill="#a00" />
      </g>
    </pattern>
  </defs>
  <g
     id="layer1"
     transform="translate(2280.1 856.16)"
     style="opacity:0.04">
    <rect
       id="rect4456"
       height="1800"
       width="2400"
       y="-856.16"
       x="-2280.1"
       fill="url(#pattern4458)" />
  </g>
</svg>
