<?xml version="1.0" encoding="UTF-8" standalone="no"?>
<svg xmlns:rdf="http://www.w3.org/1999/02/22-rdf-syntax-ns#" xmlns="http://www.w3.org/2000/svg" height="317.37mm" width="296.71mm" version="1.1" xmlns:cc="http://creativecommons.org/ns#" xmlns:dc="http://purl.org/dc/elements/1.1/" viewBox="0 0 1051.3356 1124.5376">
<g transform="translate(2374.1 6855.1)">
<path d="m-1326.4-6855.1c0.825 0.088 2.475 0.275 3.2875 0.375 0.6375 47.962 0.1375 95.962 0.2625 143.95 0.05 6.325-10.125 0.2-12.95 1.8125-69.925-3.8125-137.18 27.825-188.45 73.4-80.625 74.138-128.9 180.51-139.84 288.7 63.275-3.55 126.7-8.5125 189.21-19.438-1.075 48.975-0.125 98-0.4875 147-64.025-8.9125-128.56-16.825-193.18-18.288 4.4875 97.65 46.125 194.25 115.62 262.29 48.538 47.225 108.8 82.112 173.78 101.16 3.5375-0.7875 8.15 3.25 5.7375 6.7625-18.3 43.65-36.838 87.225-55.538 130.69-72.6-38.825-140.94-87.538-195.65-149.45-88.788-96.688-137.14-226.04-143.81-356.39-54.1-0.6625-110.11-3.6625-162.89 1.075-14.688 140.36-69.212 280.45-169.81 381.52-71.362 72.938-169.56 123.8-272.91 129.36-0.075-48.688-0.2125-97.375 0.05-146.02 64.4 6.5 128.7-16.812 179.89-55.062 94.138-72.862 149.09-189.32 161.82-305.85-63.238 0.8125-126.65 9.475-189.04 17.762-0.65-48.512-0.2125-97.038-0.2125-145.54 64.212 8.1 128.75 16.425 193.54 18.425-4.675-95.6-43.8-189.95-111.28-258.39-50.975-51.512-116.11-88.675-185.96-107.72 16.912-40.4 34.225-80.612 51.4-120.92 2.4625-3.95 2.4375-12.35 8.45-12.8 125.58 65.162 235.25 167.94 290.89 300.4 27.925 64.45 41.562 134.24 45.962 204.12 54.175-0.1375 109.21 2.7 163.04-1.175 15.312-146.48 74.912-295.36 185.54-396.61 68.425-65.35 159.18-106.6 253.52-115.15z" fill="#bb2faa"/>
</g>
</svg>
