<?xml version="1.0" encoding="UTF-8" standalone="no"?>
<svg xmlns:rdf="http://www.w3.org/1999/02/22-rdf-syntax-ns#" xmlns="http://www.w3.org/2000/svg" height="347.72mm" width="326.58mm" version="1.1" xmlns:cc="http://creativecommons.org/ns#" xmlns:dc="http://purl.org/dc/elements/1.1/" viewBox="0 0 1157.1869 1232.0617">
<g transform="translate(2468.1 6850.4)">
<path d="m-1312.6-6849.9c1.625-0.9875 2.0875-0.5625 1.375 1.275-70.088 185.71-140.34 371.4-210.45 557.1-2.5 4-3.6-5.8-4.175-5.2375-15.062-50.162-30.5-100.21-45.862-150.26-1.525-4.4-5.7125-0.1625-8.0625 1.175-159.82 137.88-309.88 286.94-454.21 440.8-3.6875 5.2375-11.725 8.825-10.275 16.188 84.125 81.638 175.11 165.9 291.76 195.96 0.15 3.2-2.5125 5.2875-4.4875 7.3625-42.612 45.325-84.7 91.162-127.3 136.49-1.4875 2.8625-4.925 5.025-7.5625 2.15-37.75-107.74-120.69-189.19-203.52-262.75-5.375-5.0125-13.125-15.188-20.625-6.4-76.688 85.6-146.89 178.86-195.58 283.45-2.5875 3.875-3.85 18.288-11.438 13.15-48.362-45.1-96.825-89.912-145.08-135.06 1.7375-5.075 8.8-5.0375 12.712-8.15 102.3-56.112 190.62-133.94 271.31-217.49 5.7-5.5875-5.475-10.55-8.1375-13.975-83.425-70.85-170.4-138-264.25-194.52-1.525-1.4875-5.4375-2.4625-3.975-5.1375 39.112-42.212 78.288-84.412 117.49-126.56 2.275-3.15 4.8875-0.275 5.8 2.3375 63.875 90.5 137.8 173.3 215.34 252.12 3.4625 3.3125 6.825 8.5625 12.7 6.225 145.42-157.36 285.75-319.91 413.34-492.18 1.2-2.1 6.425-7.5375 1.3375-8.7875-52.562-13.975-109.82-22.788-159.98-38.412 180.84-83.138 361.26-167.09 541.8-250.86z" fill="#063daa"/>
</g>
</svg>
