<?xml version="1.0" encoding="UTF-8" standalone="no"?>
<svg
   height="343.5mm"
   width="443.4mm"
   version="1.1"
   viewBox="0 0 1571.1172 1217.1088"
   id="svg6"
   sodipodi:docname="ScorpioSymbol2.svg"
   inkscape:version="1.2.1 (9c6d41e410, 2022-07-14)"
   xmlns:inkscape="http://www.inkscape.org/namespaces/inkscape"
   xmlns:sodipodi="http://sodipodi.sourceforge.net/DTD/sodipodi-0.dtd"
   xmlns="http://www.w3.org/2000/svg"
   xmlns:svg="http://www.w3.org/2000/svg">
  <defs
     id="defs10" />
  <sodipodi:namedview
     id="namedview8"
     pagecolor="#ffffff"
     bordercolor="#000000"
     borderopacity="0.25"
     inkscape:showpageshadow="2"
     inkscape:pageopacity="0.0"
     inkscape:pagecheckerboard="0"
     inkscape:deskcolor="#d1d1d1"
     inkscape:document-units="mm"
     showgrid="false"
     inkscape:zoom="0.43191067"
     inkscape:cx="823.08687"
     inkscape:cy="651.75514"
     inkscape:window-width="1920"
     inkscape:window-height="1003"
     inkscape:window-x="0"
     inkscape:window-y="0"
     inkscape:window-maximized="1"
     inkscape:current-layer="g4" />
  <g
     transform="translate(2663.4 6833.8)"
     id="g4"
     style="fill:#800000">
    <path
       d="m -2647.7307,-6824.7443 c 80.4524,27.7003 160.371,73.9211 202.3375,150.827 1.7412,5.0131 6.8178,-0.3677 8.7798,-2.6229 45.2605,-60.475 120.8668,-95.0754 196.0984,-93.1761 69.3672,-3.5667 141.6342,23.0801 186.1316,77.5982 5.3341,8.114 12.3486,-3.4196 15.8311,-8.1017 72.5554,-81.5321 199.4435,-96.6207 296.5608,-54.1632 60.146,27.1365 102.1399,83.7991 121.5437,145.7184 29.4295,96.3991 20.2083,200.5406 -6.548,296.5259 -27.2105,109.5462 -65.149,219.2885 -58.7854,333.7766 3.8013,79.1671 49.4533,159.9756 125.3107,189.7743 61.176,25.5313 135.199,2.1571 175.2133,-49.2968 1.7167,-5.4175 -0.2821,-7.7586 -6.0085,-7.0109 -43.2731,-7.9179 -85.1248,-22.3191 -124.7025,-41.2926 -6.4009,-1.0541 0.4046,-2.5249 2.0968,-2.9294 122.7307,-17.4536 244.2254,-60.978 342.8338,-136.5896 -14.4577,122.2247 18.4542,243.8119 62.1452,356.9175 1.1772,2.4514 5.0398,9.4623 -0.5027,8.1263 -40.3675,-28.019 -79.0555,-59.2248 -110.753,-97.0129 -2.8325,-4.4125 -8.4487,-0.9928 -10.4101,2.3165 -44.4994,49.9831 -100.9333,91.0434 -165.5997,110.2914 -84.2291,27.4552 -179.8043,13.0903 -252.6422,-36.8311 -49.8339,-32.5168 -88.6436,-80.1221 -114.0687,-133.5695 -30.4477,-62.6322 -37.3509,-134.3147 -32.5686,-202.9821 8.3629,-104.8396 43.9235,-204.6393 72.3229,-305.1253 26.8907,-93.0907 43.9598,-200.7268 -2.4769,-290.2994 -27.6637,-56.3322 -101.159,-69.9244 -155.8978,-49.4566 -25.1622,7.9179 -45.702,27.921 -55.6707,52.2021 -16.8729,45.607 -13.7456,97.4052 4.1569,142.1885 -17.1554,0.1593 -36.6888,1.287 -52.2001,4.9885 3.4335,114.5176 16.0882,228.9371 36.3945,341.7289 -58.3685,-0.7109 -116.7271,-0.049 -175.0661,-0.3309 19.7059,-109.2815 30.8891,-220.7398 36.0393,-331.2763 -16.0636,-4.5228 -35.6587,3.4686 -52.875,2.2552 3.8504,-49.9704 21.5326,-97.7973 36.3827,-145.1791 -12.483,-42.3104 -52.8504,-74.0065 -96.5777,-78.7984 -40.4655,-6.4103 -87.3447,-1.336 -117.8651,28.6319 -42.7463,48.2427 -36.6514,122.8816 -11.8208,177.635 -15.7075,-0.2819 -31.1344,3.7629 -46.8301,3.4687 -4.4267,-0.5638 -7.3819,5.2704 -5.42,9.1191 2.7345,112.3505 12.6665,225.4267 41.6918,334.3552 -58.3685,-0.3187 -116.7369,-0.2207 -175.0956,-0.061 28.5711,-108.448 39.3129,-221.3085 40.956,-332.9727 -18.1727,-1.3727 -36.3336,3.5422 -54.469,4.2286 6.1066,-35.9614 17.4615,-70.9305 28.988,-105.526 2.5383,-5.6258 5.9963,-12.4156 1.4102,-17.9439 -14.3224,-31.6107 -40.134,-61.2466 -75.7436,-67.7555 -25.481,-7.1334 -51.0719,4.7924 -72.4701,15.7377 -0.1226,-66.0395 0.1962,-132.0791 -0.1472,-198.1088 z"
       fill="#00e2ca"
       id="path2"
       style="fill:#800000;stroke:#000000;stroke-width:8.62539;stroke-linecap:round;stroke-linejoin:round;stroke-dasharray:none;stroke-opacity:1;paint-order:normal" />
  </g>
</svg>
