<?xml version="1.0" encoding="UTF-8" standalone="no"?>
<svg
   height="911pt"
   width="710.07pt"
   version="1.1"
   viewBox="0 0 710.07001 911.00488"
   id="svg4"
   sodipodi:docname="taurusLOGO.svg"
   inkscape:version="1.2.1 (9c6d41e410, 2022-07-14)"
   xmlns:inkscape="http://www.inkscape.org/namespaces/inkscape"
   xmlns:sodipodi="http://sodipodi.sourceforge.net/DTD/sodipodi-0.dtd"
   xmlns="http://www.w3.org/2000/svg"
   xmlns:svg="http://www.w3.org/2000/svg">
  <defs
     id="defs8" />
  <sodipodi:namedview
     id="namedview6"
     pagecolor="#ffffff"
     bordercolor="#000000"
     borderopacity="0.25"
     inkscape:showpageshadow="2"
     inkscape:pageopacity="0.0"
     inkscape:pagecheckerboard="0"
     inkscape:deskcolor="#d1d1d1"
     inkscape:document-units="pt"
     showgrid="false"
     inkscape:zoom="0.65285401"
     inkscape:cx="458.75494"
     inkscape:cy="608.86507"
     inkscape:window-width="1920"
     inkscape:window-height="1003"
     inkscape:window-x="0"
     inkscape:window-y="0"
     inkscape:window-maximized="1"
     inkscape:current-layer="svg4" />
  <path
     d="m594.02 0c38.61 1.85 77.66-0.96 116.05 2.44-15.82 126.82-86.09 250.38-198.09 315.68-4.38 1.06-3.59 6.53 0.15 7.68 105.25 58.69 168.9 182.49 155.89 302.28-7.37 79.56-47.31 155.22-108.07 206.94-71.81 62.64-173.42 89.26-266.7 69.64-91.37-17.61-172.55-79.17-215.64-161.35-43.23-80.8-48-181.34-12.07-265.73 26.03-62.89 73.03-116.91 131.85-151.15 3.56-2.55-0.78-5.77-3.49-6.44-114.73-62.89-186.95-189.57-193.9-318.94 39.27-0.25 78.54 0.16 117.81-0.2-6.67 70.38 16.55 143.01 62.9 196.36 37.82 43.94 92.01 74.55 149.97 81.01 62.67 8.76 127.71-11.41 176.75-50.75 67.34-52.66 101.28-143.33 86.59-227.47m-252.61 352.41c-50.67 5-100.78 24.82-138.47 59.58-66.67 58.96-92.1 159.82-60.27 243.27 19.49 56.8 63.15 104.36 117.78 129.21 66.06 31.11 147.65 27 210.17-10.79 38.14-22.13 69.15-56.1 88.15-95.84 36.71-73.75 27.93-167.43-21.45-233.27-44.35-60.72-121-96.06-195.91-92.16z"
     fill="#f75500"
     id="path2"
     style="fill:#ff7f2a;fill-opacity:1" />
</svg>
