<?xml version="1.0" encoding="UTF-8" standalone="no"?>
<!-- Created with Inkscape (http://www.inkscape.org/) -->

<svg
   width="297.0mm"
   height="210.0mm"
   viewBox="0 0 297.0 210.0"
   version="1.1"
   id="SVGRoot"
   sodipodi:docname="LogoWithPDS.svg"
   inkscape:version="1.2.1 (9c6d41e410, 2022-07-14)"
   xmlns:inkscape="http://www.inkscape.org/namespaces/inkscape"
   xmlns:sodipodi="http://sodipodi.sourceforge.net/DTD/sodipodi-0.dtd"
   xmlns:xlink="http://www.w3.org/1999/xlink"
   xmlns="http://www.w3.org/2000/svg"
   xmlns:svg="http://www.w3.org/2000/svg">
  <sodipodi:namedview
     id="namedview247"
     pagecolor="#ffffff"
     bordercolor="#000000"
     borderopacity="0.25"
     inkscape:showpageshadow="2"
     inkscape:pageopacity="0.0"
     inkscape:pagecheckerboard="0"
     inkscape:deskcolor="#d1d1d1"
     inkscape:document-units="mm"
     showgrid="false"
     inkscape:zoom="0.70710678"
     inkscape:cx="420.72854"
     inkscape:cy="519.72349"
     inkscape:window-width="1920"
     inkscape:window-height="1003"
     inkscape:window-x="0"
     inkscape:window-y="0"
     inkscape:window-maximized="1"
     inkscape:current-layer="layer1" />
  <defs
     id="defs242">
    <linearGradient
       id="linearGradient2366"
       inkscape:swatch="solid">
      <stop
         style="stop-color:#7f143e;stop-opacity:1;"
         offset="0"
         id="stop2364" />
    </linearGradient>
    <inkscape:path-effect
       effect="bspline"
       id="path-effect2290"
       is_visible="true"
       lpeversion="1"
       weight="33.333333"
       steps="2"
       helper_size="0"
       apply_no_weight="true"
       apply_with_weight="true"
       only_selected="false" />
    <inkscape:path-effect
       effect="bspline"
       id="path-effect2232"
       is_visible="true"
       lpeversion="1"
       weight="33.333333"
       steps="2"
       helper_size="0"
       apply_no_weight="true"
       apply_with_weight="true"
       only_selected="false" />
    <linearGradient
       id="linearGradient6247"
       inkscape:swatch="solid">
      <stop
         style="stop-color:#000000;stop-opacity:1;"
         offset="0"
         id="stop6245" />
    </linearGradient>
    <linearGradient
       id="linearGradient6241"
       inkscape:swatch="solid">
      <stop
         style="stop-color:#ff12ff;stop-opacity:1;"
         offset="0"
         id="stop6239" />
    </linearGradient>
    <linearGradient
       inkscape:collect="always"
       xlink:href="#linearGradient2366"
       id="linearGradient2368"
       x1="113.5547"
       y1="96.866606"
       x2="113.9735"
       y2="96.866606"
       gradientUnits="userSpaceOnUse"
       gradientTransform="matrix(226.74813,0,0,241.97585,-25651.776,-23244.801)" />
  </defs>
  <g
     inkscape:label="Layer 1"
     inkscape:groupmode="layer"
     id="layer1">
    <ellipse
       style="fill:#ffcc00;fill-opacity:1;stroke:none;stroke-width:1.00426;stroke-linecap:round;stroke-linejoin:round;stroke-opacity:0.564982;paint-order:stroke fill markers"
       id="path302"
       cx="-148.65028"
       cy="-105.14077"
       rx="99.780869"
       ry="99.775871"
       transform="scale(-1)" />
    <g
       id="g256"
       transform="matrix(0.66497991,-0.00323036,0.00319776,0.67176025,25.77899,51.085809)">
      <path
         style="fill:#ff0000;fill-opacity:0.622124;fill-rule:evenodd;stroke:none;stroke-width:0;stroke-linecap:round;stroke-linejoin:round;stroke-dasharray:none;stroke-dashoffset:1.53627;paint-order:fill markers stroke"
         d="m 131.55236,87.877396 29.75285,52.856624 -7.8375,-37.8638 27.87271,4.99174 -3.84499,-31.810511 z"
         id="path4536"
         sodipodi:nodetypes="cccccc" />
      <path
         style="fill:#ff0000;fill-opacity:0.622124;fill-rule:evenodd;stroke:none;stroke-width:0;stroke-linecap:round;stroke-linejoin:round;stroke-dasharray:none;stroke-dashoffset:1.53627;paint-order:fill markers stroke"
         d="m 130.46652,88.547674 48.8015,86.833286 -92.091345,5.04022 62.021595,-25.4948 z"
         id="path4538"
         sodipodi:nodetypes="ccccc" />
      <path
         style="fill:#ff0000;fill-opacity:0.622124;fill-rule:evenodd;stroke:none;stroke-width:0;stroke-linecap:round;stroke-linejoin:round;stroke-dasharray:none;stroke-dashoffset:1.53627;paint-order:fill markers stroke"
         d="M 73.276178,50.714343 86.437242,178.82245 141.20245,153.92577 126.37249,89.161941 Z"
         id="path4540"
         sodipodi:nodetypes="ccccc" />
      <path
         style="fill:#bd45ff;fill-opacity:0.622124;fill-rule:evenodd;stroke:none;stroke-width:0;stroke-linecap:round;stroke-linejoin:round;stroke-dasharray:none;stroke-dashoffset:1.53627;paint-order:fill markers stroke"
         d="m 74.167844,46.920713 55.341636,40.854902 50.50846,-13.723452 4.58412,37.237647 -28.1303,-6.49927 7.43593,38.54731 17.51298,32.15461 20.66045,9.14272 11.89346,-68.11457 c 0,0 39.02235,36.35026 36.52963,-23.712613 -2.49326,-60.061858 -38.35268,-11.334008 -38.35268,-11.334008 0,0 -11.25995,-22.888785 13.71019,-45.283724 24.97208,-22.39425 -16.87918,-38.447801 -27.75851,-23.38118 -15.42156,17.523217 -47.4007,-28.439947 -54.04481,1.139567 -2.42982,10.822175 20.85073,21.617073 4.03499,30.299668 -19.30845,-8.511265 -2.97866,-34.103403 -23.80184,-34.178512 -16.41417,0.691242 0.22064,38.675504 -15.54814,28.444436 C 92.941788,28.282378 104.09583,0.78343122 81.177119,2.7746899 63.305045,4.3252534 89.39496,36.004379 86.225976,36.757235 83.03603,37.504501 69.875242,-2.6545183 58.353556,19.007968 46.840136,40.671195 74.218597,46.918481 74.218597,46.918481 Z"
         id="path4738"
         sodipodi:nodetypes="cccccccccscscsccsssscc" />
      <path
         style="fill:#ffff73;fill-opacity:1;fill-rule:evenodd;stroke:none;stroke-width:34.9147;stroke-linecap:round;stroke-linejoin:round;stroke-dasharray:none;stroke-dashoffset:1.53627;paint-order:fill markers stroke"
         id="path6345"
         sodipodi:type="arc"
         sodipodi:cx="93.687912"
         sodipodi:cy="94.498001"
         sodipodi:rx="10.646349"
         sodipodi:ry="9.2497282"
         sodipodi:start="0.045278583"
         sodipodi:end="0.04377772"
         sodipodi:arc-type="slice"
         d="m 104.32335,94.916673 a 10.646349,9.2497282 0 0 1 -11.113334,8.821737 10.646349,9.2497282 0 0 1 -10.1579,-9.652146 10.646349,9.2497282 0 0 1 11.105711,-8.828976 10.646349,9.2497282 0 0 1 10.166233,9.645516 L 93.687912,94.498001 Z"
         inkscape:transform-center-y="8.1754168"
         transform="matrix(0.99998468,-0.00553531,0.00738752,0.99997271,0,0)"
         inkscape:transform-center-x="-0.062667721" />
      <path
         style="fill:#ffff73;fill-opacity:1;fill-rule:evenodd;stroke:none;stroke-width:34.9147;stroke-linecap:round;stroke-linejoin:round;stroke-dasharray:none;stroke-dashoffset:1.53627;paint-order:fill markers stroke"
         id="path6345-6"
         sodipodi:type="arc"
         sodipodi:cx="164.60353"
         sodipodi:cy="91.664566"
         sodipodi:rx="10.646349"
         sodipodi:ry="9.2497282"
         sodipodi:start="0.045278583"
         sodipodi:end="0.04377772"
         sodipodi:arc-type="slice"
         d="m 175.23897,92.083238 a 10.646349,9.2497282 0 0 1 -11.11334,8.821732 10.646349,9.2497282 0 0 1 -10.1579,-9.652141 10.646349,9.2497282 0 0 1 11.10572,-8.828977 10.646349,9.2497282 0 0 1 10.16623,9.645517 l -10.63615,-0.404803 z"
         inkscape:transform-center-y="8.1754635"
         transform="matrix(0.99998468,-0.00553531,0.00738752,0.99997271,0,0)"
         inkscape:transform-center-x="-0.062620488" />
      <path
         style="opacity:0.905817;fill:#ff0000;fill-opacity:0.623529;fill-rule:evenodd;stroke:url(#linearGradient2368);stroke-width:2.36845;stroke-dasharray:4.7369, 2.36845;stroke-dashoffset:0;paint-order:fill markers stroke"
         d="m 96.543511,183.51281 12.928829,21.17301 20.19573,-16.20245 18.61123,17.01885 22.24494,-18.65906 16.24536,20.3695 4.75293,-5.27198 -21.2013,-18.8909 v 0 l -22.98821,15.92792 -16.30881,-17.03195 v 0 l -21.15691,15.27216 z"
         id="path2362"
         sodipodi:nodetypes="cccccccccccccc" />
    </g>
    <g
       aria-label="pds"
       id="text983"
       style="font-weight:bold;font-size:36px;font-family:'PakType Naskh Basic';-inkscape-font-specification:'PakType Naskh Basic Bold';fill:#d45500;fill-opacity:0.503095;stroke:none;stroke-width:1.283;stroke-linecap:round;stroke-linejoin:round;stroke-opacity:0.564982;paint-order:stroke fill markers"
       transform="matrix(0,0.98415862,-1.02525,0,245.70631,9.8935443)">
      <path
         d="m 31.992814,58.940477 v 13.424855 h 5.014657 V 41.210417 h -5.014657 v 3.1942 q -3.167159,-3.657129 -9.633436,-3.657129 -5.542536,0 -8.973614,3.009024 -3.4310979,3.00901 -3.4310979,7.916037 0,4.814422 3.3981029,7.777158 3.398083,2.962723 9.006609,2.962723 6.466277,0 9.633436,-3.471953 z M 17.311707,57.551704 q -2.276394,-2.175754 -2.276394,-5.879155 0,-3.703404 2.276394,-5.879159 2.276394,-2.175754 6.169362,-2.175754 3.892968,0 6.202356,2.129467 2.309389,2.12944 2.309389,5.925446 0,3.703401 -2.210423,5.879155 -2.210405,2.175742 -6.301322,2.175742 -3.892968,0 -6.169362,-2.175742 z"
         style="fill:#ff0000;stroke:none;stroke-width:2.01695;stroke-opacity:1"
         id="path1137" />
      <path
         d="M 38.544674,76.859479 V 57.680895 H 43.4211 v 38.77074 h -4.876426 v -3.36012 q -2.925882,3.87706 -9.55783,3.87706 -5.461624,0 -8.875128,-3.28258 -3.413503,-3.2826 -3.413503,-8.71051 0,-5.4796 3.413503,-8.839703 3.413504,-3.360137 8.875128,-3.360137 6.566941,0 9.55783,4.083834 z m -16.774976,8.116006 q 0,4.18725 2.178155,6.59105 2.178136,2.40378 6.144307,2.40378 3.966171,0 6.209333,-2.40378 2.243181,-2.4038 2.243181,-6.59105 0,-4.18723 -2.243181,-6.591023 -2.243162,-2.403766 -6.209333,-2.403766 -3.836137,0 -6.079299,2.377928 -2.243163,2.377941 -2.243163,6.616861 z"
         style="fill:#ff0000;stroke:none;stroke-width:2.11576;stroke-opacity:1"
         id="path1139" />
      <path
         d="m 41.864113,40.011927 2.861775,2.543299 q -2.608429,2.735934 -2.630562,5.608963 -0.01761,2.286688 1.117919,3.731985 1.135532,1.445298 3.134734,1.460613 2.941354,-0.153391 4.221322,-6.00723 2.180034,-8.192437 7.530832,-8.15145 l 0.1176,9.01e-4 q 3.763205,0.02883 5.772154,2.594913 2.00895,2.566068 1.969653,7.667164 -0.01897,2.462588 -1.155594,4.975257 -1.136625,2.51267 -3.089225,4.080907 l -2.738753,-3.246004 q 3.252061,-2.320554 3.280064,-5.955798 0.02348,-3.048931 -0.643217,-4.285405 -0.666719,-1.236475 -2.606665,-1.309976 -2.1756,-0.01669 -3.037235,1.149474 -0.861632,1.166124 -1.64952,4.209201 -1.208973,4.271203 -2.959154,6.280758 -1.750182,2.009557 -4.867034,2.044323 -3.704398,-0.02836 -5.91915,-2.596036 -2.214751,-2.567647 -2.181777,-6.847873 0.03251,-4.221588 3.471827,-7.947986 z"
         style="fill:#ff0000;stroke:none;stroke-width:2.14287;stroke-opacity:1"
         id="path1141" />
    </g>
    <g
       aria-label="pds"
       id="text983-1"
       style="font-weight:bold;font-size:36px;font-family:'PakType Naskh Basic';-inkscape-font-specification:'PakType Naskh Basic Bold';fill:none;fill-opacity:0.503095;stroke:#000000;stroke-width:1.28323;stroke-linecap:round;stroke-linejoin:round;stroke-dasharray:none;stroke-opacity:0.564982;paint-order:stroke fill markers"
       transform="matrix(0,0.98415862,-1.02525,0,244.50723,8.0385292)">
      <path
         d="m 31.992814,58.940477 v 13.424855 h 5.014657 V 41.210417 h -5.014657 v 3.1942 q -3.167159,-3.657129 -9.633436,-3.657129 -5.542536,0 -8.973614,3.009024 -3.4310979,3.00901 -3.4310979,7.916037 0,4.814422 3.3981029,7.777158 3.398083,2.962723 9.006609,2.962723 6.466277,0 9.633436,-3.471953 z M 17.311707,57.551704 q -2.276394,-2.175754 -2.276394,-5.879155 0,-3.703404 2.276394,-5.879159 2.276394,-2.175754 6.169362,-2.175754 3.892968,0 6.202356,2.129467 2.309389,2.12944 2.309389,5.925446 0,3.703401 -2.210423,5.879155 -2.210405,2.175742 -6.301322,2.175742 -3.892968,0 -6.169362,-2.175742 z"
         style="fill:none;stroke:#000000;stroke-width:1.28323;stroke-dasharray:none;stroke-opacity:0.564982"
         id="path1137-5" />
      <path
         d="M 38.544674,76.859479 V 57.680895 H 43.4211 v 38.77074 h -4.876426 v -3.36012 q -2.925882,3.87706 -9.55783,3.87706 -5.461624,0 -8.875128,-3.28258 -3.413503,-3.2826 -3.413503,-8.71051 0,-5.4796 3.413503,-8.839703 3.413504,-3.360137 8.875128,-3.360137 6.566941,0 9.55783,4.083834 z m -16.774976,8.116006 q 0,4.18725 2.178155,6.59105 2.178136,2.40378 6.144307,2.40378 3.966171,0 6.209333,-2.40378 2.243181,-2.4038 2.243181,-6.59105 0,-4.18723 -2.243181,-6.591023 -2.243162,-2.403766 -6.209333,-2.403766 -3.836137,0 -6.079299,2.377928 -2.243163,2.377941 -2.243163,6.616861 z"
         style="fill:none;stroke:#000000;stroke-width:1.28323;stroke-dasharray:none;stroke-opacity:0.564982"
         id="path1139-5" />
      <path
         d="m 41.864113,40.011927 2.861775,2.543299 q -2.608429,2.735934 -2.630562,5.608963 -0.01761,2.286688 1.117919,3.731985 1.135532,1.445298 3.134734,1.460613 2.941354,-0.153391 4.221322,-6.00723 2.180034,-8.192437 7.530832,-8.15145 l 0.1176,9.01e-4 q 3.763205,0.02883 5.772154,2.594913 2.00895,2.566068 1.969653,7.667164 -0.01897,2.462588 -1.155594,4.975257 -1.136625,2.51267 -3.089225,4.080907 l -2.738753,-3.246004 q 3.252061,-2.320554 3.280064,-5.955798 0.02348,-3.048931 -0.643217,-4.285405 -0.666719,-1.236475 -2.606665,-1.309976 -2.1756,-0.01669 -3.037235,1.149474 -0.861632,1.166124 -1.64952,4.209201 -1.208973,4.271203 -2.959154,6.280758 -1.750182,2.009557 -4.867034,2.044323 -3.704398,-0.02836 -5.91915,-2.596036 -2.214751,-2.567647 -2.181777,-6.847873 0.03251,-4.221588 3.471827,-7.947986 z"
         style="fill:none;stroke:#000000;stroke-width:1.28323;stroke-dasharray:none;stroke-opacity:0.564982"
         id="path1141-4" />
    </g>
  </g>
</svg>
