<?xml version="1.0" encoding="UTF-8" standalone="no"?>
<svg
   version="1.1"
   x="0"
   y="0"
   width="566.929"
   height="566.929"
   viewBox="0, 0, 566.929, 566.929"
   id="svg4488"
   sodipodi:docname="pattern.svg"
   inkscape:version="1.2.1 (9c6d41e410, 2022-07-14)"
   xmlns:inkscape="http://www.inkscape.org/namespaces/inkscape"
   xmlns:sodipodi="http://sodipodi.sourceforge.net/DTD/sodipodi-0.dtd"
   xmlns:xlink="http://www.w3.org/1999/xlink"
   xmlns="http://www.w3.org/2000/svg"
   xmlns:svg="http://www.w3.org/2000/svg"
   xmlns:rdf="http://www.w3.org/1999/02/22-rdf-syntax-ns#"
   xmlns:cc="http://creativecommons.org/ns#"
   xmlns:dc="http://purl.org/dc/elements/1.1/">
  <metadata
     id="metadata4494">
    <rdf:RDF>
      <cc:Work
         rdf:about="">
        <dc:format>image/svg+xml</dc:format>
        <dc:type
           rdf:resource="http://purl.org/dc/dcmitype/StillImage" />
      </cc:Work>
    </rdf:RDF>
  </metadata>
  <defs
     id="defs4492">
    <linearGradient
       inkscape:collect="always"
       id="linearGradient1499">
      <stop
         style="stop-color:#ff8955;stop-opacity:1;"
         offset="0"
         id="stop1495" />
      <stop
         style="stop-color:#e13bf6;stop-opacity:1;"
         offset="1"
         id="stop1497" />
    </linearGradient>
    <linearGradient
       inkscape:collect="always"
       xlink:href="#linearGradient1499"
       id="linearGradient1501"
       x1="27.077667"
       y1="283.46338"
       x2="540.34029"
       y2="283.46338"
       gradientUnits="userSpaceOnUse" />
  </defs>
  <sodipodi:namedview
     pagecolor="#ffffff"
     bordercolor="#666666"
     borderopacity="1"
     objecttolerance="10"
     gridtolerance="10"
     guidetolerance="10"
     inkscape:pageopacity="0"
     inkscape:pageshadow="2"
     inkscape:window-width="1920"
     inkscape:window-height="1003"
     id="namedview4490"
     showgrid="false"
     inkscape:snap-global="false"
     inkscape:zoom="0.8371782"
     inkscape:cx="92.572884"
     inkscape:cy="393.58407"
     inkscape:window-x="0"
     inkscape:window-y="0"
     inkscape:window-maximized="1"
     inkscape:current-layer="svg4488"
     inkscape:showpageshadow="2"
     inkscape:pagecheckerboard="0"
     inkscape:deskcolor="#d1d1d1" />
  <g
     id="Layer_6"
     style="stroke:url(#linearGradient1501);stroke-opacity:1;stroke-width:4.3;stroke-dasharray:none;stroke-linejoin:round;stroke-linecap:round;fill:none;fill-opacity:1">
    <path
       d="M 283.69531,27.746094 C 182.05648,26.349342 84.2922,92.559705 46.898952,186.90371 7.9670241,279.08256 30.515854,392.81118 101.84224,463.05034 c 8.8275,14.52827 25.36149,19.13999 24.36133,2.44194 12.26007,-8.78811 28.11114,20.36584 43.63938,22.96614 16.09491,6.628 9.00515,-15.286 -5.20782,-15.3977 -28.31752,-17.8022 -52.59388,-41.99298 -70.44763,-70.28142 16.73159,-17.81528 21.39979,30.58003 36.26749,22.75422 9.51731,-10.66694 -18.06157,-23.9572 -20.45511,-37.43455 -4.55234,-14.72569 -21.433798,16.94411 -24.876089,-1.044 -1.842555,-10.38169 -14.544121,-28.94765 -18.125239,-13.86598 12.593476,30.36004 31.668351,57.99925 55.548328,80.58054 -9.67083,18.07704 -20.91104,-10.26352 -29.857153,-16.80457 C 57.264072,393.27821 37.69192,337.06152 38.572262,280.80469 c 11.658059,0.19453 27.190016,4.86874 21.700815,-13.3888 4.256382,-11.50044 -2.673072,-46.76876 16.408711,-37.81755 -7.41386,8.50776 0.08385,28.01373 7.418753,16.19115 5.233162,-27.37519 15.915769,-53.78243 32.077189,-76.58441 -16.253455,-15.44795 -21.195798,22.25639 -29.353669,31.85547 -1.216798,16.59694 -13.595577,22.75339 -19.904457,10.70394 -16.334677,-0.2028 -12.21612,36.74578 -16.885373,50.93564 -3.740487,19.96481 -17.653706,-0.69945 -9.11691,-13.38655 C 53.880876,147.45513 137.6479,59.918852 238.82753,42.431208 c 20.03744,-3.718579 40.54028,-4.927509 60.87559,-3.577692 2.27165,21.693858 -29.91984,4.20745 -42.90545,11.570796 -30.72249,3.504132 -60.70669,13.244814 -87.64923,28.413579 7.48181,20.938175 30.17054,-10.150015 45.66559,-8.532225 16.99927,-10.696416 23.1349,-1.969376 23.81922,14.434887 12.01749,-1.950993 34.43165,-1.627349 42.96354,-6.983254 3.51356,-21.687546 -36.52486,7.653053 -36.12461,-11.632798 12.84699,-10.796051 44.24698,-5.998883 64.26611,-5.13622 3.71328,-7.93405 -6.81123,-24.507739 8.23733,-20.266335 77.12249,10.311494 147.28355,60.250414 182.96775,129.291724 -18.21871,13.05829 -20.25001,-26.05961 -34.49289,-33.406 -18.14034,-22.53765 -40.4588,-41.701382 -65.49539,-56.20142 -16.38384,13.746259 22.20549,15.032156 5.14526,27.77604 -7.66922,12.68931 -15.21683,23.30378 -28.41052,7.60362 -14.46829,-13.57312 -21.76078,-3.99348 -20.39347,7.90155 -16.48877,5.00348 -46.00064,-15.72931 -68.8337,-11.30744 -19.88142,-6.18691 -14.38838,19.38529 3.08459,10.69672 37.42631,1.66758 73.94552,17.20967 101.29065,42.78068 21.79741,-15.59252 -29.97803,-23.79984 -26.28281,-37.04685 12.7108,-11.62842 37.2492,21.52874 50.02022,30.888 3.2804,10.48814 20.76897,20.13082 19.31009,6.46408 -5.77023,-15.09894 -34.72641,-25.577 -30.64673,-38.9857 3.58938,-5.92965 22.7616,10.80829 17.46523,-5.49827 -18.47917,-12.63523 6.36707,-19.8042 13.07656,-2.50761 21.13998,19.57913 38.48136,43.24817 50.73127,69.33088 10.03294,-4.20721 23.01241,-15.76983 24.39738,2.99237 30.11949,72.87169 21.7795,160.13567 -21.9423,225.81818 -20.36527,-9.41776 12.90273,-30.32354 12.34108,-46.2998 13.19465,-32.58924 18.82091,-68.19522 16.40306,-103.26661 -22.37012,-2.10501 -3.55787,32.63968 -12.08562,46.14453 -1.48774,11.72892 -26.65726,-9.56895 -23.07554,9.59358 3.71915,19.26439 -21.45051,15.89989 -10.53997,-1.07789 5.2947,-25.59046 5.29315,-52.26346 -0.0196,-77.85162 -22.81448,1.33381 1.19226,34.93938 -6.93287,50.21684 5.3386,15.61849 -18.9111,43.80822 -0.93506,49.3294 22.1287,-0.57348 -3.11154,20.44413 13.78007,23.13061 10.31383,-4.34726 10.83056,-54.32122 24.58033,-35.63069 -6.75002,30.8377 -20.23199,60.15456 -39.11551,85.44212 6.95553,8.94105 28.25522,1.32764 12.68037,18.21601 -16.51821,17.8096 -41.13499,50.09084 -61.67335,50.37731 -2.6204,-18.32552 -15.30104,-12.8201 -27.8195,-4.85904 -10.81267,-12.19899 11.17525,-14.08792 18.11717,-21.57998 11.17711,-11.05345 -19.56024,-9.61777 -7.63033,-20.51188 25.37792,-6.69298 -5.41221,-18.80918 0.61664,-27.65031 12.07228,-4.35634 24.36488,-31.10129 6.83502,-21.99285 -4.70874,12.34041 -40.39294,34.38142 -28.83374,12.80703 23.17064,-17.99595 40.8929,-42.90974 50.20381,-70.73793 -18.50727,-10.7427 -15.24173,24.46113 -28.14364,32.41795 -14.58397,20.78945 -34.92772,37.49787 -58.20011,47.6758 -4.86258,-9.16285 -6.03756,-26.34211 -19.54084,-15.17442 -20.76282,6.78039 -43.4216,7.55086 -64.61346,2.28184 0.94892,-8.69967 11.85304,-23.67038 -3.87068,-23.22259 -15.54622,0.89426 -29.63241,-28.92062 -40.42957,-14.76592 0.20054,12.55946 53.31435,25.95519 29.85223,33.40466 -56.64349,-20.53749 -89.32074,-88.1849 -70.23252,-145.27496 6.26729,-12.38467 20.44024,-59.88386 36.45398,-40.68611 -16.16345,16.5056 -37.0346,52.07445 -26.6311,69.72006 15.16281,-3.6293 7.47609,-39.25593 24.2162,-50.4764 14.91653,-11.79204 18.80741,-21.32898 3.50288,-33.36527 10.38188,-15.27679 39.2435,-19.61378 50.65897,-28.76835 1.21103,-12.65182 -11.30897,-4.36393 -18.07038,-2.9287 -41.16717,14.2571 -73.64024,50.76475 -82.85621,93.36364 -21.81842,3.11335 5.21238,-22.80663 -14.78725,-22.90691 -4.74487,10.13917 -14.9851,38.65835 3.89283,31.84977 20.13945,1.78775 0.3599,35.70077 11.46936,49.90659 3.0475,12.86178 17.47179,33.8592 -1.9415,33.20885 -16.12586,10.13786 17.15613,34.33397 24.84825,45.66714 14.55911,17.49457 19.65005,-7.49288 2.27406,-12.53112 -10.13485,-6.09174 -25.652,-33.46269 -7.27057,-25.70507 30.86732,48.00652 95.53117,70.15492 149.24725,50.46973 14.65526,22.67769 -36.15705,8.73355 -37.90154,21.84231 4.85468,16.46316 40.4549,-2.1941 54.7369,-5.45232 14.66029,-12.51822 23.91172,-10.06561 30.41252,6.73578 4.57977,-7.67173 24.31261,-8.67445 17.09801,2.33088 -12.67771,15.63696 -48.05087,17.01156 -51.86389,32.08451 8.67843,9.75434 31.20907,-9.56322 43.49063,-13.94698 21.61777,5.42958 -14.45929,16.86334 -16.41587,23.43032 0.31415,8.79393 20.01934,8.17904 7.38544,16.73756 -9.9972,4.77416 -51.56417,13.317 -30.6067,21.57953 21.50569,-0.13405 47.8525,-26.49066 63.1209,-19.80695 -2.15404,15.39517 -36.7324,20.5078 -52.33687,27.87468 -30.77917,9.08599 -63.3574,11.95198 -95.26016,8.53209 0.99686,-11.18882 7.65279,-26.49335 -10.67254,-22.82655 -10.87147,-5.13055 -45.12456,-1.43844 -34.72582,-19.36273 11.41988,-20.27406 -29.51759,-17.18403 -38.72094,-31.36388 -12.76898,-1.65698 -22.37295,-22.59811 -6.93646,-17.87818 22.86156,-0.38755 -11.89379,-22.24765 -18.52836,-31.69366 -18.89389,-21.20311 -32.74258,-46.88366 -39.95494,-74.35937 -24.087131,2.4969 5.78109,34.56787 7.37383,48.00527 4.21415,21.18494 37.86328,36.63657 35.661,52.71463 -21.35092,13.49767 7.27675,24.26054 18.87563,33.49486 12.19319,10.71516 42.30336,11.76884 26.44367,31.57611 1.21987,14.40849 34.42875,14.10287 48.54814,19.30846 13.50714,17.05237 -22.36234,7.26775 -32.73283,3.12796 -24.55461,-7.50712 -47.88809,-18.95664 -68.90192,-33.70587 -16.13878,18.11917 29.06357,24.53169 39.70339,34.24159 92.43945,41.19939 207.86701,19.42794 279.2554,-52.13371 71.35172,-67.88062 96.54096,-178.64899 61.62084,-270.72211 C 488.60506,96.606264 388.99917,26.445208 283.69531,27.746094 Z m 47.36914,26.050781 c -11.20126,22.310844 38.11497,9.26119 35.80971,26.374368 -11.44977,11.537103 -39.44352,-12.429778 -58.10811,-8.647184 -18.17639,-8.305269 -0.87243,25.984402 -17.72764,19.78866 -55.8296,-2.513334 -111.96868,21.176691 -149.36849,62.652121 -18.86615,-9.79346 11.76966,-22.33209 18.57705,-31.36333 18.45973,-14.18951 39.37611,-25.177035 61.54795,-32.28901 -3.28312,-22.754172 -31.8491,5.423466 -44.43501,8.153876 -11.4508,13.093004 -26.16566,10.018094 -21.91329,-3.829237 -13.79234,-9.639991 -34.03078,23.622931 -46.95617,33.056781 -15.657028,18.50722 -33.302697,41.78956 -38.829759,63.4568 16.765679,10.14337 16.336653,-25.51439 28.565677,-33.15844 13.014622,-19.19529 29.014772,-36.36051 47.248242,-50.6915 15.3486,12.18129 -12.07122,19.05671 -17.23863,30.11851 -15.89959,9.19995 -3.65702,16.65081 5.88298,24.00355 -2.26393,11.20528 -34.849225,34.22684 -12.73224,40.46974 24.13861,-48.38727 70.84421,-84.8455 123.80273,-96.0293 8.41192,19.20598 -24.34151,12.21548 -33.99216,22.62623 -19.56374,4.41363 -12.81455,14.38705 -3.96643,22.14117 1.51852,11.64937 -45.03873,22.2524 -23.49648,35.78338 45.1032,-48.16646 125.00582,-56.41723 178.92386,-17.7832 17.97011,-16.98568 -28.06705,-23.2004 -38.79124,-29.70868 -34.8481,-9.77716 -73.2188,-6.34955 -105.70876,9.63837 -14.1454,-15.65519 18.20747,-16.14938 27.89107,-21.17822 19.38037,0.95553 16.54479,-10.38598 10.16519,-20.18 10.55307,-10.271733 40.15455,-4.27982 57.40268,-2.9709 10.04793,3.86879 40.66383,10.32382 27.34456,-4.313559 -10.70795,-1.556113 -46.00261,-9.447852 -25.9688,-16.899331 24.94548,-0.310383 53.50571,21.75784 72.28462,21.07555 8.05727,-11.565484 -23.33216,-11.159234 -8.01517,-25.7911 8.39719,-16.366547 -27.48145,-15.729118 -38.12166,-22.19838 -3.34116,-0.843564 -6.70103,-1.612998 -10.07628,-2.307735 z m 107.79102,83.324215 c -19.18822,12.72165 18.90087,28.14876 20.22848,44.54759 8.84846,8.43 21.59404,46.50037 3.70275,31.8063 -1.13335,-11.96162 -21.84596,-43.16002 -22.13662,-21.39022 8.50364,8.24965 19.18615,40.95623 2.33575,28.78823 -8.51783,-15.19818 -20.15449,-51.24139 -36.71483,-48.16787 -9.70416,16.8205 -18.49284,0.21396 -27.48949,-1.39458 -16.44597,12.52293 36.5617,29.69453 16.36971,41.20514 -15.2296,-9.61253 -31.28085,-36.81475 -53.80747,-44.24224 -12.97467,18.96075 29.80465,22.05264 34.30718,40.949 7.34661,17.85357 16.13101,21.40585 30.25334,9.1611 13.01816,19.26132 18.11612,47.49945 17.04885,71.96802 -11.70316,-0.56131 -26.74431,-5.7153 -22.59085,12.60401 -5.02091,30.97259 -23.14726,59.44741 -48.86813,77.36474 -18.22124,-16.24741 32.72956,-27.66343 20.69751,-43.56186 -22.53041,-6.32208 -5.59058,-22.16096 -3.19526,-38.41986 6.07766,-12.26776 -3.31511,-51.78685 -10.79518,-29.81485 10.70418,45.04365 -28.31988,92.48906 -74.5059,90.96064 -18.16785,7.85766 -22.09501,-17.76308 -3.58276,-10.66958 13.05664,5.7073 53.30207,-13.64408 30.27203,-17.47497 -13.44533,10.40761 -56.31535,10.18211 -53.57878,-6.80509 12.00793,-4.3459 35.98972,11.62188 50.79154,-3.78265 11.57376,-3.93575 20.04982,-35.92507 28.20585,-20.11174 -7.1928,7.81842 -14.60644,32.03027 0.40584,21.81627 14.18344,-18.63306 16.95473,-45.07799 6.95308,-66.2535 9.13867,-5.3776 18.27734,-10.75521 27.41601,-16.13281 15.71073,23.98981 8.36059,58.28864 6.06409,80.33672 21.7456,7.88333 7.15032,-42.29546 18.79214,-46.5308 23.17985,4.51746 15.60762,-17.19494 10.0894,-32.27927 -16.5357,-13.05376 -3.67401,17.6365 -8.14204,22.17846 -16.92256,2.2401 -10.55109,-31.72593 -24.87514,-40.82429 -12.46404,-18.12997 -30.38418,-32.50797 -50.90891,-40.48433 5.12938,-12.06597 12.76519,-26.0212 -9.00954,-24.56764 -11.22778,0.29612 -45.15951,-13.24542 -39.54288,7.32158 10.74889,2.4414 50.0702,-5.93086 39.54656,14.4902 -28.59814,-8.1406 -60.48646,-3.60696 -85.64453,12.25781 6.50064,19.57409 25.16135,-7.23426 39.55164,-4.12391 37.69475,-7.31424 78.43234,10.58468 98.82726,43.04969 -17.24547,14.57701 -24.67771,-25.50787 -44.53332,-25.64351 -45.2879,-23.39213 -106.1081,3.64565 -119.78777,52.50171 -7.51646,23.72348 -4.04473,50.61673 9.31914,71.61446 -13.3782,16.17286 -17.52104,-15.04522 -21.39984,-24.55858 5.43404,-17.41907 -19.82607,-22.51473 -11.23173,-2.27942 4.32463,13.05889 11.9935,54.89549 28.92271,43.0097 11.90327,-19.00229 22.09291,14.62413 33.10425,9.10782 6.86337,-16.48146 -29.21845,-25.76129 -28.10029,-47.00999 -10.68496,-30.27694 0.72943,-66.38547 26.74396,-85.14649 5.8343,4.39198 9.17698,21.70892 17.3239,14.10452 19.2682,-0.93737 14.2013,-25.42194 -2.53679,-10.97756 -16.26455,-19.46507 33.1138,-19.19428 45.05398,-16.77156 15.93097,2.632 52.53587,21.22819 43.91028,35.70793 -19.42883,-1.05072 -9.94302,15.17789 -4.29248,29.89482 7.87568,17.37189 -11.74233,12.81546 -12.90177,5.39901 -15.37346,0.55313 -6.55187,32.57739 -28.10786,34.70097 -24.84005,12.04588 -54.88243,-15.19847 -45.33057,-41.09522 6.82938,-26.44393 46.5891,-32.33335 60.41188,-8.40016 18.08797,11.31444 6.49155,-19.84041 -8.74165,-21.3558 -18.56675,-2.38514 -6.5535,-23.0876 6.45324,-8.56408 12.06525,13.05474 20.62798,-11.54111 1.04158,-11.26341 -18.11417,-11.12429 -31.22346,-6.05201 -27.49169,14.3879 -24.99421,1.04283 -49.67529,26.88445 -42.9155,53.85321 3.59916,8.45513 17.48468,33.96009 1.24387,26.37866 -22.53639,-20.14512 -7.58854,-54.73534 -3.42887,-72.67856 -17.80178,-5.27909 -23.30728,38.29813 -17.61804,54.45858 5.08242,19.82005 20.29286,36.39159 39.13935,44.01958 0.58329,10.58482 -18.83519,16.26965 -1.50226,21.89502 33.48515,10.87529 72.71298,-1.51589 93.93,-29.60596 22.45012,10.53245 -19.72288,29.79285 -29.61777,35.99936 -12.65627,14.3345 -48.62202,-3.6451 -47.32559,18.20182 21.47829,3.31918 44.82013,-5.92359 62.51589,-12.4208 5.86108,13.54262 13.73622,21.895 25.56039,6.44275 26.32545,-20.51763 44.17873,-51.58695 48.31629,-84.7368 14.37414,-5.14966 8.992,20.39022 20.12313,8.44808 7.22491,-41.13734 -3.98298,-85.00076 -30.0118,-117.65706 12.62949,-17.17727 20.02719,15.21438 27.12379,23.71356 24.5252,50.21115 19.69894,113.11872 -12.21558,158.98956 6.17877,8.68131 26.80284,0.79887 14.51827,16.1974 -12.36709,12.82993 -23.66297,23.59825 -4.68733,34.51069 -4.0215,3.29338 -14.75389,23.83062 0.47136,17.3682 14.12799,-15.84737 45.51555,-41.60819 40.3127,-59.51635 -13.48311,-2.36557 -19.13469,31.32033 -32.93938,35.09277 -15.87354,-11.95467 17.81992,-27.32161 18.96106,-42.95824 15.79502,-13.11013 -7.30674,-26.64655 -9.1223,-5.26666 -20.62534,9.62603 1.12513,-25.14988 3.56163,-36.05674 9.76638,-31.91224 9.61956,-66.64471 -0.0155,-98.56444 10.15039,-3.02995 20.30079,-6.05989 30.45118,-9.08984 6.99021,23.07622 9.77558,47.43302 8.06835,71.48828 21.75254,5.82873 7.0821,-29.41912 9.19725,-41.58795 -1.59157,-11.09174 28.18156,0.29382 18.73972,-16.16316 -0.0822,-12.03168 -12.15723,-49.34831 -18.53604,-28.52615 6.47853,9.50685 10.55508,39.7737 -3.41075,26.61855 -8.24524,-37.33975 -26.91796,-72.22103 -53.18741,-99.98386 z m -255.44727,7.77344 c -49.16435,34.94791 -77.05332,97.19857 -69.85742,157.1582 -23.287538,6.6746 -7.45428,-35.63295 -9.02386,-48.97469 1.42729,-11.15443 17.47147,-49.31508 -1.45215,-36.03943 -11.106243,31.60392 -14.815632,65.63962 -8.938051,98.77977 14.517571,-3.87256 26.777891,-5.46552 25.051311,14.92529 11.63661,40.8991 39.26094,76.88024 75.59713,98.92041 -4.72274,9.51347 -17.47431,21.47264 0.69512,24.57934 35.6762,18.65931 77.32801,25.45061 117.10566,19.34449 8.15271,20.65245 -26.92351,9.67901 -38.65609,12.50528 -13.57109,4.70625 -39.96808,-15.68334 -43.10562,2.1865 10.06173,8.6354 35.11507,5.39047 47.25494,9.99109 -3.9498,17.89373 4.14942,24.69399 22.82434,19.13026 16.71414,7.63599 23.97173,-17.62524 5.09055,-11.07043 -16.71944,10.05282 -26.76948,-14.25987 -5.20076,-10.11869 13.28716,-4.80672 53.3946,0.63786 47.45576,-18.44374 -8.81078,-2.06487 -28.27759,11.96504 -25.93537,-8.41005 -3.48716,-18.46001 -35.42993,3.44496 -50.01316,-4.52433 -22.65962,-2.92041 -62.06016,-7.04429 -71.32643,-24.49465 11.87436,-11.09465 37.63804,15.93977 56.28283,12.23698 33.28569,5.23864 68.09634,0.37458 98.59857,-13.97263 -6.23408,-21.87329 -33.33135,9.04158 -49.87958,3.89463 -16.49891,2.8093 -38.55354,6.37523 -30.77249,-16.08455 -15.91472,-9.47788 -49.77242,-9.80792 -68.17215,-26.58352 -15.80265,17.22885 25.51792,21.61597 36.30189,28.07922 10.47862,-1.29356 30.44422,8.6097 16.76556,14.35684 -74.07321,-9.66512 -134.97429,-77.08007 -136.81354,-151.80911 19.61472,-5.87462 8.34432,23.04259 16.14251,33.82794 -2.13555,19.73577 23.18495,15.08748 10.51407,-1.46684 -9.77356,-12.78811 3.05247,-43.46025 -12.75439,-45.647 -17.19686,12.96458 -15.31287,-14.68891 -10.13214,-28.93974 0.0987,-13.86345 17.53149,-51.72821 21.98624,-27.36474 13.46934,11.31565 21.13287,-21.98177 24.23629,-27.02885 -8.60393,-14.12693 -24.06735,27.04115 -25.49213,4.23264 6.21718,-19.95306 39.25946,-33.38771 38.45832,-49.22031 -0.94525,-1.31853 -1.89051,-2.63705 -2.83576,-3.95558 z m -87.054684,95.49024 c 0.491251,-2.28215 2.185743,-10.15408 0,0 z M 283.47852,260.3125 c -23.56502,-7.33914 -28.49455,43.72623 -12.5918,23.16016 16.99274,-31.9275 34.62578,11.13689 9.37774,18.07475 10.56758,19.75674 43.71327,-26.107 16.15415,-37.27424 -3.78784,-2.5747 -8.35877,-3.97483 -12.94009,-3.96067 z m -212.529301,6.11328 c -0.116265,13.24617 2.793108,37.14842 -13.872369,27.97643 -17.982953,1.30626 -0.191397,33.40297 -0.87688,46.20539 0.0379,18.98633 22.350686,5.1706 8.95627,-7.92108 -6.483181,-10.02171 -4.142506,-37.11512 6.702166,-23.02357 2.696782,22.34405 9.1258,44.18048 18.682614,64.54213 21.39642,-8.64035 -11.433299,-36.91372 -7.311537,-55.02412 -9.351226,-15.30946 10.224539,-52.4077 -11.811079,-52.71421 z m 212.447261,12.67578 c -17.33069,11.57511 16.73645,10.13033 0,0 z m 167.40821,153.04883 c -7.53913,8.25465 -41.03837,35.03087 -17.8322,31.86961 5.9497,-9.28286 37.29032,-22.69791 17.8322,-31.86961 z"
       id="path4485"
       inkscape:connector-curvature="0"
       sodipodi:nodetypes="ssccccccccccccccccscccccccccccccccsccscccccccccsccccccccccccccsccsccccccccccccccsccsccsccccsccsccccccccccccccccccccccccccccccccscccccccscccccccccccccccccccccsccccccccsccccccccccccccccccccsccccccccccccccccccccsssccccccscccccccccccccccccccccccccccccsccccccscccccccccccccccccccccccccccccsccccccsccssccsccsccsccccsccsccsccccccccsccsccsccsccssccccccccscccccccsccccsccsccssssccccccccsccsccsccccccsccsccsccccccsccsccccccccccccccccccsccsccsccccccccsccscccccsccccsccsccccsccccccccsccsccsccccccccccscccccccccccccccccssccssssccssscscccccccccccccsccsssssccccc"
       style="stroke:url(#linearGradient1501);stroke-opacity:1;stroke-width:4.3;stroke-dasharray:none;stroke-linejoin:round;stroke-linecap:round;fill:none;fill-opacity:1" />
  </g>
</svg>
