<?xml version="1.0" encoding="utf-8"?>
<svg version="1.1" id="Layer_1" xmlns="http://www.w3.org/2000/svg" xmlns:xlink="http://www.w3.org/1999/xlink" x="0px" y="0px"
	 viewBox="0 0 1920 1920" enable-background="new 0 0 1920 1920" xml:space="preserve">
<g>
	<path fill="#91D2A8" d="M50.21,0h88.76c20.211,42.098,13.161,97.662-4.01,136.94C111.678,123.223,67.988,86.403,55.08,36.9
		C51.73,24.89,50.72,12.41,50.21,0z"/>
	<path fill="#91D2A8" d="M258.17,0H368.4c-22.389,61.57-82.03,93.642-145.1,98.71C225.229,66.545,237.212,28.199,258.17,0z"/>
	<path fill="#9D9F0D" d="M491.35,0h104.18c3.35,10.45,6.78,20.95,8.54,31.81C566.926,33.223,519.907,22.683,491.35,0z"/>
	<path fill="#9D9F0D" d="M639.51,0h72.55c-8.58,22.01-20.22,42.9-35.31,61.12C670.116,55.125,650.68,29.275,639.51,0z"/>
	<path fill="#9D9F0D" d="M736.21,0h78.05c-13.583,34.486-46.603,60.498-75.17,72.85C732.78,49.22,731.28,24.03,736.21,0z"/>
	<path fill="#9D9F0D" d="M849.18,0h52.83c-2.293,29.18-22.593,53.722-46.15,69.19C846.22,47.75,842.78,22.85,849.18,0z"/>
	<path fill="#9D9F0D" d="M935.47,0h54.75c-11.965,31.885-35.459,52.683-80.31,54.81C909.702,48.805,915.282,20.292,935.47,0z"/>
	<path fill="#9D9F0E" d="M1083.48,0h20.93C872.928,176.439,656.011,118.37,625.86,55.29c5.94-1.71,11.75-3.85,17.79-5.16
		C666.097,84.798,832.875,187.385,1083.48,0z"/>
	<path fill="#A8F7FB" d="M1314.3,0h8.13c11.208,6.633,106.049,41.96,82.51,155.01c-25.827-7.945-59.915-30.266-77.32-60.66
		C1310.003,63.279,1311.084,31.611,1314.3,0z"/>
	<path fill="#A8F7FB" d="M1395.74,0h59.95c9.5,17.37,13.72,37.32,13.15,57.05c-10.446-0.483-47.417-12.007-64.47-39.5
		C1400.71,12.11,1398.38,5.96,1395.74,0z"/>
	<path fill="#A9F7FA" d="M1526.12,0h8.3c-12.173,83.875-108.229,236.589-208.33,238.62c0.97-6.06,3.46-11.7,5.25-17.53
		c9.702-1.936,31.074,1.59,83.69-39c37.824-27.809,76.855-76.941,96.92-133.21C1517.77,32.92,1521.54,16.33,1526.12,0z"/>
	<path fill="#A8F7FB" d="M1564.15,0h67.08c-16.844,34.16-56.01,47.973-86.31,45.85C1547.88,29.48,1553.98,13.3,1564.15,0z"/>
	<path fill="#A8F7FB" d="M1172.24,72.09c87.211-8.213,150.62,27.277,181.96,110.74c1.93,5.6,4.36,11.16,5,17.11
		C1264.793,210.643,1196.496,161.515,1172.24,72.09z"/>
	<path fill="#A8F7FB" d="M1615.62,79.29c23.861,5.696,46.656,23.414,49.32,29.38c-36.132,25.846-73.247,28.416-109.75,4.15
		c-5.89-4.16-11.84-8.39-16.6-13.85C1549.897,88.809,1583.738,71.476,1615.62,79.29z"/>
	<path fill="#91D2A8" d="M1879.92,81.11c13.44-0.83,26.85,1.04,40.08,3.2v75.03C1898.49,137.83,1884.359,106.737,1879.92,81.11z"/>
	<path fill="#91D2A8" d="M0,84.62c50.933,9.195,82.479,42.802,97.95,91.48c1.68,5.79,3.88,11.54,4.16,17.62
		C54.854,194.472,25.889,180.942,0,159.52V84.62z"/>
	<path fill="#9D9F0D" d="M651.47,115.82c-43.923,88.271-119.036,116.053-207.38,90.87c1.979-6.169,21.03-42.905,54.32-69.33
		C557.792,90.264,638.577,109.576,651.47,115.82z"/>
	<path fill="#9D9F0D" d="M1031.62,159.22c-8.651,5.469-46.261,18.729-77.66,4.86c-18.47-8.14-33.99-22.34-45.11-39.06
		C952.7,103.295,999,112.655,1031.62,159.22z"/>
	<path fill="#91D2A8" d="M197.67,117.95c1.05,5.95,2.29,11.86,3.27,17.82c-41.935,23.696-94.49,129.419-74.46,242.84
		c28.447,143.615,95.983,224.896,111.14,257.79c2.54,5.38,0.11,11.47-2.58,16.29C137.584,522.579,70.53,307.464,151.55,163.6
		C169.205,132.496,191.156,118.905,197.67,117.95z"/>
	<path fill="#91D2A8" d="M189.96,164.92c28.05-18.27,60.38-31.07,94.04-32.99c61.635-3.438,120.549,45.349,127.9,57.6
		c-81.261,54.628-161.563,43.7-224.15-20.37C185.34,167.43,188.63,165.91,189.96,164.92z"/>
	<path fill="#9D9F0D" d="M711.53,142.08c8.106,73.047-19.46,120.336-80.23,147.2c-5.55,2.08-10.91,5.1-16.88,5.78
		c-3.7-30.87-0.81-63.64,14.4-91.26C650.51,164.613,698.21,144.702,711.53,142.08z"/>
	<path fill="#9D9F0D" d="M861.44,150.02c12.3,2.725,44.19,18.506,57.73,45.78c13.425,26.527,9.217,59.885,7.73,63.34
		C922.061,258.778,849.067,236.908,861.44,150.02z"/>
	<path fill="#A8F7FB" d="M1508.04,152.21c38.391,4.078,77.25,19.39,99.92,50.8c19.275,26.513,26.768,61.67,26.95,77.94
		c-61.291-4.367-108.895-37.346-124.07-104.78C1509.34,168.29,1506.83,160.31,1508.04,152.21z"/>
	<path fill="#9D9F0D" d="M799.93,155.05c38.819,63.161,24.636,131.63-30.68,177.23C766.636,335.379,702.333,236.463,799.93,155.05z"
		/>
	<path fill="#91D2A8" d="M1825.78,229.17c29.28-12.96,62.76-18.23,94.22-10.87v75.67
		C1876.247,288.976,1841.381,254.705,1825.78,229.17z"/>
	<path fill="#A8F7FB" d="M1445.34,218.09c2.931,0.48,106.277,43.738,71.41,165.89C1514.108,383.787,1409.206,339.733,1445.34,218.09
		z"/>
	<path fill="#91D2A8" d="M0,218.53c31.669,7.762,62.267,34.181,79.67,61.59c-6.521,4.23-41.753,17.889-79.67,13.9V218.53z"/>
	<path fill="#A8F7FB" d="M1259.62,230.51c11.7,3.08,23.33,6.68,34.3,11.86c-3.183,6.812-74.031,124.428-216.86,64.25
		c0.344-4.267,18.175-28.357,43.48-49.09C1158.962,227.546,1201.292,216.055,1259.62,230.51z"/>
	<path fill="#91D2A8" d="M168.03,228.92c4.813-2.001,49.746-7.573,86.95,10.09c33.526,15.641,58.529,52.93,67.78,83.98
		C253.598,335.6,194.298,304.801,168.03,228.92z"/>
	<path fill="#A8F7FB" d="M1388.36,252.38c5.266-2.043,19.507,38.796,23.24,56.98c10.456,47.349,0.529,85.078-26.67,123.54
		c-17.49,22.784-35.875,40.162-39.69,39.92C1339.853,465.824,1270.222,351.479,1388.36,252.38z"/>
	<path fill="#11AEAD" d="M1676.82,274.99c27.156,135.218,30.43,288.998-41.65,405.21c-26.116,42.31-78.929,106.934-126.95,104.01
		c1.36-6.01,2.35-12.09,3.81-18.08c46.703-4.267,145.614-90.093,164.03-213.16c11.549-71.891,14.535-122.55-6.41-252.77
		C1668.422,291.786,1664.159,283.636,1676.82,274.99z"/>
	<path fill="#91D2A8" d="M78.37,342.09C73.2,356.833,48.696,397.587,0,399.89v-49.62C21.396,338.43,45.239,333.191,78.37,342.09z"/>
	<path fill="#91D2A8" d="M159.56,344.98c21.477-7.677,56.462-9.591,81.77,7.72c20.316,13.843,33.776,36.024,35.56,41.98
		c-49.951,14.876-85.316-0.603-110.33-37.24C163.96,353.44,161.2,349.49,159.56,344.98z"/>
	<path fill="#91D2A8" d="M1882.37,395.21c8.48-17.66,20.88-34.11,37.63-44.65v49.42C1907.37,400.09,1894.36,399.47,1882.37,395.21z"
		/>
	<path fill="#91D2A8" d="M1031.96,368.41c70.871,67.338,72.993,154.831,21.85,225.46c-25.86-24.246-54.691-67.201-57.46-113.8
		C994.084,434.225,1017.065,387.486,1031.96,368.41z"/>
	<path fill="#10AEAD" d="M706.87,375.06c10.34,55.625-17.134,96.851-62.69,111.09c-3.63-20.72-2.98-42.85,5.65-62.31
		C662.487,394.886,695.176,378.104,706.87,375.06z"/>
	<path fill="#10AEAD" d="M561.99,378.4c35.538,22.511,58.109,67.115,31.73,123.57c-5.7-3.3-10.48-7.95-15.17-12.52
		C545.962,457.372,542.613,418.261,561.99,378.4z"/>
	<path fill="#91D2A8" d="M98.6,392.04c15.927,52.475-0.687,90.636-44.89,116.71c-1.05,0.57-2.23,0.85-3.37,1.19
		c-6.42-21.21-8.47-44.55-1.19-65.81C59.972,413.416,92.287,393.524,98.6,392.04z"/>
	<path fill="#91D2A8" d="M168.12,400.06c44.644,11.264,69.802,42.047,66.9,93.24C229.482,493.113,161.582,477.757,168.12,400.06z"/>
	<path fill="#10AEAD" d="M1616.75,422.36c38.388,29.832,47.563,67.879,26.08,111.76c-7.248-4.136-33.667-26.882-37.38-57.32
		C1602.274,452.189,1613.251,426.532,1616.75,422.36z"/>
	<path fill="#11AEAD" d="M933.29,428.82c-1.91,5.84-6.04,11.91-12.64,12.69c-134.912,16.307-190.991,36.359-258.36,69.69
		c-107.683,52.792-161.795,169.356-152.47,215.65c-5.24,3.1-10.76,5.7-16.04,8.73c-22.013-42.597,44.93-162.21,151.91-223.88
		C731.05,462.028,845.32,433.544,933.29,428.82z"/>
	<path fill="#10AEAD" d="M397.1,438.43c79.153-6.967,133.715,35.735,149.01,103.48C467.102,549.709,413.878,506.638,397.1,438.43z"
		/>
	<path fill="#10AEAD" d="M1793.06,476.87c-1.31,19.41-7.18,38.81-18.3,54.88c-18.567,26.708-54.928,36.264-70.74,36.46
		C1708.524,511.804,1744.704,479.469,1793.06,476.87z"/>
	<path fill="#10AEAD" d="M1539.85,498c55.044,4.87,85.806,39.52,90.1,90.2c-9.228,0.577-46.973-5.838-67.91-31.23
		C1545.113,536.99,1539.662,507.195,1539.85,498z"/>
	<path fill="#10AEAD" d="M792.06,517.91c5.87,2.96,11.79,6.06,16.84,10.33c-0.11,0.32-0.32,0.95-0.43,1.27
		c-31.163,29.878-70.059,35.538-110.45,8.45c-1.2-0.93-4.24-2.37-1.96-3.9C723.921,508.558,756.867,500.396,792.06,517.91z"/>
	<path fill="#91D2A8" d="M850.67,544.05c56.881-5.7,113.483,7.779,150.69,53.55c23.003,28.236,36.575,65.448,36.81,73.25
		c-87.786,8.153-151.211-27.122-182.81-111.23C853.72,554.46,851.34,549.46,850.67,544.05z"/>
	<path fill="#10AEAD" d="M1470.23,546.92c13.663,2.057,48.432,14.409,72.55,38.3c27.855,27.445,37.412,69.256,34.92,107.65
		C1504.022,677.256,1464.467,619.479,1470.23,546.92z"/>
	<path fill="#91D2A8" d="M1273.06,554.16c4.84,0.44,9.79,0.3,14.51,1.65c-25.788,88.467-92.933,134.693-189.54,123.82
		c2.01-10.37,6.61-20.07,10.87-29.68C1140.379,583.027,1193.265,550.385,1273.06,554.16z"/>
	<path fill="#10AEAD" d="M420.88,560.1c30.234,9.485,58.478,34.669,71.73,53.91c-58.271,31.391-120.886,25.571-170.88-32.76
		c-2.07-2.48-4.39-4.83-5.66-7.84C347.54,557.666,387.232,548.933,420.88,560.1z"/>
	<path fill="#10AEAD" d="M646.71,563.01c41.908-8.041,76.161,2.349,99.92,37.38c4.8,7.38,9.29,15.1,12.19,23.45
		c-43.988,8.766-80.113-3.705-103.04-41.63C652.3,576.08,648.18,569.98,646.71,563.01z"/>
	<path fill="#10AEAD" d="M1831.1,616.23c-7.565,8.489-38.291,31.4-71.16,28.68c-27.707-2.116-58.719-21.632-55.35-24.29
		C1741.798,587.067,1787.147,582.949,1831.1,616.23z"/>
	<path fill="#91D2A8" d="M1047.66,637.07c3.98-4.75,9.29-8.4,14.23-12.16c40.259,83.356-65.287,308.598-368.63,390.11
		c5.65-22.756,2.089-5.729,127.1-60.62c61.288-26.451,121.987-74.169,138.5-89.57c71.641-65.642,98.662-159.767,93.23-209.81
		C1051.5,648.84,1049.71,642.89,1047.66,637.07z"/>
	<path fill="#10AEAD" d="M732.04,704.01c-7.388,3.604-37.976,13.61-73.02,10.13c-42.743-4.747-76.639-34.7-97.82-71.01
		C626.126,616.234,692.555,635.999,732.04,704.01z"/>
	<path fill="#10AEAD" d="M1337.05,636.52c44.874-9.052,94.316-6.539,132.74,18.72c32.953,21.769,57.615,59.824,67.7,86.94
		c-15.115,6.63-57.455,2.7-65.7,3.99c-18.374,1.006-91.611-10.986-133.13-104.84C1337.93,639.78,1337.46,638.16,1337.05,636.52z"/>
	<path fill="#10AEAD" d="M459.36,671.67c3.32,0.89,6.59,1.97,9.76,3.3c-39.446,77.173-115.897,114.527-211.03,82.63
		c3.59-7.85,8.67-14.9,13.49-22.02C316.794,672.271,378.155,648.885,459.36,671.67z"/>
	<path fill="#10AEAD" d="M1679.02,678.3c36.266-1.029,78.348,9.913,104.2,37.49c23.345,24.379,35.363,60.704,37.04,76.11
		c-69.106,1.183-110.49-29.972-132.05-82.03C1684.23,699.66,1680.59,689.18,1679.02,678.3z"/>
	<path fill="#91D2A8" d="M1007.66,722.34c2.12,2.37,5.05,4.2,6.24,7.29c-58.024,35.643-113.335,33.587-164.33-10.24
		c-5.19-4.8-10.79-9.39-14.87-15.2C889.595,667.9,954.531,669.151,1007.66,722.34z"/>
	<path fill="#9D9F0D" d="M1910.06,687.87c3.37,2.05,6.75,4.12,9.94,6.47v157.24C1883.97,805.424,1887.301,738.252,1910.06,687.87z"
		/>
	<path fill="#9D9F0D" d="M0,694.57c74.221,51.159,90.623,134.323,55.94,209.94C45.873,899.113,23.43,882.501,0,852.38V694.57z"/>
	<path fill="#10AEAD" d="M525.15,695.97c9.868-0.714,70.392,7.791,109.96,45.92c31.44,30.545,47.275,80.675,48.67,115.92
		C586.976,848.065,532.071,787.763,525.15,695.97z"/>
	<path fill="#91D2A8" d="M1230.97,722.05c7.949,3.99,42.217,23.471,35.77,26.72c-31.782,24.776-71.99,39.982-111.53,31.01
		c-33.014-7.589-60.329-28.168-67.83-35.86C1093.379,737.693,1155.73,685.097,1230.97,722.05z"/>
	<path fill="#2B9D9C" d="M1471.79,746.17c7.03-1.1,14.13,0.11,21.21-0.11c5.48,0.1,11.06-0.96,16.48,0.36
		C1503.139,747.807,1477.711,747.885,1471.79,746.17z"/>
	<path fill="#10AEAD" d="M1625.08,750.24c73.551,26.328,105.013,92.032,88.96,157.93
		C1636.974,880.191,1610.537,813.602,1625.08,750.24z"/>
	<path fill="#10AEAD" d="M495.97,769.01c55.639,85.811,36.642,167.348-25.77,223.87C381.895,863.562,493.671,764.952,495.97,769.01z
		"/>
	<path fill="#91D2A8" d="M824.9,788.24c48.011-19.991,85.2-8.852,114.69,26.18c2.68,3.35,5.42,6.69,7.47,10.48
		c-42.713,18.803-82.873,11.977-113.54-24.4C830.4,796.6,826.82,792.9,824.9,788.24z"/>
	<path fill="#10AEAD" d="M1477.09,792.09c-3.51,8.61-8.85,16.34-13.94,24.09c-39.685,57.404-88.484,78.034-149.13,72.98
		c-15.39-1.55-30.85-3.96-45.46-9.14C1305.484,800.549,1384.195,762.66,1477.09,792.09z"/>
	<path fill="#10AEAD" d="M1573.28,790.09c20.264,26.988,37.941,69.736,37.14,106.91c0.797,48.205-33.571,99.448-55.52,118.76
		C1552.437,1013.684,1461.752,904.134,1573.28,790.09z"/>
	<path fill="#91D2A8" d="M1049.83,825.12c38.597-12.018,84.944-11.502,119.24,13.8c24.903,17.705,42.704,46.172,47.27,57.05
		c-11.61,4.28-24.01,5.8-36.21,7.34c-52.413,3.726-96.738-15.899-128.28-73.23C1050.93,828.53,1050.26,826.85,1049.83,825.12z"/>
	<path fill="#9D9F0D" d="M277.74,821.24c-7.413,95.389-73.908,154.837-161.84,158.69C122.834,888.296,181.901,828.529,277.74,821.24
		z"/>
	<path fill="#91D2A8" d="M904.93,862.1c-0.362,1.003-34.377,61.921-109.87,30.48c0.12-3.24,2.9-5.35,4.71-7.74
		C843.982,830.772,903.122,859.315,904.93,862.1z"/>
	<path fill="#91D2A8" d="M1011.2,874.08c9.854,3.399,41.204,20.318,53.51,50.22c9.656,24.03,6.453,53.044,2.41,64.39
		C1017.187,966.791,998.308,923.304,1011.2,874.08z"/>
	<path fill="#9D9F0D" d="M1880.41,893.52c14.28,4.69,27.49,12.15,39.59,21.01v78.27c-51.917,2.177-92.232-16.188-126.35-56.42
		c-10.35-12.44-19.79-25.79-26.88-40.36C1784.707,889.238,1835.107,878.281,1880.41,893.52z"/>
	<path fill="#91D2A8" d="M964.92,899.88c19.451,48.43,8.183,90.503-36.53,120.52c-1.92,1.89-3.04-0.78-3.54-2.35
		c-7.02-18.95-10.12-39.91-5.64-59.83C926.235,927.54,955.43,904.29,964.92,899.88z"/>
	<path fill="#9D9F0D" d="M0,914.67c23.72,17.9,42.63,41.85,56.15,68.22c-18.11,5.9-37.12,9.19-56.15,9.87V914.67z"/>
	<path fill="#9D9F0E" d="M69.39,933.74c30.972,26.506,34.251,164.104-69.39,287.59v-12.76C66.034,1145.148,91.956,998.682,58.07,948
		C61.76,943.18,65.79,938.63,69.39,933.74z"/>
	<path fill="#9D9F0D" d="M296.39,1012.99c-13.277,17.529-41.954,41.749-73,50.3c-35.492,9.979-72.733-0.263-105.32-17.81
		C129.865,1024.549,203.361,956.433,296.39,1012.99z"/>
	<path fill="#11AEAD" d="M1493.14,997.82c15.314,16.557-0.292,11.824-40.33,148.96c-12.11,44.36-16.65,90.39-18.49,136.21
		c-1.603,122.496,76.755,219.8,115.51,229.38c0.61,6.27,0.09,12.6,0.04,18.9C1488.924,1517.576,1342.588,1337.305,1493.14,997.82z"
		/>
	<path fill="#9D9F0D" d="M1866.91,1014.08c18.02-1.85,36.05,1.7,53.09,7.39v54.14c-32.402,14.502-60.981,16.769-96.72,3.12
		c-14.49-5.67-28.49-12.99-40.71-22.67C1798.375,1039.765,1832.026,1017.362,1866.91,1014.08z"/>
	<path fill="#9D9F0D" d="M0,1021.68c15.52,5.62,30.31,13.44,43.45,23.45c-5.129,6.155-21.538,19.711-43.45,30.46V1021.68z"/>
	<path fill="#A9F7FA" d="M574.78,1057.13c0.625,2.834,20.369,158.51-31.59,299.02c-33.196,90.651-124.131,195.001-193.18,187.72
		c1.54-5.84,3.56-11.55,5.59-17.22c1.33-0.68,2.89-0.49,4.34-0.6c28.316,0.173,74.222-32.046,94.89-51.26
		c111.342-96.053,112.196-253.334,110.95-382.82C565.023,1070.585,560.868,1065.477,574.78,1057.13z"/>
	<path fill="#9D9F0D" d="M1030.14,1071.31c5.21,8.642,20.933,52.077,16.82,94.71c-5.682,66.102-66.286,114.607-82.55,121.9
		C926.174,1196.68,954.744,1117.364,1030.14,1071.31z"/>
	<path fill="#9D9F0D" d="M97.16,1132.33c31.053-16.528,70.5-26.041,105-15.49c34.217,10.319,62.501,37.971,72.44,52.24
		c-8.58,5.2-18,8.81-27.44,12.1c-47.865,16.055-87.26,8.018-123.64-21.69C113.79,1151.45,104.52,1142.6,97.16,1132.33z"/>
	<path fill="#9D9F0D" d="M1843.93,1120.24c26.95-1.65,52.5,12.17,71.31,30.56c1.31,0.88,0.47,2.25-0.65,2.78
		c-44.998,29.632-88.578,23.775-125.19-12.75C1798.417,1132.948,1822.028,1121.537,1843.93,1120.24z"/>
	<path fill="#10AEAD" d="M1520.98,1154.81c19.63,65.87-36.99,101.272-49.7,103.2c-4.52-18.62-5.09-38.79,1.77-56.91
		C1483.047,1174.976,1510.878,1157.96,1520.98,1154.81z"/>
	<path fill="#10AEAD" d="M1336.84,1170.4c52.734,17.059,77.096,61.265,67.24,108.5
		C1350.759,1261.076,1327.219,1217.75,1336.84,1170.4z"/>
	<path fill="#9D9F0D" d="M69.14,1187.89c46.983,7.169,80.011,44.748,77.56,101.09c-10.816-1.178-45.842-12.302-63.41-40.29
		C72.19,1230.6,68.25,1208.89,69.14,1187.89z"/>
	<path fill="#9D9F0D" d="M1882.89,1196.43c-17.212,41.899-54.296,63.497-102.82,51.51
		C1797.581,1205.685,1832.537,1185.697,1882.89,1196.43z"/>
	<path fill="#A8F7FB" d="M498.14,1196.99c7.975,5.149,22.465,24.209,27.48,41.36c10.335,31.78-8.452,66.465-13.77,71.74
		C508.179,1309.219,455.31,1261.52,498.14,1196.99z"/>
	<path fill="#9D9F0D" d="M743.09,1204.38c99.142,9.307,154.012,68.383,161.73,158.55c-5.524,0.775-65.794-4.121-108.38-41.36
		C754.953,1284.917,743.206,1222.899,743.09,1204.38z"/>
	<path fill="#9D9F0E" d="M1920,1209.35v12.14c-6.99,7.54-13.49,15.52-20.59,22.94c-55.688,59.622-135.491,114.821-194.36,143.76
		c0.326-9.579,0.957-12.911,7.9-17.29C1861.77,1285.602,1891.757,1237.974,1920,1209.35z"/>
	<path fill="#9D9F0D" d="M28.76,1222.09c28.919,44.451,25.691,88.64-13.8,127.09c-6.6-8.71-10.32-19.07-14.96-28.84v-56.86
		C3.719,1256.936,9.905,1239.359,28.76,1222.09z"/>
	<path fill="#10AEAD" d="M1560.01,1243.83c6.63-0.09,13.34-0.21,19.89,1.05c-17.094,53.736-53.379,74.088-106.87,69.68
		C1472.828,1311.391,1488.367,1246.394,1560.01,1243.83z"/>
	<path fill="#A8F7FB" d="M413.83,1263.81c17.833,0.272,82.813,22.81,78.92,99.06C447.458,1357.936,410.535,1317.726,413.83,1263.81z
		"/>
	<path fill="#9C9E10" d="M1920,1265.45v52.13C1915.458,1307.912,1912.175,1283.848,1920,1265.45z"/>
	<path fill="#9D9F0D" d="M1173.82,1279.18c-39.607,79.678-115.295,116.057-207.73,87.63
		C961.964,1365.665,1025.092,1230.797,1173.82,1279.18z"/>
	<path fill="#A8F7FB" d="M667.75,1270.96c-10.422,62.769-62.333,83.969-98.65,80.8
		C572.373,1316.114,604.005,1268.064,667.75,1270.96z"/>
	<path fill="#10AEAD" d="M1270.07,1298.42c45.607-20.374,80.679-12.318,109.53,15.97c4.96,5.12,10.08,10.3,13.68,16.51
		c-36.837,18.418-76.536,16.978-109.48-15.7C1278.8,1310.02,1273.37,1304.87,1270.07,1298.42z"/>
	<path fill="#A8F7FB" d="M339.08,1303.99c16.49,4.17,47.931,21.76,66.79,45.12c25.543,29.999,30.56,76.804,23.12,111.74
		C362.074,1438.173,324.119,1380.098,339.08,1303.99z"/>
	<path fill="#10AEAD" d="M1637.17,1307.06c-7.701,69.686-57.667,119.103-135.48,120.18c0.295-9.482,8.594-49.326,33.5-78.04
		C1559.779,1320.835,1600.239,1307.783,1637.17,1307.06z"/>
	<path fill="#9D9F0E" d="M950.38,1317.46c0.28,0,0.84,0.02,1.12,0.02c11.068,13.835,11.446,13.729,10.22,15.15
		c-17.593,26.354-14.581,75.35-11.26,104.58c25.848,200.5,265.376,302.514,281.6,320.73c3.08,3.93,3.52,9.15,3.62,13.98
		C927.971,1608.508,902.188,1379.471,950.38,1317.46z"/>
	<path fill="#9D9F0D" d="M834.36,1379.7c36.778,12.285,65.326,43.365,67.87,49.11c-69.872,39.317-134.87,22.308-178.16-32.62
		C756.198,1377.671,797.775,1367.486,834.36,1379.7z"/>
	<path fill="#A8F7FB" d="M196.88,1378.1c12.967-2.35,57.649-3.905,97.48,13.5c46.913,20.284,76.701,67.996,89.5,114.13
		c-85.093,7.945-148.3-25.444-180.61-107.02C200.75,1391.99,197.58,1385.31,196.88,1378.1z"/>
	<path fill="#A8F7FB" d="M687.86,1412.16c2.59,2.12-1.04,3.94-2.65,5.07c-41.914,26.431-83.239,24.932-122.59-12.26
		C569.317,1397.189,630.595,1356.362,687.86,1412.16z"/>
	<path fill="#10AEAD" d="M1405.53,1391.84c-13.719,31.885-39.245,63.478-72.11,76.58c-33.716,13.429-73.846,9.126-90.36,3.66
		c7.1-15.7,16.13-30.58,27.48-43.58C1320.586,1371.399,1395.032,1387.093,1405.53,1391.84z"/>
	<path fill="#9D9F0D" d="M1085.61,1399.31c34.977,7.148,66.368,32.749,72.35,40.4c-60.632,43.89-124.324,42.398-180.97-10.94
		C999.998,1410.327,1044.457,1389.843,1085.61,1399.31z"/>
	<path fill="#10AEAD" d="M1748.34,1423.17c-4.376,8.671-37.36,53.437-85.69,71.51c-47.02,18.092-106.367,3.378-132.59-10.7
		C1583.171,1407.223,1659.498,1383.228,1748.34,1423.17z"/>
	<path fill="#A8F7FB" d="M531.99,1458.07c37.433,3.244,79.104,20.141,100.58,51.45c18.502,25.797,26.481,61.347,26.27,77.27
		c-63.616-5.073-109.573-39.462-124.41-107.16C533.09,1472.53,531.18,1465.34,531.99,1458.07z"/>
	<path fill="#10AEAD" d="M1442.87,1473.21c-0.293,69.863-40.619,123.631-120.52,135.61
		C1323.087,1532.175,1371.449,1482.069,1442.87,1473.21z"/>
	<path fill="#9D9F0D" d="M869.63,1497.37c23.634,3.581,55.312,16.575,53.07,19.32c-5.848,8.682-29.296,34.118-59.83,47.15
		c-38.04,16.25-80.009,8.131-116.81-11.11C748.977,1547.421,795.902,1485.177,869.63,1497.37z"/>
	<path fill="#9D9F0D" d="M1150.9,1523.43c-1.131,3.26-26.313,27.4-58.33,31.96c-33.877,3.825-70.802-18.426-67.88-20.72
		C1060.441,1498.946,1103.307,1492.567,1150.9,1523.43z"/>
	<path fill="#A8F7FB" d="M469.26,1524.04c3.721,0.12,107.057,45.055,71.44,165.86C539.7,1689.827,433.986,1648.876,469.26,1524.04z"
		/>
	<path fill="#10AEAD" d="M1484.97,1523.32c22.134,32.853,36.872,81.853,30.57,121.29c-7.47,47.283-42.432,88.948-60.32,103.29
		c-26.98-42.533-41.689-96.5-24.46-145.08C1443.193,1566.279,1470.537,1535.178,1484.97,1523.32z"/>
	<path fill="#A8F7FB" d="M238.99,1530.03c37.417,1.005,70.212,13.426,78.86,18.14c-2.136,5.583-48.507,73.955-117.88,80.61
		c-31.076,4.524-75.2-4.823-99.05-16.99C115.414,1586.883,164.462,1529.027,238.99,1530.03z"/>
	<path fill="#10AEAD" d="M1578.46,1545.78c7.198-2.013,66.123-5.82,112.96,22.77c39.499,24.268,64.34,72.145,72.59,107.16
		C1674.825,1684.842,1604.338,1641.403,1578.46,1545.78z"/>
	<path fill="#A8F7FB" d="M413.14,1558.09c3.39-1.313,18.961,35.04,24.06,64.71c7.036,40.959-0.598,78.53-29.18,117.2
		c-7.759,10.195-27.615,33.728-38.76,39.04c-32.063-57.634-37.103-122.599,4.29-179.49
		C385.608,1581.859,407.788,1560.808,413.14,1558.09z"/>
	<path fill="#9D9F0D" d="M951.63,1571.12c0.73,20.87-3.14,42.43-14.07,60.47c-15.691,25.449-48.369,38.87-63.66,40.75
		c-0.89-20.6,2.93-41.93,13.64-59.78C902.512,1587.557,934.723,1573.535,951.63,1571.12z"/>
	<path fill="#9D9F0D" d="M1057.83,1580.01c43.973-11.227,82.672,5.222,102.63,51.09
		C1121.171,1643.422,1076.149,1626.684,1057.83,1580.01z"/>
	<path fill="#9D9F0D" d="M991.98,1605.6c39.747,36.028,42.597,85.355,13.88,126.65c-4.92-3.79-8.7-8.79-12.56-13.57
		C964.768,1681.329,966.973,1642.044,991.98,1605.6z"/>
	<path fill="#A9F7FA" d="M1550.29,1671.55c2.809,6.949,13.564,136.089-15.39,248.45h-9.08c21.036-82.477,15.996-129.942,16.03-208
		C1542.153,1683.601,1535.448,1681.698,1550.29,1671.55z"/>
	<path fill="#9D9F0D" d="M673.98,1754.5c3.73,3.83,6.97,8.08,10.15,12.37c34.986,48.192,47.497,98.198,27.71,153.13H639.3
		c-2.907-9.698-14.115-35.914-8.82-72.63C635.607,1811.929,655.854,1774.754,673.98,1754.5z"/>
	<path fill="#9D9F0D" d="M427.58,1809.76c77.838-2.828,139.762,31.984,167.79,110.24H490.53
		C444.898,1881.943,429.682,1828.389,427.58,1809.76z"/>
	<path fill="#A8F7FB" d="M1474.14,1810.9c14.288,11.852,31.477,37.174,30.42,63.82c-0.12,16.03-5.98,31.4-13.61,45.28h-8.64
		c-7.26-9.065-27.384-31.55-24.89-62.75C1458.8,1840.71,1464.87,1824.62,1474.14,1810.9z"/>
	<path fill="#9D9F0D" d="M816.73,1828.93c6.716,22.981,9.375,61.503-2.72,91.07h-77.99c3.49-14.85,9.16-29.32,18.26-41.67
		C774.022,1850.712,805.604,1832.878,816.73,1828.93z"/>
	<path fill="#91D2A8" d="M66.34,1840.9c6.075,2.243,51.651,32.295,72.79,79.1H50.15C50.59,1892.92,56.02,1865.95,66.34,1840.9z"/>
	<path fill="#91D2A8" d="M383.14,1857.92c-1.32,21.3-6.82,42.19-14.42,62.08H258.39
		C282.232,1883.212,339.056,1860.943,383.14,1857.92z"/>
	<path fill="#9D9F0D" d="M892.72,1866.94c7.09,16.67,10.59,34.94,9.4,53.06h-52.7C856.944,1893.726,882.807,1871.583,892.72,1866.94
		z"/>
	<path fill="#A8F7FB" d="M1389.84,1877.21c25.443,5.121,53.447,19.888,65.48,42.79H1396
		C1391.07,1906.41,1388.6,1891.64,1389.84,1877.21z"/>
	<path fill="#9D9F0E" d="M1154.05,1881c-16.03,13.56-32.6,26.48-49.45,39h-20.95C1144.453,1876.229,1136.73,1874.578,1154.05,1881z"
		/>
	<path fill="#A8F7FB" d="M1643.18,1885.02c-0.99,12.38-6.45,23.82-11.52,34.98h-67.91
		C1582.245,1894.578,1613.989,1883.744,1643.18,1885.02z"/>
	<path fill="#9D9F0D" d="M935.63,1920c16.03-14.86,38.27-21.23,59.72-21.95c-0.5,7.54-2.66,14.91-5.36,21.95H935.63z"/>
</g>
</svg>
