<?xml version="1.0" encoding="UTF-8" standalone="no"?>
<!-- Created with Inkscape (http://www.inkscape.org/) -->

<svg
   width="74.0mm"
   height="52.0mm"
   viewBox="0 0 74.0 52.0"
   version="1.1"
   id="SVGRoot"
   sodipodi:docname="medium.svg"
   inkscape:version="1.2.1 (9c6d41e410, 2022-07-14)"
   xmlns:inkscape="http://www.inkscape.org/namespaces/inkscape"
   xmlns:sodipodi="http://sodipodi.sourceforge.net/DTD/sodipodi-0.dtd"
   xmlns="http://www.w3.org/2000/svg"
   xmlns:svg="http://www.w3.org/2000/svg">
  <sodipodi:namedview
     id="namedview720"
     pagecolor="#ffffff"
     bordercolor="#000000"
     borderopacity="0.25"
     inkscape:showpageshadow="2"
     inkscape:pageopacity="0.0"
     inkscape:pagecheckerboard="0"
     inkscape:deskcolor="#d1d1d1"
     inkscape:document-units="mm"
     showgrid="false"
     inkscape:zoom="0.96630983"
     inkscape:cx="397.90551"
     inkscape:cy="283.03552"
     inkscape:window-width="1920"
     inkscape:window-height="1003"
     inkscape:window-x="0"
     inkscape:window-y="0"
     inkscape:window-maximized="1"
     inkscape:current-layer="layer1" />
  <defs
     id="defs715" />
  <g
     inkscape:label="Layer 1"
     inkscape:groupmode="layer"
     id="layer1">
    <g
       id="g439"
       transform="matrix(0.14199169,0,0,-0.16975009,-5.1896472,79.951608)">
      <path
         d="M 115,441 C 67,413 46,372 47,316 50,211 156,144 249,188 c 99,48 108,195 16,252 -41,25 -110,26 -150,1 z M 262,392 C 298,359 306,320 284,275 238,176 97,199 84,307 71,407 187,462 262,392 Z"
         id="path4" />
      <path
         d="M 388.31517,450.57571 C 326.31517,388.57571 349,185 420,185 c 56,0 89,123 56,210 -15,39 -39,65 -61,65 -3,0 -13.68483,3.57571 -26.68483,-9.42429 z M 449,374 c 17,-37 13,-96 -8,-124 -16,-20 -21,-22 -35,-11 -9,7 -16,28 -17,45 0,26 -6.24121,98.93938 -13.24121,81.93938 C 368.75879,349.93938 371,283 371,313 c -1,23 6.17873,-55.98577 12.17873,-59.98577 6,-3 6.82127,95.98577 6.82127,108.98577 0,50 38,57 59,12 z"
         id="path6"
         sodipodi:nodetypes="sscsscccccccsc" />
      <path
         d="M 516,410.86165 C 507,374.86165 509,227 520,210 c 19,-31 32,7 33,97 0,88 -7,133 -23,133 -4,0 -10,-17.13835 -14,-29.13835 z"
         id="path8"
         sodipodi:nodetypes="cccsc" />
    </g>
  </g>
</svg>
