<?xml version="1.0" encoding="UTF-8" standalone="no"?>
<!-- Created with Inkscape (http://www.inkscape.org/) -->

<svg
   version="1.1"
   id="svg3862"
   xml:space="preserve"
   width="800"
   height="800"
   viewBox="0 0 800 800"
   sodipodi:docname="skull.svg"
   inkscape:version="1.2.1 (9c6d41e410, 2022-07-14)"
   xmlns:inkscape="http://www.inkscape.org/namespaces/inkscape"
   xmlns:sodipodi="http://sodipodi.sourceforge.net/DTD/sodipodi-0.dtd"
   xmlns:xlink="http://www.w3.org/1999/xlink"
   xmlns="http://www.w3.org/2000/svg"
   xmlns:svg="http://www.w3.org/2000/svg"
   xmlns:rdf="http://www.w3.org/1999/02/22-rdf-syntax-ns#"
   xmlns:cc="http://creativecommons.org/ns#"
   xmlns:dc="http://purl.org/dc/elements/1.1/"><metadata
     id="metadata3868"><rdf:RDF><cc:Work
         rdf:about=""><dc:format>image/svg+xml</dc:format><dc:type
           rdf:resource="http://purl.org/dc/dcmitype/StillImage" /><dc:title /></cc:Work></rdf:RDF></metadata><defs
     id="defs3866"><linearGradient
       inkscape:collect="always"
       id="linearGradient1631"><stop
         style="stop-color:#3800ff;stop-opacity:1;"
         offset="0"
         id="stop1627" /><stop
         style="stop-color:#ff283a;stop-opacity:1;"
         offset="1"
         id="stop1629" /></linearGradient><clipPath
       clipPathUnits="userSpaceOnUse"
       id="clipPath3878"><path
         d="M 0,600 H 600 V 0 H 0 Z"
         id="path3876"
         inkscape:connector-curvature="0" /></clipPath><linearGradient
       inkscape:collect="always"
       xlink:href="#linearGradient1631"
       id="linearGradient1633"
       x1="82.342058"
       y1="301.04417"
       x2="518.81476"
       y2="301.04417"
       gradientUnits="userSpaceOnUse" /></defs><sodipodi:namedview
     pagecolor="#ffffff"
     bordercolor="#666666"
     borderopacity="1"
     objecttolerance="10"
     gridtolerance="10"
     guidetolerance="10"
     inkscape:pageopacity="0"
     inkscape:pageshadow="2"
     inkscape:window-width="1920"
     inkscape:window-height="1003"
     id="namedview3864"
     showgrid="false"
     inkscape:zoom="0.8577226"
     inkscape:cx="462.27067"
     inkscape:cy="362.00515"
     inkscape:window-x="0"
     inkscape:window-y="0"
     inkscape:window-maximized="1"
     inkscape:current-layer="g3870"
     inkscape:showpageshadow="2"
     inkscape:pagecheckerboard="0"
     inkscape:deskcolor="#d1d1d1" /><g
     id="g3870"
     inkscape:groupmode="layer"
     inkscape:label="skull-scary-clipart-publicdomainvectors.org"
     transform="matrix(1.3333333,0,0,-1.3333333,0,800)"><g
       id="g3872"
       style="fill:url(#linearGradient1633);fill-opacity:1;stroke:none;stroke-opacity:1;stroke-width:1.44975004;stroke-dasharray:none;stroke-linejoin:round;stroke-linecap:round;stroke-dashoffset:265.47751665"><g
         id="g3874"
         clip-path="url(#clipPath3878)"
         style="fill:url(#linearGradient1633);fill-opacity:1;stroke:none;stroke-opacity:1;stroke-width:1.44975004;stroke-dasharray:none;stroke-linejoin:round;stroke-linecap:round;stroke-dashoffset:265.47751665"><path
           d="m 278.661,253.057 c 1.699,3.623 18.055,71.735 22.632,71.785 5.999,0.065 19.523,-56.335 21.36,-66.586 1.835,-10.255 -1.581,-10.761 -1.581,-10.761 0,0 -11.48,1.84 -12.009,2.675 -0.522,0.841 -7.68,12.495 -7.789,11.505 -0.104,-0.994 -7.609,-11.16 -7.393,-12.072 0.222,-0.914 -12.453,-3.013 -12.453,-3.013 z m 143.985,-18.33 c -2.429,-0.586 -12.926,7.342 -24.474,15.656 -1.772,1.273 -3.481,2.248 -5.134,3.027 -1.519,2.772 -2.849,6.048 -3.633,9.775 -1.262,5.402 -0.512,11.741 1.519,18.211 1.216,3.832 2.885,7.719 4.844,11.691 5.418,0.634 9.485,1.674 10.741,3.255 4.426,5.59 14.298,39 16.246,45.685 1.032,2.201 2.03,4.441 2.972,6.726 3.676,8.91 6.918,18.323 8.925,28.131 1.878,9.791 3.204,19.874 2.904,29.799 0.047,9.957 -1.307,19.656 -2.967,28.962 -0.641,2.966 -1.35,5.87 -2.06,8.755 2.426,-4.972 4.485,-10.137 6.063,-15.48 12.441,-42.099 1.178,-68.666 2.875,-78.382 l -9.887,-40.452 -12.517,13.803 c 0,0 4.791,-20.597 21.9,-32.136 5.03,-4.768 10.181,-10.301 11.003,-18.368 1.883,-18.405 -26.895,-38.071 -29.32,-38.658 M 403.82,156.666 c 4.587,-13.676 -19.88,-30.919 -40.241,-37.127 -7.871,-2.4 -14.85,-7.277 -20.924,-12.729 0.256,1.335 0.524,2.69 0.824,4.045 0.785,2.913 1.413,5.901 2.294,8.619 0.825,2.733 1.607,5.3 2.385,7.463 1.474,4.353 2.659,7.2 2.659,7.2 0,0 -1.735,-2.547 -4.074,-6.543 -1.213,-1.984 -2.511,-4.354 -3.895,-6.917 -1.444,-2.539 -2.691,-5.388 -4.095,-8.193 -1.282,-2.858 -2.444,-5.799 -3.574,-8.55 -0.774,-2.447 -1.497,-4.739 -2.144,-6.791 -5.054,-5.526 -9.172,-10.524 -12.323,-13.041 -8.084,-6.453 -52.656,-4.654 -57.4,6.057 -0.423,1.337 -1.107,2.693 -1.966,4.057 -0.323,1.472 -0.95,3.296 -1.676,5.436 -0.956,2.372 -2.166,5.049 -3.648,7.759 -1.52,2.685 -3.237,5.444 -5.105,8.074 -7.407,10.576 -16.709,19.084 -16.709,19.084 0,0 1.862,-2.534 4.352,-6.517 2.472,-3.981 5.537,-9.429 8.012,-15.041 0.956,-2.146 1.765,-4.299 2.499,-6.401 -15.209,11.688 -36.696,21.382 -36.696,21.382 0,0 -12.529,1.57 -6.668,30.461 5.922,29.209 -11.085,58.109 -11.085,58.109 0,0 15.34,14.229 17.451,12.169 2.104,-2.059 6.63,-47.128 11.356,-53.382 4.724,-6.253 15.785,-14.725 17.303,-14.361 1.518,0.366 -3.12,-13.716 -2.065,-14.099 1.062,-0.392 10.056,17.155 11.322,14.569 1.27,-2.588 11.287,-1.713 12.785,-3.92 1.499,-2.213 -1.686,-22.272 -0.399,-22.278 1.289,-0.015 6.833,20.936 8.343,20.017 1.505,-0.923 13.366,-2.093 14.052,-3.604 0.685,-1.515 2.543,-22.069 4.452,-20.642 1.903,1.424 1.542,19.771 4.499,19.521 2.953,-0.249 20.22,-1.218 20.22,-1.218 0,0 -2.685,-22.618 0.119,-22.26 1.023,7.844 7.301,20.834 7.301,20.834 0,0 13.119,1.563 14.034,1.786 0.909,0.221 3.923,-11.433 4.341,-18.716 2.809,1.853 1.735,20.185 4.017,21.383 2.282,1.193 10.584,5.627 11.411,4.868 0.828,-0.764 2.756,-8.957 4.472,-15.159 2.73,0.662 1.037,22.738 2.556,23.106 1.519,0.367 11.325,8.663 10.916,7.855 -0.401,-0.813 4.819,-5.534 5.007,-17.72 5.709,2.99 4.67,36.378 4.532,38.273 0,0 11.73,35.624 9.124,41.1 -2.615,5.479 23.711,-9.373 23.711,-9.373 -7.579,-0.546 -16.259,-54.966 -11.662,-68.645 m -243.423,92.815 c -24.31,21.57 4.838,41.25 12.22,50.876 15.24,11.889 14.069,24.06 14.069,24.06 l -11.685,-13.822 c -0.709,4.951 -3.478,8.546 -3.478,8.546 0,0 -14.715,64.639 -12.701,75.582 1.936,10.525 6.468,26.09 14.52,42.584 -0.453,-2.448 -0.897,-4.916 -1.292,-7.422 -1.126,-9.384 -1.927,-19.144 -1.313,-29.082 0.263,-9.928 2.16,-19.918 4.594,-29.585 2.561,-9.679 6.33,-18.893 10.509,-27.579 1.4,-2.913 2.907,-5.72 4.445,-8.483 2.312,-12.474 6.733,-34.646 8.981,-35.026 1.322,-0.224 7.937,-2.446 16.107,-4.422 3.705,-5.936 6.881,-11.669 9.045,-17.338 2.398,-6.344 3.506,-12.626 2.551,-18.091 -0.386,-2.553 -1.04,-4.911 -1.838,-7.058 -6.533,-1.191 -15.572,-8.271 -28.811,-18.271 -13.775,-10.4 -7.702,-10.51 -35.923,14.531 m 94.251,261.484 c -0.028,-0.04 -0.055,-0.08 -0.082,-0.122 l -0.077,0.071 c 0.054,0.015 0.104,0.035 0.159,0.051 M 197.035,348.487 c -0.568,1.57 -1.115,3.148 -1.645,4.735 4.855,-0.324 9.761,0.043 14.728,0.441 5.001,0.415 10.03,1.169 15.042,1.958 1.881,0.306 3.751,0.653 5.621,0.997 -0.142,-1.295 -0.342,-2.562 -0.608,-3.796 -0.891,-3.553 -2.09,-6.824 -3.506,-9.705 l -27.644,0.249 c -0.691,1.694 -1.361,3.398 -1.988,5.121 m -7.056,25.961 c -1.287,8.832 -2.104,17.692 -1.444,26.402 0.309,8.698 1.894,17.174 3.673,25.265 1.062,4.03 2.273,7.958 3.345,11.802 1.381,3.779 2.739,7.479 4.053,11.082 1.308,3.589 3.06,6.964 4.478,10.282 1.405,3.327 2.985,6.467 4.629,9.437 0.108,0.201 0.207,0.388 0.313,0.589 -0.761,-2.472 -1.463,-4.994 -2.071,-7.591 -1.257,-6.623 -2.212,-13.616 -1.648,-20.697 0.42,-7.055 1.82,-14.07 3.939,-20.697 4.306,-13.273 11.058,-24.866 15.93,-35.961 2.46,-5.541 4.358,-11.017 5.244,-16.361 0.359,-2.136 0.544,-4.243 0.583,-6.305 -2.213,-0.421 -4.434,-0.83 -6.661,-1.22 -9.823,-1.635 -19.784,-3.15 -28.934,-3.269 -0.439,-0.002 -0.875,0.007 -1.309,0.017 -1.745,5.66 -3.188,11.41 -4.12,17.225 m 126.872,142.863 c 0.88,-0.759 2.284,-1.967 4.161,-3.586 1.602,-1.423 3.808,-3.177 5.842,-5.138 2.107,-1.989 4.553,-4.159 7.124,-6.678 2.473,-2.603 5.402,-5.287 8.074,-8.394 1.373,-1.541 2.78,-3.119 4.218,-4.738 1.341,-1.678 2.709,-3.395 4.102,-5.141 2.68,-3.548 5.334,-7.304 7.645,-11.302 2.368,-3.976 4.334,-8.196 5.93,-12.543 1.524,-4.363 2.494,-8.872 2.885,-13.396 0.374,-4.531 -0.035,-9.053 -0.883,-13.429 -0.847,-4.383 -2.207,-8.598 -3.536,-12.704 -1.293,-4.105 -2.662,-8.167 -2.752,-12.318 -0.092,-4.238 2,-7.885 4.326,-10.015 1.165,-1.113 2.327,-2.011 3.494,-2.697 1.103,-0.787 2.21,-1.32 3.2,-1.818 1.933,-1.064 3.578,-1.628 4.655,-2.093 0.394,-0.164 0.698,-0.287 0.954,-0.392 -1.279,-6.222 -2.071,-12.459 -1.954,-18.417 0.041,-1.669 0.148,-3.31 0.314,-4.92 -3.978,1.011 -7.898,2.053 -11.675,3.127 -4.246,1.166 -8.337,2.354 -12.17,3.562 -1.909,0.611 -3.755,1.208 -5.552,1.782 -0.862,0.295 -1.769,0.625 -2.41,0.917 0.148,-0.221 -0.154,0.119 -0.402,0.395 -0.256,0.253 -0.478,0.534 -0.644,0.852 -1.579,2.407 -1.629,5.783 -2.082,8.669 -0.481,2.947 -1.507,5.582 -2.911,7.272 -1.375,1.701 -2.859,2.648 -3.838,3.129 -1.006,0.481 -1.54,0.741 -1.54,0.741 -0.126,-0.067 2.277,-1.235 4.303,-4.591 0.981,-1.705 1.437,-4.015 1.466,-6.796 0.214,-2.748 -0.334,-6.224 1.521,-10.147 0.213,-0.488 0.491,-0.948 0.829,-1.376 0.344,-0.395 0.486,-0.929 1.53,-1.497 0.998,-0.539 1.85,-0.888 2.766,-1.277 1.808,-0.75 3.669,-1.474 5.604,-2.142 3.863,-1.358 7.951,-2.697 12.203,-4.02 4.455,-1.332 9.088,-2.66 13.822,-3.898 0.494,-2.359 1.143,-4.614 1.98,-6.707 1.913,-4.889 4.388,-8.995 6.931,-12.336 l -48.094,0.054 c -0.216,0.127 -0.426,0.252 -0.654,0.383 -1.397,1.067 -3.239,2.143 -4.884,3.722 -1.728,1.492 -3.559,3.155 -5.144,5.079 -0.817,0.938 -1.693,1.846 -2.467,2.809 -0.714,1.016 -1.416,2.014 -2.092,2.979 -1.408,1.926 -2.678,3.784 -3.493,5.517 -1.833,3.424 -3.051,5.706 -3.051,5.706 0,0 0.644,-2.522 1.606,-6.307 0.402,-1.951 1.202,-4.099 2.142,-6.405 0.459,-1.167 0.928,-2.37 1.406,-3.595 0.556,-1.194 1.225,-2.355 1.844,-3.555 1.18,-2.444 2.684,-4.709 4.186,-6.819 1.086,-1.693 2.372,-3.117 3.523,-4.433 2.922,-11.079 10.738,-37.48 20.302,-43.586 2.602,-1.661 23.828,-3.135 39.719,-2.254 -1.16,-3.354 -2.139,-6.679 -2.847,-9.983 -1.499,-7.191 -1.614,-14.296 0.336,-20.042 0.961,-3.039 2.217,-5.69 3.59,-7.994 -8.178,2.816 -14.524,0.413 -17.799,-0.382 -0.093,-0.023 -0.16,-0.068 -0.244,-0.098 -0.397,0.51 -0.788,1.016 -1.185,1.528 -2.059,2.696 -4.118,5.391 -6.046,7.921 -1.959,2.493 -3.629,4.918 -5.32,6.783 -3.273,3.824 -5.448,6.381 -5.448,6.381 0,0 1.681,-2.932 4.196,-7.319 1.331,-2.16 2.529,-4.866 3.972,-7.649 1.406,-2.796 2.903,-5.777 4.401,-8.762 1.544,-3.013 3.086,-6.024 4.534,-8.848 0.726,-1.415 1.427,-2.786 2.091,-4.082 0.772,-1.29 1.51,-2.509 2.187,-3.636 1.632,-2.689 2.931,-4.826 3.73,-6.14 2.292,-5.83 3.847,-11.469 2.603,-15.263 -1.67,-5.105 -4.188,-11.939 -5.692,-11.018 -1.512,0.922 -11.45,20.308 -13.251,22.444 -1.805,2.139 8.808,-28.019 8.488,-30.668 -0.325,-2.651 -9.004,-17.284 -9.004,-17.284 0,0 -17.605,29.632 -19.105,31.843 -1.498,2.214 10.663,-31.498 9.098,-37.018 -1.558,-5.52 -17.398,-10.449 -20.21,-9.46 -2.812,0.996 -10.471,35.339 -12.954,37.631 -2.483,2.295 3.156,-32.992 3.114,-38.147 -0.041,-5.153 -25.344,-4.199 -28.53,-4.322 -3.185,-0.129 0.249,41.529 -1.712,42.982 -1.655,-10.285 -9.182,-40.475 -9.182,-40.475 0,0 -13.637,0.563 -17.471,4.456 -3.832,3.896 3.992,33.03 2.33,33.265 -2.399,-5.431 -13.423,-30.163 -18.095,-29.678 -4.674,0.475 -6.543,4.193 -8.18,8.3 -1.635,4.105 9.873,35.467 8.782,35.523 -1.095,0.059 -17.815,-29.346 -17.815,-29.346 0,0 -8.411,-2.441 -9.914,11.755 2.919,10.658 15.782,32.748 13.938,46.634 2.291,4.303 3.988,9.318 5.629,14.231 2.169,6.53 4.212,13.021 6.882,17.264 1.304,2.127 2.81,3.609 4.103,4.306 1.295,0.703 2.203,0.731 2.187,0.786 0.011,-0.058 -0.876,0.082 -2.359,-0.395 -1.481,-0.466 -3.392,-1.763 -5.169,-3.746 -3.631,-3.952 -6.927,-10.22 -10.224,-16.214 -1.528,-2.82 -3.115,-5.601 -4.694,-8.065 -1.602,1.824 -3.421,2.728 -5.529,2.839 0.878,1.928 1.655,4.048 2.25,6.383 1.621,5.847 1.1,12.937 -0.805,20.025 -1.291,4.7 -3.133,9.41 -5.3,14.169 9.22,-1.66 18.837,-2.25 24.547,0.836 9.701,5.248 18.61,29.728 22.425,41.518 3.374,3.115 7.21,7.308 10.334,11.975 1.816,2.598 3.364,5.366 4.618,8.024 1.257,2.65 2.283,5.185 2.905,7.426 0.721,2.205 1.118,4.085 1.355,5.41 0.259,1.307 0.407,2.055 0.407,2.055 0,0 -0.295,-0.702 -0.821,-1.932 -0.493,-1.232 -1.249,-2.964 -2.382,-4.921 -1.027,-1.998 -2.493,-4.19 -4.168,-6.4 -1.677,-2.214 -3.611,-4.445 -5.747,-6.455 -3.705,-3.632 -7.895,-6.638 -11.406,-8.735 l -36.555,0.332 c 1.524,2.623 2.923,5.589 4.091,8.908 0.538,1.69 0.965,3.475 1.289,5.329 6.804,1.358 13.476,2.956 19.776,4.822 4.576,1.387 8.986,2.792 13.063,4.759 1.02,0.491 2.021,1.014 3.011,1.644 0.963,0.738 2.021,1.135 2.921,3.036 0.649,2.33 0.813,4.194 1.082,6.119 0.963,7.506 1.351,13.785 2.986,17.77 0.754,1.983 1.959,3.277 3.128,3.359 1.129,0.108 1.74,-0.283 1.739,-0.228 -0.017,-0.057 -0.509,0.431 -1.758,0.526 -1.31,0.149 -3.044,-1.167 -4.055,-3.199 -2.18,-4.036 -3.612,-10.368 -4.985,-17.748 -0.372,-1.791 -0.78,-3.842 -1.35,-5.399 0.036,0.018 -0.805,-0.729 -1.577,-1.098 -0.821,-0.441 -1.749,-0.846 -2.709,-1.222 -3.876,-1.465 -8.208,-2.759 -12.714,-3.926 -5.739,-1.47 -11.803,-2.812 -17.97,-4.047 0.11,1.973 0.106,3.995 -0.042,6.051 -0.414,5.947 -1.925,12.065 -3.939,18.063 -3.999,12.013 -9.495,24.053 -12.19,36.343 -1.333,6.129 -1.93,12.267 -1.729,18.218 0.072,5.964 1.474,11.689 3.015,17.09 1.83,5.367 3.977,10.433 6.635,15.008 2.473,4.638 5.436,8.763 8.108,12.559 2.914,3.679 5.462,7.151 8.047,9.863 2.148,2.406 3.97,4.513 5.809,6.381 -0.058,-0.097 -0.12,-0.186 -0.177,-0.284 -1.159,-1.915 -2.35,-3.879 -3.573,-5.89 -1.112,-2.089 -2.255,-4.217 -3.417,-6.387 -2.211,-4.403 -4.355,-9.046 -6.114,-13.979 -1.807,-4.901 -3.174,-10.108 -4.068,-15.409 -0.826,-5.326 -0.987,-10.782 -0.472,-16.064 0.541,-5.297 1.961,-10.342 3.756,-14.913 1.8,-4.584 4.023,-8.683 6.049,-12.45 2.017,-3.762 3.891,-7.256 4.565,-10.583 0.666,-3.315 -0.361,-6.368 -2.071,-8.701 -0.857,-1.171 -1.764,-2.207 -2.753,-3.048 -0.895,-0.932 -1.86,-1.641 -2.728,-2.294 -1.686,-1.374 -3.185,-2.22 -4.156,-2.87 -0.985,-0.636 -1.511,-0.975 -1.511,-0.975 0,0 0.561,0.27 1.617,0.777 1.05,0.526 2.66,1.182 4.529,2.353 0.962,0.554 2.035,1.151 3.091,1.999 1.125,0.749 2.235,1.713 3.335,2.891 2.202,2.258 4.083,6.019 3.749,10.242 -0.324,4.142 -1.923,8.121 -3.449,12.143 -1.559,4.024 -3.157,8.156 -4.253,12.484 -1.093,4.32 -1.759,8.812 -1.644,13.354 0.135,4.543 0.846,9.096 2.12,13.539 1.345,4.432 3.067,8.759 5.207,12.862 2.082,4.125 4.513,8.023 6.987,11.718 1.292,1.823 2.56,3.614 3.805,5.367 1.343,1.696 2.659,3.353 3.941,4.969 2.49,3.256 5.262,6.101 7.583,8.839 2.425,2.663 4.743,4.969 6.734,7.073 1.918,2.075 4.02,3.953 5.539,5.462 0.856,0.829 1.604,1.55 2.252,2.177 11.548,1.281 22.869,1.482 33.597,0.834 m 65.697,-127.328 c 3.638,12.094 9.061,24.886 12.016,38.962 1.469,7.019 2.284,14.305 2.229,21.574 -0.153,7.274 -1.276,14.423 -3.022,21.175 -0.85,3.003 -1.826,5.91 -2.883,8.729 1.554,-2.576 3.183,-5.276 4.887,-8.093 1.812,-2.875 3.568,-5.918 5.16,-9.162 1.606,-3.23 3.545,-6.498 5.057,-10.009 1.517,-3.522 3.079,-7.139 4.676,-10.834 1.289,-3.776 2.723,-7.628 4.012,-11.592 2.236,-7.979 4.298,-16.348 5.104,-25.016 1.154,-8.657 0.84,-17.55 0.058,-26.441 -0.625,-6.101 -1.806,-12.164 -3.314,-18.149 -0.095,-0.019 -0.188,-0.044 -0.287,-0.06 -3.834,-0.616 -8.421,-0.125 -12.876,0.485 -4.512,0.623 -9.104,1.478 -13.675,2.467 -3.623,0.797 -7.234,1.65 -10.813,2.523 -0.266,7.313 1.09,15.316 3.671,23.441 m -8.965,72.475 c -1.193,5.239 -2.852,10.363 -4.937,15.151 -2.04,4.826 -4.444,9.339 -6.899,13.61 -1.285,2.1 -2.547,4.162 -3.775,6.183 -1.335,1.937 -2.635,3.83 -3.904,5.677 -2.484,3.735 -5.165,6.911 -7.486,10.042 0.358,-0.082 0.721,-0.164 1.078,-0.247 0.084,-0.079 0.161,-0.148 0.248,-0.227 2.38,-2.039 4.558,-4.423 7.353,-7.195 2.836,-2.66 5.608,-6.214 8.875,-9.833 2.932,-3.832 6.157,-7.987 8.997,-12.684 2.909,-4.664 5.458,-9.825 7.602,-15.353 1.986,-5.574 3.503,-11.523 4.213,-17.754 0.607,-6.237 0.508,-12.714 -0.248,-19.243 -1.488,-13.087 -5.644,-26.207 -8.291,-39.063 -0.035,-0.164 -0.065,-0.331 -0.099,-0.495 -0.241,0.135 -0.518,0.294 -0.878,0.498 -1.009,0.593 -2.553,1.352 -4.316,2.627 -0.899,0.604 -1.905,1.255 -2.851,2.135 -1.035,0.786 -2.001,1.768 -2.924,2.889 -1.839,2.233 -3.038,5.22 -2.561,8.567 0.485,3.364 2.158,6.955 3.954,10.826 1.812,3.876 3.795,8.097 5.332,12.776 1.535,4.664 2.663,9.782 2.903,15.103 0.215,5.301 -0.259,10.74 -1.386,16.01 m 13.03,-119.209 c -0.192,0.289 -0.384,0.577 -0.585,0.867 -1.206,1.674 -2.022,3.734 -3.133,5.731 -0.906,2.097 -1.799,4.335 -2.473,6.72 -0.449,1.53 -0.79,3.118 -1.046,4.747 3.073,-0.757 6.171,-1.483 9.303,-2.118 4.675,-0.944 9.377,-1.81 14.092,-2.349 4.174,-0.395 8.28,-0.79 12.557,-0.248 -0.342,-1.219 -0.688,-2.435 -1.053,-3.644 -0.987,-3.291 -2.108,-6.533 -3.308,-9.734 z M 518.527,309.643 C 512.397,465.041 409.852,587.169 289.479,582.42 169.108,577.672 76.496,447.85 82.63,292.447 88.755,137.053 191.304,14.925 311.675,19.668 432.048,24.42 524.659,154.246 518.527,309.643"
           style="fill:url(#linearGradient1633);fill-opacity:1;fill-rule:nonzero;stroke:none;stroke-opacity:1;stroke-width:1.44975004;stroke-dasharray:none;stroke-linejoin:round;stroke-linecap:round;stroke-dashoffset:265.47751665"
           id="path3880"
           inkscape:connector-curvature="0" /></g></g></g></svg>
