<?xml version="1.0" encoding="UTF-8" standalone="no"?>
<!-- Creator: CorelDRAW -->

<svg
   style="fill-rule:evenodd;text-rendering:geometricPrecision;image-rendering:optimizeQuality;clip-rule:evenodd;shape-rendering:geometricPrecision"
   xml:space="preserve"
   viewBox="0 0 210 297"
   version="1.1"
   id="svg412"
   sodipodi:docname="smallskull.svg"
   inkscape:version="1.2.1 (9c6d41e410, 2022-07-14)"
   xmlns:inkscape="http://www.inkscape.org/namespaces/inkscape"
   xmlns:sodipodi="http://sodipodi.sourceforge.net/DTD/sodipodi-0.dtd"
   xmlns="http://www.w3.org/2000/svg"
   xmlns:svg="http://www.w3.org/2000/svg"
   xmlns:rdf="http://www.w3.org/1999/02/22-rdf-syntax-ns#"
   xmlns:cc="http://creativecommons.org/ns#"
   xmlns:dc="http://purl.org/dc/elements/1.1/"><sodipodi:namedview
   id="namedview414"
   pagecolor="#ffffff"
   bordercolor="#000000"
   borderopacity="0.25"
   inkscape:showpageshadow="2"
   inkscape:pageopacity="0.0"
   inkscape:pagecheckerboard="0"
   inkscape:deskcolor="#d1d1d1"
   showgrid="false"
   inkscape:zoom="2.6700337"
   inkscape:cx="97.938839"
   inkscape:cy="149.62358"
   inkscape:window-width="1920"
   inkscape:window-height="1003"
   inkscape:window-x="0"
   inkscape:window-y="0"
   inkscape:window-maximized="1"
   inkscape:current-layer="svg412" />
 <defs
   id="defs393">
  <style
   type="text/css"
   id="style391">
    .str0 {stroke:#1B171C;stroke-width:0.2}
    .fil0 {fill:#1B171C}
    .fil1 {fill:#707072}
  </style>
 </defs>
 <g
   id="Layer_x0020_1"
   transform="translate(-1.0460425,-0.93339179)"
   style="fill:none;stroke:#ffffff;fill-opacity:1;stroke-opacity:1;stroke-width:1.2;stroke-dasharray:none;stroke-linejoin:round;stroke-linecap:round">
  <g
   id="_68149280"
   style="fill:none;stroke:#ffffff;fill-opacity:1;stroke-opacity:1;stroke-width:1.2;stroke-dasharray:none;stroke-linejoin:round;stroke-linecap:round">
   <path
   id="_67947496"
   d="m 104.57,115.62 c 16.592,0 30.048,13.292 30.048,29.682 0,7.7922 -3.0429,14.883 -8.0167,20.179 -1.3225,6.2678 -5.2676,11.562 -10.625,14.667 v -5.9722 c 0,-1.0509 -0.8598,-1.9107 -1.9107,-1.9107 h -1e-4 c -1.0509,0 -1.9107,0.8598 -1.9107,1.9107 v 7.7229 c -0.7641,0.2649 -1.5468,0.4893 -2.3461,0.6698 v -8.3927 c 0,-1.0509 -0.8598,-1.9107 -1.9107,-1.9107 -1.051,0 -1.9108,0.8598 -1.9108,1.9107 v 8.9087 c -0.3483,0.0163 -0.6985,0.0252 -1.0508,0.0252 -0.4349,0 -0.8666,-0.0137 -1.2952,-0.0385 v -8.8954 c 0,-1.0509 -0.8599,-1.9107 -1.9108,-1.9107 -1.051,0 -1.9108,0.8598 -1.9108,1.9107 v 8.3361 c -0.7996,-0.1904 -1.5825,-0.4247 -2.346,-0.6996 v -7.6365 c 0,-1.0509 -0.8598,-1.9107 -1.9108,-1.9107 -1.051,0 -1.9107,0.8598 -1.9107,1.9107 v 5.8283 c -4.9545,-2.9565 -8.6657,-7.7993 -10.152,-13.544 -5.5408,-5.3847 -8.9784,-12.875 -8.9784,-21.158 0,-16.39 13.456,-29.682 30.048,-29.682 z m -12.374,19.805 c 5.2607,0 9.527,4.2663 9.527,9.527 0,5.2608 -4.2663,9.5271 -9.527,9.5271 -5.2607,0 -9.527,-4.2663 -9.527,-9.5271 0,-5.2607 4.2663,-9.527 9.527,-9.527 z m 24.748,0 c 5.2607,0 9.527,4.2663 9.527,9.527 0,5.2608 -4.2663,9.5271 -9.527,9.5271 -5.2607,0 -9.527,-4.2663 -9.527,-9.5271 0,-5.2607 4.2663,-9.527 9.527,-9.527 z"
   class="fil0"
   style="fill:none;stroke:#ffffff;fill-opacity:1;stroke-opacity:1;stroke-width:1.2;stroke-dasharray:none;stroke-linejoin:round;stroke-linecap:round" />
   <path
   id="_41151888"
   d="m 103.44,118.33 c 7.5707,0 14.397,3.1504 19.212,8.1949 -4.4581,-2.5866 -9.6498,-4.0716 -15.193,-4.0716 -15.679,0 -28.555,11.869 -29.925,27.005 -0.3246,-1.6334 -0.4951,-3.3214 -0.4951,-5.0487 0,-14.401 11.823,-26.08 26.401,-26.08 z"
   class="fil1"
   style="fill:none;stroke:#ffffff;fill-opacity:1;stroke-opacity:1;stroke-width:1.2;stroke-dasharray:none;stroke-linejoin:round;stroke-linecap:round" />
   <path
   id="_42649920"
   d="m 129.18,169.06 11.101,11.101 c 1.9404,-3.5122 5.6808,-5.8917 9.9764,-5.8917 6.2898,0 11.391,5.1008 11.391,11.391 0,6.2898 -5.1008,11.391 -11.391,11.391 -0.7813,0 -1.5443,-0.0789 -2.2815,-0.2288 -0.4605,3.8102 -3.7058,6.7639 -7.6399,6.7639 -4.2499,0 -7.6964,-3.4465 -7.6964,-7.6964 0,-2.1249 0.8619,-4.0487 2.2548,-5.4415 l -11.654,-11.654 c 2.6693,-2.7473 4.7087,-6.0722 5.9397,-9.7336 z m -1.0572,-47.298 10.314,-10.314 c -3.0843,-2.0383 -5.1198,-5.5362 -5.1198,-9.5091 0,-6.2897 5.1008,-11.391 11.39,-11.391 6.2898,0 11.391,5.1009 11.391,11.391 0,0.7814 -0.0788,1.5444 -0.2288,2.2816 3.8103,0.4604 6.7639,3.7057 6.7639,7.6399 0,4.2499 -3.4465,7.6964 -7.6963,7.6964 -2.4406,0 -4.6158,-1.137 -6.026,-2.9096 l -14.2,14.2 c -1.669,-3.3975 -3.9074,-6.4645 -6.5881,-9.0853 z m -53.406,8.508 -14.945,-14.945 c -1.835,1.4148 -4.2849,1.9888 -6.6954,1.343 -4.1051,-1.0999 -6.5421,-5.321 -5.4421,-9.4261 0.9974,-3.7223 4.5611,-6.0731 8.2776,-5.6589 0.0263,-0.8642 0.1515,-1.7389 0.385,-2.6101 1.6279,-6.0754 7.8751,-9.6823 13.95,-8.0544 6.0755,1.6279 9.6823,7.8752 8.0544,13.951 -0.8889,3.3175 -3.1553,5.8988 -6.0188,7.2938 l 9.1733,9.1732 c -2.722,2.5657 -5.0105,5.582 -6.7397,8.9336 z m -0.3687,60.94 c 3.6027,0.6945 6.2959,3.8953 6.2299,7.6896 -0.0737,4.2492 -3.5796,7.6353 -7.8288,7.5615 -3.853,-0.0669 -6.9964,-2.9558 -7.494,-6.662 -0.8448,0.1836 -1.7238,0.2738 -2.6256,0.2581 -6.2888,-0.1092 -11.3,-5.2979 -11.191,-11.587 0.1092,-6.2888 5.2979,-11.3 11.587,-11.191 2.6633,0.0463 5.0972,1.0037 7.0104,2.5697 l 10.687,-10.687 c 1.2457,3.6545 3.2976,6.9671 5.9733,9.7 l -12.348,12.348 z"
   class="fil0 str0"
   style="fill:none;stroke:#ffffff;fill-opacity:1;stroke-opacity:1;stroke-width:1.2;stroke-dasharray:none;stroke-linejoin:round;stroke-linecap:round" />
   <g
   id="g400"
   style="fill:none;stroke:#ffffff;fill-opacity:1;stroke-opacity:1;stroke-width:1.2;stroke-dasharray:none;stroke-linejoin:round;stroke-linecap:round">
    <path
   id="_68162784"
   d="m 63.015,178.89 c 1.4055,0 2.7446,0.2681 3.9631,0.7528 -6.0134,1.5693 -10.422,6.6853 -10.422,12.753 0,1.4055 0.2374,2.7597 0.6757,4.0308 -2.669,-1.7345 -4.4191,-4.6353 -4.4191,-7.921 0,-5.3095 4.5688,-9.6154 10.203,-9.6154 z"
   class="fil1"
   style="fill:none;stroke:#ffffff;fill-opacity:1;stroke-opacity:1;stroke-width:1.2;stroke-dasharray:none;stroke-linejoin:round;stroke-linecap:round" />
    <path
   id="_68109272"
   d="m 71.68,192.98 c 0.7289,0 1.4235,0.1391 2.0555,0.3904 -3.1189,0.814 -5.4057,3.4674 -5.4057,6.6144 0,0.729 0.1232,1.4313 0.3505,2.0906 -1.3843,-0.8996 -2.292,-2.4041 -2.292,-4.1083 0,-2.7538 2.3696,-4.9871 5.2917,-4.9871 z"
   class="fil1"
   style="fill:none;stroke:#ffffff;fill-opacity:1;stroke-opacity:1;stroke-width:1.2;stroke-dasharray:none;stroke-linejoin:round;stroke-linecap:round" />
   </g>
   <path
   id="_67896232"
   d="m 151.4,176 c 1.4055,0 2.7446,0.2681 3.9631,0.7528 -6.0134,1.5693 -10.422,6.6853 -10.422,12.753 0,1.4055 0.2374,2.7597 0.6757,4.0308 -2.669,-1.7345 -4.4191,-4.6353 -4.4191,-7.921 0,-5.3095 4.5688,-9.6154 10.203,-9.6154 z"
   class="fil1"
   style="fill:none;stroke:#ffffff;fill-opacity:1;stroke-opacity:1;stroke-width:1.2;stroke-dasharray:none;stroke-linejoin:round;stroke-linecap:round" />
   <path
   id="_67915728"
   d="m 140.04,190.21 c 0.7289,0 1.4235,0.1391 2.0555,0.3904 -3.1189,0.814 -5.4057,3.4674 -5.4057,6.6144 0,0.729 0.1232,1.4313 0.3505,2.0906 -1.3843,-0.8996 -2.292,-2.4041 -2.292,-4.1083 0,-2.7538 2.3696,-4.9871 5.2917,-4.9871 z"
   class="fil1"
   style="fill:none;stroke:#ffffff;fill-opacity:1;stroke-opacity:1;stroke-width:1.2;stroke-dasharray:none;stroke-linejoin:round;stroke-linecap:round" />
   <path
   id="_68004888"
   d="m 67.767,92.771 c 1.4055,0 2.7446,0.2681 3.9631,0.7528 -6.0134,1.5693 -10.422,6.6853 -10.422,12.753 0,1.4055 0.2374,2.7597 0.6757,4.0308 -2.669,-1.7345 -4.4191,-4.6353 -4.4191,-7.921 0,-5.3095 4.5688,-9.6154 10.203,-9.6154 z"
   class="fil1"
   style="fill:none;stroke:#ffffff;fill-opacity:1;stroke-opacity:1;stroke-width:1.2;stroke-dasharray:none;stroke-linejoin:round;stroke-linecap:round" />
   <path
   id="_41574584"
   d="m 146.03,92.44 c 1.4055,0 2.7446,0.2681 3.9631,0.7528 -6.0134,1.5693 -10.422,6.6853 -10.422,12.753 0,1.4055 0.2374,2.7597 0.6757,4.0308 -2.669,-1.7345 -4.4191,-4.6353 -4.4191,-7.921 0,-5.3095 4.5688,-9.6154 10.203,-9.6154 z"
   class="fil1"
   style="fill:none;stroke:#ffffff;fill-opacity:1;stroke-opacity:1;stroke-width:1.2;stroke-dasharray:none;stroke-linejoin:round;stroke-linecap:round" />
   <path
   id="_67896472"
   d="m 54.373,103.83 c 0.7289,0 1.4235,0.1391 2.0555,0.3904 -3.1189,0.814 -5.4057,3.4674 -5.4057,6.6144 0,0.729 0.1232,1.4313 0.3505,2.0906 -1.3843,-0.8996 -2.292,-2.4041 -2.292,-4.1083 0,-2.7538 2.3696,-4.9871 5.2917,-4.9871 z"
   class="fil1"
   style="fill:none;stroke:#ffffff;fill-opacity:1;stroke-opacity:1;stroke-width:1.2;stroke-dasharray:none;stroke-linejoin:round;stroke-linecap:round" />
   <path
   id="_68129200"
   d="m 154.14,105.54 c 0.7289,0 1.4235,0.1391 2.0555,0.3904 -3.1189,0.814 -5.4057,3.4674 -5.4057,6.6144 0,0.729 0.1232,1.4313 0.3505,2.0906 -1.3843,-0.8996 -2.292,-2.4041 -2.292,-4.1083 0,-2.7538 2.3696,-4.9871 5.2917,-4.9871 z"
   class="fil1"
   style="fill:none;stroke:#ffffff;fill-opacity:1;stroke-opacity:1;stroke-width:1.2;stroke-dasharray:none;stroke-linejoin:round;stroke-linecap:round" />
  </g>
 </g>
<metadata
   id="metadata410"><rdf:RDF><cc:Work><dc:format>image/svg+xml</dc:format><dc:type
         rdf:resource="http://purl.org/dc/dcmitype/StillImage" /><cc:license
         rdf:resource="http://creativecommons.org/licenses/publicdomain/" /><dc:publisher><cc:Agent
           rdf:about="http://openclipart.org/"><dc:title>Openclipart</dc:title></cc:Agent></dc:publisher><dc:title>skull</dc:title><dc:date>2010-09-25T07:25:57</dc:date><dc:description>skull</dc:description><dc:source>https://openclipart.org/detail/86671/skull-by-miltiadis</dc:source><dc:creator><cc:Agent><dc:title>miltiadis</dc:title></cc:Agent></dc:creator><dc:subject><rdf:Bag><rdf:li>head</rdf:li><rdf:li>pirate</rdf:li><rdf:li>skull</rdf:li></rdf:Bag></dc:subject></cc:Work><cc:License
       rdf:about="http://creativecommons.org/licenses/publicdomain/"><cc:permits
         rdf:resource="http://creativecommons.org/ns#Reproduction" /><cc:permits
         rdf:resource="http://creativecommons.org/ns#Distribution" /><cc:permits
         rdf:resource="http://creativecommons.org/ns#DerivativeWorks" /></cc:License></rdf:RDF></metadata></svg>
