<?xml version="1.0" encoding="UTF-8" standalone="no"?>
<!-- Created with Inkscape (http://www.inkscape.org/) -->

<svg
   width="1280px"
   height="1024px"
   viewBox="0 0 1280 1024"
   version="1.1"
   id="SVGRoot"
   sodipodi:docname="bodybackground.svg"
   inkscape:version="1.2.1 (9c6d41e410, 2022-07-14)"
   xmlns:inkscape="http://www.inkscape.org/namespaces/inkscape"
   xmlns:sodipodi="http://sodipodi.sourceforge.net/DTD/sodipodi-0.dtd"
   xmlns:xlink="http://www.w3.org/1999/xlink"
   xmlns="http://www.w3.org/2000/svg"
   xmlns:svg="http://www.w3.org/2000/svg">
  <sodipodi:namedview
     id="namedview1322"
     pagecolor="#ffffff"
     bordercolor="#000000"
     borderopacity="0.25"
     inkscape:showpageshadow="2"
     inkscape:pageopacity="0.0"
     inkscape:pagecheckerboard="0"
     inkscape:deskcolor="#d1d1d1"
     inkscape:document-units="px"
     showgrid="false"
     inkscape:zoom="0.49953305"
     inkscape:cx="381.35615"
     inkscape:cy="573.53562"
     inkscape:window-width="1920"
     inkscape:window-height="1003"
     inkscape:window-x="0"
     inkscape:window-y="0"
     inkscape:window-maximized="1"
     inkscape:current-layer="g7682" />
  <defs
     id="defs1317">
    <linearGradient
       inkscape:collect="always"
       id="linearGradient5824">
      <stop
         style="stop-color:#d45500;stop-opacity:1;"
         offset="0"
         id="stop5820" />
      <stop
         style="stop-color:#6f0000;stop-opacity:1;"
         offset="1"
         id="stop5822" />
    </linearGradient>
    <linearGradient
       inkscape:collect="always"
       id="linearGradient2592">
      <stop
         style="stop-color:#800000;stop-opacity:1;"
         offset="0"
         id="stop2588" />
      <stop
         style="stop-color:#ffb42f;stop-opacity:1;"
         offset="1"
         id="stop2590" />
    </linearGradient>
    <linearGradient
       inkscape:collect="always"
       xlink:href="#linearGradient2592"
       id="linearGradient2594"
       x1="87.820518"
       y1="525.56807"
       x2="1226.3212"
       y2="525.56807"
       gradientUnits="userSpaceOnUse"
       gradientTransform="matrix(0.45784849,0,0,0.40798819,141.19679,59.266507)" />
    <linearGradient
       inkscape:collect="always"
       xlink:href="#linearGradient5824"
       id="linearGradient5826"
       x1="-2588.4166"
       y1="-6215.816"
       x2="-1152.933"
       y2="-6215.816"
       gradientUnits="userSpaceOnUse" />
    <linearGradient
       inkscape:collect="always"
       xlink:href="#linearGradient5824"
       id="linearGradient5836"
       gradientUnits="userSpaceOnUse"
       x1="-2588.4166"
       y1="-6215.816"
       x2="-1152.933"
       y2="-6215.816" />
  </defs>
  <g
     inkscape:label="Layer 1"
     inkscape:groupmode="layer"
     id="layer1">
    <g
       id="g7682"
       transform="matrix(1.3161048,0,0,1.298664,-89.241183,-81.657998)">
      <path
         d="m 181.40529,95.830767 c 27.20959,8.256603 54.23866,22.033603 68.43204,44.956863 0.58889,1.49425 2.30582,-0.1096 2.96938,-0.78181 15.30744,-18.02573 40.87805,-28.33903 66.32193,-27.7729 23.4605,-1.06313 47.90173,6.87947 62.95107,23.12962 1.80405,2.41853 4.1764,-1.01929 5.35421,-2.41487 24.53876,-24.30219 67.45326,-28.79964 100.29905,-16.14437 20.34182,8.08854 34.54445,24.97791 41.10696,43.43414 9.95325,28.7336 6.83459,59.77496 -2.21458,88.38521 -9.20281,32.65233 -22.03387,65.36311 -19.88163,99.48848 1.28559,23.59727 16.72542,47.68377 42.38095,56.56585 20.69017,7.61008 45.7253,0.64297 59.25846,-14.69384 0.5806,-1.61481 -0.0954,-2.31261 -2.03211,-2.08975 -14.63531,-2.36006 -28.78986,-6.65262 -42.17534,-12.30803 -2.1648,-0.31418 0.13686,-0.7526 0.70917,-0.87315 41.50843,-5.20238 82.59883,-18.17566 115.94894,-40.71314 -4.8897,36.43138 6.24135,72.67276 21.01795,106.38607 0.3981,0.73068 1.70453,2.82041 -0.17,2.42217 -13.6526,-8.35158 -26.73718,-17.65307 -37.45753,-28.91653 -0.95792,-1.31522 -2.85737,-0.29593 -3.52075,0.69048 -15.05002,14.89842 -34.13642,27.13721 -56.00701,32.87444 -28.48695,8.18356 -60.81117,3.90183 -85.44549,-10.9782 -16.85419,-9.69227 -29.9799,-23.88193 -38.57884,-39.81295 -10.29766,-18.6687 -12.63236,-40.03503 -11.01498,-60.50268 2.82841,-31.24944 14.85525,-60.99665 24.46014,-90.94841 9.09466,-27.74747 14.86757,-59.83046 -0.8377,-86.52928 -9.35605,-16.79089 -34.21272,-20.84231 -52.72578,-14.74149 -8.51003,2.36008 -15.45674,8.32238 -18.82823,15.55983 -5.70654,13.59404 -4.64885,29.03349 1.4059,42.382 -5.80208,0.0475 -12.40844,0.38361 -17.65447,1.48692 1.16124,34.13415 5.44114,68.23908 12.30887,101.85882 -19.74063,-0.21189 -39.47795,-0.0146 -59.20863,-0.0986 6.66469,-32.57344 10.44693,-65.79571 12.18877,-98.74322 -5.43283,-1.34811 -12.06004,1.03388 -17.88271,0.6722 1.30222,-14.89463 7.28248,-29.15035 12.30489,-43.27341 -4.22185,-12.61142 -17.8744,-22.05905 -32.66329,-23.48736 -13.68573,-1.91072 -29.54062,-0.39822 -39.86285,8.53428 -14.45711,14.37966 -12.39576,36.62721 -3.99787,52.94751 -5.3124,-0.084 -10.5299,1.1216 -15.83829,1.03391 -1.49715,-0.16805 -2.49662,1.57094 -1.83308,2.71812 0.92482,33.48821 4.28389,67.19274 14.10047,99.66095 -19.74066,-0.095 -39.48129,-0.0658 -59.21862,-0.0182 9.66295,-32.325 13.29591,-65.96523 13.85161,-99.24888 -6.14613,-0.40915 -12.28829,1.05583 -18.42181,1.26041 2.06529,-10.71897 5.9056,-21.14218 9.80395,-31.45403 0.85847,-1.67687 2.02799,-3.70071 0.47695,-5.34853 -4.84395,-9.42213 -13.57362,-18.25568 -25.61705,-20.19578 -8.61786,-2.12624 -17.27291,1.42847 -24.50993,4.69092 -0.0415,-19.68434 0.0664,-39.36869 -0.0498,-59.050113 z"
         fill="#00e2ca"
         id="path2"
         style="fill:url(#linearGradient2594);fill-opacity:1;stroke:none;stroke-width:2.73861;stroke-linecap:round;stroke-linejoin:round;stroke-dasharray:none;stroke-opacity:1;paint-order:normal;opacity:0.50592201" />
      <g
         transform="matrix(0.40721697,0,0,0.43408765,381.99482,3369.666)"
         id="g3687"
         style="fill:#882121;fill-opacity:1;opacity:0.50592201">
        <path
           d="m 1164.8289,-7041.4408 c 1.1597,-0.689 1.4898,-0.3925 0.9813,0.8895 -50.0191,129.5627 -100.1553,259.1115 -150.1901,388.6672 -1.7842,2.7907 -2.5692,-4.0464 -2.9795,-3.654 -10.7492,-34.9961 -21.76672,-69.9126 -32.73002,-104.8306 -1.08833,-3.0697 -4.07679,-0.1134 -5.7539,0.8198 -114.0574,96.1935 -221.14947,200.187 -324.15226,307.5292 -2.63162,3.654 -8.36768,6.1568 -7.33287,11.2937 60.03679,56.9557 124.96929,115.7421 208.21792,136.7138 0.10705,2.2325 -1.79307,3.6889 -3.20255,5.1365 -30.41055,31.6215 -60.44715,63.6003 -90.84913,95.2239 -1.06157,1.997 -3.51479,3.5057 -5.39707,1.4999 -26.94073,-75.166 -86.13182,-131.9906 -145.24442,-183.3106 -3.83593,-3.497 -9.36681,-10.596 -14.71927,-4.465 -54.72928,59.7198 -104.82976,124.7838 -139.57795,197.7522 -1.8466,2.7034 -2.74759,12.7588 -8.16286,9.1742 -34.5141,-31.4645 -69.10029,-62.7281 -103.53803,-94.2261 1.23999,-3.5407 6.28023,-3.5145 9.07207,-5.686 73.00758,-39.1472 136.03818,-93.4448 193.62354,-151.7344 4.06787,-3.8982 -3.9073,-7.3603 -5.80742,-9.7498 -59.53723,-49.4293 -121.60795,-96.2773 -188.58509,-135.7091 -1.08833,-1.0378 -3.88054,-1.718 -2.83681,-3.5843 27.91274,-29.4497 55.87114,-58.891 83.84811,-88.296 1.62358,-2.1977 3.48802,-0.1919 4.13924,1.6308 45.58513,63.1383 98.34257,120.9047 153.6799,175.8944 2.47105,2.311 4.87074,5.9737 9.0635,4.3429 103.78068,-109.784 203.92882,-223.1889 294.98491,-343.375 0.85639,-1.4651 4.58527,-5.2587 0.95452,-6.1307 -37.51148,-9.7499 -78.37432,-15.8984 -114.17159,-26.7986 129.05857,-58.0022 257.81743,-116.5723 386.66193,-175.0154 z"
           fill="#063daa"
           id="path3685"
           style="fill:#882121;fill-opacity:1;stroke-width:0.705616" />
      </g>
      <g
         transform="matrix(0.25759722,-0.01958134,0.01748405,0.23000685,888.59066,1837.2202)"
         id="g5299"
         style="fill:url(#linearGradient5826);fill-opacity:1;opacity:0.50592201">
        <path
           d="m -1917.3,-6761.9 c 38.7,22.638 77.338,45.912 117.19,66.488 -53.925,141.36 -53.838,305.21 6.4125,444.76 0.8875,5.0125 8.7625,7.1625 10.688,1.8 52.338,-99.338 128.79,-189.8 230.18,-241.12 29.95,-13.462 61.225,-25.025 94.138,-28.325 88.175,-13.088 179.86,26.05 235.88,94.35 51.562,58.312 78.4,139.02 67.462,216.52 -19.4,150.22 -169.41,263.81 -318.51,253.25 -93.025,-6.975 -184.79,-37.862 -261.5,-91.212 -2.75,-0.475 -8.4625,-1.3375 -4.875,5.4375 -7.5,101.84 22.775,206.89 86.712,286.76 -44.012,29.562 -91.625,56.338 -137.22,83.475 -68.512,-138.79 -84.975,-304.31 -41.588,-453.56 3.575,-6.95 1.8,-13.5 -3.8875,-18.55 -68.388,-86.162 -107.04,-193.38 -119.14,-302.14 2.9,-9.1125 -7.025,-7.95 -8.925,-2.375 -69,110.95 -138.66,221.9 -200.34,337.11 -41.95,76.675 -79.362,157.2 -120.51,233.32 -2.2,-65.438 2.925,-135.66 3.3625,-202.99 3.4125,-102.06 -9.9875,-208.9 -60.562,-299.28 -14.888,-25.05 -33.538,-47.825 -55.85,-66.65 -52,-41.25 -122.36,-51.888 -186.86,-44.762 -0.475,-54.1 -3.5875,-108.2 -3.3625,-162.31 94.312,-0.4 191.46,27.462 263.7,89.838 87.838,75.088 129.36,191.02 138.7,303.58 -0.225,3.525 1.925,6.6625 5.725,5.125 75.538,-134.49 146.26,-272.01 215.32,-409.98 18.228,-36.895 28.452,-68.842 47.675,-98.575 m 438.19,353.14 c -70.025,6.3875 -128.48,54.125 -167.85,109.68 -32.1,44.325 -56.662,94.025 -72.462,146.4 -2.0125,5.2125 4.1125,7.725 7.15,10.725 48.55,41.938 111.85,64.138 175.35,68.4 43.325,1.7375 88.8,3.15 129.85,-13.15 58.438,-21.162 106.04,-73.738 115.44,-135.88 5,-38.238 -8.4125,-76.25 -30.825,-106.75 -33.812,-51.062 -93.575,-88.55 -156.65,-79.425 z"
           fill="#4b0ab3"
           id="path5297"
           style="fill:url(#linearGradient5836);fill-opacity:1" />
      </g>
      <g
         transform="matrix(0.29928542,0,0,0.31499149,1741.7678,2341.696)"
         id="g6203"
         style="fill:#843737;fill-opacity:1;opacity:0.50592201">
        <path
           d="m -2405.4118,-5899.8544 c 0.825,0.088 2.475,0.275 3.2875,0.375 0.6375,47.962 0.1375,95.962 0.2625,143.95 0.05,6.325 -10.125,0.2 -12.95,1.8125 -69.925,-3.8125 -137.18,27.825 -188.45,73.4 -80.625,74.138 -128.9,180.51 -139.84,288.7 63.275,-3.55 126.7,-8.5125 189.21,-19.438 -1.075,48.975 -0.125,98 -0.4875,147 -64.025,-8.9125 -128.56,-16.825 -193.18,-18.288 4.4875,97.65 46.125,194.25 115.62,262.29 48.538,47.225 108.8,82.112 173.78,101.16 3.5375,-0.7875 8.15,3.25 5.7375,6.7625 -18.3,43.65 -36.838,87.225 -55.538,130.69 -72.6,-38.825 -140.94,-87.538 -195.65,-149.45 -88.788,-96.688 -137.14,-226.04 -143.81,-356.39 -54.1,-0.6625 -110.11,-3.6625 -162.89,1.075 -14.688,140.36 -69.212,280.45 -169.81,381.52 -71.362,72.938 -169.56,123.8 -272.91,129.36 -0.075,-48.688 -0.2125,-97.375 0.05,-146.02 64.4,6.5 128.7,-16.812 179.89,-55.062 94.138,-72.862 149.09,-189.32 161.82,-305.85 -63.238,0.8125 -126.65,9.475 -189.04,17.762 -0.65,-48.512 -0.2125,-97.038 -0.2125,-145.54 64.212,8.1 128.75,16.425 193.54,18.425 -4.675,-95.6 -43.8,-189.95 -111.28,-258.39 -50.975,-51.512 -116.11,-88.675 -185.96,-107.72 16.912,-40.4 34.225,-80.612 51.4,-120.92 2.4625,-3.95 2.4375,-12.35 8.45,-12.8 125.58,65.162 235.25,167.94 290.89,300.4 27.925,64.45 41.562,134.24 45.962,204.12 54.175,-0.1375 109.21,2.7 163.04,-1.175 15.312,-146.48 74.912,-295.36 185.54,-396.61 68.425,-65.35 159.18,-106.6 253.52,-115.15 z"
           fill="#bb2faa"
           id="path6201"
           style="fill:#843737;fill-opacity:1" />
      </g>
      <g
         transform="matrix(0.25447021,0,0,0.21932033,925.25918,2093.8029)"
         id="g7089"
         style="fill:#a02c2c;fill-opacity:0.764622;opacity:0.50592201">
        <path
           d="m -1647.651,-7066.803 c -1.4216,0.1277 -1.8781,2.1558 -2.5586,3.3847 -42.65,83.45 -130.5599,148.18 -227.1499,144.14 -88.988,-0.25 -169.16,-57.2 -212.43,-132.66 -3.5875,-3.1875 -5.1488,-14.751 -11.549,-11.551 -23.338,40.325 -52.527,78.838 -92.539,103.88 -69.362,48.925 -166.7,53.888 -240.8,12.525 -51.725,-24.538 -88.301,-74.462 -117.14,-119.19 -23.762,43.95 -56.512,84.112 -99.449,110.51 -72.05,47.288 -171.09,48.888 -244.47,3.5 -45.475,-25.35 -79.313,-67.175 -104.46,-111.94 -1.2625,-2.9 -5.2867,-1.0242 -5.0742,1.8008 -24.438,51.425 -15.763,113.02 9.8242,162.38 45.688,87.175 148.25,139.22 245.61,126.92 82.525,-7.825 160.36,-60.024 195.97,-135.3 0.9,-2.1875 3.8129,-2.9633 5.7754,-1.6758 26.062,58.838 79.111,103.63 139.49,124.4 113.5,42.738 255.16,-11.587 306.09,-122.64 0.7125,-3.9125 6.3242,-2.5 7.0742,0.75 37.225,78.9 120.33,131.16 208.1,135.74 88.288,5.3625 178.95,-39.086 224.9499,-115.05 33.438,-52.5 43.962,-122.66 15.887,-179.68 -0.4453,-0.2063 -0.8243,-0.2775 -1.1523,-0.248 z m -1354.7999,368.68 c -0.2512,0.021 -0.5239,0.1086 -0.8223,0.2774 -46.612,97.312 12.901,217.09 104.61,263.44 115.76,69.238 285.07,21.075 342.89,-102.15 0.012,-4.975 7.8258,-6.075 8.9883,-1.0625 46.025,96.638 161.32,151.55 265.8,130.9 76.188,-12.438 145.22,-62.826 178.85,-132.58 5.6125,-4.975 7.8379,2.6266 9.5254,6.4141 30.838,61.212 90.5,105.37 156.41,122.34 77.862,20.662 164.78,0.4508 225.93,-51.699 64.9999,-54.375 102.6299,-151.5 65.2129,-231.94 -3.0125,-6.9 -6.7129,3.2129 -8.6504,6.0254 -43.45,80.575 -129.7999,141.46 -223.6799,137.62 -95.4,0.3 -178.74,-65.514 -221.29,-147.58 -34.825,61.85 -88.3,117.36 -158.28,137.98 -78.012,24.525 -167.41,2.7496 -227.1,-52.588 -26.525,-23.238 -47.536,-52.238 -64.611,-82.926 -1.5,-1.0375 -5.0504,-2.7363 -4.9629,1.1387 -31.962,60.025 -84.564,111.19 -150.01,132.69 -42.612,14.338 -89.175,14.825 -132.6,3.8125 -70.912,-18.712 -128.96,-71.875 -162.94,-135.81 -0.8312,-1.3235 -1.519,-4.4472 -3.2773,-4.3028 z"
           fill="#710cb3"
           id="path7087"
           style="fill:#a02c2c;fill-opacity:0.764622" />
      </g>
    </g>
  </g>
</svg>
