<?xml version="1.0" encoding="UTF-8" standalone="no"?>
<svg
   version="1.1"
   id="Layer_1"
   x="0px"
   y="0px"
   viewBox="0 0 2663.905 1748.607"
   enable-background="new 0 0 2663.905 1748.607"
   xml:space="preserve"
   sodipodi:docname="brainf.svg"
   inkscape:version="1.2.1 (9c6d41e410, 2022-07-14)"
   xmlns:inkscape="http://www.inkscape.org/namespaces/inkscape"
   xmlns:sodipodi="http://sodipodi.sourceforge.net/DTD/sodipodi-0.dtd"
   xmlns="http://www.w3.org/2000/svg"
   xmlns:svg="http://www.w3.org/2000/svg"><defs
   id="defs23" /><sodipodi:namedview
   id="namedview21"
   pagecolor="#ffffff"
   bordercolor="#000000"
   borderopacity="0.25"
   inkscape:showpageshadow="2"
   inkscape:pageopacity="0.0"
   inkscape:pagecheckerboard="0"
   inkscape:deskcolor="#d1d1d1"
   showgrid="false"
   inkscape:zoom="0.43863485"
   inkscape:cx="1268.709"
   inkscape:cy="883.42274"
   inkscape:window-width="1920"
   inkscape:window-height="1003"
   inkscape:window-x="0"
   inkscape:window-y="0"
   inkscape:window-maximized="1"
   inkscape:current-layer="Layer_1" />
<g
   id="g18"
   style="fill:#ffffff;stroke-width:6;stroke-dasharray:none;stroke:#ffffff;stroke-opacity:1;stroke-linejoin:round;stroke-linecap:round;paint-order:stroke fill markers;opacity:0.2">
	<path
   d="m 1136.857,37.526 c 113.1878,-22.171939 222.9976,38.238374 337.2585,22.417034 130.5396,0.282142 -147.0994,-1.404468 -31.1595,5.990966 124.5298,-8.340433 241.4201,46.27614 363.294,63.237 72.6066,88.00381 204.7167,64.32173 274.923,146.693 78.1378,55.84481 184.0535,89.11701 236.8352,179.06484 25.2909,106.85629 154.2379,132.8859 170.0713,242.1015 39.9746,114.84095 95.6177,224.5052 112.4613,347.00576 20.7358,115.9247 4.7061,234.2041 -29.3409,345.8223 34.8351,113.1903 -51.7829,202.6891 -114.9159,286.0206 -88.5107,64.2596 -182.4942,16.83 -275.4147,-2.5291 -79.8649,-62.198 -201.7828,-18.3411 -269.0217,-98.1186 -61.7335,-107.522 -182.3138,-19.6241 -283.0935,-23.139 -100.494,43.403 -211.4676,11.9755 -308.8802,58.513 -87.3357,-41.0866 -155.0181,24.7811 -242.4338,22.942 -137.6072,42.9567 -305.84081,1.2922 -395.58115,-113.0542 C 647.92993,1464.8798 568.63957,1443.2771 592.953,1355.212 480.78698,1334.5439 378.30319,1267.2101 260.71378,1259.9319 139.26424,1255.7752 85.972297,1155.0827 82.461672,1051.7208 11.26271,962.33502 87.20995,863.10767 107.104,778.869 57.915042,655.92625 218.38905,607.77513 219.63519,509.49112 270.09638,419.0343 378.04825,372.76695 453.413,301.94 560.82157,299.60551 620.09553,225.79658 710.6274,188.66983 809.82416,208.46487 863.60677,125.79563 956.76357,111.30016 1064.2528,141.11564 1056.8874,71.421715 1136.857,37.526 Z m 33.382,13.713 c -76.7623,2.327857 -124.8479,127.13761 -16.7393,73.43 79.9158,-43.867548 214.2533,-8.04818 269.8293,-9 -94.0986,39.971 -202.3771,-14.02205 -290.3042,46.0001 C 1040.686,140.00029 908.96436,101.03178 838.471,204.266 734.33288,189.88834 636.08388,247.5791 589.76772,338.75281 500.69586,343.32275 421.49997,408.85543 376.78321,483.83059 382.99792,574.52303 190.92702,604.57654 227.342,714.802 323.95942,756.92825 329.71574,586.50591 417.83923,575.85703 379.17155,488.24022 682.74864,333.37262 609.12142,389.33048 545.14985,436.29903 444.47619,487.99958 450.577,575.316 c 61.36017,27.33174 122.53904,2.66353 110.598,-74.519 7.68488,66.63295 5.83356,156.10781 99.27676,109.91647 65.75667,-8.27076 156.08015,40.81941 156.95924,-61.09447 5.36311,94.89667 39.30964,188.38882 74.82503,276.25513 C 946.62452,937.7791 757.13785,629.5013 836.8216,728.70341 821.94412,622.04464 672.03707,618.28279 601.412,666.864 c -46.5003,69.75374 -77.57467,199.5817 38.22362,216.18162 54.77686,21.44421 113.38781,82.45313 20.28292,38.3239 C 576.56112,916.52365 540.16603,828.65022 496.3445,797.15744 396.28214,803.9959 566.07247,776.82695 539.55569,705.12197 618.71381,601.55404 412.13217,571.98387 367.32212,650.65425 312.11583,716.20609 282.3828,835.15028 339.782,907.31 c 45.86318,47.22094 121.17302,-23.39828 119.09193,72.68976 19.10902,108.92004 149.18816,163.48924 245.38081,120.45234 79.74439,-85.1026 -120.76158,-122.18 -181.49074,-90.9881 107.16251,-83.41984 212.90665,32.8951 311.789,56.606 96.07578,-46.4314 -81.05573,-125.02896 -85.04773,-197.0466 -25.50421,-33.75556 -43.61623,-119.49143 -61.17777,-127.55415 42.55851,15.77284 54.6301,-95.13089 44.74645,-1.5954 5.69759,99.10323 59.86326,193.37106 144.04805,247.19515 112.4472,37.9199 103.55791,-78.97307 87.99062,-151.46888 27.16606,-86.49685 150.00138,-228.08338 13.46265,-287.10182 -94.42375,19.60447 -138.80008,-171.65243 -233.68643,-57.7226 -43.0335,102.18086 7.40892,-120.9646 92.52916,-51.2337 80.09231,34.39174 203.8753,165.93734 269.7671,72.37762 109.9443,-16.43246 82.4414,-160.87839 181.2679,-213.13962 -60.4474,52.95581 -109.503,195.71008 -86.391,192.494 -107.2542,-3.73157 -129.8347,117.82373 -140.9948,199.54237 -49.8843,64.34556 -131.99494,218.65292 -11.9135,247.76863 71.8248,-80.75319 166.2913,-134.52439 190.7909,-250.49445 13.921,-53.92309 134.4896,-185.02965 54.0384,-69.55688 -61.7565,72.18937 -52.1282,190.51922 -131.926,247.38361 -89.9803,20.36463 -53.7897,121.81218 26.548,61.61768 86.337,-9.01794 182.6013,-104.87391 197.9652,-150.00118 -17.7911,51.19239 -67.5999,125.78063 28.6368,103.47622 93.5171,-66.79092 115.8008,-187.75474 145.5955,-290.15061 54.12,-84.59245 205.6107,-81.503 214.6629,-198.74914 6.6936,-43.02172 -10.2778,-132.28568 9.7723,-36.37113 12.0362,92.80363 160.7619,12.12145 232.1472,52.62058 108.8472,67.59969 19.9828,-98.52365 36.0851,-92.14411 34.9454,37.74438 65.3767,183.94457 118.1276,150.62403 20.9251,-42.97232 4.8967,-117.98585 33.8564,-24.48562 52.4711,9.73637 132.8613,61.03511 58.0061,-16.32495 -75.805,-76.43867 -177.119,-141.01007 -288.7991,-135.83205 58.8982,-24.37154 151.3655,17.06892 59.1326,-44.61888 -70.7138,-17.66294 -143.3486,-32.38335 -218.5396,-11.39712 -75.5889,14.16184 -171.427,51.15788 -213.9475,120.07775 -37.0466,90.50377 -144.2056,121.49543 -221.3505,170.77825 35.6099,-45.64201 172.8702,-108.04201 206.4988,-194.83355 17.8294,-25.73467 11.7975,-97.96322 21.4992,-27.38945 63.9888,-62.66718 145.597,-88.47296 231.4965,-104.81383 -57.2011,-83.34667 -172.3686,-53.38573 -257.2974,-89.4974 C 1488.7293,65.095815 1384.9949,103.15731 1292.0988,72.129047 1254.0709,56.665381 1210.7891,51.602552 1170.239,51.239 Z m -100.679,70.571 1.7647,0.885 z m 3.849,1.391 1.644,0.93225 z m 1011.91,165.94 0.6427,0.66375 z M 496.996,320.752 c -97.14079,39.17524 -173.17832,118.83742 -245.657,189.895 -44.09,95.56851 122.79352,13.41457 116.66081,-53.07716 34.0461,-72.76158 105.17477,-110.96922 176.07719,-140.07684 -15.47863,0.56768 -32.25057,-3.4965 -47.081,3.259 z m 1402.278,92.784 c -110.2525,-3.82823 -167.6597,109.7031 -268.8974,142.08109 -92.5628,68.24805 -71.0094,197.68256 -130.3149,290.48015 -55.3371,97.01726 178.4365,-43.6762 170.9457,-36.46585 -30.3471,47.13085 -139.7856,74.18023 -27.5634,79.89061 109.062,13.14289 237.3284,40.55361 332.259,-29.996 60.8429,-53.40686 -34.5883,84.35944 -78.074,86.124 71.5681,19.98304 227.5107,125.6333 215.3899,145.3345 C 1991.4758,979.89446 1825.0857,935.96436 1667.9807,902.38628 1483.7713,875.58564 1298.8252,914.52211 1119.523,959.64802 971.34932,1002.666 832.22137,1073.6198 717.616,1177.807 c -64.90397,57.9188 -146.85791,191.6215 -55.72923,258.6515 41.7469,1.504 63.57136,3.4056 19.29823,39.5085 54.50448,111.3114 184.21076,144.7656 297.24777,155.4508 156.18363,-11.1929 -4.86893,-28.7633 -8.96379,-71.4277 80.39542,61.9473 184.67252,34.4583 271.66672,10.9719 98.3009,54.3849 170.2578,-66.4341 263.5088,-16.6548 98.3677,-22.1985 217.375,-23.2574 303.4777,-78.6044 34.8048,-54.7418 40.2385,-38.0052 29.6838,18.3442 114.0093,25.8444 205.3889,-73.3398 253.8493,-164.629 31.3247,-53.4203 111.1043,-160.3203 -4.338,-143.2621 -142.0006,-20.8785 -286.2256,-19.607 -426.8723,9.4211 -88.5793,-22.5029 -171.1587,-49.9104 -264.553,-21.594 -101.068,6.607 -199.8031,26.9472 -301.0644,32.762 -118.56802,27.0699 -285.51755,46.2601 -327.65285,179.3975 -17.85697,76.1955 7.2553,-92.3327 -39.78472,11.2255 -14.27253,4.9586 66.13607,-67.5805 -7.6943,-63.9786 -58.38544,-52.4349 92.3861,3.4813 112.07791,-65.416 87.68232,-47.7658 187.43456,-66.6894 282.77436,-94.5384 -50.1964,-39.3981 4.4191,-179.8432 -2.837,-67.185 55.169,122.373 207.3681,14.9806 307.1889,42.7619 53.0895,-15.1209 139.5721,12.8528 134.0951,-70.3269 99.2752,-58.2148 -46.7205,68.4817 47.4059,81.4333 99.907,20.6879 203.768,-17.9349 306.1024,-10.1283 71.5517,-16.4579 211.0943,36.8252 244.6245,3.1369 -16.9087,-36.4213 40.3497,30.42 57.5696,-20.4654 87.3721,-9.8687 120.4381,-88.3848 162.6876,-134.4095 9.661,128.5982 -146.4849,105.9733 -185.1133,203.367 -35.6707,47.4903 -102.8984,201.3909 15.0993,170.565 65.4483,101.228 204.8684,140.6101 237.9629,-5.6686 37.5255,-68.4078 49.3996,-256.6234 -62.4969,-150.1284 109.0137,-43.4631 85.7435,-145.2147 76.261,-235.725 5.196,-89.00424 -77.7551,-18.54537 -126.067,-32.791 -3.8268,48.65843 -93.6957,123.8659 -98.4845,106.323 61.5586,-43.0244 120.6911,-173.36027 17.1515,-193.838 -75.186,-56.04384 85.3531,-5.9033 90.087,47.768 107.0155,19.03876 103.153,-123.61834 51.2672,-180.21655 -84.7155,-96.3272 -126.5659,96.89191 -207.3897,108.87467 1.7693,107.15025 -85.9233,-33.37267 10.5672,-34.10883 85.6787,-27.98264 162.1566,-181.42397 51.5893,-230.87229 -101.1404,-82.71033 -169.6281,53.14229 -218.1456,125.68312 -34.4233,30.44124 10.5511,149.45884 -38.0504,64.40888 -1.6593,-95.60011 101.5969,-195.39596 140.7794,-249.98423 -45.345,-88.05099 -142.5642,-89.85249 -227.1284,-98.37277 z m 290.082,68.155 c -39.5286,60.87546 133.0168,54.45524 138.374,141.733 -12.1872,77.38269 140.9608,110.41094 60.8973,12.03187 -14.181,-47.35279 -83.9183,-138.06544 -44.1363,-35.36787 -28.6167,-56.07571 -83.2869,-161.57258 -155.135,-118.397 z m 112.313,-4.299 0.6427,0.66375 z M 277.442,569.543 C 185.7147,559.07908 59.686024,751.83262 175.58416,762.11992 c 35.24565,-54.4604 10.18341,-144.84345 98.35734,-183.42815 3.45925,0.65197 15.07129,-15.32755 3.5005,-9.14877 z m 2112.121,24.924 c 64.7971,77.73593 37.7258,172.175 62.5548,257.38025 -12.4647,55.27545 32.9478,133.31397 33.5314,32.87875 -6.2089,-86.40279 1.6584,-195.82396 -60.7922,-266.86711 -10.963,-9.00561 -24.0403,-14.83354 -35.294,-23.39189 z M 228.746,745.163 c -39.88523,56.58464 -40.3207,157.10014 -65.584,228.966 28.97443,104.0077 170.56792,118.8555 261.08127,140.7206 54.5985,-22.4231 -157.48556,-97.9258 -124.81818,-74.313 -51.0185,-20.4159 -114.09233,-128.57812 -65.32,-156.84196 -23.27447,119.09456 107.77587,161.76856 196.9796,186.89966 75.45826,53.2306 158.70727,108.2685 257.51289,101.1689 36.98508,-11.8061 102.14573,-107.0382 56.37365,-95.9218 -28.35183,96.8869 -183.29603,69.9553 -242.14098,14.4157 C 441.616,1033.5226 451.47635,927.72563 345.60513,934.16463 240.75799,897.85889 341.16796,715.96371 228.746,745.163 Z m -60.385,41.854 C 84.920093,827.08455 61.016978,953.3263 96.914197,1034.6216 147.78776,1051.2493 128.59027,893.96434 176.1135,851.43325 166.69894,839.10122 193.92277,779.35411 168.361,787.017 Z m 2339.697,37.555 c 6.3164,94.60776 -47.8424,180.1418 -20.5648,278.0935 -16.1798,45.0471 5.9346,168.9277 6.5394,166.4721 37.4446,-98.6103 5.5872,-204.5421 23.2466,-306.72893 3.2337,-46.41058 3.8062,-92.46481 -9.2212,-137.83667 z m 38.088,101.733 c -27.6233,134.0419 29.9973,284.1516 -56.1157,404.9506 -55.9014,94.316 -113.6472,171.6378 -142.2205,271.0648 -99.5161,65.3017 -190.7368,-34.1765 -287.654,-48.0102 -40.4332,-24.3601 -127.3293,-86.6875 -127.3323,-8.1206 73.1048,84.5727 193.7322,49.213 279.0784,113.0933 81.0784,28.179 163.2514,-13.514 224.7951,-65.0859 -9.8091,60.6495 -180.7451,102.6129 -55.552,90.789 76.5077,-44.9062 156.9782,-120.9174 161.5669,-214.2952 14.1935,-48.6929 -103.1721,130.4866 -46.4042,31.52 43.5664,-55.7861 50.6545,-116.6942 44.1043,-185.2278 48.9509,76.6403 46.2707,-157.578 44.8461,-135.5244 -3.705,-85.3295 -6.2831,-175.1118 -39.1121,-255.1536 z M 156.236,1043.38 c -43.93263,142.4487 148.89868,99.5993 230.01156,130.513 82.24472,-8.3221 176.07155,139.6069 229.47652,69.7025 C 564.01892,1134.6338 438.22806,1146.2861 339.796,1134.954 274.0391,1117.0307 200.80907,1098.5397 156.236,1043.38 Z m -37.54,57.182 c -18.27097,131.0216 140.24134,140.6131 232.7817,153.7503 83.10065,-9.4562 213.90632,136.2425 254.0243,42.1717 -98.56277,-19.4023 -172.64802,-121.8805 -286.79441,-114.674 -72.09958,-12.315 -169.95437,7.3939 -200.01159,-81.248 z m 2366.897,183.362 0.8955,1.6598 z m -487.213,200.165 c 56.4238,86.1471 157.5607,21.5521 210.491,105.498 79.4058,68.6764 221.0189,-68.2876 95.2539,-106.8036 -64.3071,-31.5156 -107.322,-107.0907 -195.8919,-94.5844 1.4799,-68.9278 -88.5579,94.2583 -109.853,95.89 z"
   id="path2"
   style="fill:#ffffff;stroke-width:6;stroke-dasharray:none;stroke:#ffffff;stroke-opacity:1;stroke-linejoin:round;stroke-linecap:round;paint-order:stroke fill markers" />
	<path
   d="m 1624.801,198.296 c -96.3006,-29.85786 -206.3157,9.69692 -193.7495,124.72712 -56.204,83.6504 19.9705,-121.49647 -91.1626,-115.38617 -94.2392,-27.73818 -159.2596,56.06199 -250.1801,15.5883 -102.75414,14.40491 -179.50366,106.54054 -287.66054,105.9521 -42.10527,8.4764 -134.17458,-21.36186 -42.88958,-14.93784 109.01983,8.93293 191.65954,-66.15825 284.91532,-107.59851 117.1083,-14.43129 233.6304,-43.29958 353.586,-15.609 73.196,-42.88938 150.9147,-30.52998 227.141,7.264 z"
   id="path4"
   style="fill:#ffffff;stroke-width:6;stroke-dasharray:none;stroke:#ffffff;stroke-opacity:1;stroke-linejoin:round;stroke-linecap:round;paint-order:stroke fill markers" />
	<path
   d="m 1138.024,288.565 c -26.8163,50.45255 5.2481,235.72645 -36.581,103.67057 -6.4155,-37.86479 8.0524,-78.05584 36.581,-103.67057 z"
   id="path6"
   style="fill:#ffffff;stroke-width:6;stroke-dasharray:none;stroke:#ffffff;stroke-opacity:1;stroke-linejoin:round;stroke-linecap:round;paint-order:stroke fill markers" />
	<path
   d="m 2009.929,523.292 c -43.044,29.52181 -156.0244,72.09659 -53.332,97.982 -102.4996,-32.56169 -216.0103,13.86812 -262.058,111.47989 -20.9034,-41.52878 88.8154,-148.30595 168.3002,-143.0987 48.4583,-24.01827 90.7617,-60.41547 147.0898,-66.36319 z"
   id="path8"
   style="fill:#ffffff;stroke-width:6;stroke-dasharray:none;stroke:#ffffff;stroke-opacity:1;stroke-linejoin:round;stroke-linecap:round;paint-order:stroke fill markers" />
	<path
   d="m 2040.163,884.999 c -25.6471,137.1881 208.6357,113.05254 196.7341,69.6295 -30.5509,127.5233 -234.9005,44.48965 -196.7341,-69.6295 z"
   id="path10"
   style="fill:#ffffff;stroke-width:6;stroke-dasharray:none;stroke:#ffffff;stroke-opacity:1;stroke-linejoin:round;stroke-linecap:round;paint-order:stroke fill markers" />
	<path
   d="m 1833.227,993.012 c 75.7006,14.7425 185.5843,71.2108 226.1541,94.5883 -101.3589,-37.1511 -202.2317,-83.1972 -312.9951,-72.2503 -54.0885,15.2936 -124.8262,3.2973 -33.7663,-17.12834 39.7608,-7.10883 80.3885,-7.52121 120.6073,-5.20966 z"
   id="path12"
   style="fill:#ffffff;stroke-width:6;stroke-dasharray:none;stroke:#ffffff;stroke-opacity:1;stroke-linejoin:round;stroke-linecap:round;paint-order:stroke fill markers" />
	<path
   d="m 1317.676,1249.179 c 75.9155,66.9073 183.8717,120.8856 285.403,81.108 -36.4357,-104.3666 46.3854,27.8979 106.69,8.1876 118.0224,19.684 233.1459,-30.5858 340.719,-73.4056 -45.5134,39.2226 -163.175,145.1173 -150.7763,122.307 -32.1586,-59.356 -165.0702,11.0753 -238.1064,-32.397 -91.0962,0.7285 -193.566,34.5038 -283.2933,-25.085 -89.9648,48.0553 -218.5409,73.4065 -301.28,-1.517 78.4918,37.4045 250.2173,44.2508 272.5964,-35.7535 -10.6457,-14.4853 -21.7684,-28.6222 -31.9524,-43.4445 z"
   id="path14"
   style="fill:#ffffff;stroke-width:6;stroke-dasharray:none;stroke:#ffffff;stroke-opacity:1;stroke-linejoin:round;stroke-linecap:round;paint-order:stroke fill markers" />
	<path
   d="m 1107.578,1397.501 c -140.40266,57.941 86.0252,96.8241 145.7636,84.6273 96.1089,1.3835 185.2393,-36.8448 275.8644,-62.3443 -117.0481,55.3788 -242.1249,106.6335 -374.4653,88.5209 -103.6041,-2.7362 -183.73924,-110.6113 -283.39506,-21.3789 -24.65803,54.1246 -184.39869,32.0958 -77.10426,28.2556 92.15728,-73.4831 190.91474,-125.7859 313.33662,-117.6806 z"
   id="path16"
   style="fill:#ffffff;stroke-width:6;stroke-dasharray:none;stroke:#ffffff;stroke-opacity:1;stroke-linejoin:round;stroke-linecap:round;paint-order:stroke fill markers" />
</g>
</svg>
