<?xml version="1.0" encoding="UTF-8" standalone="no"?>
<svg
   height="187.51mm"
   width="392.16mm"
   version="1.1"
   viewBox="0 0 1389.5341 664.41537"
   id="svg6"
   sodipodi:docname="aquariusLOGO.svg"
   inkscape:version="1.2.1 (9c6d41e410, 2022-07-14)"
   xmlns:inkscape="http://www.inkscape.org/namespaces/inkscape"
   xmlns:sodipodi="http://sodipodi.sourceforge.net/DTD/sodipodi-0.dtd"
   xmlns="http://www.w3.org/2000/svg"
   xmlns:svg="http://www.w3.org/2000/svg">
  <defs
     id="defs10" />
  <sodipodi:namedview
     id="namedview8"
     pagecolor="#ffffff"
     bordercolor="#000000"
     borderopacity="0.25"
     inkscape:showpageshadow="2"
     inkscape:pageopacity="0.0"
     inkscape:pagecheckerboard="0"
     inkscape:deskcolor="#d1d1d1"
     inkscape:document-units="mm"
     showgrid="false"
     inkscape:zoom="0.55947573"
     inkscape:cx="708.6992"
     inkscape:cy="360.15861"
     inkscape:window-width="1920"
     inkscape:window-height="1003"
     inkscape:window-x="0"
     inkscape:window-y="0"
     inkscape:window-maximized="1"
     inkscape:current-layer="svg6" />
  <g
     transform="matrix(0.95898564,0,0,0.92768655,2461.2678,6159.0878)"
     id="g4"
     style="stroke:none;stroke-width:18.1971;stroke-linecap:round;stroke-linejoin:round;stroke-dasharray:none;stroke-opacity:1;fill:#999999;fill-opacity:1;opacity:0.2">
    <path
       d="m -1165.1,-6618.1 c -1.4216,0.1277 -1.8781,2.1558 -2.5586,3.3847 -42.65,83.45 -130.56,148.18 -227.15,144.14 -88.988,-0.25 -169.16,-57.2 -212.43,-132.66 -3.5875,-3.1875 -5.1488,-14.751 -11.549,-11.551 -23.338,40.325 -52.527,78.838 -92.539,103.88 -69.362,48.925 -166.7,53.888 -240.8,12.525 -51.725,-24.538 -88.301,-74.462 -117.14,-119.19 -23.762,43.95 -56.512,84.112 -99.449,110.51 -72.05,47.288 -171.09,48.888 -244.47,3.5 -45.475,-25.35 -79.313,-67.175 -104.46,-111.94 -1.2625,-2.9 -5.2867,-1.0242 -5.0742,1.8008 -24.438,51.425 -15.763,113.02 9.8242,162.38 45.688,87.175 148.25,139.22 245.61,126.92 82.525,-7.825 160.36,-60.024 195.97,-135.3 0.9,-2.1875 3.8129,-2.9633 5.7754,-1.6758 26.062,58.838 79.111,103.63 139.49,124.4 113.5,42.738 255.16,-11.587 306.09,-122.64 0.7125,-3.9125 6.3242,-2.5 7.0742,0.75 37.225,78.9 120.33,131.16 208.1,135.74 88.288,5.3625 178.95,-39.086 224.95,-115.05 33.438,-52.5 43.962,-122.66 15.887,-179.68 -0.4453,-0.2063 -0.8243,-0.2775 -1.1523,-0.248 z m -1354.8,368.68 c -0.2512,0.021 -0.5239,0.1086 -0.8223,0.2774 -46.612,97.312 12.901,217.09 104.61,263.44 115.76,69.238 285.07,21.075 342.89,-102.15 0.012,-4.975 7.8258,-6.075 8.9883,-1.0625 46.025,96.638 161.32,151.55 265.8,130.9 76.188,-12.438 145.22,-62.826 178.85,-132.58 5.6125,-4.975 7.8379,2.6266 9.5254,6.4141 30.838,61.212 90.5,105.37 156.41,122.34 77.862,20.662 164.78,0.4508 225.93,-51.699 65,-54.375 102.63,-151.5 65.213,-231.94 -3.0125,-6.9 -6.7129,3.2129 -8.6504,6.0254 -43.45,80.575 -129.8,141.46 -223.68,137.62 -95.4,0.3 -178.74,-65.514 -221.29,-147.58 -34.825,61.85 -88.3,117.36 -158.28,137.98 -78.012,24.525 -167.41,2.7496 -227.1,-52.588 -26.525,-23.238 -47.536,-52.238 -64.611,-82.926 -1.5,-1.0375 -5.0504,-2.7363 -4.9629,1.1387 -31.962,60.025 -84.564,111.19 -150.01,132.69 -42.612,14.338 -89.175,14.825 -132.6,3.8125 -70.912,-18.712 -128.96,-71.875 -162.94,-135.81 -0.8312,-1.3235 -1.519,-4.4472 -3.2773,-4.3028 z"
       fill="#710cb3"
       id="path2"
       style="stroke:none;stroke-width:18.1971;stroke-linecap:round;stroke-linejoin:round;stroke-dasharray:none;stroke-opacity:1;fill:#999999;fill-opacity:1" />
  </g>
</svg>
