<?xml version="1.0" encoding="UTF-8" standalone="no"?>
<svg
   height="288.43mm"
   width="303.33mm"
   version="1.1"
   viewBox="0 0 1074.785 1022.0097"
   id="svg6"
   sodipodi:docname="cancerLOGO.svg"
   inkscape:version="1.2.1 (9c6d41e410, 2022-07-14)"
   xmlns:inkscape="http://www.inkscape.org/namespaces/inkscape"
   xmlns:sodipodi="http://sodipodi.sourceforge.net/DTD/sodipodi-0.dtd"
   xmlns="http://www.w3.org/2000/svg"
   xmlns:svg="http://www.w3.org/2000/svg">
  <defs
     id="defs10" />
  <sodipodi:namedview
     id="namedview8"
     pagecolor="#ffffff"
     bordercolor="#000000"
     borderopacity="0.25"
     inkscape:showpageshadow="2"
     inkscape:pageopacity="0.0"
     inkscape:pagecheckerboard="0"
     inkscape:deskcolor="#d1d1d1"
     inkscape:document-units="mm"
     showgrid="false"
     inkscape:zoom="0.51437547"
     inkscape:cx="556.98613"
     inkscape:cy="551.15381"
     inkscape:window-width="1920"
     inkscape:window-height="1003"
     inkscape:window-x="0"
     inkscape:window-y="0"
     inkscape:window-maximized="1"
     inkscape:current-layer="g4" />
  <g
     transform="translate(-748.59 5199.2)"
     id="g4">
    <path
       d="m 1281.3137,-5181.0738 c -2.7307,0 -5.4626,0.025 -8.197,0.066 -158.2306,2.3259 -316.89151,73.6225 -415.49057,199.9984 -52.71169,66.1632 -86.83331,149.16 -86.22448,234.842 -9.24725,89.1449 41.80424,180.4073 122.33127,218.1046 79.60565,41.2165 183.16718,22.9087 246.21098,-40.446 40.8714,-40.3371 66.8936,-96.9816 66.0689,-155.1859 2.2699,-71.5507 -35.1367,-141.7073 -92.9265,-182.3259 -53.787,-38.8176 -125.5906,-50.6408 -188.72037,-30.3942 -3.53643,1.868 -7.13335,-0.5182 -3.9912,-4.0373 79.95177,-89.278 198.86127,-138.7087 317.22597,-141.7361 166.8041,-5.5076 326.1625,75.624 448.9048,181.4582 26.8941,-30.2976 50.4313,-64.8375 76.2021,-96.6151 3.6918,-5.0014 -4.8992,-7.4732 -7.7545,-10.2573 -137.2799,-100.5777 -301.6084,-173.6778 -473.6407,-173.4657 z m 299.6873,310.0824 c -5.3624,0.033 -10.7355,0.2861 -16.1089,0.772 -89.1989,5.4956 -170.2258,71.8642 -194.1301,158.5314 -24.8744,80.9144 3.9304,173.9477 68.076,227.9002 55.6508,49.3035 137.71,66.598 207.9602,42.3503 2.8197,2.6513 0.035,6.4717 -1.6968,8.9181 -87.013,93.3516 -216.0175,142.604 -342.411,137.9376 -157.6476,-3.9048 -303.83522,-81.0589 -421.73177,-182.1235 -26.32048,32.4062 -51.50454,69.2735 -78.0869,99.4978 135.06236,101.7926 296.85817,176.5702 467.72437,181.3523 121.3085,2.6272 245.7043,-33.2026 342.8124,-105.9864 88.1829,-65.067 159.9797,-159.8908 178.7322,-270.3989 7.8137,-58.9199 11.0269,-122.7334 -17.3475,-176.9656 -35.4836,-72.671 -113.3565,-122.2704 -193.7956,-121.7788 z m -569.9841,20.8753 c 39.584,0.4499 78.561,22.168 100.1475,55.6648 36.8695,54.099 23.0106,136.7228 -31.3021,173.7838 -46.6424,34.5756 -117.14138,29.8282 -158.38362,-11.3285 -34.84994,-32.4669 -48.59033,-86.5545 -32.46143,-131.748 14.40851,-47.7001 60.46697,-83.1548 109.71493,-85.8188 4.08942,-0.4191 8.19022,-0.6001 12.28472,-0.5535 z m 550.572,71.0744 c 24.0485,0.1617 48.4393,6.7067 68.1878,20.6988 47.5266,29.9959 68.4937,94.8817 48.9842,147.7042 -10.92,30.3815 -33.0942,57.1486 -62.4493,70.7428 -53.6789,28.6587 -127.3778,9.243 -159.3968,-42.8921 -31.2782,-46.76 -25.8435,-113.9694 11.5757,-155.6197 20.4174,-22.7417 49.569,-37.1911 79.8081,-40.071 4.3983,-0.401 8.8399,-0.5891 13.2931,-0.5591 z"
       fill="#ffaa01"
       id="path2"
       style="opacity:0.3;fill:none;fill-opacity:1;stroke:#ffffff;stroke-width:27.7528;stroke-linecap:round;stroke-linejoin:round;stroke-dasharray:none;stroke-opacity:1;paint-order:normal" />
  </g>
</svg>
