<?xml version="1.0" encoding="UTF-8" standalone="no"?>
<svg
   height="308.24mm"
   width="405.13mm"
   version="1.1"
   viewBox="0 0 1435.4904 1092.1876"
   id="svg6"
   sodipodi:docname="capricornLOGO.svg"
   inkscape:version="1.2.1 (9c6d41e410, 2022-07-14)"
   xmlns:inkscape="http://www.inkscape.org/namespaces/inkscape"
   xmlns:sodipodi="http://sodipodi.sourceforge.net/DTD/sodipodi-0.dtd"
   xmlns="http://www.w3.org/2000/svg"
   xmlns:svg="http://www.w3.org/2000/svg">
  <defs
     id="defs10" />
  <sodipodi:namedview
     id="namedview8"
     pagecolor="#ffffff"
     bordercolor="#000000"
     borderopacity="0.25"
     inkscape:showpageshadow="2"
     inkscape:pageopacity="0.0"
     inkscape:pagecheckerboard="0"
     inkscape:deskcolor="#d1d1d1"
     inkscape:document-units="mm"
     showgrid="false"
     inkscape:zoom="0.6806858"
     inkscape:cx="764.66998"
     inkscape:cy="586.90809"
     inkscape:window-width="1920"
     inkscape:window-height="1003"
     inkscape:window-x="0"
     inkscape:window-y="0"
     inkscape:window-maximized="1"
     inkscape:current-layer="svg6" />
  <g
     transform="matrix(0.97638144,0,0,0.9684052,2545.8051,6566.799)"
     id="g4"
     style="opacity:0.3;fill:none;stroke:#ffffff;stroke-width:29.1514;stroke-linecap:round;stroke-linejoin:round;stroke-dasharray:none;stroke-opacity:1">
    <path
       d="m -1917.3,-6761.9 c 38.7,22.638 77.338,45.912 117.19,66.488 -53.925,141.36 -53.838,305.21 6.4125,444.76 0.8875,5.0125 8.7625,7.1625 10.688,1.8 52.338,-99.338 128.79,-189.8 230.18,-241.12 29.95,-13.462 61.225,-25.025 94.138,-28.325 88.175,-13.088 179.86,26.05 235.88,94.35 51.562,58.312 78.4,139.02 67.462,216.52 -19.4,150.22 -169.41,263.81 -318.51,253.25 -93.025,-6.975 -184.79,-37.862 -261.5,-91.212 -2.75,-0.475 -8.4625,-1.3375 -4.875,5.4375 -7.5,101.84 22.775,206.89 86.712,286.76 -44.012,29.562 -91.625,56.338 -137.22,83.475 -68.512,-138.79 -84.975,-304.31 -41.588,-453.56 3.575,-6.95 1.8,-13.5 -3.8875,-18.55 -68.388,-86.162 -107.04,-193.38 -119.14,-302.14 2.9,-9.1125 -7.025,-7.95 -8.925,-2.375 -69,110.95 -138.66,221.9 -200.34,337.11 -41.95,76.675 -79.362,157.2 -120.51,233.32 -2.2,-65.438 2.925,-135.66 3.3625,-202.99 3.4125,-102.06 -9.9875,-208.9 -60.562,-299.28 -14.888,-25.05 -33.538,-47.825 -55.85,-66.65 -52,-41.25 -122.36,-51.888 -186.86,-44.762 -0.475,-54.1 -3.5875,-108.2 -3.3625,-162.31 94.312,-0.4 191.46,27.462 263.7,89.838 87.838,75.088 129.36,191.02 138.7,303.58 -0.225,3.525 1.925,6.6625 5.725,5.125 75.538,-134.49 146.26,-272.01 215.32,-409.98 18.228,-36.895 28.452,-68.842 47.675,-98.575 m 438.19,353.14 c -70.025,6.3875 -128.48,54.125 -167.85,109.68 -32.1,44.325 -56.662,94.025 -72.462,146.4 -2.0125,5.2125 4.1125,7.725 7.15,10.725 48.55,41.938 111.85,64.138 175.35,68.4 43.325,1.7375 88.8,3.15 129.85,-13.15 58.438,-21.162 106.04,-73.738 115.44,-135.88 5,-38.238 -8.4125,-76.25 -30.825,-106.75 -33.812,-51.062 -93.575,-88.55 -156.65,-79.425 z"
       fill="#4b0ab3"
       id="path2"
       style="fill:none;stroke:#ffffff;stroke-width:29.1514;stroke-linecap:round;stroke-linejoin:round;stroke-dasharray:none;stroke-opacity:1" />
  </g>
</svg>
