<?xml version="1.0" encoding="UTF-8" standalone="no"?>
<svg
   height="394.97mm"
   width="292.6mm"
   version="1.1"
   viewBox="0 0 1036.761 1399.4878"
   id="svg6"
   sodipodi:docname="leoLOGO.svg"
   inkscape:version="1.2.1 (9c6d41e410, 2022-07-14)"
   xmlns:inkscape="http://www.inkscape.org/namespaces/inkscape"
   xmlns:sodipodi="http://sodipodi.sourceforge.net/DTD/sodipodi-0.dtd"
   xmlns="http://www.w3.org/2000/svg"
   xmlns:svg="http://www.w3.org/2000/svg">
  <defs
     id="defs10">
    <linearGradient
       id="linearGradient844"
       inkscape:swatch="solid">
      <stop
         style="stop-color:#ff7f2a;stop-opacity:1;"
         offset="0"
         id="stop842" />
    </linearGradient>
  </defs>
  <sodipodi:namedview
     id="namedview8"
     pagecolor="#ffffff"
     bordercolor="#000000"
     borderopacity="0.25"
     inkscape:showpageshadow="2"
     inkscape:pageopacity="0.0"
     inkscape:pagecheckerboard="0"
     inkscape:deskcolor="#d1d1d1"
     inkscape:document-units="mm"
     showgrid="false"
     inkscape:zoom="0.5312165"
     inkscape:cx="518.62094"
     inkscape:cy="752.04742"
     inkscape:window-width="1920"
     inkscape:window-height="1003"
     inkscape:window-x="0"
     inkscape:window-y="0"
     inkscape:window-maximized="1"
     inkscape:current-layer="g4" />
  <g
     transform="translate(-2.6631 5731.2)"
     id="g4">
    <path
       d="m 547.57612,-5710.1807 c 94.91709,-4.8832 197.27811,21.4886 264.1522,93.1586 78.19614,80.9509 97.66566,202.9603 84.01425,311.3256 -12.14315,64.7821 -35.5621,126.6351 -57.6318,188.4415 -28.83999,72.229 -56.67963,144.8952 -88.25473,215.9726 -41.76666,95.6366 -56.28255,209.1408 -15.842,307.6618 17.04668,37.4259 47.68118,73.2008 90.29112,79.1161 43.29613,7.2885 87.19461,-5.3328 126.01897,-24.2708 3.32491,-1.9192 9.84174,-6.3894 11.44444,-0.1821 18.79298,57.3246 42.01933,113.5255 58.61983,171.3767 -70.57023,16.3866 -145.66987,25.813 -216.22546,4.5068 -69.35285,-19.5215 -129.38243,-69.2291 -162.66046,-133.5738 -62.98059,-125.7314 -47.68117,-278.4107 5.87882,-404.7154 59.5111,-120.4155 120.49673,-241.3852 156.74309,-371.577 20.38316,-74.8771 13.88946,-157.7035 -21.9849,-226.7693 -17.04667,-30.8662 -41.51321,-58.2224 -72.72593,-74.8528 -45.93486,-25.4494 -100.52798,-29.7739 -151.86655,-25.9228 -55.78913,4.5068 -110.45453,28.2191 -149.09097,69.5207 -53.2834,61.4662 -74.10024,152.6598 -44.92197,229.8497 24.27475,70.2727 67.22104,131.8537 97.32836,199.4618 22.67203,49.2101 36.04108,100.2218 51.71636,154.1566 19.72395,98.6958 15.842,212.3769 -58.99262,281.9674 -60.71579,62.2194 -155.59623,87.3403 -239.10452,65.0017 -70.05251,-17.7236 -131.54118,-66.994 -164.443351,-131.7955 -45.0434009,-84.182 -36.77931,-194.4957 21.142585,-270.3641 58.052916,-81.4854 166.804516,-124.0307 263.997946,-98.4432 3.98749,1.4091 5.71018,-2.8304 2.98761,-5.527 -42.53767,-64.6364 -86.67708,-131.2125 -103.13009,-208.2081 -24.96093,-132.5048 35.26141,-278.8188 150.83535,-348.2344 48.29506,-30.1374 105.32742,-44.0826 161.70636,-47.072 m -307.09656,708.2276 c -46.23555,3.9115 -90.09836,30.9634 -113.31685,71.6459 -26.15305,43.4278 -28.213524,100.348 -6.27637,145.9643 25.49099,55.8541 88.56793,90.523 148.89822,82.9312 44.46515,-3.8628 86.27904,-29.4454 110.38707,-67.2601 26.89999,-39.9525 31.62232,-93.5726 14.10726,-138.2771 -22.72022,-61.6851 -88.74913,-103.0108 -153.80367,-95.0052 z"
       fill="#fcff00"
       id="path2"
       style="opacity:0.3;fill:none;fill-opacity:1;stroke:#ffffff;stroke-width:28.0221;stroke-linecap:round;stroke-linejoin:round;stroke-dasharray:none;stroke-opacity:1" />
  </g>
</svg>
