<?xml version="1.0" encoding="UTF-8" standalone="no"?>
<svg
   height="343.5mm"
   width="443.4mm"
   version="1.1"
   viewBox="0 0 1571.1172 1217.1088"
   id="svg6"
   sodipodi:docname="scorpioLOGO.svg"
   inkscape:version="1.2.1 (9c6d41e410, 2022-07-14)"
   xmlns:inkscape="http://www.inkscape.org/namespaces/inkscape"
   xmlns:sodipodi="http://sodipodi.sourceforge.net/DTD/sodipodi-0.dtd"
   xmlns="http://www.w3.org/2000/svg"
   xmlns:svg="http://www.w3.org/2000/svg">
  <defs
     id="defs10" />
  <sodipodi:namedview
     id="namedview8"
     pagecolor="#ffffff"
     bordercolor="#000000"
     borderopacity="0.25"
     inkscape:showpageshadow="2"
     inkscape:pageopacity="0.0"
     inkscape:pagecheckerboard="0"
     inkscape:deskcolor="#d1d1d1"
     inkscape:document-units="mm"
     showgrid="false"
     inkscape:zoom="0.43191067"
     inkscape:cx="823.08687"
     inkscape:cy="658.70102"
     inkscape:window-width="1920"
     inkscape:window-height="1003"
     inkscape:window-x="0"
     inkscape:window-y="0"
     inkscape:window-maximized="1"
     inkscape:current-layer="g4" />
  <g
     transform="translate(2663.4 6833.8)"
     id="g4"
     style="fill:#800000">
    <path
       d="m -2647.7833,-6815.8088 c 80.4579,27.4942 160.3819,73.3709 202.3513,149.7044 1.7413,4.9758 6.8183,-0.365 8.7804,-2.6034 45.2636,-60.0249 120.8751,-94.3677 196.1118,-92.4826 69.3719,-3.5401 141.6439,22.9084 186.1443,77.0207 5.3345,8.0536 12.3494,-3.3942 15.8322,-8.0414 72.5603,-80.9253 199.4571,-95.9016 296.581,-53.7601 60.1501,26.9345 102.1469,83.1754 121.552,144.6338 29.4315,95.6815 20.2097,199.0479 -6.5484,294.3187 -27.2124,108.7308 -65.1535,217.6563 -58.7894,331.2922 3.8015,78.5778 49.4566,158.7849 125.3192,188.3617 61.1802,25.3413 135.2082,2.1411 175.2253,-48.9298 1.7168,-5.3772 -0.2822,-7.7009 -6.0089,-6.9587 -43.2761,-7.859 -85.1307,-22.153 -124.7111,-40.9853 -6.4013,-1.0462 0.4047,-2.5061 2.097,-2.9076 122.7391,-17.3237 244.2421,-60.5241 342.8572,-135.5729 -14.4587,121.315 18.4554,241.9971 62.1494,354.2608 1.1773,2.4332 5.0402,9.3919 -0.5027,8.0659 -40.3703,-27.8105 -79.0609,-58.784 -110.7606,-96.2908 -2.8327,-4.3797 -8.4492,-0.9854 -10.4108,2.2992 -44.5024,49.6111 -100.9402,90.3657 -165.611,109.4705 -84.2348,27.2508 -179.8166,12.9928 -252.6594,-36.557 -49.8373,-32.2747 -88.6497,-79.5257 -114.0765,-132.5753 -30.4498,-62.166 -37.3535,-133.3149 -32.5708,-201.4712 8.3634,-104.0592 43.9265,-203.1161 72.3278,-302.8541 26.8925,-92.3978 43.9628,-199.2328 -2.4771,-288.1386 -27.6656,-55.9129 -101.1659,-69.404 -155.9084,-49.0885 -25.1639,7.859 -45.7051,27.7132 -55.6745,51.8135 -16.8741,45.2676 -13.7465,96.6802 4.1572,141.1302 -17.1566,0.1581 -36.6913,1.2774 -52.2037,4.9513 3.4337,113.6652 16.0893,227.2331 36.397,339.1853 -58.3725,-0.7056 -116.7351,-0.049 -175.0781,-0.3284 19.7073,-108.4681 30.8913,-219.0968 36.0418,-328.8105 -16.0647,-4.4891 -35.6611,3.4428 -52.8786,2.2384 3.8507,-49.5984 21.5341,-97.0693 36.3852,-144.0985 -12.4839,-41.9954 -52.854,-73.4556 -96.5843,-78.2118 -40.4683,-6.3626 -87.3507,-1.3261 -117.8732,28.4187 -42.7492,47.8837 -36.6539,121.967 -11.8216,176.3128 -15.7085,-0.2798 -31.1365,3.7349 -46.8333,3.4429 -4.427,-0.5596 -7.3824,5.2312 -5.4203,9.0512 2.7347,111.5143 12.6673,223.7488 41.6946,331.8665 -58.3725,-0.3163 -116.7448,-0.219 -175.1075,-0.061 28.573,-107.6408 39.3156,-219.6612 40.9588,-330.4943 -18.174,-1.3625 -36.3361,3.5158 -54.4728,4.1971 6.1071,-35.6937 17.4627,-70.4025 28.99,-104.7405 2.5385,-5.5839 5.9967,-12.3232 1.4103,-17.8103 -14.3234,-31.3754 -40.1367,-60.7908 -75.7487,-67.2512 -25.4828,-7.0803 -51.0754,4.7567 -72.4751,15.6206 -0.1226,-65.548 0.1962,-131.096 -0.1472,-196.6342 z"
       fill="#00e2ca"
       id="path2"
       style="opacity:0.3;fill:none;stroke:#ffffff;stroke-width:28.242;stroke-linecap:round;stroke-linejoin:round;stroke-dasharray:none;stroke-opacity:1;paint-order:normal" />
  </g>
</svg>
