<?xml version="1.0" encoding="UTF-8" standalone="no"?>
<svg
   height="911pt"
   width="710.07pt"
   version="1.1"
   viewBox="0 0 710.07001 911.00488"
   id="svg4"
   sodipodi:docname="taurusLOGO.svg"
   inkscape:version="1.2.1 (9c6d41e410, 2022-07-14)"
   xmlns:inkscape="http://www.inkscape.org/namespaces/inkscape"
   xmlns:sodipodi="http://sodipodi.sourceforge.net/DTD/sodipodi-0.dtd"
   xmlns="http://www.w3.org/2000/svg"
   xmlns:svg="http://www.w3.org/2000/svg">
  <defs
     id="defs8" />
  <sodipodi:namedview
     id="namedview6"
     pagecolor="#ffffff"
     bordercolor="#000000"
     borderopacity="0.25"
     inkscape:showpageshadow="2"
     inkscape:pageopacity="0.0"
     inkscape:pagecheckerboard="0"
     inkscape:deskcolor="#d1d1d1"
     inkscape:document-units="pt"
     showgrid="false"
     inkscape:zoom="0.65285401"
     inkscape:cx="431.18369"
     inkscape:cy="616.52375"
     inkscape:window-width="1920"
     inkscape:window-height="1003"
     inkscape:window-x="0"
     inkscape:window-y="0"
     inkscape:window-maximized="1"
     inkscape:current-layer="svg4" />
  <path
     d="m 584.27597,13.311456 c 37.01395,1.798083 74.4497,-0.933061 111.25272,2.371526 -15.16603,123.261138 -82.53121,243.353748 -189.90134,306.821268 -4.19893,1.03026 -3.44159,6.34675 0.1438,7.46449 100.89917,57.04301 161.918,177.36889 149.4458,293.79728 -7.06533,77.32735 -45.35429,150.86414 -103.60259,201.13276 -68.84152,60.88217 -166.25115,86.75514 -255.67515,67.68573 C 208.34628,875.46869 130.5221,815.63622 89.213337,735.76238 47.770381,657.22983 43.197562,559.51122 77.642287,477.48941 102.59626,416.36427 147.65339,363.8602 204.04188,330.58105 c 3.41285,-2.47844 -0.74775,-5.60808 -3.34573,-6.25927 C 90.70885,263.19662 21.474283,140.07157 14.811583,14.331989 c 37.646655,-0.242984 75.29331,0.15551 112.939977,-0.194387 -6.39427,68.404966 15.86587,138.996808 60.29984,190.849678 36.2566,42.70694 88.20649,72.45795 143.77054,78.73666 60.07934,8.51417 122.43072,-11.08981 169.4435,-49.32583 64.5563,-51.18224 97.09328,-139.30783 83.01053,-221.086654 M 342.10838,355.83199 c -48.5754,4.85969 -96.61395,24.12349 -132.74592,57.90804 -63.914,57.30544 -88.29277,155.33506 -57.77856,236.44326 18.68433,55.20605 60.53951,101.4314 112.9112,125.58405 63.32922,30.23697 141.54645,26.24231 201.482,-10.48721 36.56336,-21.50898 66.29147,-54.52569 84.50604,-93.1505 35.19248,-71.6804 26.77543,-162.73151 -20.5633,-226.72388 -42.51666,-59.01604 -115.9981,-93.36431 -187.81146,-89.57376 z"
     fill="#f75500"
     id="path2"
     style="opacity:0.3;fill:none;fill-opacity:1;stroke:#ffffff;stroke-width:22.3002;stroke-linecap:round;stroke-linejoin:round;stroke-dasharray:none;stroke-opacity:1" />
</svg>
