<?xml version="1.0" encoding="UTF-8" standalone="no"?>
<svg
   height="349.12mm"
   width="396.86mm"
   version="1.1"
   viewBox="0 0 1406.1846 1237.0375"
   id="svg6"
   sodipodi:docname="virgoLOGO.svg"
   inkscape:version="1.2.1 (9c6d41e410, 2022-07-14)"
   xmlns:inkscape="http://www.inkscape.org/namespaces/inkscape"
   xmlns:sodipodi="http://sodipodi.sourceforge.net/DTD/sodipodi-0.dtd"
   xmlns="http://www.w3.org/2000/svg"
   xmlns:svg="http://www.w3.org/2000/svg">
  <defs
     id="defs10" />
  <sodipodi:namedview
     id="namedview8"
     pagecolor="#ffffff"
     bordercolor="#000000"
     borderopacity="0.25"
     inkscape:showpageshadow="2"
     inkscape:pageopacity="0.0"
     inkscape:pagecheckerboard="0"
     inkscape:deskcolor="#d1d1d1"
     inkscape:document-units="mm"
     showgrid="false"
     inkscape:zoom="0.60098129"
     inkscape:cx="674.72982"
     inkscape:cy="679.72166"
     inkscape:window-width="1920"
     inkscape:window-height="1003"
     inkscape:window-x="0"
     inkscape:window-y="0"
     inkscape:window-maximized="1"
     inkscape:current-layer="svg6" />
  <g
     transform="matrix(0.99228919,0,0,0.98786412,1119.8038,6060.9903)"
     id="g4"
     style="stroke-width:28.63059578;stroke-dasharray:none;opacity:1">
    <path
       d="m -1112.6118,-6119.7847 c 76.869,21.8935 149.37321,70.9548 187.22954,143.2334 0.98661,3.9763 7.49826,5.384 9.26183,1.6053 75.93168,-118.8919 274.79134,-130.0452 356.32501,-12.0897 9.00284,3.9886 11.61736,-10.3353 18.30167,-14.2996 85.72479,-102.424 268.54609,-96.8622 345.25522,13.4599 8.3862,13.781 15.23132,-6.8782 22.21062,-11.6452 72.06021,-94.9851 218.386706,-115.1676 317.6794,-52.1485 38.73638,23.7468 67.98945,60.1741 88.49915,100.2802 36.88747,76.1907 48.18419,163.5346 39.98248,247.3566 -11.71603,178.6887 -70.40665,353.7617 -167.81294,503.7424 -4.00811,7.9648 -17.278548,19.4119 -6.018339,27.4632 48.874819,49.011 104.857189,92.2072 165.958109,124.2759 0.92495,1.6918 0.81395,3.8405 -0.25899,5.4828 -25.65193,44.2948 -51.94515,88.1569 -77.51026,132.4952 -0.92495,1.4447 -1.93623,3.5687 -4.02044,3.1612 -58.75279,-45.1582 -111.339237,-98.0476 -158.578249,-155.0585 -2.92284,-2.4697 -5.29071,-8.2858 -9.890792,-6.3842 -41.191077,55.0499 -85.403162,107.8573 -132.314619,158.0715 -4.92073,4.3714 -8.78085,12.8919 -15.7858,13.0401 -29.99303,-50.1233 -59.14743,-100.6655 -88.83263,-150.9686 -1.43059,-2.729 -4.53842,-6.7423 -2.23221,-9.6813 61.90994,-17.7206 117.19971,-54.062 166.046904,-95.5897 3.403814,-3.0254 9.644139,-7.4462 5.808682,-12.4849 -115.068636,-173.3541 -174.245656,-382.1337 -171.631136,-590.1033 -10.75408,-4.359 -26.68787,-0.1111 -39.13103,-1.7658 1.70191,-41.0467 12.7273,-81.0679 24.13452,-120.3146 -5.80868,-45.8872 -41.08058,-91.6382 -88.86913,-98.828 -39.06986,-6.483 -86.4026,0.284 -111.83254,33.9714 -34.64195,51.8393 -30.62249,120.6702 -12.37015,177.8094 -15.08334,1.7782 -30.36301,1.84 -45.38418,4.1368 3.84779,116.8668 15.07051,233.7929 34.33412,349.1285 -53.7329,-0.1358 -107.46185,0.087 -161.20264,-0.099 -4.8344,0.2964 -1.61558,-5.8285 -1.35659,-8.5205 18.16551,-109.843 28.09379,-221.0294 32.97752,-332.1369 -15.57664,-1.1607 -30.95497,2.939 -46.48129,2.2351 4.14377,-48.9497 21.20033,-95.8248 32.95286,-142.9667 -8.58353,-29.6741 -26.77469,-58.5935 -54.01704,-74.3008 -48.04803,-25.0182 -119.1828,-22.4991 -152.90522,24.9441 -32.20107,52.6049 -26.95919,121.3913 -4.13144,176.2189 -12.81413,10.5822 -51.01972,-7.3968 -48.49201,17.0292 2.76251,112.6683 11.45654,226.7987 38.72454,336.1872 -52.35164,2.2968 -110.1849,2.3586 -162.28789,-0.037 24.61597,-111.0383 36.45532,-225.4354 37.21994,-338.8248 -16.94507,-1.7535 -34.16146,1.4324 -51.10656,3.0254 6.33902,-34.7489 16.89577,-68.5346 27.29171,-102.2363 1.33192,-6.0137 6.38831,-12.1134 3.34215,-18.424 -6.89396,-18.6098 -16.50114,-36.7869 -30.62156,-50.9008 -23.3827,-29.7847 -70.2843,-39.1449 -101.7986,-16.8681 -2.0226,0.7038 -6.08,5.6309 -6.487,1.4324 -0.518,-61.0394 -0.1357,-122.0927 -0.1973,-183.1144 m 1127.895524,154.772 c -26.280401,2.2721 -52.673275,13.2623 -70.049497,33.6493 -39.538505,47.8749 -47.702727,114.1798 -45.273677,174.3025 -12.59116,-0.3458 -28.43911,-4.2726 -38.87254,0.7532 -0.45631,178.7085 55.361794,359.4124 165.662125,501.1146 2.515862,4.3591 6.930954,1.1361 8.435538,-2.0251 99.401217,-140.4378 147.991887,-314.7303 143.463337,-486.2568 0.14799,-38.9602 -7.23927,-77.8078 -19.94141,-114.575 -12.17283,-34.2055 -30.03052,-69.0413 -61.317974,-89.2801 -23.938182,-16.0284 -53.709218,-21.5112 -82.110836,-17.6831 z"
       fill="#83fb00"
       id="path2"
       style="opacity:0.3;fill:none;fill-opacity:1;stroke:#f9ffff;stroke-width:28.63059578;stroke-linecap:round;stroke-linejoin:round;stroke-dasharray:none;stroke-opacity:1;paint-order:normal" />
  </g>
</svg>
